#VRML V2.0 utf8
# 3D model generated by easyeda2kicad.py (https://github.com/uPesy/easyeda2kicad.py)

Shape{
    appearance Appearance {
        material  Material 	{
            diffuseColor 0.7764705882352941 0.7568627450980392 0.7372549019607844
            specularColor 0.38823529411764707 0.3764705882352941 0.3686274509803922
            ambientIntensity 0.2
            transparency 0
            shininess 0.5
        }
    }
    geometry IndexedFaceSet {
        ccw TRUE
        solid FALSE
        coord DEF co Coordinate {
            point [
                0.509 -0.1252 0.1496, 0.4036 -0.3886 0.1496, 0.509 -0.1252 0.1339, 0.4036 -0.3886 0.1339, 0.5118 0.1105 0.1496, 0.5118 -0.1105 0.1496, 0.5118 0.1105 0.1339, 0.5118 -0.1105 0.1339, 0.4036 0.3886 0.1496, 0.509 0.1252 0.1496, 0.4036 0.3886 0.1339, 0.509 0.1252 0.1339, -0.367 0.4134 0.1496, 0.367 0.4134 0.1496, -0.367 0.4134 0.1339, 0.367 0.4134 0.1339, -0.509 0.1252 0.1496, -0.4036 0.3886 0.1496, -0.509 0.1252 0.1339, -0.4036 0.3886 0.1339, -0.5118 -0.1105 0.1496, -0.5118 0.1105 0.1496, -0.5118 -0.1105 0.1339, -0.5118 0.1105 0.1339, -0.509 -0.1252 0.1339, -0.4036 -0.3886 0.1339, -0.509 -0.1252 0.1496, -0.4036 -0.3886 0.1496, 0.367 -0.4134 0.1496, -0.367 -0.4134 0.1496, 0.367 -0.4134 0.1339, -0.367 -0.4134 0.1339, -0.1471 -0.0782 0.1496, -0.1566 -0.057 0.1496, 0.0731 -0.1498 0.1496, 0.0515 -0.1585 0.1496, -0.5111 -0.118 0.1496, -0.163 -0.0346 0.1496, -0.1662 -0.0116 0.1496, 0.0289 -0.1641 0.1496, 0.0058 -0.1665 0.1496, -0.1348 -0.098 0.1496, -0.1199 -0.1158 0.1496, -0.3991 -0.3968 0.1496, -0.3928 -0.4038 0.1496, -0.1662 0.0116 0.1496, -0.163 0.0346 0.1496, -0.5111 0.118 0.1496, -0.1566 0.057 0.1496, -0.1471 0.0782 0.1496, -0.0174 -0.1657 0.1496, -0.0403 -0.1617 0.1496, -0.0624 -0.1545 0.1496, -0.0833 -0.1443 0.1496, -0.1026 -0.1313 0.1496, -0.3763 -0.4123 0.1496, -0.3851 -0.409 0.1496, 0.0289 0.1641 0.1496, 0.0515 0.1585 0.1496, 0.1277 0.1071 0.1496, 0.1413 0.0883 0.1496, 0.3851 -0.409 0.1496, 0.1277 -0.1071 0.1496, 0.3763 -0.4123 0.1496, 0.1115 -0.1238 0.1496, 0.0932 -0.1382 0.1496, -0.0833 0.1443 0.1496, -0.0624 0.1545 0.1496, 0.3928 -0.4038 0.1496, 0.3991 -0.3968 0.1496, -0.1348 0.098 0.1496, -0.1199 0.1158 0.1496, -0.3991 0.3968 0.1496, -0.1026 0.1313 0.1496, -0.3928 0.4038 0.1496, -0.3851 0.409 0.1496, -0.0403 0.1617 0.1496, -0.0174 0.1657 0.1496, 0.0058 0.1665 0.1496, -0.3763 0.4123 0.1496, 0.1115 0.1238 0.1496, 0.3991 0.3968 0.1496, 0.3928 0.4038 0.1496, 0.0731 0.1498 0.1496, 0.0932 0.1382 0.1496, 0.3763 0.4123 0.1496, 0.3851 0.409 0.1496, 0.1522 0.0678 0.1496, 0.1602 0.0459 0.1496, 0.5111 0.118 0.1496, 0.165 0.0232 0.1496, 0.1666 0.0 0.1496, 0.165 -0.0232 0.1496, 0.5111 -0.118 0.1496, 0.1602 -0.0459 0.1496, 0.1522 -0.0678 0.1496, 0.1413 -0.0883 0.1496, 0.5111 0.118 0.1339, -0.5111 -0.118 0.1339, 0.5111 -0.118 0.1339, -0.5111 0.118 0.1339, 0.3928 -0.4038 0.1339, 0.3851 -0.409 0.1339, 0.3763 -0.4123 0.1339, -0.3763 -0.4123 0.1339, 0.3991 -0.3968 0.1339, 0.3763 0.4123 0.1339, 0.3851 0.409 0.1339, 0.3928 0.4038 0.1339, -0.3851 -0.409 0.1339, -0.3928 -0.4038 0.1339, -0.3991 -0.3968 0.1339, -0.3991 0.3968 0.1339, -0.3763 0.4123 0.1339, -0.3928 0.4038 0.1339, -0.3851 0.409 0.1339, 0.3991 0.3968 0.1339, 0.1186 0.0862 0.1686, 0.1126 0.0945 0.1686, 0.1067 0.099 0.2093, 0.0971 0.1079 0.2093, 0.0983 0.1092 0.1686, 0.0907 0.1138 0.2093, 0.0822 0.1218 0.1686, 0.0728 0.1261 0.2093, 0.0454 0.1398 0.1686, 0.0532 0.1355 0.2093, 0.0644 0.1321 0.1686, 0.0733 0.127 0.1686, -0.0154 0.1462 0.1686, -0.0109 0.1451 0.2093, 0.0051 0.1469 0.1686, 0.0109 0.1451 0.2093, 0.0153 0.1458 0.1686, 0.0152 0.1445 0.2093, 0.0255 0.1447 0.1686, 0.0324 0.1419 0.2093, 0.0449 0.1381 0.2093, -0.1339 0.0596 0.1686, -0.1327 0.0591 0.2093, -0.1311 0.0632 0.2093, -0.1298 0.069 0.1686, -0.1203 0.082 0.2093, -0.1189 0.0864 0.1686, -0.1175 0.0854 0.2093, -0.1057 0.1021 0.1686, -0.1067 0.099 0.2093, -0.0981 0.109 0.1686, -0.0971 0.1079 0.2093, -0.0905 0.1158 0.1686, -0.0907 0.1138 0.2093, -0.0735 0.1273 0.1686, -0.0728 0.1261 0.2093, -0.0551 0.1363 0.1686, -0.0532 0.1355 0.2093, -0.0453 0.1394 0.1686, -0.0449 0.1381 0.2093, -0.0356 0.1426 0.1686, -0.0324 0.1419 0.2093, -0.0152 0.1445 0.2093, -0.1391 0.0429 0.2093, -0.1381 0.0503 0.1686, -0.142 0.0302 0.2093, -0.1438 0.0306 0.1686, -0.1439 0.0217 0.2093, -0.1466 0.0103 0.1686, -0.1456 -0.0 0.2093, -0.1438 -0.0306 0.1686, -0.1439 -0.0217 0.2093, -0.1466 -0.0103 0.1686, -0.1466 -0.0 0.1686, -0.1189 -0.0864 0.1686, -0.1203 -0.082 0.2093, -0.1298 -0.069 0.1686, -0.1311 -0.0632 0.2093, -0.1339 -0.0596 0.1686, -0.1327 -0.0591 0.2093, -0.1381 -0.0503 0.1686, -0.1391 -0.0429 0.2093, -0.142 -0.0302 0.2093, 0.0153 -0.1458 0.1686, 0.0152 -0.1445 0.2093, 0.0109 -0.1451 0.2093, 0.0051 -0.1469 0.1686, -0.0109 -0.1451 0.2093, -0.0154 -0.1462 0.1686, -0.0152 -0.1445 0.2093, -0.0356 -0.1426 0.1686, -0.0324 -0.1419 0.2093, -0.0453 -0.1394 0.1686, -0.0449 -0.1381 0.2093, -0.0551 -0.1363 0.1686, -0.0532 -0.1355 0.2093, -0.0735 -0.1273 0.1686, -0.0728 -0.1261 0.2093, -0.0905 -0.1158 0.1686, -0.0907 -0.1138 0.2093, -0.0981 -0.109 0.1686, -0.0971 -0.1079 0.2093, -0.1057 -0.1021 0.1686, -0.1067 -0.099 0.2093, -0.1175 -0.0854 0.2093, 0.0324 -0.1419 0.2093, 0.0255 -0.1447 0.1686, 0.0449 -0.1381 0.2093, 0.0454 -0.1398 0.1686, 0.0532 -0.1355 0.2093, 0.0644 -0.1321 0.1686, 0.0728 -0.1261 0.2093, 0.0983 -0.1092 0.1686, 0.0907 -0.1138 0.2093, 0.0822 -0.1218 0.1686, 0.0733 -0.127 0.1686, 0.1343 -0.0598 0.1686, 0.1311 -0.0632 0.2093, 0.1246 -0.0779 0.1686, 0.1203 -0.082 0.2093, 0.1186 -0.0862 0.1686, 0.1175 -0.0854 0.2093, 0.1126 -0.0945 0.1686, 0.1067 -0.099 0.2093, 0.0971 -0.1079 0.2093, 0.1175 0.0854 0.2093, 0.1203 0.082 0.2093, 0.1246 0.0779 0.1686, 0.1311 0.0632 0.2093, 0.1343 0.0598 0.1686, 0.1327 0.0591 0.2093, 0.1413 0.0405 0.1686, 0.1391 0.0429 0.2093, 0.1434 0.0305 0.1686, 0.142 0.0302 0.2093, 0.1455 0.0205 0.1686, 0.1439 0.0217 0.2093, 0.147 0.0 0.1686, 0.1456 0.0 0.2093, 0.1455 -0.0205 0.1686, 0.1439 -0.0217 0.2093, 0.1434 -0.0305 0.1686, 0.142 -0.0302 0.2093, 0.1413 -0.0405 0.1686, 0.1391 -0.0429 0.2093, 0.1327 -0.0591 0.2093, 0.1327 -0.0591 0.2093
            ]
        }
        coordIndex [
            0,1,2,-1,2,1,3,-1,4,5,6,-1,6,5,7,-1,8,9,10,-1,10,9,11,-1,12,13,14,-1,14,13,15,-1,16,17,18,-1,18,17,19,-1,20,21,22,-1,22,21,23,-1,24,25,26,-1,26,25,27,-1,28,29,30,-1,30,29,31,-1,26,32,33,-1,28,34,35,-1,26,33,36,-1,36,33,37,-1,36,37,20,-1,20,37,38,-1,20,38,21,-1,35,39,28,-1,28,39,40,-1,28,40,29,-1,32,26,41,-1,41,26,27,-1,41,27,42,-1,42,27,43,-1,42,43,44,-1,38,45,21,-1,21,45,46,-1,21,46,47,-1,47,46,48,-1,47,48,16,-1,16,48,49,-1,16,49,17,-1,40,50,29,-1,29,50,51,-1,29,51,52,-1,52,53,29,-1,29,53,54,-1,29,54,55,-1,55,54,42,-1,55,42,56,-1,56,42,44,-1,57,58,13,-1,59,60,8,-1,61,62,63,-1,63,62,64,-1,63,64,28,-1,28,64,65,-1,28,65,34,-1,12,66,67,-1,8,60,9,-1,61,68,62,-1,62,68,69,-1,62,69,1,-1,49,70,17,-1,17,70,71,-1,17,71,72,-1,72,71,73,-1,72,73,74,-1,74,73,75,-1,67,76,12,-1,12,76,77,-1,12,77,13,-1,13,77,78,-1,13,78,57,-1,66,12,73,-1,73,12,79,-1,73,79,75,-1,59,8,80,-1,80,8,81,-1,80,81,82,-1,58,83,13,-1,13,83,84,-1,13,84,85,-1,85,84,80,-1,85,80,86,-1,86,80,82,-1,60,87,9,-1,9,87,88,-1,9,88,89,-1,89,88,90,-1,89,90,4,-1,4,90,91,-1,4,91,5,-1,5,91,92,-1,5,92,93,-1,93,92,94,-1,93,94,0,-1,0,94,95,-1,0,95,1,-1,1,95,96,-1,1,96,62,-1,6,7,18,-1,25,24,3,-1,2,22,23,-1,6,18,97,-1,3,24,2,-1,2,24,98,-1,2,98,22,-1,7,99,18,-1,18,99,2,-1,18,2,100,-1,100,2,23,-1,101,102,103,-1,14,10,18,-1,18,10,11,-1,18,11,97,-1,25,31,104,-1,31,25,30,-1,30,25,3,-1,30,3,103,-1,103,3,105,-1,103,105,101,-1,106,107,108,-1,109,110,104,-1,104,110,111,-1,104,111,25,-1,18,19,14,-1,14,19,112,-1,14,112,113,-1,113,112,114,-1,113,114,115,-1,14,15,10,-1,10,15,106,-1,10,106,116,-1,116,106,108,-1,117,118,119,-1,119,118,120,-1,120,118,121,-1,120,121,122,-1,122,121,123,-1,122,123,124,-1,125,126,127,-1,127,126,124,-1,127,124,128,-1,128,124,123,-1,129,130,131,-1,131,130,132,-1,131,132,133,-1,133,132,134,-1,133,134,135,-1,135,134,136,-1,135,136,125,-1,125,136,137,-1,125,137,126,-1,138,139,140,-1,138,140,141,-1,141,140,142,-1,141,142,143,-1,143,142,144,-1,143,144,145,-1,145,144,146,-1,145,146,147,-1,147,146,148,-1,147,148,149,-1,149,148,150,-1,149,150,151,-1,151,150,152,-1,151,152,153,-1,153,152,154,-1,153,154,155,-1,155,154,156,-1,155,156,157,-1,157,156,158,-1,157,158,129,-1,129,158,159,-1,129,159,130,-1,139,138,160,-1,160,138,161,-1,160,161,162,-1,162,161,163,-1,162,163,164,-1,164,163,165,-1,164,165,166,-1,167,168,169,-1,169,168,166,-1,169,166,170,-1,170,166,165,-1,171,172,173,-1,173,172,174,-1,173,174,175,-1,175,174,176,-1,175,176,177,-1,177,176,178,-1,177,178,167,-1,167,178,179,-1,167,179,168,-1,180,181,182,-1,180,182,183,-1,183,182,184,-1,183,184,185,-1,185,184,186,-1,185,186,187,-1,187,186,188,-1,187,188,189,-1,189,188,190,-1,189,190,191,-1,191,190,192,-1,191,192,193,-1,193,192,194,-1,193,194,195,-1,195,194,196,-1,195,196,197,-1,197,196,198,-1,197,198,199,-1,199,198,200,-1,199,200,171,-1,171,200,201,-1,171,201,172,-1,181,180,202,-1,202,180,203,-1,202,203,204,-1,204,203,205,-1,204,205,206,-1,206,205,207,-1,206,207,208,-1,209,210,211,-1,211,210,208,-1,211,208,212,-1,212,208,207,-1,213,214,215,-1,215,214,216,-1,215,216,217,-1,217,216,218,-1,217,218,219,-1,219,218,220,-1,219,220,209,-1,209,220,221,-1,209,221,210,-1,119,222,117,-1,117,222,223,-1,117,223,224,-1,224,223,225,-1,224,225,226,-1,226,225,227,-1,226,227,228,-1,228,227,229,-1,228,229,230,-1,230,229,231,-1,230,231,232,-1,232,231,233,-1,232,233,234,-1,234,233,235,-1,234,235,236,-1,236,235,237,-1,236,237,238,-1,238,237,239,-1,238,239,240,-1,240,239,241,-1,240,241,213,-1,213,241,242,-1,213,242,214,-1,
        ]
    }
}
Shape{
    appearance Appearance {
        material  Material 	{
            diffuseColor 0.10980392156862745 0.10980392156862745 0.10980392156862745
            specularColor 0.0784313725490196 0.0784313725490196 0.0784313725490196
            ambientIntensity 0.2
            transparency 0
            shininess 0.5
        }
    }
    geometry IndexedFaceSet {
        ccw TRUE
        solid FALSE
        coord DEF co Coordinate {
            point [
                0.1203 -0.0371 0.2283, 0.1245 -0.0188 0.2283, 0.0 0.0 0.2283, 0.1259 -0.0 0.2283, 0.1245 0.0188 0.2283, 0.0923 -0.0856 0.2283, 0.104 -0.0709 0.2283, 0.1134 -0.0546 0.2283, 0.046 -0.1172 0.2283, 0.0629 -0.109 0.2283, 0.0785 -0.0984 0.2283, -0.0094 -0.1255 0.2283, 0.0094 -0.1255 0.2283, 0.028 -0.1227 0.2283, -0.0629 -0.109 0.2283, -0.046 -0.1172 0.2283, -0.028 -0.1227 0.2283, -0.104 -0.0709 0.2283, -0.0923 -0.0856 0.2283, -0.0785 -0.0984 0.2283, -0.1245 -0.0188 0.2283, -0.1203 -0.0371 0.2283, -0.1134 -0.0546 0.2283, -0.1203 0.0371 0.2283, -0.1245 0.0188 0.2283, -0.1259 -0.0 0.2283, -0.0923 0.0856 0.2283, -0.104 0.0709 0.2283, -0.1134 0.0546 0.2283, -0.046 0.1172 0.2283, -0.0629 0.109 0.2283, -0.0785 0.0984 0.2283, 0.0094 0.1255 0.2283, -0.0094 0.1255 0.2283, -0.028 0.1227 0.2283, 0.0629 0.109 0.2283, 0.046 0.1172 0.2283, 0.028 0.1227 0.2283, 0.104 0.0709 0.2283, 0.0923 0.0856 0.2283, 0.0785 0.0984 0.2283, 0.1203 0.0371 0.2283, 0.1134 0.0546 0.2283, 0.1134 0.0546 0.2283
            ]
        }
        coordIndex [
            0,1,2,-1,2,1,3,-1,2,3,4,-1,5,6,2,-1,2,6,7,-1,2,7,0,-1,8,9,2,-1,2,9,10,-1,2,10,5,-1,11,12,2,-1,2,12,13,-1,2,13,8,-1,14,15,2,-1,2,15,16,-1,2,16,11,-1,17,18,2,-1,2,18,19,-1,2,19,14,-1,20,21,2,-1,2,21,22,-1,2,22,17,-1,23,24,2,-1,2,24,25,-1,2,25,20,-1,26,27,2,-1,2,27,28,-1,2,28,23,-1,29,30,2,-1,2,30,31,-1,2,31,26,-1,32,33,2,-1,2,33,34,-1,2,34,29,-1,35,36,2,-1,2,36,37,-1,2,37,32,-1,38,39,2,-1,2,39,40,-1,2,40,35,-1,4,41,2,-1,2,41,42,-1,2,42,38,-1,
        ]
    }
}
Shape{
    appearance Appearance {
        material  Material 	{
            diffuseColor 0.7764705882352941 0.7568627450980392 0.7372549019607844
            specularColor 0.38823529411764707 0.3764705882352941 0.3686274509803922
            ambientIntensity 0.2
            transparency 0
            shininess 0.5
        }
    }
    geometry IndexedFaceSet {
        ccw TRUE
        solid FALSE
        coord DEF co Coordinate {
            point [
                -0.5118 -0.1105 0.1496, -0.5118 -0.1105 0.1339, -0.5111 -0.118 0.1339, -0.5111 -0.118 0.1496, -0.509 -0.1252 0.1339, -0.509 -0.1252 0.1496, -0.509 0.1252 0.1496, -0.509 0.1252 0.1339, -0.5111 0.118 0.1339, -0.5111 0.118 0.1496, -0.5118 0.1105 0.1339, -0.5118 0.1105 0.1496, -0.367 0.4134 0.1496, -0.367 0.4134 0.1339, -0.3763 0.4123 0.1339, -0.3763 0.4123 0.1496, -0.3851 0.409 0.1339, -0.3851 0.409 0.1496, -0.3928 0.4038 0.1339, -0.3928 0.4038 0.1496, -0.3991 0.3968 0.1339, -0.3991 0.3968 0.1496, -0.4036 0.3886 0.1339, -0.4036 0.3886 0.1496, 0.4036 0.3886 0.1496, 0.4036 0.3886 0.1339, 0.3991 0.3968 0.1339, 0.3991 0.3968 0.1496, 0.3928 0.4038 0.1339, 0.3928 0.4038 0.1496, 0.3851 0.409 0.1339, 0.3851 0.409 0.1496, 0.3763 0.4123 0.1339, 0.3763 0.4123 0.1496, 0.367 0.4134 0.1339, 0.367 0.4134 0.1496, 0.5118 0.1105 0.1496, 0.5118 0.1105 0.1339, 0.5111 0.118 0.1339, 0.5111 0.118 0.1496, 0.509 0.1252 0.1339, 0.509 0.1252 0.1496, 0.509 -0.1252 0.1496, 0.509 -0.1252 0.1339, 0.5111 -0.118 0.1339, 0.5111 -0.118 0.1496, 0.5118 -0.1105 0.1339, 0.5118 -0.1105 0.1496, 0.367 -0.4134 0.1496, 0.367 -0.4134 0.1339, 0.3763 -0.4123 0.1339, 0.3763 -0.4123 0.1496, 0.3851 -0.409 0.1339, 0.3851 -0.409 0.1496, 0.3928 -0.4038 0.1339, 0.3928 -0.4038 0.1496, 0.3991 -0.3968 0.1339, 0.3991 -0.3968 0.1496, 0.4036 -0.3886 0.1339, 0.4036 -0.3886 0.1496, -0.4036 -0.3886 0.1496, -0.4036 -0.3886 0.1339, -0.3991 -0.3968 0.1339, -0.3991 -0.3968 0.1496, -0.3928 -0.4038 0.1339, -0.3928 -0.4038 0.1496, -0.3851 -0.409 0.1339, -0.3851 -0.409 0.1496, -0.3763 -0.4123 0.1339, -0.3763 -0.4123 0.1496, -0.367 -0.4134 0.1339, -0.367 -0.4134 0.1496, 0.142 0.0302 0.2093, 0.1391 0.0429 0.2093, 0.1383 0.0427 0.2143, 0.1175 0.0854 0.2093, 0.1067 0.099 0.2093, 0.1061 0.0984 0.2143, 0.0449 0.1381 0.2093, 0.0324 0.1419 0.2093, 0.0322 0.1411 0.2143, -0.0152 0.1445 0.2093, -0.0324 0.1419 0.2093, -0.0322 0.1411 0.2143, -0.0971 0.1079 0.2093, -0.1067 0.099 0.2093, -0.1061 0.0984 0.2143, -0.1327 0.0591 0.2093, -0.1391 0.0429 0.2093, -0.1383 0.0427 0.2143, -0.142 -0.0302 0.2093, -0.1391 -0.0429 0.2093, -0.1383 -0.0427 0.2143, -0.1175 -0.0854 0.2093, -0.1067 -0.099 0.2093, -0.1061 -0.0984 0.2143, -0.0449 -0.1381 0.2093, -0.0324 -0.1419 0.2093, -0.0322 -0.1411 0.2143, 0.0152 -0.1445 0.2093, 0.0324 -0.1419 0.2093, 0.0322 -0.1411 0.2143, 0.0971 -0.1079 0.2093, 0.1067 -0.099 0.2093, 0.1061 -0.0984 0.2143, 0.1327 -0.0591 0.2093, 0.1391 -0.0429 0.2093, 0.1383 -0.0427 0.2143, 0.1245 -0.0188 0.2283, 0.1203 -0.0371 0.2283, 0.1294 -0.0195 0.2277, 0.125 -0.0386 0.2277, 0.134 -0.0202 0.2258, 0.1295 -0.0399 0.2258, 0.138 -0.0208 0.2228, 0.1334 -0.0411 0.2228, 0.1411 -0.0213 0.2189, 0.1364 -0.0421 0.2189, 0.1431 -0.0216 0.2143, 0.104 -0.0709 0.2283, 0.0923 -0.0856 0.2283, 0.1081 -0.0737 0.2277, 0.0959 -0.089 0.2277, 0.112 -0.0763 0.2258, 0.0993 -0.0922 0.2258, 0.1153 -0.0786 0.2228, 0.1023 -0.0949 0.2228, 0.1179 -0.0804 0.2189, 0.1046 -0.0971 0.2189, 0.1196 -0.0815 0.2143, 0.046 -0.1172 0.2283, 0.028 -0.1227 0.2283, 0.0478 -0.1218 0.2277, 0.0291 -0.1276 0.2277, 0.0495 -0.1262 0.2258, 0.0302 -0.1321 0.2258, 0.051 -0.1299 0.2228, 0.0311 -0.1361 0.2228, 0.0521 -0.1328 0.2189, 0.0318 -0.1391 0.2189, 0.0529 -0.1347 0.2143, -0.0094 -0.1255 0.2283, -0.028 -0.1227 0.2283, -0.0098 -0.1305 0.2277, -0.0291 -0.1276 0.2277, -0.0101 -0.1351 0.2258, -0.0302 -0.1321 0.2258, -0.0104 -0.1392 0.2228, -0.0311 -0.1361 0.2228, -0.0107 -0.1423 0.2189, -0.0318 -0.1391 0.2189, -0.0108 -0.1443 0.2143, -0.0785 -0.0984 0.2283, -0.0923 -0.0856 0.2283, -0.0816 -0.1023 0.2277, -0.0959 -0.089 0.2277, -0.0845 -0.106 0.2258, -0.0993 -0.0922 0.2258, -0.087 -0.1091 0.2228, -0.1023 -0.0949 0.2228, -0.089 -0.1116 0.2189, -0.1046 -0.0971 0.2189, -0.0902 -0.1132 0.2143, -0.1134 -0.0546 0.2283, -0.1203 -0.0371 0.2283, -0.1179 -0.0568 0.2277, -0.125 -0.0386 0.2277, -0.1221 -0.0588 0.2258, -0.1295 -0.0399 0.2258, -0.1257 -0.0605 0.2228, -0.1334 -0.0411 0.2228, -0.1286 -0.0619 0.2189, -0.1364 -0.0421 0.2189, -0.1304 -0.0628 0.2143, -0.1245 0.0188 0.2283, -0.1203 0.0371 0.2283, -0.1294 0.0195 0.2277, -0.125 0.0386 0.2277, -0.134 0.0202 0.2258, -0.1295 0.0399 0.2258, -0.138 0.0208 0.2228, -0.1334 0.0411 0.2228, -0.1411 0.0213 0.2189, -0.1364 0.0421 0.2189, -0.1431 0.0216 0.2143, -0.104 0.0709 0.2283, -0.0923 0.0856 0.2283, -0.1081 0.0737 0.2277, -0.0959 0.089 0.2277, -0.112 0.0763 0.2258, -0.0993 0.0922 0.2258, -0.1153 0.0786 0.2228, -0.1023 0.0949 0.2228, -0.1179 0.0804 0.2189, -0.1046 0.0971 0.2189, -0.1196 0.0815 0.2143, -0.046 0.1172 0.2283, -0.028 0.1227 0.2283, -0.0478 0.1218 0.2277, -0.0291 0.1276 0.2277, -0.0495 0.1262 0.2258, -0.0302 0.1321 0.2258, -0.051 0.1299 0.2228, -0.0311 0.1361 0.2228, -0.0521 0.1328 0.2189, -0.0318 0.1391 0.2189, -0.0529 0.1347 0.2143, 0.0094 0.1255 0.2283, 0.028 0.1227 0.2283, 0.0098 0.1305 0.2277, 0.0291 0.1276 0.2277, 0.0101 0.1351 0.2258, 0.0302 0.1321 0.2258, 0.0104 0.1392 0.2228, 0.0311 0.1361 0.2228, 0.0107 0.1423 0.2189, 0.0318 0.1391 0.2189, 0.0108 0.1443 0.2143, 0.0785 0.0984 0.2283, 0.0923 0.0856 0.2283, 0.0816 0.1023 0.2277, 0.0959 0.089 0.2277, 0.0845 0.106 0.2258, 0.0993 0.0922 0.2258, 0.087 0.1091 0.2228, 0.1023 0.0949 0.2228, 0.089 0.1116 0.2189, 0.1046 0.0971 0.2189, 0.0902 0.1132 0.2143, 0.1134 0.0546 0.2283, 0.1203 0.0371 0.2283, 0.1179 0.0568 0.2277, 0.125 0.0386 0.2277, 0.1221 0.0588 0.2258, 0.1295 0.0399 0.2258, 0.1257 0.0605 0.2228, 0.1334 0.0411 0.2228, 0.1286 0.0619 0.2189, 0.1364 0.0421 0.2189, 0.1304 0.0628 0.2143, 0.1259 -0.0 0.2283, 0.1309 0.0 0.2277, 0.1355 0.0 0.2258, 0.1396 0.0 0.2228, 0.1427 0.0 0.2189, 0.1447 0.0 0.2143, 0.1456 0.0 0.2093, 0.1439 -0.0217 0.2093, 0.142 -0.0302 0.2093, 0.1311 -0.0632 0.2093, 0.1304 -0.0628 0.2143, 0.1286 -0.0619 0.2189, 0.1257 -0.0605 0.2228, 0.1221 -0.0588 0.2258, 0.1179 -0.0568 0.2277, 0.1134 -0.0546 0.2283, 0.1203 -0.082 0.2093, 0.1175 -0.0854 0.2093, 0.0907 -0.1138 0.2093, 0.0902 -0.1132 0.2143, 0.089 -0.1116 0.2189, 0.087 -0.1091 0.2228, 0.0845 -0.106 0.2258, 0.0816 -0.1023 0.2277, 0.0785 -0.0984 0.2283, 0.0629 -0.109 0.2283, 0.0654 -0.1133 0.2277, 0.0678 -0.1174 0.2258, 0.0698 -0.1209 0.2228, 0.0713 -0.1236 0.2189, 0.0724 -0.1253 0.2143, 0.0728 -0.1261 0.2093, 0.0532 -0.1355 0.2093, 0.0449 -0.1381 0.2093, 0.0109 -0.1451 0.2093, 0.0108 -0.1443 0.2143, 0.0107 -0.1423 0.2189, 0.0104 -0.1392 0.2228, 0.0101 -0.1351 0.2258, 0.0098 -0.1305 0.2277, 0.0094 -0.1255 0.2283, -0.0109 -0.1451 0.2093, -0.0152 -0.1445 0.2093, -0.0532 -0.1355 0.2093, -0.0529 -0.1347 0.2143, -0.0521 -0.1328 0.2189, -0.051 -0.1299 0.2228, -0.0495 -0.1262 0.2258, -0.0478 -0.1218 0.2277, -0.046 -0.1172 0.2283, -0.0629 -0.109 0.2283, -0.0654 -0.1133 0.2277, -0.0678 -0.1174 0.2258, -0.0698 -0.1209 0.2228, -0.0713 -0.1236 0.2189, -0.0724 -0.1253 0.2143, -0.0728 -0.1261 0.2093, -0.0907 -0.1138 0.2093, -0.0971 -0.1079 0.2093, -0.1203 -0.082 0.2093, -0.1196 -0.0815 0.2143, -0.1179 -0.0804 0.2189, -0.1153 -0.0786 0.2228, -0.112 -0.0763 0.2258, -0.1081 -0.0737 0.2277, -0.104 -0.0709 0.2283, -0.1311 -0.0632 0.2093, -0.1327 -0.0591 0.2093, -0.1439 -0.0217 0.2093, -0.1431 -0.0216 0.2143, -0.1411 -0.0213 0.2189, -0.138 -0.0208 0.2228, -0.134 -0.0202 0.2258, -0.1294 -0.0195 0.2277, -0.1245 -0.0188 0.2283, -0.1259 -0.0 0.2283, -0.1309 0.0 0.2277, -0.1355 0.0 0.2258, -0.1396 0.0 0.2228, -0.1427 0.0 0.2189, -0.1447 0.0 0.2143, -0.1456 -0.0 0.2093, -0.1439 0.0217 0.2093, -0.142 0.0302 0.2093, -0.1311 0.0632 0.2093, -0.1304 0.0628 0.2143, -0.1286 0.0619 0.2189, -0.1257 0.0605 0.2228, -0.1221 0.0588 0.2258, -0.1179 0.0568 0.2277, -0.1134 0.0546 0.2283, -0.1203 0.082 0.2093, -0.1175 0.0854 0.2093, -0.0907 0.1138 0.2093, -0.0902 0.1132 0.2143, -0.089 0.1116 0.2189, -0.087 0.1091 0.2228, -0.0845 0.106 0.2258, -0.0816 0.1023 0.2277, -0.0785 0.0984 0.2283, -0.0629 0.109 0.2283, -0.0654 0.1133 0.2277, -0.0678 0.1174 0.2258, -0.0698 0.1209 0.2228, -0.0713 0.1236 0.2189, -0.0724 0.1253 0.2143, -0.0728 0.1261 0.2093, -0.0532 0.1355 0.2093, -0.0449 0.1381 0.2093, -0.0109 0.1451 0.2093, -0.0108 0.1443 0.2143, -0.0107 0.1423 0.2189, -0.0104 0.1392 0.2228, -0.0101 0.1351 0.2258, -0.0098 0.1305 0.2277, -0.0094 0.1255 0.2283, 0.0109 0.1451 0.2093, 0.0152 0.1445 0.2093, 0.0532 0.1355 0.2093, 0.0529 0.1347 0.2143, 0.0521 0.1328 0.2189, 0.051 0.1299 0.2228, 0.0495 0.1262 0.2258, 0.0478 0.1218 0.2277, 0.046 0.1172 0.2283, 0.0629 0.109 0.2283, 0.0654 0.1133 0.2277, 0.0678 0.1174 0.2258, 0.0698 0.1209 0.2228, 0.0713 0.1236 0.2189, 0.0724 0.1253 0.2143, 0.0728 0.1261 0.2093, 0.0907 0.1138 0.2093, 0.0971 0.1079 0.2093, 0.1203 0.082 0.2093, 0.1196 0.0815 0.2143, 0.1179 0.0804 0.2189, 0.1153 0.0786 0.2228, 0.112 0.0763 0.2258, 0.1081 0.0737 0.2277, 0.104 0.0709 0.2283, 0.1311 0.0632 0.2093, 0.1327 0.0591 0.2093, 0.1439 0.0217 0.2093, 0.1431 0.0216 0.2143, 0.1411 0.0213 0.2189, 0.138 0.0208 0.2228, 0.134 0.0202 0.2258, 0.1294 0.0195 0.2277, 0.1245 0.0188 0.2283, 0.1464 -0.0206 0.1636, 0.1434 -0.0305 0.1686, 0.1421 -0.0407 0.1636, 0.1413 -0.0405 0.1686, 0.135 -0.0601 0.1636, 0.1343 -0.0598 0.1686, 0.1253 -0.0783 0.1636, 0.1246 -0.0779 0.1686, 0.1186 -0.0862 0.1686, 0.1132 -0.095 0.1636, 0.1126 -0.0945 0.1686, 0.0989 -0.1098 0.1636, 0.0983 -0.1092 0.1686, 0.0826 -0.1225 0.1636, 0.0822 -0.1218 0.1686, 0.0733 -0.127 0.1686, 0.0648 -0.1328 0.1636, 0.0644 -0.1321 0.1686, 0.0457 -0.1406 0.1636, 0.0454 -0.1398 0.1686, 0.0257 -0.1455 0.1636, 0.0255 -0.1447 0.1686, 0.0153 -0.1458 0.1686, 0.0052 -0.1477 0.1636, 0.0051 -0.1469 0.1686, -0.0154 -0.147 0.1636, -0.0154 -0.1462 0.1686, -0.0358 -0.1434 0.1636, -0.0356 -0.1426 0.1686, -0.0453 -0.1394 0.1686, -0.0554 -0.137 0.1636, -0.0551 -0.1363 0.1686, -0.0739 -0.128 0.1636, -0.0735 -0.1273 0.1686, -0.091 -0.1165 0.1636, -0.0905 -0.1158 0.1686, -0.0981 -0.109 0.1686, -0.1063 -0.1027 0.1636, -0.1057 -0.1021 0.1686, -0.1196 -0.0869 0.1636, -0.1189 -0.0864 0.1686, -0.1305 -0.0694 0.1636, -0.1298 -0.069 0.1686, -0.1339 -0.0596 0.1686, -0.1389 -0.0505 0.1636, -0.1381 -0.0503 0.1686, -0.1446 -0.0307 0.1636, -0.1438 -0.0306 0.1686, -0.1474 -0.0103 0.1636, -0.1466 -0.0103 0.1686, -0.1466 -0.0 0.1686, -0.1474 0.0103 0.1636, -0.1466 0.0103 0.1686, -0.1446 0.0307 0.1636, -0.1438 0.0306 0.1686, -0.1389 0.0505 0.1636, -0.1381 0.0503 0.1686, -0.1339 0.0596 0.1686, -0.1305 0.0694 0.1636, -0.1298 0.069 0.1686, -0.1196 0.0869 0.1636, -0.1189 0.0864 0.1686, -0.1063 0.1027 0.1636, -0.1057 0.1021 0.1686, -0.0981 0.109 0.1686, -0.091 0.1165 0.1636, -0.0905 0.1158 0.1686, -0.0739 0.128 0.1636, -0.0735 0.1273 0.1686, -0.0554 0.137 0.1636, -0.0551 0.1363 0.1686, -0.0453 0.1394 0.1686, -0.0358 0.1434 0.1636, -0.0356 0.1426 0.1686, -0.0154 0.147 0.1636, -0.0154 0.1462 0.1686, 0.0052 0.1477 0.1636, 0.0051 0.1469 0.1686, 0.0153 0.1458 0.1686, 0.0257 0.1455 0.1636, 0.0255 0.1447 0.1686, 0.0457 0.1406 0.1636, 0.0454 0.1398 0.1686, 0.0648 0.1328 0.1636, 0.0644 0.1321 0.1686, 0.0733 0.127 0.1686, 0.0826 0.1225 0.1636, 0.0822 0.1218 0.1686, 0.0989 0.1098 0.1636, 0.0983 0.1092 0.1686, 0.1132 0.095 0.1636, 0.1126 0.0945 0.1686, 0.1186 0.0862 0.1686, 0.1253 0.0783 0.1636, 0.1246 0.0779 0.1686, 0.135 0.0601 0.1636, 0.1343 0.0598 0.1686, 0.1421 0.0407 0.1636, 0.1413 0.0405 0.1686, 0.1434 0.0305 0.1686, 0.1464 0.0206 0.1636, 0.1455 0.0205 0.1686, 0.1478 0.0 0.1636, 0.147 0.0 0.1686, 0.1455 -0.0205 0.1686, 0.1484 0.0209 0.1591, 0.144 0.0413 0.1591, 0.1369 0.0609 0.1591, 0.1271 0.0794 0.1591, 0.1148 0.0963 0.1591, 0.1003 0.1113 0.1591, 0.0838 0.1242 0.1591, 0.0657 0.1347 0.1591, 0.0463 0.1425 0.1591, 0.026 0.1476 0.1591, 0.0052 0.1497 0.1591, -0.0157 0.149 0.1591, -0.0362 0.1454 0.1591, -0.0561 0.1389 0.1591, -0.0749 0.1298 0.1591, -0.0922 0.1181 0.1591, -0.1078 0.1041 0.1591, -0.1212 0.0881 0.1591, -0.1323 0.0703 0.1591, -0.1408 0.0512 0.1591, -0.1466 0.0312 0.1591, -0.1495 0.0105 0.1591, -0.1495 -0.0105 0.1591, -0.1466 -0.0312 0.1591, -0.1408 -0.0512 0.1591, -0.1323 -0.0703 0.1591, -0.1212 -0.0881 0.1591, -0.1078 -0.1041 0.1591, -0.0922 -0.1181 0.1591, -0.0749 -0.1298 0.1591, -0.0561 -0.1389 0.1591, -0.0362 -0.1454 0.1591, -0.0157 -0.149 0.1591, 0.0052 -0.1497 0.1591, 0.026 -0.1476 0.1591, 0.0463 -0.1425 0.1591, 0.0657 -0.1347 0.1591, 0.0838 -0.1242 0.1591, 0.1003 -0.1113 0.1591, 0.1148 -0.0963 0.1591, 0.1271 -0.0794 0.1591, 0.1369 -0.0609 0.1591, 0.144 -0.0413 0.1591, 0.1484 -0.0209 0.1591, 0.1498 0.0 0.1591, 0.1515 0.0213 0.1551, 0.147 0.0422 0.1551, 0.1397 0.0622 0.1551, 0.1297 0.0811 0.1551, 0.1172 0.0983 0.1551, 0.1024 0.1137 0.1551, 0.0855 0.1268 0.1551, 0.0671 0.1375 0.1551, 0.0473 0.1455 0.1551, 0.0266 0.1506 0.1551, 0.0053 0.1529 0.1551, -0.016 0.1521 0.1551, -0.037 0.1484 0.1551, -0.0573 0.1418 0.1551, -0.0765 0.1325 0.1551, -0.0942 0.1205 0.1551, -0.11 0.1063 0.1551, -0.1238 0.0899 0.1551, -0.1351 0.0718 0.1551, -0.1437 0.0523 0.1551, -0.1496 0.0318 0.1551, -0.1526 0.0107 0.1551, -0.1526 -0.0107 0.1551, -0.1496 -0.0318 0.1551, -0.1437 -0.0523 0.1551, -0.1351 -0.0718 0.1551, -0.1238 -0.0899 0.1551, -0.11 -0.1063 0.1551, -0.0942 -0.1205 0.1551, -0.0765 -0.1325 0.1551, -0.0573 -0.1418 0.1551, -0.037 -0.1484 0.1551, -0.016 -0.1521 0.1551, 0.0053 -0.1529 0.1551, 0.0266 -0.1506 0.1551, 0.0473 -0.1455 0.1551, 0.0671 -0.1375 0.1551, 0.0855 -0.1268 0.1551, 0.1024 -0.1137 0.1551, 0.1172 -0.0983 0.1551, 0.1297 -0.0811 0.1551, 0.1397 -0.0622 0.1551, 0.147 -0.0422 0.1551, 0.1515 -0.0213 0.1551, 0.153 0.0 0.1551, 0.1555 0.0219 0.1521, 0.1509 0.0433 0.1521, 0.1434 0.0639 0.1521, 0.1331 0.0832 0.1521, 0.1203 0.1009 0.1521, 0.1051 0.1167 0.1521, 0.0878 0.1302 0.1521, 0.0688 0.1411 0.1521, 0.0485 0.1493 0.1521, 0.0273 0.1546 0.1521, 0.0055 0.1569 0.1521, -0.0164 0.1561 0.1521, -0.038 0.1523 0.1521, -0.0588 0.1456 0.1521, -0.0785 0.136 0.1521, -0.0967 0.1237 0.1521, -0.1129 0.1091 0.1521, -0.127 0.0923 0.1521, -0.1386 0.0737 0.1521, -0.1475 0.0537 0.1521, -0.1536 0.0326 0.1521, -0.1566 0.011 0.1521, -0.1566 -0.011 0.1521, -0.1536 -0.0326 0.1521, -0.1475 -0.0537 0.1521, -0.1386 -0.0737 0.1521, -0.127 -0.0923 0.1521, -0.1129 -0.1091 0.1521, -0.0967 -0.1237 0.1521, -0.0785 -0.136 0.1521, -0.0588 -0.1456 0.1521, -0.038 -0.1523 0.1521, -0.0164 -0.1561 0.1521, 0.0055 -0.1569 0.1521, 0.0273 -0.1546 0.1521, 0.0485 -0.1493 0.1521, 0.0688 -0.1411 0.1521, 0.0878 -0.1302 0.1521, 0.1051 -0.1167 0.1521, 0.1203 -0.1009 0.1521, 0.1331 -0.0832 0.1521, 0.1434 -0.0639 0.1521, 0.1509 -0.0433 0.1521, 0.1555 -0.0219 0.1521, 0.157 0.0 0.1521, 0.1601 0.0225 0.1502, 0.1554 0.0446 0.1502, 0.1477 0.0658 0.1502, 0.1371 0.0857 0.1502, 0.1238 0.1039 0.1502, 0.1082 0.1201 0.1502, 0.0904 0.134 0.1502, 0.0709 0.1453 0.1502, 0.05 0.1538 0.1502, 0.0281 0.1592 0.1502, 0.0056 0.1616 0.1502, -0.0169 0.1608 0.1502, -0.0391 0.1569 0.1502, -0.0606 0.1499 0.1502, -0.0808 0.14 0.1502, -0.0995 0.1274 0.1502, -0.1163 0.1123 0.1502, -0.1308 0.095 0.1502, -0.1427 0.0759 0.1502, -0.1519 0.0553 0.1502, -0.1581 0.0336 0.1502, -0.1613 0.0113 0.1502, -0.1613 -0.0113 0.1502, -0.1581 -0.0336 0.1502, -0.1519 -0.0553 0.1502, -0.1427 -0.0759 0.1502, -0.1308 -0.095 0.1502, -0.1163 -0.1123 0.1502, -0.0995 -0.1274 0.1502, -0.0808 -0.14 0.1502, -0.0606 -0.1499 0.1502, -0.0391 -0.1569 0.1502, -0.0169 -0.1608 0.1502, 0.0056 -0.1616 0.1502, 0.0281 -0.1592 0.1502, 0.05 -0.1538 0.1502, 0.0709 -0.1453 0.1502, 0.0904 -0.134 0.1502, 0.1082 -0.1201 0.1502, 0.1238 -0.1039 0.1502, 0.1371 -0.0857 0.1502, 0.1477 -0.0658 0.1502, 0.1554 -0.0446 0.1502, 0.1601 -0.0225 0.1502, 0.1617 0.0 0.1502, 0.165 0.0232 0.1496, 0.1602 0.0459 0.1496, 0.1522 0.0678 0.1496, 0.1413 0.0883 0.1496, 0.1277 0.1071 0.1496, 0.1115 0.1238 0.1496, 0.0932 0.1382 0.1496, 0.0731 0.1498 0.1496, 0.0515 0.1585 0.1496, 0.0289 0.1641 0.1496, 0.0058 0.1665 0.1496, -0.0174 0.1657 0.1496, -0.0403 0.1617 0.1496, -0.0624 0.1545 0.1496, -0.0833 0.1443 0.1496, -0.1026 0.1313 0.1496, -0.1199 0.1158 0.1496, -0.1348 0.098 0.1496, -0.1471 0.0782 0.1496, -0.1566 0.057 0.1496, -0.163 0.0346 0.1496, -0.1662 0.0116 0.1496, -0.1662 -0.0116 0.1496, -0.163 -0.0346 0.1496, -0.1566 -0.057 0.1496, -0.1471 -0.0782 0.1496, -0.1348 -0.098 0.1496, -0.1199 -0.1158 0.1496, -0.1026 -0.1313 0.1496, -0.0833 -0.1443 0.1496, -0.0624 -0.1545 0.1496, -0.0403 -0.1617 0.1496, -0.0174 -0.1657 0.1496, 0.0058 -0.1665 0.1496, 0.0289 -0.1641 0.1496, 0.0515 -0.1585 0.1496, 0.0731 -0.1498 0.1496, 0.0932 -0.1382 0.1496, 0.1115 -0.1238 0.1496, 0.1277 -0.1071 0.1496, 0.1413 -0.0883 0.1496, 0.1522 -0.0678 0.1496, 0.1602 -0.0459 0.1496, 0.165 -0.0232 0.1496, 0.1666 0.0 0.1496, 0.1666 0.0 0.1496
            ]
        }
        coordIndex [
            0,1,2,-1,0,2,3,-1,3,2,4,-1,3,4,5,-1,6,7,8,-1,6,8,9,-1,9,8,10,-1,9,10,11,-1,12,13,14,-1,12,14,15,-1,15,14,16,-1,15,16,17,-1,17,16,18,-1,17,18,19,-1,19,18,20,-1,19,20,21,-1,21,20,22,-1,21,22,23,-1,24,25,26,-1,24,26,27,-1,27,26,28,-1,27,28,29,-1,29,28,30,-1,29,30,31,-1,31,30,32,-1,31,32,33,-1,33,32,34,-1,33,34,35,-1,36,37,38,-1,36,38,39,-1,39,38,40,-1,39,40,41,-1,42,43,44,-1,42,44,45,-1,45,44,46,-1,45,46,47,-1,48,49,50,-1,48,50,51,-1,51,50,52,-1,51,52,53,-1,53,52,54,-1,53,54,55,-1,55,54,56,-1,55,56,57,-1,57,56,58,-1,57,58,59,-1,60,61,62,-1,60,62,63,-1,63,62,64,-1,63,64,65,-1,65,64,66,-1,65,66,67,-1,67,66,68,-1,67,68,69,-1,69,68,70,-1,69,70,71,-1,72,73,74,-1,75,76,77,-1,78,79,80,-1,81,82,83,-1,84,85,86,-1,87,88,89,-1,90,91,92,-1,93,94,95,-1,96,97,98,-1,99,100,101,-1,102,103,104,-1,105,106,107,-1,108,109,110,-1,110,109,111,-1,110,111,112,-1,112,111,113,-1,112,113,114,-1,114,113,115,-1,114,115,116,-1,116,115,117,-1,116,117,118,-1,118,117,107,-1,119,120,121,-1,121,120,122,-1,121,122,123,-1,123,122,124,-1,123,124,125,-1,125,124,126,-1,125,126,127,-1,127,126,128,-1,127,128,129,-1,129,128,104,-1,130,131,132,-1,132,131,133,-1,132,133,134,-1,134,133,135,-1,134,135,136,-1,136,135,137,-1,136,137,138,-1,138,137,139,-1,138,139,140,-1,140,139,101,-1,141,142,143,-1,143,142,144,-1,143,144,145,-1,145,144,146,-1,145,146,147,-1,147,146,148,-1,147,148,149,-1,149,148,150,-1,149,150,151,-1,151,150,98,-1,152,153,154,-1,154,153,155,-1,154,155,156,-1,156,155,157,-1,156,157,158,-1,158,157,159,-1,158,159,160,-1,160,159,161,-1,160,161,162,-1,162,161,95,-1,163,164,165,-1,165,164,166,-1,165,166,167,-1,167,166,168,-1,167,168,169,-1,169,168,170,-1,169,170,171,-1,171,170,172,-1,171,172,173,-1,173,172,92,-1,174,175,176,-1,176,175,177,-1,176,177,178,-1,178,177,179,-1,178,179,180,-1,180,179,181,-1,180,181,182,-1,182,181,183,-1,182,183,184,-1,184,183,89,-1,185,186,187,-1,187,186,188,-1,187,188,189,-1,189,188,190,-1,189,190,191,-1,191,190,192,-1,191,192,193,-1,193,192,194,-1,193,194,195,-1,195,194,86,-1,196,197,198,-1,198,197,199,-1,198,199,200,-1,200,199,201,-1,200,201,202,-1,202,201,203,-1,202,203,204,-1,204,203,205,-1,204,205,206,-1,206,205,83,-1,207,208,209,-1,209,208,210,-1,209,210,211,-1,211,210,212,-1,211,212,213,-1,213,212,214,-1,213,214,215,-1,215,214,216,-1,215,216,217,-1,217,216,80,-1,218,219,220,-1,220,219,221,-1,220,221,222,-1,222,221,223,-1,222,223,224,-1,224,223,225,-1,224,225,226,-1,226,225,227,-1,226,227,228,-1,228,227,77,-1,229,230,231,-1,231,230,232,-1,231,232,233,-1,233,232,234,-1,233,234,235,-1,235,234,236,-1,235,236,237,-1,237,236,238,-1,237,238,239,-1,239,238,74,-1,240,108,241,-1,241,108,110,-1,241,110,242,-1,242,110,112,-1,242,112,243,-1,243,112,114,-1,243,114,244,-1,244,114,116,-1,244,116,245,-1,245,116,118,-1,245,118,246,-1,246,118,247,-1,107,106,118,-1,118,106,248,-1,118,248,247,-1,249,105,250,-1,250,105,107,-1,250,107,251,-1,251,107,117,-1,251,117,252,-1,252,117,115,-1,252,115,253,-1,253,115,113,-1,253,113,254,-1,254,113,111,-1,254,111,255,-1,255,111,109,-1,255,119,254,-1,254,119,121,-1,254,121,253,-1,253,121,123,-1,253,123,252,-1,252,123,125,-1,252,125,251,-1,251,125,127,-1,251,127,250,-1,250,127,129,-1,250,129,249,-1,249,129,256,-1,104,103,129,-1,129,103,257,-1,129,257,256,-1,258,102,259,-1,259,102,104,-1,259,104,260,-1,260,104,128,-1,260,128,261,-1,261,128,126,-1,261,126,262,-1,262,126,124,-1,262,124,263,-1,263,124,122,-1,263,122,264,-1,264,122,120,-1,264,265,263,-1,263,265,266,-1,263,266,262,-1,262,266,267,-1,262,267,261,-1,261,267,268,-1,261,268,260,-1,260,268,269,-1,260,269,259,-1,259,269,270,-1,259,270,258,-1,258,270,271,-1,265,130,266,-1,266,130,132,-1,266,132,267,-1,267,132,134,-1,267,134,268,-1,268,134,136,-1,268,136,269,-1,269,136,138,-1,269,138,270,-1,270,138,140,-1,270,140,271,-1,271,140,272,-1,101,100,140,-1,140,100,273,-1,140,273,272,-1,274,99,275,-1,275,99,101,-1,275,101,276,-1,276,101,139,-1,276,139,277,-1,277,139,137,-1,277,137,278,-1,278,137,135,-1,278,135,279,-1,279,135,133,-1,279,133,280,-1,280,133,131,-1,280,141,279,-1,279,141,143,-1,279,143,278,-1,278,143,145,-1,278,145,277,-1,277,145,147,-1,277,147,276,-1,276,147,149,-1,276,149,275,-1,275,149,151,-1,275,151,274,-1,274,151,281,-1,98,97,151,-1,151,97,282,-1,151,282,281,-1,283,96,284,-1,284,96,98,-1,284,98,285,-1,285,98,150,-1,285,150,286,-1,286,150,148,-1,286,148,287,-1,287,148,146,-1,287,146,288,-1,288,146,144,-1,288,144,289,-1,289,144,142,-1,289,290,288,-1,288,290,291,-1,288,291,287,-1,287,291,292,-1,287,292,286,-1,286,292,293,-1,286,293,285,-1,285,293,294,-1,285,294,284,-1,284,294,295,-1,284,295,283,-1,283,295,296,-1,290,152,291,-1,291,152,154,-1,291,154,292,-1,292,154,156,-1,292,156,293,-1,293,156,158,-1,293,158,294,-1,294,158,160,-1,294,160,295,-1,295,160,162,-1,295,162,296,-1,296,162,297,-1,95,94,162,-1,162,94,298,-1,162,298,297,-1,299,93,300,-1,300,93,95,-1,300,95,301,-1,301,95,161,-1,301,161,302,-1,302,161,159,-1,302,159,303,-1,303,159,157,-1,303,157,304,-1,304,157,155,-1,304,155,305,-1,305,155,153,-1,305,163,304,-1,304,163,165,-1,304,165,303,-1,303,165,167,-1,303,167,302,-1,302,167,169,-1,302,169,301,-1,301,169,171,-1,301,171,300,-1,300,171,173,-1,300,173,299,-1,299,173,306,-1,92,91,173,-1,173,91,307,-1,173,307,306,-1,308,90,309,-1,309,90,92,-1,309,92,310,-1,310,92,172,-1,310,172,311,-1,311,172,170,-1,311,170,312,-1,312,170,168,-1,312,168,313,-1,313,168,166,-1,313,166,314,-1,314,166,164,-1,314,315,313,-1,313,315,316,-1,313,316,312,-1,312,316,317,-1,312,317,311,-1,311,317,318,-1,311,318,310,-1,310,318,319,-1,310,319,309,-1,309,319,320,-1,309,320,308,-1,308,320,321,-1,315,174,316,-1,316,174,176,-1,316,176,317,-1,317,176,178,-1,317,178,318,-1,318,178,180,-1,318,180,319,-1,319,180,182,-1,319,182,320,-1,320,182,184,-1,320,184,321,-1,321,184,322,-1,89,88,184,-1,184,88,323,-1,184,323,322,-1,324,87,325,-1,325,87,89,-1,325,89,326,-1,326,89,183,-1,326,183,327,-1,327,183,181,-1,327,181,328,-1,328,181,179,-1,328,179,329,-1,329,179,177,-1,329,177,330,-1,330,177,175,-1,330,185,329,-1,329,185,187,-1,329,187,328,-1,328,187,189,-1,328,189,327,-1,327,189,191,-1,327,191,326,-1,326,191,193,-1,326,193,325,-1,325,193,195,-1,325,195,324,-1,324,195,331,-1,86,85,195,-1,195,85,332,-1,195,332,331,-1,333,84,334,-1,334,84,86,-1,334,86,335,-1,335,86,194,-1,335,194,336,-1,336,194,192,-1,336,192,337,-1,337,192,190,-1,337,190,338,-1,338,190,188,-1,338,188,339,-1,339,188,186,-1,339,340,338,-1,338,340,341,-1,338,341,337,-1,337,341,342,-1,337,342,336,-1,336,342,343,-1,336,343,335,-1,335,343,344,-1,335,344,334,-1,334,344,345,-1,334,345,333,-1,333,345,346,-1,340,196,341,-1,341,196,198,-1,341,198,342,-1,342,198,200,-1,342,200,343,-1,343,200,202,-1,343,202,344,-1,344,202,204,-1,344,204,345,-1,345,204,206,-1,345,206,346,-1,346,206,347,-1,83,82,206,-1,206,82,348,-1,206,348,347,-1,349,81,350,-1,350,81,83,-1,350,83,351,-1,351,83,205,-1,351,205,352,-1,352,205,203,-1,352,203,353,-1,353,203,201,-1,353,201,354,-1,354,201,199,-1,354,199,355,-1,355,199,197,-1,355,207,354,-1,354,207,209,-1,354,209,353,-1,353,209,211,-1,353,211,352,-1,352,211,213,-1,352,213,351,-1,351,213,215,-1,351,215,350,-1,350,215,217,-1,350,217,349,-1,349,217,356,-1,80,79,217,-1,217,79,357,-1,217,357,356,-1,358,78,359,-1,359,78,80,-1,359,80,360,-1,360,80,216,-1,360,216,361,-1,361,216,214,-1,361,214,362,-1,362,214,212,-1,362,212,363,-1,363,212,210,-1,363,210,364,-1,364,210,208,-1,364,365,363,-1,363,365,366,-1,363,366,362,-1,362,366,367,-1,362,367,361,-1,361,367,368,-1,361,368,360,-1,360,368,369,-1,360,369,359,-1,359,369,370,-1,359,370,358,-1,358,370,371,-1,365,218,366,-1,366,218,220,-1,366,220,367,-1,367,220,222,-1,367,222,368,-1,368,222,224,-1,368,224,369,-1,369,224,226,-1,369,226,370,-1,370,226,228,-1,370,228,371,-1,371,228,372,-1,77,76,228,-1,228,76,373,-1,228,373,372,-1,374,75,375,-1,375,75,77,-1,375,77,376,-1,376,77,227,-1,376,227,377,-1,377,227,225,-1,377,225,378,-1,378,225,223,-1,378,223,379,-1,379,223,221,-1,379,221,380,-1,380,221,219,-1,380,229,379,-1,379,229,231,-1,379,231,378,-1,378,231,233,-1,378,233,377,-1,377,233,235,-1,377,235,376,-1,376,235,237,-1,376,237,375,-1,375,237,239,-1,375,239,374,-1,374,239,381,-1,74,73,239,-1,239,73,382,-1,239,382,381,-1,383,72,384,-1,384,72,74,-1,384,74,385,-1,385,74,238,-1,385,238,386,-1,386,238,236,-1,386,236,387,-1,387,236,234,-1,387,234,388,-1,388,234,232,-1,388,232,389,-1,389,232,230,-1,389,240,388,-1,388,240,241,-1,388,241,387,-1,387,241,242,-1,387,242,386,-1,386,242,243,-1,386,243,385,-1,385,243,244,-1,385,244,384,-1,384,244,245,-1,384,245,383,-1,383,245,246,-1,390,391,392,-1,392,391,393,-1,392,393,394,-1,394,393,395,-1,394,395,396,-1,395,397,396,-1,396,397,398,-1,396,398,399,-1,399,398,400,-1,399,400,401,-1,401,400,402,-1,401,402,403,-1,402,404,403,-1,403,404,405,-1,403,405,406,-1,406,405,407,-1,406,407,408,-1,408,407,409,-1,408,409,410,-1,409,411,410,-1,410,411,412,-1,410,412,413,-1,413,412,414,-1,413,414,415,-1,415,414,416,-1,415,416,417,-1,416,418,417,-1,417,418,419,-1,417,419,420,-1,420,419,421,-1,420,421,422,-1,422,421,423,-1,422,423,424,-1,423,425,424,-1,424,425,426,-1,424,426,427,-1,427,426,428,-1,427,428,429,-1,429,428,430,-1,429,430,431,-1,430,432,431,-1,431,432,433,-1,431,433,434,-1,434,433,435,-1,434,435,436,-1,436,435,437,-1,436,437,438,-1,437,439,438,-1,438,439,440,-1,438,440,441,-1,441,440,442,-1,441,442,443,-1,443,442,444,-1,443,444,445,-1,444,446,445,-1,445,446,447,-1,445,447,448,-1,448,447,449,-1,448,449,450,-1,450,449,451,-1,450,451,452,-1,451,453,452,-1,452,453,454,-1,452,454,455,-1,455,454,456,-1,455,456,457,-1,457,456,458,-1,457,458,459,-1,458,460,459,-1,459,460,461,-1,459,461,462,-1,462,461,463,-1,462,463,464,-1,464,463,465,-1,464,465,466,-1,465,467,466,-1,466,467,468,-1,466,468,469,-1,469,468,470,-1,469,470,471,-1,471,470,472,-1,471,472,473,-1,472,474,473,-1,473,474,475,-1,473,475,476,-1,476,475,477,-1,476,477,478,-1,478,477,479,-1,478,479,480,-1,479,481,480,-1,480,481,482,-1,480,482,483,-1,483,482,484,-1,483,484,485,-1,485,484,486,-1,485,486,487,-1,486,488,487,-1,487,488,489,-1,487,489,490,-1,490,489,491,-1,490,491,492,-1,492,491,493,-1,492,493,390,-1,390,493,494,-1,390,494,391,-1,490,495,487,-1,487,495,496,-1,487,496,485,-1,485,496,497,-1,485,497,483,-1,483,497,498,-1,483,498,480,-1,480,498,499,-1,480,499,478,-1,478,499,500,-1,478,500,476,-1,476,500,501,-1,476,501,473,-1,473,501,502,-1,473,502,471,-1,471,502,503,-1,471,503,469,-1,469,503,504,-1,469,504,466,-1,466,504,505,-1,466,505,464,-1,464,505,506,-1,464,506,462,-1,462,506,507,-1,462,507,459,-1,459,507,508,-1,459,508,457,-1,457,508,509,-1,457,509,455,-1,455,509,510,-1,455,510,452,-1,452,510,511,-1,452,511,450,-1,450,511,512,-1,450,512,448,-1,448,512,513,-1,448,513,445,-1,445,513,514,-1,445,514,443,-1,443,514,515,-1,443,515,441,-1,441,515,516,-1,441,516,438,-1,438,516,517,-1,438,517,436,-1,436,517,518,-1,436,518,434,-1,434,518,519,-1,434,519,431,-1,431,519,520,-1,431,520,429,-1,429,520,521,-1,429,521,427,-1,427,521,522,-1,427,522,424,-1,424,522,523,-1,424,523,422,-1,422,523,524,-1,422,524,420,-1,420,524,525,-1,420,525,417,-1,417,525,526,-1,417,526,415,-1,415,526,527,-1,415,527,413,-1,413,527,528,-1,413,528,410,-1,410,528,529,-1,410,529,408,-1,408,529,530,-1,408,530,406,-1,406,530,531,-1,406,531,403,-1,403,531,532,-1,403,532,401,-1,401,532,533,-1,401,533,399,-1,399,533,534,-1,399,534,396,-1,396,534,535,-1,396,535,394,-1,394,535,536,-1,394,536,392,-1,392,536,537,-1,392,537,390,-1,390,537,538,-1,390,538,492,-1,492,538,539,-1,492,539,490,-1,490,539,495,-1,495,540,496,-1,496,540,541,-1,496,541,497,-1,497,541,542,-1,497,542,498,-1,498,542,543,-1,498,543,499,-1,499,543,544,-1,499,544,500,-1,500,544,545,-1,500,545,501,-1,501,545,546,-1,501,546,502,-1,502,546,547,-1,502,547,503,-1,503,547,548,-1,503,548,504,-1,504,548,549,-1,504,549,505,-1,505,549,550,-1,505,550,506,-1,506,550,551,-1,506,551,507,-1,507,551,552,-1,507,552,508,-1,508,552,553,-1,508,553,509,-1,509,553,554,-1,509,554,510,-1,510,554,555,-1,510,555,511,-1,511,555,556,-1,511,556,512,-1,512,556,557,-1,512,557,513,-1,513,557,558,-1,513,558,514,-1,514,558,559,-1,514,559,515,-1,515,559,560,-1,515,560,516,-1,516,560,561,-1,516,561,517,-1,517,561,562,-1,517,562,518,-1,518,562,563,-1,518,563,519,-1,519,563,564,-1,519,564,520,-1,520,564,565,-1,520,565,521,-1,521,565,566,-1,521,566,522,-1,522,566,567,-1,522,567,523,-1,523,567,568,-1,523,568,524,-1,524,568,569,-1,524,569,525,-1,525,569,570,-1,525,570,526,-1,526,570,571,-1,526,571,527,-1,527,571,572,-1,527,572,528,-1,528,572,573,-1,528,573,529,-1,529,573,574,-1,529,574,530,-1,530,574,575,-1,530,575,531,-1,531,575,576,-1,531,576,532,-1,532,576,577,-1,532,577,533,-1,533,577,578,-1,533,578,534,-1,534,578,579,-1,534,579,535,-1,535,579,580,-1,535,580,536,-1,536,580,581,-1,536,581,537,-1,537,581,582,-1,537,582,538,-1,538,582,583,-1,538,583,539,-1,539,583,584,-1,539,584,495,-1,495,584,540,-1,540,585,541,-1,541,585,586,-1,541,586,542,-1,542,586,587,-1,542,587,543,-1,543,587,588,-1,543,588,544,-1,544,588,589,-1,544,589,545,-1,545,589,590,-1,545,590,546,-1,546,590,591,-1,546,591,547,-1,547,591,592,-1,547,592,548,-1,548,592,593,-1,548,593,549,-1,549,593,594,-1,549,594,550,-1,550,594,595,-1,550,595,551,-1,551,595,596,-1,551,596,552,-1,552,596,597,-1,552,597,553,-1,553,597,598,-1,553,598,554,-1,554,598,599,-1,554,599,555,-1,555,599,600,-1,555,600,556,-1,556,600,601,-1,556,601,557,-1,557,601,602,-1,557,602,558,-1,558,602,603,-1,558,603,559,-1,559,603,604,-1,559,604,560,-1,560,604,605,-1,560,605,561,-1,561,605,606,-1,561,606,562,-1,562,606,607,-1,562,607,563,-1,563,607,608,-1,563,608,564,-1,564,608,609,-1,564,609,565,-1,565,609,610,-1,565,610,566,-1,566,610,611,-1,566,611,567,-1,567,611,612,-1,567,612,568,-1,568,612,613,-1,568,613,569,-1,569,613,614,-1,569,614,570,-1,570,614,615,-1,570,615,571,-1,571,615,616,-1,571,616,572,-1,572,616,617,-1,572,617,573,-1,573,617,618,-1,573,618,574,-1,574,618,619,-1,574,619,575,-1,575,619,620,-1,575,620,576,-1,576,620,621,-1,576,621,577,-1,577,621,622,-1,577,622,578,-1,578,622,623,-1,578,623,579,-1,579,623,624,-1,579,624,580,-1,580,624,625,-1,580,625,581,-1,581,625,626,-1,581,626,582,-1,582,626,627,-1,582,627,583,-1,583,627,628,-1,583,628,584,-1,584,628,629,-1,584,629,540,-1,540,629,585,-1,585,630,586,-1,586,630,631,-1,586,631,587,-1,587,631,632,-1,587,632,588,-1,588,632,633,-1,588,633,589,-1,589,633,634,-1,589,634,590,-1,590,634,635,-1,590,635,591,-1,591,635,636,-1,591,636,592,-1,592,636,637,-1,592,637,593,-1,593,637,638,-1,593,638,594,-1,594,638,639,-1,594,639,595,-1,595,639,640,-1,595,640,596,-1,596,640,641,-1,596,641,597,-1,597,641,642,-1,597,642,598,-1,598,642,643,-1,598,643,599,-1,599,643,644,-1,599,644,600,-1,600,644,645,-1,600,645,601,-1,601,645,646,-1,601,646,602,-1,602,646,647,-1,602,647,603,-1,603,647,648,-1,603,648,604,-1,604,648,649,-1,604,649,605,-1,605,649,650,-1,605,650,606,-1,606,650,651,-1,606,651,607,-1,607,651,652,-1,607,652,608,-1,608,652,653,-1,608,653,609,-1,609,653,654,-1,609,654,610,-1,610,654,655,-1,610,655,611,-1,611,655,656,-1,611,656,612,-1,612,656,657,-1,612,657,613,-1,613,657,658,-1,613,658,614,-1,614,658,659,-1,614,659,615,-1,615,659,660,-1,615,660,616,-1,616,660,661,-1,616,661,617,-1,617,661,662,-1,617,662,618,-1,618,662,663,-1,618,663,619,-1,619,663,664,-1,619,664,620,-1,620,664,665,-1,620,665,621,-1,621,665,666,-1,621,666,622,-1,622,666,667,-1,622,667,623,-1,623,667,668,-1,623,668,624,-1,624,668,669,-1,624,669,625,-1,625,669,670,-1,625,670,626,-1,626,670,671,-1,626,671,627,-1,627,671,672,-1,627,672,628,-1,628,672,673,-1,628,673,629,-1,629,673,674,-1,629,674,585,-1,585,674,630,-1,630,675,631,-1,631,675,676,-1,631,676,632,-1,632,676,677,-1,632,677,633,-1,633,677,678,-1,633,678,634,-1,634,678,679,-1,634,679,635,-1,635,679,680,-1,635,680,636,-1,636,680,681,-1,636,681,637,-1,637,681,682,-1,637,682,638,-1,638,682,683,-1,638,683,639,-1,639,683,684,-1,639,684,640,-1,640,684,685,-1,640,685,641,-1,641,685,686,-1,641,686,642,-1,642,686,687,-1,642,687,643,-1,643,687,688,-1,643,688,644,-1,644,688,689,-1,644,689,645,-1,645,689,690,-1,645,690,646,-1,646,690,691,-1,646,691,647,-1,647,691,692,-1,647,692,648,-1,648,692,693,-1,648,693,649,-1,649,693,694,-1,649,694,650,-1,650,694,695,-1,650,695,651,-1,651,695,696,-1,651,696,652,-1,652,696,697,-1,652,697,653,-1,653,697,698,-1,653,698,654,-1,654,698,699,-1,654,699,655,-1,655,699,700,-1,655,700,656,-1,656,700,701,-1,656,701,657,-1,657,701,702,-1,657,702,658,-1,658,702,703,-1,658,703,659,-1,659,703,704,-1,659,704,660,-1,660,704,705,-1,660,705,661,-1,661,705,706,-1,661,706,662,-1,662,706,707,-1,662,707,663,-1,663,707,708,-1,663,708,664,-1,664,708,709,-1,664,709,665,-1,665,709,710,-1,665,710,666,-1,666,710,711,-1,666,711,667,-1,667,711,712,-1,667,712,668,-1,668,712,713,-1,668,713,669,-1,669,713,714,-1,669,714,670,-1,670,714,715,-1,670,715,671,-1,671,715,716,-1,671,716,672,-1,672,716,717,-1,672,717,673,-1,673,717,718,-1,673,718,674,-1,674,718,719,-1,674,719,630,-1,630,719,675,-1,
        ]
    }
}
Shape{
    appearance Appearance {
        material  Material 	{
            diffuseColor 0.10980392156862745 0.10980392156862745 0.10980392156862745
            specularColor 0.0784313725490196 0.0784313725490196 0.0784313725490196
            ambientIntensity 0.2
            transparency 0
            shininess 0.5
        }
    }
    geometry IndexedFaceSet {
        ccw TRUE
        solid FALSE
        coord DEF co Coordinate {
            point [
                -0.4134 -0.128 0.0, -0.5512 -0.128 0.0, -0.5512 -0.0002 0.0, 0.0178 0.0 0.0, 0.0178 0.0394 0.0, 0.0255 0.0064 0.0, 0.0255 0.002 0.0, 0.0297 0.0003 0.0, 0.0337 -0.0002 0.0, -0.0023 0.035 0.0, 0.0125 0.035 0.0, 0.0125 0.0221 0.0, -0.0014 0.0221 0.0, -0.0014 0.0178 0.0, -0.0071 -0.0002 0.0, -0.0071 0.374 0.0, 0.5118 0.374 0.0, 0.4134 0.3248 0.0, 0.522 0.3727 0.0, -0.0033 0.0 0.0, -0.0033 0.0043 0.0, 0.0125 0.0043 0.0, 0.0125 0.0178 0.0, 0.5315 0.3687 0.0, 0.5396 0.3625 0.0, 0.5459 0.3543 0.0, 0.5498 0.3448 0.0, 0.5512 0.3346 0.0, 0.5512 0.3248 0.0, 0.073 0.0043 0.0, 0.0582 0.0043 0.0, 0.073 0.0394 0.0, 0.0783 0.0394 0.0, 0.0783 0.0 0.0, 0.4134 0.128 0.0, 0.5512 0.128 0.0, -0.0023 0.0394 0.0, 0.0386 0.0351 0.0, 0.0415 0.034 0.0, 0.0262 0.006 0.0, 0.0443 0.0322 0.0, 0.0466 0.0296 0.0, 0.0495 0.0193 0.0, 0.0491 0.015 0.0, 0.048 0.0116 0.0, 0.0393 0.0043 0.0, 0.0356 0.0038 0.0, 0.0421 0.0053 0.0, 0.0446 0.0069 0.0, 0.0464 0.0089 0.0, 0.0304 0.0044 0.0, 0.0483 0.0265 0.0, 0.0493 0.0223 0.0, 0.0504 0.0327 0.0, 0.0469 0.0361 0.0, 0.5512 -0.0002 0.0, 0.0387 -0.0002 0.0, 0.0582 0.0 0.0, 0.0412 0.0 0.0, 0.045 0.0013 0.0, 0.0482 0.0034 0.0, 0.0511 0.0065 0.0, 0.0532 0.0102 0.0, 0.0544 0.0144 0.0, 0.0431 0.0383 0.0, 0.0387 0.0395 0.0, 0.0348 0.0399 0.0, 0.0548 0.0189 0.0, 0.0542 0.0245 0.0, 0.0527 0.029 0.0, 0.0301 0.0395 0.0, 0.0255 0.0383 0.0, 0.0255 0.033 0.0, 0.0299 0.0349 0.0, 0.0347 0.0355 0.0, -0.0713 0.011 0.0, -0.0551 0.011 0.0, -0.0513 0.0 0.0, -0.0811 0.0 0.0, -0.0753 0.0 0.0, -0.0456 0.0 0.0, -0.0407 0.0108 0.0, -0.0385 0.0073 0.0, -0.522 0.3727 0.0, -0.5118 0.374 0.0, -0.4134 0.3248 0.0, -0.0352 0.0042 0.0, -0.0311 0.0018 0.0, -0.0266 0.0004 0.0, -0.4134 0.128 0.0, -0.0657 0.0394 0.0, -0.0604 0.0394 0.0, -0.0217 0.0 0.0, -0.011 0.0 0.0, -0.011 0.0394 0.0, -0.0221 0.0394 0.0, -0.0367 0.0342 0.0, -0.0395 0.0311 0.0, -0.0413 0.0278 0.0, -0.0278 0.0388 0.0, -0.0324 0.0371 0.0, -0.0367 0.0343 0.0, -0.5512 0.3248 0.0, -0.5512 0.3346 0.0, -0.5498 0.3448 0.0, -0.5459 0.3543 0.0, -0.0424 0.0239 0.0, -0.0427 0.0202 0.0, -0.0421 0.0149 0.0, -0.5396 0.3625 0.0, -0.5315 0.3687 0.0, -0.4134 -0.3248 0.0, -0.5512 0.128 0.0, -0.0071 -0.374 0.0, -0.5118 -0.374 0.0, -0.522 -0.3727 0.0, -0.5315 -0.3687 0.0, -0.5396 -0.3625 0.0, -0.5459 -0.3543 0.0, -0.5498 -0.3448 0.0, -0.5512 -0.3346 0.0, -0.5512 -0.3248 0.0, 0.0353 -0.0005 0.0, 0.0363 -0.0005 0.0, 0.5512 -0.3248 0.0, 0.5512 -0.3346 0.0, 0.4134 -0.3248 0.0, 0.5498 -0.3448 0.0, 0.5512 -0.128 0.0, 0.4134 -0.128 0.0, 0.5459 -0.3543 0.0, 0.5396 -0.3625 0.0, 0.5315 -0.3687 0.0, 0.522 -0.3727 0.0, 0.5118 -0.374 0.0, 0.5512 -0.3248 0.0157, 0.5512 -0.128 0.0157, 0.5512 0.3248 0.0157, 0.5512 0.3346 0.1339, 0.5512 0.128 0.0157, 0.5512 -0.3346 0.1339, -0.5118 0.374 0.1339, 0.5118 0.374 0.1339, -0.5512 -0.128 0.0157, -0.5512 0.3248 0.0157, -0.5512 0.3346 0.1339, -0.5512 0.128 0.0157, -0.5512 -0.3346 0.1339, -0.5512 -0.3248 0.0157, 0.5118 -0.374 0.1339, -0.5118 -0.374 0.1339, -0.522 0.3727 0.1339, -0.5315 0.3687 0.1339, -0.5498 -0.3448 0.1339, -0.5459 -0.3543 0.1339, -0.5396 -0.3625 0.1339, -0.5315 -0.3687 0.1339, 0.522 -0.3727 0.1339, 0.5315 -0.3687 0.1339, 0.5396 -0.3625 0.1339, 0.5498 -0.3448 0.1339, 0.5459 -0.3543 0.1339, 0.5498 0.3448 0.1339, 0.5315 0.3687 0.1339, 0.5459 0.3543 0.1339, 0.5396 0.3625 0.1339, 0.522 0.3727 0.1339, -0.522 -0.3727 0.1339, -0.5396 0.3625 0.1339, -0.5459 0.3543 0.1339, -0.5498 0.3448 0.1339, -0.4134 -0.128 0.0157, -0.4134 -0.3248 0.0157, 0.4134 0.3248 0.0157, 0.4134 0.128 0.0157, -0.4134 0.128 0.0157, -0.4134 0.3248 0.0157, 0.4134 -0.128 0.0157, 0.4134 -0.3248 0.0157, 0.4134 -0.3248 0.0157
            ]
        }
        coordIndex [
            0,1,2,-1,3,4,5,-1,5,6,3,-1,3,6,7,-1,3,7,8,-1,9,10,11,-1,12,13,14,-1,15,16,17,-1,17,16,18,-1,19,14,20,-1,20,14,13,-1,20,13,21,-1,21,13,22,-1,18,23,17,-1,17,23,24,-1,17,24,25,-1,25,26,17,-1,17,26,27,-1,17,27,28,-1,29,30,31,-1,31,30,15,-1,31,15,32,-1,32,15,17,-1,32,17,33,-1,33,17,34,-1,33,34,35,-1,11,12,9,-1,9,12,14,-1,9,14,36,-1,36,14,15,-1,36,15,4,-1,37,38,39,-1,39,38,40,-1,39,40,41,-1,42,43,39,-1,39,43,44,-1,45,46,47,-1,47,46,48,-1,44,49,39,-1,39,49,48,-1,39,48,50,-1,50,48,46,-1,41,51,39,-1,39,51,52,-1,39,52,42,-1,15,53,54,-1,35,55,33,-1,33,55,56,-1,33,56,57,-1,57,56,58,-1,57,58,59,-1,59,60,57,-1,57,60,61,-1,57,61,30,-1,30,61,62,-1,30,62,63,-1,54,64,15,-1,15,64,65,-1,15,65,66,-1,63,67,30,-1,30,67,68,-1,30,68,15,-1,15,68,69,-1,15,69,53,-1,66,70,15,-1,15,70,71,-1,15,71,4,-1,4,71,72,-1,4,72,5,-1,5,72,73,-1,5,73,39,-1,39,73,74,-1,39,74,37,-1,75,76,77,-1,78,79,14,-1,80,81,82,-1,83,84,85,-1,85,84,15,-1,82,86,80,-1,80,86,87,-1,80,87,88,-1,78,89,90,-1,90,89,85,-1,90,85,91,-1,91,85,15,-1,88,92,80,-1,80,92,14,-1,80,14,77,-1,77,14,79,-1,77,79,75,-1,92,93,14,-1,14,93,94,-1,14,94,15,-1,15,94,95,-1,96,97,91,-1,91,97,98,-1,95,99,15,-1,15,99,100,-1,15,100,91,-1,91,100,101,-1,91,101,96,-1,102,103,85,-1,85,103,104,-1,85,104,105,-1,98,106,91,-1,91,106,107,-1,91,107,80,-1,80,107,108,-1,80,108,81,-1,105,109,85,-1,85,109,110,-1,85,110,83,-1,111,0,14,-1,14,0,2,-1,14,2,78,-1,78,2,112,-1,78,112,89,-1,14,113,111,-1,111,113,114,-1,111,114,115,-1,115,116,111,-1,111,116,117,-1,111,117,118,-1,118,119,111,-1,111,119,120,-1,111,120,121,-1,19,3,14,-1,14,3,8,-1,14,8,113,-1,113,8,122,-1,113,122,123,-1,124,125,126,-1,126,125,127,-1,55,128,56,-1,56,128,129,-1,56,129,123,-1,123,129,126,-1,123,126,113,-1,127,130,126,-1,126,130,131,-1,126,131,132,-1,132,133,126,-1,126,133,134,-1,126,134,113,-1,125,124,135,-1,136,128,55,-1,28,27,137,-1,137,27,138,-1,137,138,139,-1,139,138,140,-1,125,135,140,-1,140,135,136,-1,140,136,139,-1,139,136,55,-1,139,55,35,-1,84,141,15,-1,15,141,142,-1,15,142,16,-1,2,1,143,-1,103,102,144,-1,103,144,145,-1,145,144,146,-1,145,146,147,-1,121,120,148,-1,148,120,147,-1,148,147,143,-1,143,147,146,-1,143,146,2,-1,2,146,112,-1,134,149,113,-1,113,149,150,-1,113,150,114,-1,147,140,145,-1,145,140,138,-1,151,152,145,-1,153,154,147,-1,147,154,155,-1,147,155,156,-1,157,158,140,-1,140,158,159,-1,140,159,160,-1,160,159,161,-1,138,162,163,-1,163,162,164,-1,163,164,165,-1,163,166,138,-1,138,166,142,-1,138,142,145,-1,145,142,141,-1,145,141,151,-1,156,167,147,-1,147,167,150,-1,147,150,140,-1,140,150,149,-1,140,149,157,-1,168,169,152,-1,152,169,170,-1,152,170,145,-1,138,27,26,-1,138,26,162,-1,162,26,25,-1,162,25,164,-1,164,25,24,-1,164,24,165,-1,165,24,23,-1,165,23,163,-1,163,23,18,-1,163,18,166,-1,166,18,16,-1,166,16,142,-1,149,134,133,-1,149,133,157,-1,157,133,132,-1,157,132,158,-1,158,132,131,-1,158,131,159,-1,159,131,130,-1,159,130,161,-1,161,130,127,-1,161,127,160,-1,160,127,125,-1,160,125,140,-1,147,120,119,-1,147,119,153,-1,153,119,118,-1,153,118,154,-1,154,118,117,-1,154,117,155,-1,155,117,116,-1,155,116,156,-1,156,116,115,-1,156,115,167,-1,167,115,114,-1,167,114,150,-1,141,84,83,-1,141,83,151,-1,151,83,110,-1,151,110,152,-1,152,110,109,-1,152,109,168,-1,168,109,105,-1,168,105,169,-1,169,105,104,-1,169,104,170,-1,170,104,103,-1,170,103,145,-1,171,172,143,-1,143,172,148,-1,171,143,0,-1,0,143,1,-1,111,121,172,-1,172,121,148,-1,172,171,111,-1,111,171,0,-1,173,137,174,-1,174,137,139,-1,17,28,173,-1,173,28,137,-1,174,139,34,-1,34,139,35,-1,173,174,17,-1,17,174,34,-1,175,146,176,-1,176,146,144,-1,89,112,175,-1,175,112,146,-1,176,144,85,-1,85,144,102,-1,175,176,89,-1,89,176,85,-1,177,136,178,-1,178,136,135,-1,129,128,177,-1,177,128,136,-1,178,135,126,-1,126,135,124,-1,177,178,129,-1,129,178,126,-1,
        ]
    }
}
Shape{
    appearance Appearance {
        material  Material 	{
            diffuseColor 1.0 1.0 1.0
            specularColor 0.8784313725490196 0.8784313725490196 0.8784313725490196
            ambientIntensity 0.2
            transparency 0
            shininess 0.5
        }
    }
    geometry IndexedFaceSet {
        ccw TRUE
        solid FALSE
        coord DEF co Coordinate {
            point [
                -0.0564 0.0154 0.0039, -0.0551 0.011 0.0039, -0.0696 0.0154 0.0039, -0.0713 0.011 0.0039, -0.0623 0.0318 0.0039, -0.0604 0.0394 0.0039, -0.0456 0.0 0.0039, -0.0513 0.0 0.0039, -0.0627 0.0332 0.0039, -0.0629 0.0346 0.0039, -0.0657 0.0394 0.0039, -0.063 0.0346 0.0039, -0.0633 0.0332 0.0039, -0.0636 0.0318 0.0039, -0.0811 0.0 0.0039, -0.0753 0.0 0.0039, -0.0753 0.0 0.0039
            ]
        }
        coordIndex [
            0,1,2,-1,2,1,3,-1,4,5,0,-1,0,5,6,-1,0,6,1,-1,1,6,7,-1,4,8,5,-1,5,8,9,-1,5,9,10,-1,10,9,11,-1,10,11,12,-1,12,13,10,-1,10,13,2,-1,10,2,14,-1,14,2,3,-1,14,3,15,-1,
        ]
    }
}
Shape{
    appearance Appearance {
        material  Material 	{
            diffuseColor 0.7764705882352941 0.7568627450980392 0.7372549019607844
            specularColor 0.38823529411764707 0.3764705882352941 0.3686274509803922
            ambientIntensity 0.2
            transparency 0
            shininess 0.5
        }
    }
    geometry IndexedFaceSet {
        ccw TRUE
        solid FALSE
        coord DEF co Coordinate {
            point [
                -0.0713 0.011 0.0039, -0.0713 0.011 0.0, -0.0753 0.0 0.0039, -0.0753 0.0 0.0, -0.0551 0.011 0.0039, -0.0551 0.011 0.0, -0.0551 0.011 0.0
            ]
        }
        coordIndex [
            0,1,2,-1,2,1,3,-1,4,5,0,-1,0,5,1,-1,
        ]
    }
}
Shape{
    appearance Appearance {
        material  Material 	{
            diffuseColor 0.10980392156862745 0.10980392156862745 0.10980392156862745
            specularColor 0.0784313725490196 0.0784313725490196 0.0784313725490196
            ambientIntensity 0.2
            transparency 0
            shininess 0.5
        }
    }
    geometry IndexedFaceSet {
        ccw TRUE
        solid FALSE
        coord DEF co Coordinate {
            point [
                -0.0513 0.0 0.0039, -0.0513 0.0 0.0, -0.0551 0.011 0.0039, -0.0551 0.011 0.0, -0.0551 0.011 0.0
            ]
        }
        coordIndex [
            0,1,2,-1,2,1,3,-1,
        ]
    }
}
Shape{
    appearance Appearance {
        material  Material 	{
            diffuseColor 1.0 1.0 1.0
            specularColor 0.8784313725490196 0.8784313725490196 0.8784313725490196
            ambientIntensity 0.2
            transparency 0
            shininess 0.5
        }
    }
    geometry IndexedFaceSet {
        ccw TRUE
        solid FALSE
        coord DEF co Coordinate {
            point [
                -0.0456 0.0 0.0039, -0.0456 0.0 0.0, -0.0513 0.0 0.0039, -0.0513 0.0 0.0, -0.0604 0.0394 0.0039, -0.0604 0.0394 0.0, -0.0657 0.0394 0.0039, -0.0657 0.0394 0.0, -0.0657 0.0394 0.0
            ]
        }
        coordIndex [
            0,1,2,-1,2,1,3,-1,4,5,0,-1,0,5,1,-1,6,7,4,-1,4,7,5,-1,
        ]
    }
}
Shape{
    appearance Appearance {
        material  Material 	{
            diffuseColor 0.7764705882352941 0.7568627450980392 0.7372549019607844
            specularColor 0.38823529411764707 0.3764705882352941 0.3686274509803922
            ambientIntensity 0.2
            transparency 0
            shininess 0.5
        }
    }
    geometry IndexedFaceSet {
        ccw TRUE
        solid FALSE
        coord DEF co Coordinate {
            point [
                -0.0811 0.0 0.0039, -0.0811 0.0 0.0, -0.0657 0.0394 0.0039, -0.0657 0.0394 0.0, -0.0657 0.0394 0.0
            ]
        }
        coordIndex [
            0,1,2,-1,2,1,3,-1,
        ]
    }
}
Shape{
    appearance Appearance {
        material  Material 	{
            diffuseColor 1.0 1.0 1.0
            specularColor 0.8784313725490196 0.8784313725490196 0.8784313725490196
            ambientIntensity 0.2
            transparency 0
            shininess 0.5
        }
    }
    geometry IndexedFaceSet {
        ccw TRUE
        solid FALSE
        coord DEF co Coordinate {
            point [
                -0.0811 0.0 0.0039, -0.0753 0.0 0.0039, -0.0811 0.0 0.0, -0.0753 0.0 0.0, -0.0753 0.0 0.0
            ]
        }
        coordIndex [
            0,1,2,-1,2,1,3,-1,
        ]
    }
}
Shape{
    appearance Appearance {
        material  Material 	{
            diffuseColor 0.7764705882352941 0.7568627450980392 0.7372549019607844
            specularColor 0.38823529411764707 0.3764705882352941 0.3686274509803922
            ambientIntensity 0.2
            transparency 0
            shininess 0.5
        }
    }
    geometry IndexedFaceSet {
        ccw TRUE
        solid FALSE
        coord DEF co Coordinate {
            point [
                -0.0636 0.0318 0.0, -0.0636 0.0318 0.0039, -0.0633 0.0332 0.0039, -0.0633 0.0332 0.0, -0.063 0.0346 0.0039, -0.063 0.0346 0.0, -0.063 0.0346 0.0
            ]
        }
        coordIndex [
            0,1,2,-1,0,2,3,-1,3,2,4,-1,3,4,5,-1,
        ]
    }
}
Shape{
    appearance Appearance {
        material  Material 	{
            diffuseColor 1.0 1.0 1.0
            specularColor 0.8784313725490196 0.8784313725490196 0.8784313725490196
            ambientIntensity 0.2
            transparency 0
            shininess 0.5
        }
    }
    geometry IndexedFaceSet {
        ccw TRUE
        solid FALSE
        coord DEF co Coordinate {
            point [
                -0.0629 0.0346 0.0039, -0.0629 0.0346 0.0, -0.063 0.0346 0.0039, -0.063 0.0346 0.0, -0.0627 0.0332 0.0039, -0.0627 0.0332 0.0, -0.0623 0.0318 0.0039, -0.0623 0.0318 0.0, -0.0564 0.0154 0.0039, -0.0564 0.0154 0.0, -0.0696 0.0154 0.0039, -0.0696 0.0154 0.0, -0.0636 0.0318 0.0, -0.0636 0.0318 0.0039, -0.0636 0.0318 0.0039
            ]
        }
        coordIndex [
            0,1,2,-1,2,1,3,-1,1,0,4,-1,1,4,5,-1,5,4,6,-1,5,6,7,-1,8,9,6,-1,6,9,7,-1,10,11,8,-1,8,11,9,-1,12,11,13,-1,13,11,10,-1,
        ]
    }
}
Shape{
    appearance Appearance {
        material  Material 	{
            diffuseColor 0.7764705882352941 0.7568627450980392 0.7372549019607844
            specularColor 0.38823529411764707 0.3764705882352941 0.3686274509803922
            ambientIntensity 0.2
            transparency 0
            shininess 0.5
        }
    }
    geometry IndexedFaceSet {
        ccw TRUE
        solid FALSE
        coord DEF co Coordinate {
            point [
                -0.0221 0.0394 0.0039, -0.0221 0.0394 0.0, -0.011 0.0394 0.0039, -0.011 0.0394 0.0, -0.011 0.0394 0.0
            ]
        }
        coordIndex [
            0,1,2,-1,2,1,3,-1,
        ]
    }
}
Shape{
    appearance Appearance {
        material  Material 	{
            diffuseColor 1.0 1.0 1.0
            specularColor 0.8784313725490196 0.8784313725490196 0.8784313725490196
            ambientIntensity 0.2
            transparency 0
            shininess 0.5
        }
    }
    geometry IndexedFaceSet {
        ccw TRUE
        solid FALSE
        coord DEF co Coordinate {
            point [
                -0.0221 0.0394 0.0, -0.0221 0.0394 0.0039, -0.0278 0.0388 0.0039, -0.0278 0.0388 0.0, -0.0324 0.0371 0.0039, -0.0324 0.0371 0.0, -0.0367 0.0343 0.0039, -0.0367 0.0343 0.0, -0.0367 0.0342 0.0039, -0.0367 0.0342 0.0, -0.0395 0.0311 0.0039, -0.0395 0.0311 0.0, -0.0413 0.0278 0.0039, -0.0413 0.0278 0.0, -0.0424 0.0239 0.0039, -0.0424 0.0239 0.0, -0.0427 0.0202 0.0039, -0.0427 0.0202 0.0, -0.0427 0.0202 0.0
            ]
        }
        coordIndex [
            0,1,2,-1,0,2,3,-1,3,2,4,-1,3,4,5,-1,5,4,6,-1,5,6,7,-1,7,6,8,-1,7,8,9,-1,9,8,10,-1,9,10,11,-1,11,10,12,-1,11,12,13,-1,13,12,14,-1,13,14,15,-1,15,14,16,-1,15,16,17,-1,
        ]
    }
}
Shape{
    appearance Appearance {
        material  Material 	{
            diffuseColor 0.7764705882352941 0.7568627450980392 0.7372549019607844
            specularColor 0.38823529411764707 0.3764705882352941 0.3686274509803922
            ambientIntensity 0.2
            transparency 0
            shininess 0.5
        }
    }
    geometry IndexedFaceSet {
        ccw TRUE
        solid FALSE
        coord DEF co Coordinate {
            point [
                -0.0427 0.0202 0.0, -0.0427 0.0202 0.0039, -0.0421 0.0149 0.0039, -0.0421 0.0149 0.0, -0.0407 0.0108 0.0039, -0.0407 0.0108 0.0, -0.0385 0.0073 0.0039, -0.0385 0.0073 0.0, -0.0352 0.0042 0.0039, -0.0352 0.0042 0.0, -0.0311 0.0018 0.0039, -0.0311 0.0018 0.0, -0.0266 0.0004 0.0039, -0.0266 0.0004 0.0, -0.0217 0.0 0.0039, -0.0217 0.0 0.0, -0.011 0.0 0.0039, -0.011 0.0 0.0, -0.011 0.0394 0.0039, -0.011 0.0394 0.0, -0.011 0.0394 0.0
            ]
        }
        coordIndex [
            0,1,2,-1,0,2,3,-1,3,2,4,-1,3,4,5,-1,5,4,6,-1,5,6,7,-1,7,6,8,-1,7,8,9,-1,9,8,10,-1,9,10,11,-1,11,10,12,-1,11,12,13,-1,13,12,14,-1,13,14,15,-1,16,17,14,-1,14,17,15,-1,16,18,17,-1,17,18,19,-1,
        ]
    }
}
Shape{
    appearance Appearance {
        material  Material 	{
            diffuseColor 1.0 1.0 1.0
            specularColor 0.8784313725490196 0.8784313725490196 0.8784313725490196
            ambientIntensity 0.2
            transparency 0
            shininess 0.5
        }
    }
    geometry IndexedFaceSet {
        ccw TRUE
        solid FALSE
        coord DEF co Coordinate {
            point [
                -0.0413 0.0278 0.0039, -0.0395 0.0311 0.0039, -0.0348 0.0295 0.0039, -0.0367 0.0342 0.0039, -0.0329 0.0316 0.0039, -0.0367 0.0343 0.0039, -0.03 0.0334 0.0039, -0.0324 0.0371 0.0039, -0.0267 0.0346 0.0039, -0.0278 0.0388 0.0039, -0.0221 0.035 0.0039, -0.0221 0.0394 0.0039, -0.0163 0.035 0.0039, -0.011 0.0394 0.0039, -0.0163 0.0043 0.0039, -0.011 0.0 0.0039, -0.0219 0.0043 0.0039, -0.0217 0.0 0.0039, -0.026 0.0047 0.0039, -0.0266 0.0004 0.0039, -0.0293 0.0057 0.0039, -0.0311 0.0018 0.0039, -0.032 0.0073 0.0039, -0.0352 0.0042 0.0039, -0.0342 0.0095 0.0039, -0.0385 0.0073 0.0039, -0.0359 0.0122 0.0039, -0.0407 0.0108 0.0039, -0.037 0.0159 0.0039, -0.0421 0.0149 0.0039, -0.0374 0.0201 0.0039, -0.0427 0.0202 0.0039, -0.0371 0.024 0.0039, -0.0424 0.0239 0.0039, -0.0361 0.0271 0.0039, -0.0219 0.0043 0.0, -0.0163 0.0043 0.0, -0.0163 0.0043 0.0
            ]
        }
        coordIndex [
            0,1,2,-1,2,1,3,-1,2,3,4,-1,4,3,5,-1,4,5,6,-1,6,5,7,-1,6,7,8,-1,8,7,9,-1,8,9,10,-1,10,9,11,-1,10,11,12,-1,12,11,13,-1,12,13,14,-1,14,13,15,-1,14,15,16,-1,16,15,17,-1,16,17,18,-1,18,17,19,-1,18,19,20,-1,20,19,21,-1,20,21,22,-1,22,21,23,-1,22,23,24,-1,24,23,25,-1,24,25,26,-1,26,25,27,-1,26,27,28,-1,28,27,29,-1,28,29,30,-1,30,29,31,-1,30,31,32,-1,32,31,33,-1,32,33,34,-1,34,33,0,-1,34,0,2,-1,16,35,14,-1,14,35,36,-1,
        ]
    }
}
Shape{
    appearance Appearance {
        material  Material 	{
            diffuseColor 0.7764705882352941 0.7568627450980392 0.7372549019607844
            specularColor 0.38823529411764707 0.3764705882352941 0.3686274509803922
            ambientIntensity 0.2
            transparency 0
            shininess 0.5
        }
    }
    geometry IndexedFaceSet {
        ccw TRUE
        solid FALSE
        coord DEF co Coordinate {
            point [
                -0.0219 0.0043 0.0, -0.0219 0.0043 0.0039, -0.026 0.0047 0.0039, -0.026 0.0047 0.0, -0.0293 0.0057 0.0039, -0.0293 0.0057 0.0, -0.032 0.0073 0.0039, -0.032 0.0073 0.0, -0.0342 0.0095 0.0039, -0.0342 0.0095 0.0, -0.0359 0.0122 0.0039, -0.0359 0.0122 0.0, -0.037 0.0159 0.0039, -0.037 0.0159 0.0, -0.0374 0.0201 0.0039, -0.0374 0.0201 0.0, -0.0374 0.0201 0.0
            ]
        }
        coordIndex [
            0,1,2,-1,0,2,3,-1,3,2,4,-1,3,4,5,-1,5,4,6,-1,5,6,7,-1,7,6,8,-1,7,8,9,-1,9,8,10,-1,9,10,11,-1,11,10,12,-1,11,12,13,-1,13,12,14,-1,13,14,15,-1,
        ]
    }
}
Shape{
    appearance Appearance {
        material  Material 	{
            diffuseColor 1.0 1.0 1.0
            specularColor 0.8784313725490196 0.8784313725490196 0.8784313725490196
            ambientIntensity 0.2
            transparency 0
            shininess 0.5
        }
    }
    geometry IndexedFaceSet {
        ccw TRUE
        solid FALSE
        coord DEF co Coordinate {
            point [
                -0.0374 0.0201 0.0, -0.0374 0.0201 0.0039, -0.0371 0.024 0.0039, -0.0371 0.024 0.0, -0.0361 0.0271 0.0039, -0.0361 0.0271 0.0, -0.0348 0.0295 0.0039, -0.0348 0.0295 0.0, -0.0329 0.0316 0.0039, -0.0329 0.0316 0.0, -0.03 0.0334 0.0039, -0.03 0.0334 0.0, -0.0267 0.0346 0.0039, -0.0267 0.0346 0.0, -0.0221 0.035 0.0039, -0.0221 0.035 0.0, -0.0163 0.035 0.0039, -0.0163 0.035 0.0, -0.0163 0.0043 0.0, -0.0163 0.0043 0.0039, 0.0178 0.0394 0.0039, 0.0178 0.0394 0.0, 0.0178 0.0 0.0039, 0.0178 0.0 0.0, -0.0023 0.0394 0.0039, -0.0023 0.0394 0.0, -0.0023 0.035 0.0039, -0.0023 0.035 0.0, 0.0125 0.035 0.0039, 0.0125 0.035 0.0, 0.0125 0.0221 0.0039, 0.0125 0.0221 0.0, -0.0014 0.0221 0.0039, -0.0014 0.0221 0.0, -0.0014 0.0178 0.0039, -0.0014 0.0178 0.0, 0.0125 0.0178 0.0039, 0.0125 0.0178 0.0, 0.0125 0.0043 0.0039, 0.0125 0.0043 0.0, -0.0033 0.0043 0.0039, -0.0033 0.0043 0.0, -0.0033 0.0 0.0039, -0.0033 0.0 0.0, 0.0387 -0.0002 0.0, 0.0363 -0.0005 0.0, 0.0363 -0.0005 0.0039, 0.0412 0.0 0.0, 0.0412 0.0 0.0039, 0.045 0.0013 0.0039, 0.045 0.0013 0.0, 0.0482 0.0034 0.0039, 0.0482 0.0034 0.0, 0.0511 0.0065 0.0039, 0.0511 0.0065 0.0, 0.0532 0.0102 0.0039, 0.0532 0.0102 0.0, 0.0544 0.0144 0.0039, 0.0544 0.0144 0.0, 0.0548 0.0189 0.0039, 0.0548 0.0189 0.0, 0.0542 0.0245 0.0039, 0.0542 0.0245 0.0, 0.0527 0.029 0.0039, 0.0527 0.029 0.0, 0.0504 0.0327 0.0039, 0.0504 0.0327 0.0, 0.0469 0.0361 0.0039, 0.0469 0.0361 0.0, 0.0431 0.0383 0.0039, 0.0431 0.0383 0.0, 0.0387 0.0395 0.0039, 0.0387 0.0395 0.0, 0.0348 0.0399 0.0039, 0.0348 0.0399 0.0, 0.0301 0.0395 0.0039, 0.0301 0.0395 0.0, 0.0255 0.0383 0.0039, 0.0255 0.0383 0.0, 0.0255 0.033 0.0039, 0.0255 0.033 0.0, 0.0299 0.0349 0.0039, 0.0299 0.0349 0.0, 0.0347 0.0355 0.0039, 0.0347 0.0355 0.0, 0.0386 0.0351 0.0039, 0.0386 0.0351 0.0, 0.0415 0.034 0.0039, 0.0415 0.034 0.0, 0.0443 0.0322 0.0039, 0.0443 0.0322 0.0, 0.0466 0.0296 0.0039, 0.0466 0.0296 0.0, 0.0483 0.0265 0.0039, 0.0483 0.0265 0.0, 0.0493 0.0223 0.0039, 0.0493 0.0223 0.0, 0.0495 0.0193 0.0039, 0.0495 0.0193 0.0, 0.0491 0.015 0.0039, 0.0491 0.015 0.0, 0.048 0.0116 0.0039, 0.048 0.0116 0.0, 0.0464 0.0089 0.0039, 0.0464 0.0089 0.0, 0.0446 0.0069 0.0039, 0.0446 0.0069 0.0, 0.0421 0.0053 0.0039, 0.0421 0.0053 0.0, 0.0393 0.0043 0.0039, 0.0393 0.0043 0.0, 0.0356 0.0038 0.0039, 0.0356 0.0038 0.0, 0.0304 0.0044 0.0039, 0.0304 0.0044 0.0, 0.0262 0.006 0.0039, 0.0262 0.006 0.0, 0.0255 0.0064 0.0039, 0.0255 0.0064 0.0, 0.0255 0.002 0.0039, 0.0255 0.002 0.0, 0.0297 0.0003 0.0, 0.0297 0.0003 0.0039, 0.0337 -0.0002 0.0, 0.0353 -0.0005 0.0039, 0.0353 -0.0005 0.0, 0.0783 0.0394 0.0039, 0.0783 0.0394 0.0, 0.0783 0.0 0.0039, 0.0783 0.0 0.0, 0.073 0.0394 0.0039, 0.073 0.0394 0.0, 0.073 0.0043 0.0039, 0.073 0.0043 0.0, 0.0582 0.0043 0.0039, 0.0582 0.0043 0.0, 0.0582 0.0 0.0039, 0.0582 0.0 0.0, 0.0582 0.0 0.0
            ]
        }
        coordIndex [
            0,1,2,-1,0,2,3,-1,3,2,4,-1,3,4,5,-1,5,4,6,-1,5,6,7,-1,7,6,8,-1,7,8,9,-1,9,8,10,-1,9,10,11,-1,11,10,12,-1,11,12,13,-1,13,12,14,-1,13,14,15,-1,16,17,14,-1,14,17,15,-1,18,17,19,-1,19,17,16,-1,20,21,22,-1,22,21,23,-1,24,25,20,-1,20,25,21,-1,26,27,24,-1,24,27,25,-1,28,29,26,-1,26,29,27,-1,30,31,28,-1,28,31,29,-1,32,33,30,-1,30,33,31,-1,34,35,32,-1,32,35,33,-1,36,37,34,-1,34,37,35,-1,38,39,36,-1,36,39,37,-1,40,41,38,-1,38,41,39,-1,42,43,40,-1,40,43,41,-1,42,22,43,-1,43,22,23,-1,22,42,40,-1,40,38,22,-1,22,38,36,-1,22,36,20,-1,26,24,28,-1,28,24,20,-1,28,20,30,-1,30,20,36,-1,30,36,32,-1,32,36,34,-1,44,45,46,-1,44,46,47,-1,46,48,47,-1,47,48,49,-1,47,49,50,-1,50,49,51,-1,50,51,52,-1,52,51,53,-1,52,53,54,-1,54,53,55,-1,54,55,56,-1,56,55,57,-1,56,57,58,-1,58,57,59,-1,58,59,60,-1,60,59,61,-1,60,61,62,-1,62,61,63,-1,62,63,64,-1,64,63,65,-1,64,65,66,-1,66,65,67,-1,66,67,68,-1,68,67,69,-1,68,69,70,-1,70,69,71,-1,70,71,72,-1,72,71,73,-1,72,73,74,-1,74,73,75,-1,74,75,76,-1,76,75,77,-1,76,77,78,-1,79,80,77,-1,77,80,78,-1,80,79,81,-1,80,81,82,-1,82,81,83,-1,82,83,84,-1,84,83,85,-1,84,85,86,-1,86,85,87,-1,86,87,88,-1,88,87,89,-1,88,89,90,-1,90,89,91,-1,90,91,92,-1,92,91,93,-1,92,93,94,-1,94,93,95,-1,94,95,96,-1,96,95,97,-1,96,97,98,-1,98,97,99,-1,98,99,100,-1,100,99,101,-1,100,101,102,-1,102,101,103,-1,102,103,104,-1,104,103,105,-1,104,105,106,-1,106,105,107,-1,106,107,108,-1,108,107,109,-1,108,109,110,-1,110,109,111,-1,110,111,112,-1,112,111,113,-1,112,113,114,-1,114,113,115,-1,114,115,116,-1,116,115,117,-1,116,117,118,-1,119,120,117,-1,117,120,118,-1,121,120,122,-1,122,120,119,-1,121,122,123,-1,123,122,124,-1,123,124,125,-1,125,124,46,-1,125,46,45,-1,109,46,111,-1,111,46,124,-1,111,124,113,-1,113,124,122,-1,113,122,115,-1,115,122,119,-1,115,119,117,-1,79,77,81,-1,81,77,75,-1,81,75,83,-1,83,75,73,-1,83,73,85,-1,85,73,71,-1,85,71,87,-1,87,71,69,-1,87,69,89,-1,89,69,67,-1,89,67,91,-1,91,67,65,-1,91,65,93,-1,93,65,63,-1,93,63,95,-1,95,63,61,-1,95,61,97,-1,97,61,59,-1,97,59,99,-1,99,59,57,-1,99,57,101,-1,101,57,55,-1,101,55,103,-1,103,55,53,-1,103,53,105,-1,105,53,51,-1,105,51,107,-1,107,51,49,-1,107,49,109,-1,109,49,48,-1,109,48,46,-1,126,127,128,-1,128,127,129,-1,130,131,126,-1,126,131,127,-1,132,133,130,-1,130,133,131,-1,134,135,132,-1,132,135,133,-1,136,137,134,-1,134,137,135,-1,136,128,137,-1,137,128,129,-1,130,126,132,-1,132,126,128,-1,132,128,134,-1,134,128,136,-1,
        ]
    }
}
Shape{
    appearance Appearance {
        material  Material 	{
            diffuseColor 0.10980392156862745 0.10980392156862745 0.10980392156862745
            specularColor 0.0784313725490196 0.0784313725490196 0.0784313725490196
            ambientIntensity 0.2
            transparency 0
            shininess 0.5
        }
    }
    geometry IndexedFaceSet {
        ccw TRUE
        solid FALSE
        coord DEF co Coordinate {
            point [
                -0.0564 0.0154 0.0, -0.0696 0.0154 0.0, -0.0623 0.0318 0.0, -0.0636 0.0318 0.0, -0.0627 0.0332 0.0, -0.0633 0.0332 0.0, -0.0629 0.0346 0.0, -0.063 0.0346 0.0, -0.0163 0.035 0.0, -0.0163 0.0043 0.0, -0.0221 0.035 0.0, -0.0219 0.0043 0.0, -0.026 0.0047 0.0, -0.0374 0.0201 0.0, -0.0371 0.024 0.0, -0.0361 0.0271 0.0, -0.0267 0.0346 0.0, -0.0293 0.0057 0.0, -0.032 0.0073 0.0, -0.0342 0.0095 0.0, -0.0359 0.0122 0.0, -0.037 0.0159 0.0, -0.0348 0.0295 0.0, -0.0329 0.0316 0.0, -0.03 0.0334 0.0, -0.03 0.0334 0.0
            ]
        }
        coordIndex [
            0,1,2,-1,2,1,3,-1,2,3,4,-1,4,3,5,-1,4,5,6,-1,6,5,7,-1,8,9,10,-1,10,9,11,-1,10,11,12,-1,13,14,10,-1,10,14,15,-1,10,15,16,-1,12,17,10,-1,10,17,18,-1,10,18,19,-1,19,20,10,-1,10,20,21,-1,10,21,13,-1,22,23,15,-1,15,23,24,-1,15,24,16,-1,
        ]
    }
}
Shape{
    appearance Appearance {
        material  Material 	{
            diffuseColor 0.7764705882352941 0.7568627450980392 0.7372549019607844
            specularColor 0.38823529411764707 0.3764705882352941 0.3686274509803922
            ambientIntensity 0.2
            transparency 0
            shininess 0.5
        }
    }
    geometry IndexedFaceSet {
        ccw TRUE
        solid FALSE
        coord DEF co Coordinate {
            point [
                0.5906 0.2943 0.0, 0.4331 0.2943 0.0, 0.5906 0.2943 0.0157, 0.4331 0.2943 0.0157, 0.5906 0.1467 0.0, 0.5906 0.1467 0.0157, 0.4331 0.1467 0.0, 0.4331 0.1467 0.0157, -0.4331 -0.2943 0.0, -0.4331 -0.1467 0.0, -0.4331 -0.2943 0.0157, -0.4331 -0.1467 0.0157, -0.5906 -0.2943 0.0, -0.5906 -0.2943 0.0157, -0.5906 -0.1467 0.0, -0.5906 -0.1467 0.0157, 0.5906 -0.2943 0.0, 0.5906 -0.1467 0.0, 0.5906 -0.2943 0.0157, 0.5906 -0.1467 0.0157, 0.4331 -0.2943 0.0, 0.4331 -0.2943 0.0157, 0.4331 -0.1467 0.0, 0.4331 -0.1467 0.0157, -0.5906 0.2943 0.0, -0.5906 0.1467 0.0, -0.5906 0.2943 0.0157, -0.5906 0.1467 0.0157, -0.4331 0.2943 0.0, -0.4331 0.2943 0.0157, -0.4331 0.1467 0.0, -0.4331 0.1467 0.0157, -0.4331 0.1467 0.0157
            ]
        }
        coordIndex [
            0,1,2,-1,2,1,3,-1,4,0,5,-1,5,0,2,-1,6,4,7,-1,7,4,5,-1,1,6,3,-1,3,6,7,-1,4,6,0,-1,0,6,1,-1,7,5,3,-1,3,5,2,-1,8,9,10,-1,10,9,11,-1,12,8,13,-1,13,8,10,-1,14,12,15,-1,15,12,13,-1,9,14,11,-1,11,14,15,-1,12,14,8,-1,8,14,9,-1,15,13,11,-1,11,13,10,-1,16,17,18,-1,18,17,19,-1,20,16,21,-1,21,16,18,-1,22,20,23,-1,23,20,21,-1,17,22,19,-1,19,22,23,-1,20,22,16,-1,16,22,17,-1,23,21,19,-1,19,21,18,-1,24,25,26,-1,26,25,27,-1,28,24,29,-1,29,24,26,-1,30,28,31,-1,31,28,29,-1,25,30,27,-1,27,30,31,-1,28,30,24,-1,24,30,25,-1,31,29,27,-1,27,29,26,-1,
        ]
    }
}