%TF.GenerationSoftware,KiCad,Pcbnew,9.0.7*%
%TF.CreationDate,2026-03-03T12:26:19+04:00*%
%TF.ProjectId,fpga_board,66706761-5f62-46f6-9172-642e6b696361,rev?*%
%TF.SameCoordinates,Original*%
%TF.FileFunction,Legend,Bot*%
%TF.FilePolarity,Positive*%
%FSLAX46Y46*%
G04 Gerber Fmt 4.6, Leading zero omitted, Abs format (unit mm)*
G04 Created by KiCad (PCBNEW 9.0.7) date 2026-03-03 12:26:19*
%MOMM*%
%LPD*%
G01*
G04 APERTURE LIST*
%ADD10C,0.100000*%
%ADD11C,0.150000*%
%ADD12C,0.120000*%
G04 APERTURE END LIST*
D10*
G36*
X107564026Y-85179633D02*
G01*
X107126343Y-85179633D01*
X107126343Y-85265607D01*
X107037316Y-85265607D01*
X107037316Y-85441461D01*
X107212316Y-85441461D01*
X107212316Y-85267255D01*
X107475000Y-85267255D01*
X107475000Y-85967377D01*
X107212316Y-85967377D01*
X107212316Y-85793171D01*
X107037316Y-85793171D01*
X107037316Y-85967377D01*
X107126343Y-85967377D01*
X107126343Y-86055000D01*
X107564026Y-86055000D01*
X107564026Y-85967377D01*
X107650000Y-85967377D01*
X107650000Y-85265607D01*
X107564026Y-85265607D01*
X107564026Y-85179633D01*
G37*
G36*
X106950488Y-85179633D02*
G01*
X106336950Y-85179633D01*
X106336950Y-85441461D01*
X106422923Y-85441461D01*
X106422923Y-85354389D01*
X106512805Y-85354389D01*
X106512805Y-85267255D01*
X106688660Y-85267255D01*
X106688660Y-85527435D01*
X106598778Y-85527435D01*
X106598778Y-85441461D01*
X106512805Y-85441461D01*
X106512805Y-85793171D01*
X106598778Y-85793171D01*
X106598778Y-85703290D01*
X106688660Y-85703290D01*
X106688660Y-85967377D01*
X106598778Y-85967377D01*
X106598778Y-86055000D01*
X106950488Y-86055000D01*
X106950488Y-85967377D01*
X106863660Y-85967377D01*
X106863660Y-85267255D01*
X106950488Y-85267255D01*
X106950488Y-85179633D01*
G37*
G36*
X106165003Y-85179633D02*
G01*
X105727320Y-85179633D01*
X105727320Y-85265607D01*
X105638293Y-85265607D01*
X105638293Y-85441461D01*
X105813293Y-85441461D01*
X105813293Y-85267255D01*
X106075976Y-85267255D01*
X106075976Y-85967377D01*
X105813293Y-85967377D01*
X105813293Y-85704938D01*
X105900854Y-85704938D01*
X105900854Y-85617316D01*
X105638293Y-85617316D01*
X105638293Y-86055000D01*
X106165003Y-86055000D01*
X106165003Y-85965118D01*
X106250976Y-85965118D01*
X106250976Y-85265607D01*
X106165003Y-85265607D01*
X106165003Y-85179633D01*
G37*
G36*
X105551465Y-86143232D02*
G01*
X104851953Y-86143232D01*
X104851953Y-86230854D01*
X105551465Y-86230854D01*
X105551465Y-86143232D01*
G37*
G36*
X104590125Y-85179633D02*
G01*
X104415125Y-85179633D01*
X104415125Y-85967377D01*
X104242323Y-85967377D01*
X104242323Y-86055000D01*
X104765980Y-86055000D01*
X104765980Y-85967377D01*
X104590125Y-85967377D01*
X104590125Y-85441461D01*
X104765980Y-85441461D01*
X104765980Y-85353839D01*
X104678053Y-85353839D01*
X104678053Y-85266706D01*
X104590125Y-85266706D01*
X104590125Y-85179633D01*
G37*
G36*
X87300000Y-51529633D02*
G01*
X86686461Y-51529633D01*
X86686461Y-51791461D01*
X86772435Y-51791461D01*
X86772435Y-51704389D01*
X86862316Y-51704389D01*
X86862316Y-51617255D01*
X87038171Y-51617255D01*
X87038171Y-51877435D01*
X86948290Y-51877435D01*
X86948290Y-51791461D01*
X86862316Y-51791461D01*
X86862316Y-52143171D01*
X86948290Y-52143171D01*
X86948290Y-52053290D01*
X87038171Y-52053290D01*
X87038171Y-52317377D01*
X86948290Y-52317377D01*
X86948290Y-52405000D01*
X87300000Y-52405000D01*
X87300000Y-52317377D01*
X87213171Y-52317377D01*
X87213171Y-51617255D01*
X87300000Y-51617255D01*
X87300000Y-51529633D01*
G37*
G36*
X86513660Y-51529633D02*
G01*
X86076831Y-51529633D01*
X86076831Y-51615607D01*
X85987805Y-51615607D01*
X85987805Y-51791461D01*
X86162805Y-51791461D01*
X86162805Y-51617255D01*
X86425488Y-51617255D01*
X86425488Y-51791461D01*
X86338660Y-51791461D01*
X86338660Y-51879694D01*
X86162805Y-51879694D01*
X86162805Y-51966767D01*
X86076831Y-51966767D01*
X86076831Y-52055549D01*
X85987805Y-52055549D01*
X85987805Y-52317377D01*
X86076831Y-52317377D01*
X86076831Y-52405000D01*
X86513660Y-52405000D01*
X86513660Y-52317377D01*
X86600488Y-52317377D01*
X86600488Y-52143171D01*
X86425488Y-52143171D01*
X86425488Y-52317377D01*
X86162805Y-52317377D01*
X86162805Y-52055549D01*
X86251831Y-52055549D01*
X86251831Y-51966767D01*
X86424633Y-51966767D01*
X86424633Y-51879694D01*
X86513660Y-51879694D01*
X86513660Y-51791461D01*
X86600488Y-51791461D01*
X86600488Y-51615607D01*
X86513660Y-51615607D01*
X86513660Y-51529633D01*
G37*
G36*
X85900976Y-51529633D02*
G01*
X85549267Y-51529633D01*
X85549267Y-51617255D01*
X85639148Y-51617255D01*
X85639148Y-52317377D01*
X85461339Y-52317377D01*
X85461339Y-52229816D01*
X85373412Y-52229816D01*
X85373412Y-52142316D01*
X85287438Y-52142316D01*
X85287438Y-52405000D01*
X85900976Y-52405000D01*
X85900976Y-52317377D01*
X85814148Y-52317377D01*
X85814148Y-51617255D01*
X85900976Y-51617255D01*
X85900976Y-51529633D01*
G37*
G36*
X85115491Y-51529633D02*
G01*
X84677808Y-51529633D01*
X84677808Y-51615607D01*
X84588782Y-51615607D01*
X84588782Y-51791461D01*
X84763782Y-51791461D01*
X84763782Y-51617255D01*
X85026465Y-51617255D01*
X85026465Y-52317377D01*
X84763782Y-52317377D01*
X84763782Y-52143171D01*
X84588782Y-52143171D01*
X84588782Y-52317377D01*
X84677808Y-52317377D01*
X84677808Y-52405000D01*
X85115491Y-52405000D01*
X85115491Y-52317377D01*
X85201465Y-52317377D01*
X85201465Y-51615607D01*
X85115491Y-51615607D01*
X85115491Y-51529633D01*
G37*
G36*
X84501953Y-52493232D02*
G01*
X83802442Y-52493232D01*
X83802442Y-52580854D01*
X84501953Y-52580854D01*
X84501953Y-52493232D01*
G37*
G36*
X83715614Y-51529633D02*
G01*
X83278785Y-51529633D01*
X83278785Y-51615607D01*
X83188049Y-51615607D01*
X83188049Y-51791461D01*
X83278785Y-51791461D01*
X83278785Y-51877435D01*
X83363904Y-51877435D01*
X83363904Y-51967316D01*
X83451587Y-51967316D01*
X83451587Y-52053290D01*
X83540614Y-52053290D01*
X83540614Y-52142072D01*
X83627442Y-52142072D01*
X83627442Y-52317377D01*
X83363904Y-52317377D01*
X83363904Y-52229694D01*
X83188049Y-52229694D01*
X83188049Y-52405000D01*
X83802442Y-52405000D01*
X83802442Y-52142072D01*
X83715614Y-52142072D01*
X83715614Y-52053290D01*
X83626587Y-52053290D01*
X83626587Y-51967316D01*
X83539759Y-51967316D01*
X83539759Y-51877435D01*
X83451587Y-51877435D01*
X83451587Y-51791461D01*
X83363904Y-51791461D01*
X83363904Y-51617255D01*
X83627442Y-51617255D01*
X83627442Y-51703229D01*
X83802442Y-51703229D01*
X83802442Y-51615607D01*
X83715614Y-51615607D01*
X83715614Y-51529633D01*
G37*
G36*
X107564026Y-86379633D02*
G01*
X107126343Y-86379633D01*
X107126343Y-86465607D01*
X107037316Y-86465607D01*
X107037316Y-86641461D01*
X107212316Y-86641461D01*
X107212316Y-86467255D01*
X107475000Y-86467255D01*
X107475000Y-87167377D01*
X107212316Y-87167377D01*
X107212316Y-86993171D01*
X107037316Y-86993171D01*
X107037316Y-87167377D01*
X107126343Y-87167377D01*
X107126343Y-87255000D01*
X107564026Y-87255000D01*
X107564026Y-87167377D01*
X107650000Y-87167377D01*
X107650000Y-86465607D01*
X107564026Y-86465607D01*
X107564026Y-86379633D01*
G37*
G36*
X106950488Y-86379633D02*
G01*
X106336950Y-86379633D01*
X106336950Y-86641461D01*
X106422923Y-86641461D01*
X106422923Y-86554389D01*
X106512805Y-86554389D01*
X106512805Y-86467255D01*
X106688660Y-86467255D01*
X106688660Y-86727435D01*
X106598778Y-86727435D01*
X106598778Y-86641461D01*
X106512805Y-86641461D01*
X106512805Y-86993171D01*
X106598778Y-86993171D01*
X106598778Y-86903290D01*
X106688660Y-86903290D01*
X106688660Y-87167377D01*
X106598778Y-87167377D01*
X106598778Y-87255000D01*
X106950488Y-87255000D01*
X106950488Y-87167377D01*
X106863660Y-87167377D01*
X106863660Y-86467255D01*
X106950488Y-86467255D01*
X106950488Y-86379633D01*
G37*
G36*
X106165003Y-86379633D02*
G01*
X105727320Y-86379633D01*
X105727320Y-86465607D01*
X105638293Y-86465607D01*
X105638293Y-86641461D01*
X105813293Y-86641461D01*
X105813293Y-86467255D01*
X106075976Y-86467255D01*
X106075976Y-87167377D01*
X105813293Y-87167377D01*
X105813293Y-86904938D01*
X105900854Y-86904938D01*
X105900854Y-86817316D01*
X105638293Y-86817316D01*
X105638293Y-87255000D01*
X106165003Y-87255000D01*
X106165003Y-87165118D01*
X106250976Y-87165118D01*
X106250976Y-86465607D01*
X106165003Y-86465607D01*
X106165003Y-86379633D01*
G37*
G36*
X105551465Y-87343232D02*
G01*
X104851953Y-87343232D01*
X104851953Y-87430854D01*
X105551465Y-87430854D01*
X105551465Y-87343232D01*
G37*
G36*
X104765125Y-86379633D02*
G01*
X104328297Y-86379633D01*
X104328297Y-86465607D01*
X104237561Y-86465607D01*
X104237561Y-86641461D01*
X104328297Y-86641461D01*
X104328297Y-86727435D01*
X104413415Y-86727435D01*
X104413415Y-86817316D01*
X104501099Y-86817316D01*
X104501099Y-86903290D01*
X104590125Y-86903290D01*
X104590125Y-86992072D01*
X104676953Y-86992072D01*
X104676953Y-87167377D01*
X104413415Y-87167377D01*
X104413415Y-87079694D01*
X104237561Y-87079694D01*
X104237561Y-87255000D01*
X104851953Y-87255000D01*
X104851953Y-86992072D01*
X104765125Y-86992072D01*
X104765125Y-86903290D01*
X104676099Y-86903290D01*
X104676099Y-86817316D01*
X104589270Y-86817316D01*
X104589270Y-86727435D01*
X104501099Y-86727435D01*
X104501099Y-86641461D01*
X104413415Y-86641461D01*
X104413415Y-86467255D01*
X104676953Y-86467255D01*
X104676953Y-86553229D01*
X104851953Y-86553229D01*
X104851953Y-86465607D01*
X104765125Y-86465607D01*
X104765125Y-86379633D01*
G37*
G36*
X93380675Y-58928187D02*
G01*
X93293846Y-58928187D01*
X93293846Y-59628309D01*
X93380675Y-59628309D01*
X93380675Y-59715932D01*
X93028965Y-59715932D01*
X93028965Y-59628309D01*
X93118846Y-59628309D01*
X93118846Y-59365870D01*
X92857018Y-59365870D01*
X92857018Y-59278248D01*
X92942991Y-59278248D01*
X93118846Y-59278248D01*
X93118846Y-58928187D01*
X92942991Y-58928187D01*
X92942991Y-59278248D01*
X92857018Y-59278248D01*
X92767991Y-59278248D01*
X92767991Y-58926539D01*
X92857018Y-58926539D01*
X92857018Y-58840565D01*
X93380675Y-58840565D01*
X93380675Y-58928187D01*
G37*
G36*
X92681163Y-58840565D02*
G01*
X92595190Y-58840565D01*
X92595190Y-58926539D01*
X92506896Y-58926539D01*
X92506896Y-59016420D01*
X92418663Y-59016420D01*
X92418663Y-59102393D01*
X92333361Y-59102393D01*
X92333361Y-59016420D01*
X92243480Y-59016420D01*
X92243480Y-58926539D01*
X92153598Y-58926539D01*
X92153598Y-58840565D01*
X92067625Y-58840565D01*
X92067625Y-59715932D01*
X92243480Y-59715932D01*
X92243480Y-59278248D01*
X92333361Y-59278248D01*
X92333361Y-59364222D01*
X92418663Y-59364222D01*
X92418663Y-59278248D01*
X92506896Y-59278248D01*
X92506896Y-59715932D01*
X92681163Y-59715932D01*
X92681163Y-58840565D01*
G37*
G36*
X91895678Y-58926539D02*
G01*
X91981651Y-58926539D01*
X91981651Y-59626050D01*
X91895678Y-59626050D01*
X91895678Y-59715932D01*
X91457995Y-59715932D01*
X91457995Y-59628309D01*
X91543968Y-59628309D01*
X91806651Y-59628309D01*
X91806651Y-58928187D01*
X91543968Y-58928187D01*
X91543968Y-59628309D01*
X91457995Y-59628309D01*
X91457995Y-59626050D01*
X91368968Y-59626050D01*
X91368968Y-58926539D01*
X91457995Y-58926539D01*
X91457995Y-58840565D01*
X91895678Y-58840565D01*
X91895678Y-58926539D01*
G37*
G36*
X91282140Y-58928187D02*
G01*
X91195312Y-58928187D01*
X91195312Y-59628309D01*
X91282140Y-59628309D01*
X91282140Y-59715932D01*
X90758483Y-59715932D01*
X90758483Y-59628309D01*
X90844457Y-59628309D01*
X91020312Y-59628309D01*
X91020312Y-58928187D01*
X90844457Y-58928187D01*
X90844457Y-59628309D01*
X90758483Y-59628309D01*
X90758483Y-59626050D01*
X90669457Y-59626050D01*
X90669457Y-58926539D01*
X90758483Y-58926539D01*
X90758483Y-58840565D01*
X91282140Y-58840565D01*
X91282140Y-58928187D01*
G37*
G36*
X90580675Y-58840565D02*
G01*
X89969090Y-58840565D01*
X89969090Y-59102393D01*
X90055064Y-59102393D01*
X90055064Y-59015321D01*
X90144945Y-59015321D01*
X90144945Y-58928187D01*
X90317747Y-58928187D01*
X90317747Y-59188367D01*
X90230919Y-59188367D01*
X90230919Y-59102393D01*
X90144945Y-59102393D01*
X90144945Y-59454103D01*
X90230919Y-59454103D01*
X90230919Y-59364222D01*
X90317747Y-59364222D01*
X90317747Y-59628309D01*
X90144945Y-59628309D01*
X90144945Y-59541176D01*
X90055064Y-59541176D01*
X90055064Y-59454103D01*
X89969090Y-59454103D01*
X89969090Y-59715932D01*
X90580675Y-59715932D01*
X90580675Y-59628309D01*
X90492747Y-59628309D01*
X90492747Y-58928187D01*
X90580675Y-58928187D01*
X90580675Y-58840565D01*
G37*
G36*
X89883117Y-59804164D02*
G01*
X89183605Y-59804164D01*
X89183605Y-59891786D01*
X89883117Y-59891786D01*
X89883117Y-59804164D01*
G37*
G36*
X88921777Y-58840565D02*
G01*
X88746777Y-58840565D01*
X88746777Y-59628309D01*
X88573975Y-59628309D01*
X88573975Y-59715932D01*
X89097632Y-59715932D01*
X89097632Y-59628309D01*
X88921777Y-59628309D01*
X88921777Y-59102393D01*
X89097632Y-59102393D01*
X89097632Y-59014771D01*
X89009705Y-59014771D01*
X89009705Y-58927638D01*
X88921777Y-58927638D01*
X88921777Y-58840565D01*
G37*
G36*
X73280000Y-64934633D02*
G01*
X73105000Y-64934633D01*
X73105000Y-65548171D01*
X73018171Y-65548171D01*
X73018171Y-65634145D01*
X72931343Y-65634145D01*
X72931343Y-65548171D01*
X72843171Y-65548171D01*
X72843171Y-64934633D01*
X72669026Y-64934633D01*
X72669026Y-65548171D01*
X72756343Y-65548171D01*
X72756343Y-65634145D01*
X72843171Y-65634145D01*
X72843171Y-65724026D01*
X72932198Y-65724026D01*
X72932198Y-65810000D01*
X73018171Y-65810000D01*
X73018171Y-65724026D01*
X73104145Y-65724026D01*
X73104145Y-65634145D01*
X73193171Y-65634145D01*
X73193171Y-65548171D01*
X73280000Y-65548171D01*
X73280000Y-64934633D01*
G37*
G36*
X72580488Y-65022255D02*
G01*
X72493660Y-65022255D01*
X72493660Y-65722377D01*
X72580488Y-65722377D01*
X72580488Y-65810000D01*
X72318660Y-65810000D01*
X72318660Y-65459938D01*
X72231831Y-65459938D01*
X72231831Y-65548171D01*
X72142805Y-65548171D01*
X72142805Y-65810000D01*
X71967805Y-65810000D01*
X71967805Y-65548171D01*
X72056831Y-65548171D01*
X72056831Y-65372316D01*
X72142805Y-65372316D01*
X72318660Y-65372316D01*
X72318660Y-65022255D01*
X72142805Y-65022255D01*
X72142805Y-65372316D01*
X72056831Y-65372316D01*
X71967805Y-65372316D01*
X71967805Y-65020607D01*
X72056831Y-65020607D01*
X72056831Y-64934633D01*
X72580488Y-64934633D01*
X72580488Y-65022255D01*
G37*
G36*
X71879023Y-64934633D02*
G01*
X71267438Y-64934633D01*
X71267438Y-65196461D01*
X71353412Y-65196461D01*
X71353412Y-65109389D01*
X71443293Y-65109389D01*
X71443293Y-65022255D01*
X71616095Y-65022255D01*
X71616095Y-65282435D01*
X71529267Y-65282435D01*
X71529267Y-65196461D01*
X71443293Y-65196461D01*
X71443293Y-65548171D01*
X71529267Y-65548171D01*
X71529267Y-65458290D01*
X71616095Y-65458290D01*
X71616095Y-65722377D01*
X71443293Y-65722377D01*
X71443293Y-65635244D01*
X71353412Y-65635244D01*
X71353412Y-65548171D01*
X71267438Y-65548171D01*
X71267438Y-65810000D01*
X71879023Y-65810000D01*
X71879023Y-65722377D01*
X71791095Y-65722377D01*
X71791095Y-65022255D01*
X71879023Y-65022255D01*
X71879023Y-64934633D01*
G37*
G36*
X71181465Y-64934633D02*
G01*
X70567927Y-64934633D01*
X70567927Y-65196461D01*
X70653900Y-65196461D01*
X70653900Y-65109389D01*
X70743782Y-65109389D01*
X70743782Y-65022255D01*
X70919637Y-65022255D01*
X70919637Y-65282435D01*
X70829755Y-65282435D01*
X70829755Y-65196461D01*
X70743782Y-65196461D01*
X70743782Y-65548171D01*
X70829755Y-65548171D01*
X70829755Y-65458290D01*
X70919637Y-65458290D01*
X70919637Y-65722377D01*
X70829755Y-65722377D01*
X70829755Y-65810000D01*
X71181465Y-65810000D01*
X71181465Y-65722377D01*
X71094637Y-65722377D01*
X71094637Y-65022255D01*
X71181465Y-65022255D01*
X71181465Y-64934633D01*
G37*
G36*
X93254633Y-50361828D02*
G01*
X93254633Y-50798656D01*
X93340607Y-50798656D01*
X93340607Y-50887683D01*
X93516461Y-50887683D01*
X93516461Y-50712683D01*
X93342255Y-50712683D01*
X93342255Y-50450000D01*
X93516461Y-50450000D01*
X93516461Y-50536828D01*
X93604694Y-50536828D01*
X93604694Y-50712683D01*
X93691767Y-50712683D01*
X93691767Y-50798656D01*
X93780549Y-50798656D01*
X93780549Y-50887683D01*
X94042377Y-50887683D01*
X94042377Y-50798656D01*
X94130000Y-50798656D01*
X94130000Y-50361828D01*
X94042377Y-50361828D01*
X94042377Y-50275000D01*
X93868171Y-50275000D01*
X93868171Y-50450000D01*
X94042377Y-50450000D01*
X94042377Y-50712683D01*
X93780549Y-50712683D01*
X93780549Y-50623656D01*
X93691767Y-50623656D01*
X93691767Y-50450854D01*
X93604694Y-50450854D01*
X93604694Y-50361828D01*
X93516461Y-50361828D01*
X93516461Y-50275000D01*
X93340607Y-50275000D01*
X93340607Y-50361828D01*
X93254633Y-50361828D01*
G37*
G36*
X93254633Y-51061339D02*
G01*
X93254633Y-51498168D01*
X93340607Y-51498168D01*
X93340607Y-51587194D01*
X93516461Y-51587194D01*
X93516461Y-51412194D01*
X93342255Y-51412194D01*
X93342255Y-51149511D01*
X93516461Y-51149511D01*
X93516461Y-51236339D01*
X93604694Y-51236339D01*
X93604694Y-51412194D01*
X93691767Y-51412194D01*
X93691767Y-51498168D01*
X93780549Y-51498168D01*
X93780549Y-51587194D01*
X94042377Y-51587194D01*
X94042377Y-51498168D01*
X94130000Y-51498168D01*
X94130000Y-51061339D01*
X94042377Y-51061339D01*
X94042377Y-50974511D01*
X93868171Y-50974511D01*
X93868171Y-51149511D01*
X94042377Y-51149511D01*
X94042377Y-51412194D01*
X93780549Y-51412194D01*
X93780549Y-51323168D01*
X93691767Y-51323168D01*
X93691767Y-51150366D01*
X93604694Y-51150366D01*
X93604694Y-51061339D01*
X93516461Y-51061339D01*
X93516461Y-50974511D01*
X93340607Y-50974511D01*
X93340607Y-51061339D01*
X93254633Y-51061339D01*
G37*
G36*
X93254633Y-51674023D02*
G01*
X93254633Y-51759996D01*
X93340607Y-51759996D01*
X93340607Y-51847923D01*
X93430488Y-51847923D01*
X93430488Y-51935851D01*
X93516461Y-51935851D01*
X93516461Y-52023778D01*
X93606343Y-52023778D01*
X93606343Y-52111706D01*
X93254633Y-52111706D01*
X93254633Y-52286706D01*
X94130000Y-52286706D01*
X94130000Y-52111706D01*
X93868171Y-52111706D01*
X93868171Y-52023778D01*
X93778290Y-52023778D01*
X93778290Y-51935851D01*
X93692316Y-51935851D01*
X93692316Y-51847923D01*
X94130000Y-51847923D01*
X94130000Y-51674023D01*
X93254633Y-51674023D01*
G37*
G36*
X94218232Y-52373534D02*
G01*
X94218232Y-53073046D01*
X94305854Y-53073046D01*
X94305854Y-52373534D01*
X94218232Y-52373534D01*
G37*
G36*
X94040118Y-53159019D02*
G01*
X94130000Y-53159019D01*
X94130000Y-53596702D01*
X94040118Y-53596702D01*
X94040118Y-53685729D01*
X93340607Y-53685729D01*
X93340607Y-53596702D01*
X93254633Y-53596702D01*
X93254633Y-53510729D01*
X93342255Y-53510729D01*
X93516461Y-53510729D01*
X93516461Y-53423168D01*
X93602435Y-53423168D01*
X93692316Y-53423168D01*
X93692316Y-53510729D01*
X94042377Y-53510729D01*
X94042377Y-53248046D01*
X93868171Y-53248046D01*
X93868171Y-53335607D01*
X93778290Y-53335607D01*
X93778290Y-53423168D01*
X93692316Y-53423168D01*
X93602435Y-53423168D01*
X93602435Y-53335607D01*
X93692316Y-53335607D01*
X93692316Y-53248046D01*
X93342255Y-53248046D01*
X93342255Y-53510729D01*
X93254633Y-53510729D01*
X93254633Y-53159019D01*
X93340607Y-53159019D01*
X93340607Y-53073046D01*
X94040118Y-53073046D01*
X94040118Y-53159019D01*
G37*
G36*
X93370000Y-57822255D02*
G01*
X93283171Y-57822255D01*
X93283171Y-58522377D01*
X93370000Y-58522377D01*
X93370000Y-58610000D01*
X93018290Y-58610000D01*
X93018290Y-58522377D01*
X93108171Y-58522377D01*
X93108171Y-58259938D01*
X92846343Y-58259938D01*
X92846343Y-58172316D01*
X92932316Y-58172316D01*
X93108171Y-58172316D01*
X93108171Y-57822255D01*
X92932316Y-57822255D01*
X92932316Y-58172316D01*
X92846343Y-58172316D01*
X92757316Y-58172316D01*
X92757316Y-57820607D01*
X92846343Y-57820607D01*
X92846343Y-57734633D01*
X93370000Y-57734633D01*
X93370000Y-57822255D01*
G37*
G36*
X92670488Y-57734633D02*
G01*
X92584515Y-57734633D01*
X92584515Y-57820607D01*
X92496221Y-57820607D01*
X92496221Y-57910488D01*
X92407988Y-57910488D01*
X92407988Y-57996461D01*
X92322686Y-57996461D01*
X92322686Y-57910488D01*
X92232805Y-57910488D01*
X92232805Y-57820607D01*
X92142923Y-57820607D01*
X92142923Y-57734633D01*
X92056950Y-57734633D01*
X92056950Y-58610000D01*
X92232805Y-58610000D01*
X92232805Y-58172316D01*
X92322686Y-58172316D01*
X92322686Y-58258290D01*
X92407988Y-58258290D01*
X92407988Y-58172316D01*
X92496221Y-58172316D01*
X92496221Y-58610000D01*
X92670488Y-58610000D01*
X92670488Y-57734633D01*
G37*
G36*
X91885003Y-57820607D02*
G01*
X91970976Y-57820607D01*
X91970976Y-58520118D01*
X91885003Y-58520118D01*
X91885003Y-58610000D01*
X91447320Y-58610000D01*
X91447320Y-58522377D01*
X91533293Y-58522377D01*
X91795976Y-58522377D01*
X91795976Y-57822255D01*
X91533293Y-57822255D01*
X91533293Y-58522377D01*
X91447320Y-58522377D01*
X91447320Y-58520118D01*
X91358293Y-58520118D01*
X91358293Y-57820607D01*
X91447320Y-57820607D01*
X91447320Y-57734633D01*
X91885003Y-57734633D01*
X91885003Y-57820607D01*
G37*
G36*
X91271465Y-57822255D02*
G01*
X91184637Y-57822255D01*
X91184637Y-58522377D01*
X91271465Y-58522377D01*
X91271465Y-58610000D01*
X90747808Y-58610000D01*
X90747808Y-58522377D01*
X90833782Y-58522377D01*
X91009637Y-58522377D01*
X91009637Y-57822255D01*
X90833782Y-57822255D01*
X90833782Y-58522377D01*
X90747808Y-58522377D01*
X90747808Y-58520118D01*
X90658782Y-58520118D01*
X90658782Y-57820607D01*
X90747808Y-57820607D01*
X90747808Y-57734633D01*
X91271465Y-57734633D01*
X91271465Y-57822255D01*
G37*
G36*
X90570000Y-57734633D02*
G01*
X89958415Y-57734633D01*
X89958415Y-57996461D01*
X90044389Y-57996461D01*
X90044389Y-57909389D01*
X90134270Y-57909389D01*
X90134270Y-57822255D01*
X90307072Y-57822255D01*
X90307072Y-58082435D01*
X90220244Y-58082435D01*
X90220244Y-57996461D01*
X90134270Y-57996461D01*
X90134270Y-58348171D01*
X90220244Y-58348171D01*
X90220244Y-58258290D01*
X90307072Y-58258290D01*
X90307072Y-58522377D01*
X90134270Y-58522377D01*
X90134270Y-58435244D01*
X90044389Y-58435244D01*
X90044389Y-58348171D01*
X89958415Y-58348171D01*
X89958415Y-58610000D01*
X90570000Y-58610000D01*
X90570000Y-58522377D01*
X90482072Y-58522377D01*
X90482072Y-57822255D01*
X90570000Y-57822255D01*
X90570000Y-57734633D01*
G37*
G36*
X89872442Y-58698232D02*
G01*
X89172930Y-58698232D01*
X89172930Y-58785854D01*
X89872442Y-58785854D01*
X89872442Y-58698232D01*
G37*
G36*
X89086957Y-57820607D02*
G01*
X89172930Y-57820607D01*
X89172930Y-58520118D01*
X89086957Y-58520118D01*
X89086957Y-58610000D01*
X88649274Y-58610000D01*
X88649274Y-58522377D01*
X88735247Y-58522377D01*
X88997930Y-58522377D01*
X88997930Y-58348171D01*
X88910369Y-58348171D01*
X88910369Y-58258290D01*
X88822808Y-58258290D01*
X88822808Y-58172316D01*
X88735247Y-58172316D01*
X88735247Y-58522377D01*
X88649274Y-58522377D01*
X88649274Y-58520118D01*
X88560247Y-58520118D01*
X88560247Y-57996461D01*
X88735247Y-57996461D01*
X88822808Y-57996461D01*
X88822808Y-58082435D01*
X88910369Y-58082435D01*
X88910369Y-58172316D01*
X88997930Y-58172316D01*
X88997930Y-57822255D01*
X88735247Y-57822255D01*
X88735247Y-57996461D01*
X88560247Y-57996461D01*
X88560247Y-57820607D01*
X88649274Y-57820607D01*
X88649274Y-57734633D01*
X89086957Y-57734633D01*
X89086957Y-57820607D01*
G37*
G36*
X107563171Y-88229633D02*
G01*
X107126343Y-88229633D01*
X107126343Y-88315607D01*
X107037316Y-88315607D01*
X107037316Y-88491461D01*
X107212316Y-88491461D01*
X107212316Y-88317255D01*
X107475000Y-88317255D01*
X107475000Y-88491461D01*
X107388171Y-88491461D01*
X107388171Y-88579694D01*
X107212316Y-88579694D01*
X107212316Y-88666767D01*
X107126343Y-88666767D01*
X107126343Y-88755549D01*
X107037316Y-88755549D01*
X107037316Y-89017377D01*
X107126343Y-89017377D01*
X107126343Y-89105000D01*
X107563171Y-89105000D01*
X107563171Y-89017377D01*
X107650000Y-89017377D01*
X107650000Y-88843171D01*
X107475000Y-88843171D01*
X107475000Y-89017377D01*
X107212316Y-89017377D01*
X107212316Y-88755549D01*
X107301343Y-88755549D01*
X107301343Y-88666767D01*
X107474145Y-88666767D01*
X107474145Y-88579694D01*
X107563171Y-88579694D01*
X107563171Y-88491461D01*
X107650000Y-88491461D01*
X107650000Y-88315607D01*
X107563171Y-88315607D01*
X107563171Y-88229633D01*
G37*
G36*
X106863660Y-88229633D02*
G01*
X106426831Y-88229633D01*
X106426831Y-88315607D01*
X106337805Y-88315607D01*
X106337805Y-88491461D01*
X106512805Y-88491461D01*
X106512805Y-88317255D01*
X106775488Y-88317255D01*
X106775488Y-88491461D01*
X106688660Y-88491461D01*
X106688660Y-88579694D01*
X106512805Y-88579694D01*
X106512805Y-88666767D01*
X106426831Y-88666767D01*
X106426831Y-88755549D01*
X106337805Y-88755549D01*
X106337805Y-89017377D01*
X106426831Y-89017377D01*
X106426831Y-89105000D01*
X106863660Y-89105000D01*
X106863660Y-89017377D01*
X106950488Y-89017377D01*
X106950488Y-88843171D01*
X106775488Y-88843171D01*
X106775488Y-89017377D01*
X106512805Y-89017377D01*
X106512805Y-88755549D01*
X106601831Y-88755549D01*
X106601831Y-88666767D01*
X106774633Y-88666767D01*
X106774633Y-88579694D01*
X106863660Y-88579694D01*
X106863660Y-88491461D01*
X106950488Y-88491461D01*
X106950488Y-88315607D01*
X106863660Y-88315607D01*
X106863660Y-88229633D01*
G37*
G36*
X106250976Y-88229633D02*
G01*
X106165003Y-88229633D01*
X106165003Y-88315607D01*
X106077076Y-88315607D01*
X106077076Y-88405488D01*
X105989148Y-88405488D01*
X105989148Y-88491461D01*
X105901221Y-88491461D01*
X105901221Y-88581343D01*
X105813293Y-88581343D01*
X105813293Y-88229633D01*
X105638293Y-88229633D01*
X105638293Y-89105000D01*
X105813293Y-89105000D01*
X105813293Y-88843171D01*
X105901221Y-88843171D01*
X105901221Y-88753290D01*
X105989148Y-88753290D01*
X105989148Y-88667316D01*
X106077076Y-88667316D01*
X106077076Y-89105000D01*
X106250976Y-89105000D01*
X106250976Y-88229633D01*
G37*
G36*
X105551465Y-89193232D02*
G01*
X104851953Y-89193232D01*
X104851953Y-89280854D01*
X105551465Y-89280854D01*
X105551465Y-89193232D01*
G37*
G36*
X104851953Y-88317255D02*
G01*
X104765125Y-88317255D01*
X104765125Y-89017377D01*
X104851953Y-89017377D01*
X104851953Y-89105000D01*
X104500244Y-89105000D01*
X104500244Y-89017377D01*
X104590125Y-89017377D01*
X104590125Y-88754938D01*
X104328297Y-88754938D01*
X104328297Y-88667316D01*
X104414270Y-88667316D01*
X104590125Y-88667316D01*
X104590125Y-88317255D01*
X104414270Y-88317255D01*
X104414270Y-88667316D01*
X104328297Y-88667316D01*
X104239270Y-88667316D01*
X104239270Y-88315607D01*
X104328297Y-88315607D01*
X104328297Y-88229633D01*
X104851953Y-88229633D01*
X104851953Y-88317255D01*
G37*
G36*
X104152442Y-88229633D02*
G01*
X103977442Y-88229633D01*
X103977442Y-89017377D01*
X103714759Y-89017377D01*
X103714759Y-88229633D01*
X103539759Y-88229633D01*
X103539759Y-89019026D01*
X103628785Y-89019026D01*
X103628785Y-89105000D01*
X104066468Y-89105000D01*
X104066468Y-89019026D01*
X104152442Y-89019026D01*
X104152442Y-88229633D01*
G37*
G36*
X107589026Y-83979633D02*
G01*
X107151343Y-83979633D01*
X107151343Y-84065607D01*
X107062316Y-84065607D01*
X107062316Y-84241461D01*
X107237316Y-84241461D01*
X107237316Y-84067255D01*
X107500000Y-84067255D01*
X107500000Y-84767377D01*
X107237316Y-84767377D01*
X107237316Y-84593171D01*
X107062316Y-84593171D01*
X107062316Y-84767377D01*
X107151343Y-84767377D01*
X107151343Y-84855000D01*
X107589026Y-84855000D01*
X107589026Y-84767377D01*
X107675000Y-84767377D01*
X107675000Y-84065607D01*
X107589026Y-84065607D01*
X107589026Y-83979633D01*
G37*
G36*
X106975488Y-83979633D02*
G01*
X106361950Y-83979633D01*
X106361950Y-84241461D01*
X106447923Y-84241461D01*
X106447923Y-84154389D01*
X106537805Y-84154389D01*
X106537805Y-84067255D01*
X106713660Y-84067255D01*
X106713660Y-84327435D01*
X106623778Y-84327435D01*
X106623778Y-84241461D01*
X106537805Y-84241461D01*
X106537805Y-84593171D01*
X106623778Y-84593171D01*
X106623778Y-84503290D01*
X106713660Y-84503290D01*
X106713660Y-84767377D01*
X106623778Y-84767377D01*
X106623778Y-84855000D01*
X106975488Y-84855000D01*
X106975488Y-84767377D01*
X106888660Y-84767377D01*
X106888660Y-84067255D01*
X106975488Y-84067255D01*
X106975488Y-83979633D01*
G37*
G36*
X106190003Y-83979633D02*
G01*
X105752320Y-83979633D01*
X105752320Y-84065607D01*
X105663293Y-84065607D01*
X105663293Y-84241461D01*
X105838293Y-84241461D01*
X105838293Y-84067255D01*
X106100976Y-84067255D01*
X106100976Y-84767377D01*
X105838293Y-84767377D01*
X105838293Y-84504938D01*
X105925854Y-84504938D01*
X105925854Y-84417316D01*
X105663293Y-84417316D01*
X105663293Y-84855000D01*
X106190003Y-84855000D01*
X106190003Y-84765118D01*
X106275976Y-84765118D01*
X106275976Y-84065607D01*
X106190003Y-84065607D01*
X106190003Y-83979633D01*
G37*
G36*
X105576465Y-84943232D02*
G01*
X104876953Y-84943232D01*
X104876953Y-85030854D01*
X105576465Y-85030854D01*
X105576465Y-84943232D01*
G37*
G36*
X104790980Y-84065607D02*
G01*
X104876953Y-84065607D01*
X104876953Y-84765118D01*
X104790980Y-84765118D01*
X104790980Y-84855000D01*
X104353297Y-84855000D01*
X104353297Y-84767377D01*
X104439270Y-84767377D01*
X104701953Y-84767377D01*
X104701953Y-84593171D01*
X104614392Y-84593171D01*
X104614392Y-84503290D01*
X104526831Y-84503290D01*
X104526831Y-84417316D01*
X104439270Y-84417316D01*
X104439270Y-84767377D01*
X104353297Y-84767377D01*
X104353297Y-84765118D01*
X104264270Y-84765118D01*
X104264270Y-84241461D01*
X104439270Y-84241461D01*
X104526831Y-84241461D01*
X104526831Y-84327435D01*
X104614392Y-84327435D01*
X104614392Y-84417316D01*
X104701953Y-84417316D01*
X104701953Y-84067255D01*
X104439270Y-84067255D01*
X104439270Y-84241461D01*
X104264270Y-84241461D01*
X104264270Y-84065607D01*
X104353297Y-84065607D01*
X104353297Y-83979633D01*
X104790980Y-83979633D01*
X104790980Y-84065607D01*
G37*
G36*
X93050000Y-49617255D02*
G01*
X92963171Y-49617255D01*
X92963171Y-50317377D01*
X93050000Y-50317377D01*
X93050000Y-50405000D01*
X92698290Y-50405000D01*
X92698290Y-50317377D01*
X92788171Y-50317377D01*
X92788171Y-50054938D01*
X92526343Y-50054938D01*
X92526343Y-49967316D01*
X92612316Y-49967316D01*
X92788171Y-49967316D01*
X92788171Y-49617255D01*
X92612316Y-49617255D01*
X92612316Y-49967316D01*
X92526343Y-49967316D01*
X92437316Y-49967316D01*
X92437316Y-49615607D01*
X92526343Y-49615607D01*
X92526343Y-49529633D01*
X93050000Y-49529633D01*
X93050000Y-49617255D01*
G37*
G36*
X92264515Y-49529633D02*
G01*
X91826831Y-49529633D01*
X91826831Y-49615607D01*
X91737805Y-49615607D01*
X91737805Y-49791461D01*
X91912805Y-49791461D01*
X91912805Y-49617255D01*
X92175488Y-49617255D01*
X92175488Y-50317377D01*
X91912805Y-50317377D01*
X91912805Y-50054938D01*
X92000366Y-50054938D01*
X92000366Y-49967316D01*
X91737805Y-49967316D01*
X91737805Y-50405000D01*
X92264515Y-50405000D01*
X92264515Y-50315118D01*
X92350488Y-50315118D01*
X92350488Y-49615607D01*
X92264515Y-49615607D01*
X92264515Y-49529633D01*
G37*
G36*
X91650976Y-50493232D02*
G01*
X90951465Y-50493232D01*
X90951465Y-50580854D01*
X91650976Y-50580854D01*
X91650976Y-50493232D01*
G37*
G36*
X90951465Y-49617255D02*
G01*
X90864637Y-49617255D01*
X90864637Y-50317377D01*
X90951465Y-50317377D01*
X90951465Y-50405000D01*
X90599755Y-50405000D01*
X90599755Y-50317377D01*
X90689637Y-50317377D01*
X90689637Y-50054938D01*
X90427808Y-50054938D01*
X90427808Y-49967316D01*
X90513782Y-49967316D01*
X90689637Y-49967316D01*
X90689637Y-49617255D01*
X90513782Y-49617255D01*
X90513782Y-49967316D01*
X90427808Y-49967316D01*
X90338782Y-49967316D01*
X90338782Y-49615607D01*
X90427808Y-49615607D01*
X90427808Y-49529633D01*
X90951465Y-49529633D01*
X90951465Y-49617255D01*
G37*
G36*
X90251953Y-49529633D02*
G01*
X90076953Y-49529633D01*
X90076953Y-50317377D01*
X89814270Y-50317377D01*
X89814270Y-49529633D01*
X89639270Y-49529633D01*
X89639270Y-50319026D01*
X89728297Y-50319026D01*
X89728297Y-50405000D01*
X90165980Y-50405000D01*
X90165980Y-50319026D01*
X90251953Y-50319026D01*
X90251953Y-49529633D01*
G37*
G36*
X87300000Y-49454633D02*
G01*
X86686461Y-49454633D01*
X86686461Y-49716461D01*
X86772435Y-49716461D01*
X86772435Y-49629389D01*
X86862316Y-49629389D01*
X86862316Y-49542255D01*
X87038171Y-49542255D01*
X87038171Y-49802435D01*
X86948290Y-49802435D01*
X86948290Y-49716461D01*
X86862316Y-49716461D01*
X86862316Y-50068171D01*
X86948290Y-50068171D01*
X86948290Y-49978290D01*
X87038171Y-49978290D01*
X87038171Y-50242377D01*
X86948290Y-50242377D01*
X86948290Y-50330000D01*
X87300000Y-50330000D01*
X87300000Y-50242377D01*
X87213171Y-50242377D01*
X87213171Y-49542255D01*
X87300000Y-49542255D01*
X87300000Y-49454633D01*
G37*
G36*
X86513660Y-49454633D02*
G01*
X86076831Y-49454633D01*
X86076831Y-49540607D01*
X85987805Y-49540607D01*
X85987805Y-49716461D01*
X86162805Y-49716461D01*
X86162805Y-49542255D01*
X86425488Y-49542255D01*
X86425488Y-49716461D01*
X86338660Y-49716461D01*
X86338660Y-49804694D01*
X86162805Y-49804694D01*
X86162805Y-49891767D01*
X86076831Y-49891767D01*
X86076831Y-49980549D01*
X85987805Y-49980549D01*
X85987805Y-50242377D01*
X86076831Y-50242377D01*
X86076831Y-50330000D01*
X86513660Y-50330000D01*
X86513660Y-50242377D01*
X86600488Y-50242377D01*
X86600488Y-50068171D01*
X86425488Y-50068171D01*
X86425488Y-50242377D01*
X86162805Y-50242377D01*
X86162805Y-49980549D01*
X86251831Y-49980549D01*
X86251831Y-49891767D01*
X86424633Y-49891767D01*
X86424633Y-49804694D01*
X86513660Y-49804694D01*
X86513660Y-49716461D01*
X86600488Y-49716461D01*
X86600488Y-49540607D01*
X86513660Y-49540607D01*
X86513660Y-49454633D01*
G37*
G36*
X85900976Y-49454633D02*
G01*
X85549267Y-49454633D01*
X85549267Y-49542255D01*
X85639148Y-49542255D01*
X85639148Y-50242377D01*
X85461339Y-50242377D01*
X85461339Y-50154816D01*
X85373412Y-50154816D01*
X85373412Y-50067316D01*
X85287438Y-50067316D01*
X85287438Y-50330000D01*
X85900976Y-50330000D01*
X85900976Y-50242377D01*
X85814148Y-50242377D01*
X85814148Y-49542255D01*
X85900976Y-49542255D01*
X85900976Y-49454633D01*
G37*
G36*
X85115491Y-49454633D02*
G01*
X84677808Y-49454633D01*
X84677808Y-49540607D01*
X84588782Y-49540607D01*
X84588782Y-49716461D01*
X84763782Y-49716461D01*
X84763782Y-49542255D01*
X85026465Y-49542255D01*
X85026465Y-50242377D01*
X84763782Y-50242377D01*
X84763782Y-50068171D01*
X84588782Y-50068171D01*
X84588782Y-50242377D01*
X84677808Y-50242377D01*
X84677808Y-50330000D01*
X85115491Y-50330000D01*
X85115491Y-50242377D01*
X85201465Y-50242377D01*
X85201465Y-49540607D01*
X85115491Y-49540607D01*
X85115491Y-49454633D01*
G37*
G36*
X84501953Y-50418232D02*
G01*
X83802442Y-50418232D01*
X83802442Y-50505854D01*
X84501953Y-50505854D01*
X84501953Y-50418232D01*
G37*
G36*
X83540614Y-49454633D02*
G01*
X83365614Y-49454633D01*
X83365614Y-50242377D01*
X83192812Y-50242377D01*
X83192812Y-50330000D01*
X83716468Y-50330000D01*
X83716468Y-50242377D01*
X83540614Y-50242377D01*
X83540614Y-49716461D01*
X83716468Y-49716461D01*
X83716468Y-49628839D01*
X83628541Y-49628839D01*
X83628541Y-49541706D01*
X83540614Y-49541706D01*
X83540614Y-49454633D01*
G37*
G36*
X93380000Y-59972255D02*
G01*
X93293171Y-59972255D01*
X93293171Y-60672377D01*
X93380000Y-60672377D01*
X93380000Y-60760000D01*
X93028290Y-60760000D01*
X93028290Y-60672377D01*
X93118171Y-60672377D01*
X93118171Y-60409938D01*
X92856343Y-60409938D01*
X92856343Y-60322316D01*
X92942316Y-60322316D01*
X93118171Y-60322316D01*
X93118171Y-59972255D01*
X92942316Y-59972255D01*
X92942316Y-60322316D01*
X92856343Y-60322316D01*
X92767316Y-60322316D01*
X92767316Y-59970607D01*
X92856343Y-59970607D01*
X92856343Y-59884633D01*
X93380000Y-59884633D01*
X93380000Y-59972255D01*
G37*
G36*
X92680488Y-59884633D02*
G01*
X92594515Y-59884633D01*
X92594515Y-59970607D01*
X92506221Y-59970607D01*
X92506221Y-60060488D01*
X92417988Y-60060488D01*
X92417988Y-60146461D01*
X92332686Y-60146461D01*
X92332686Y-60060488D01*
X92242805Y-60060488D01*
X92242805Y-59970607D01*
X92152923Y-59970607D01*
X92152923Y-59884633D01*
X92066950Y-59884633D01*
X92066950Y-60760000D01*
X92242805Y-60760000D01*
X92242805Y-60322316D01*
X92332686Y-60322316D01*
X92332686Y-60408290D01*
X92417988Y-60408290D01*
X92417988Y-60322316D01*
X92506221Y-60322316D01*
X92506221Y-60760000D01*
X92680488Y-60760000D01*
X92680488Y-59884633D01*
G37*
G36*
X91895003Y-59970607D02*
G01*
X91980976Y-59970607D01*
X91980976Y-60670118D01*
X91895003Y-60670118D01*
X91895003Y-60760000D01*
X91457320Y-60760000D01*
X91457320Y-60672377D01*
X91543293Y-60672377D01*
X91805976Y-60672377D01*
X91805976Y-59972255D01*
X91543293Y-59972255D01*
X91543293Y-60672377D01*
X91457320Y-60672377D01*
X91457320Y-60670118D01*
X91368293Y-60670118D01*
X91368293Y-59970607D01*
X91457320Y-59970607D01*
X91457320Y-59884633D01*
X91895003Y-59884633D01*
X91895003Y-59970607D01*
G37*
G36*
X91281465Y-59972255D02*
G01*
X91194637Y-59972255D01*
X91194637Y-60672377D01*
X91281465Y-60672377D01*
X91281465Y-60760000D01*
X90757808Y-60760000D01*
X90757808Y-60672377D01*
X90843782Y-60672377D01*
X91019637Y-60672377D01*
X91019637Y-59972255D01*
X90843782Y-59972255D01*
X90843782Y-60672377D01*
X90757808Y-60672377D01*
X90757808Y-60670118D01*
X90668782Y-60670118D01*
X90668782Y-59970607D01*
X90757808Y-59970607D01*
X90757808Y-59884633D01*
X91281465Y-59884633D01*
X91281465Y-59972255D01*
G37*
G36*
X90580000Y-59884633D02*
G01*
X89968415Y-59884633D01*
X89968415Y-60146461D01*
X90054389Y-60146461D01*
X90054389Y-60059389D01*
X90144270Y-60059389D01*
X90144270Y-59972255D01*
X90317072Y-59972255D01*
X90317072Y-60232435D01*
X90230244Y-60232435D01*
X90230244Y-60146461D01*
X90144270Y-60146461D01*
X90144270Y-60498171D01*
X90230244Y-60498171D01*
X90230244Y-60408290D01*
X90317072Y-60408290D01*
X90317072Y-60672377D01*
X90144270Y-60672377D01*
X90144270Y-60585244D01*
X90054389Y-60585244D01*
X90054389Y-60498171D01*
X89968415Y-60498171D01*
X89968415Y-60760000D01*
X90580000Y-60760000D01*
X90580000Y-60672377D01*
X90492072Y-60672377D01*
X90492072Y-59972255D01*
X90580000Y-59972255D01*
X90580000Y-59884633D01*
G37*
G36*
X89882442Y-60848232D02*
G01*
X89182930Y-60848232D01*
X89182930Y-60935854D01*
X89882442Y-60935854D01*
X89882442Y-60848232D01*
G37*
G36*
X89096102Y-59884633D02*
G01*
X88659274Y-59884633D01*
X88659274Y-59970607D01*
X88568538Y-59970607D01*
X88568538Y-60146461D01*
X88659274Y-60146461D01*
X88659274Y-60232435D01*
X88744392Y-60232435D01*
X88744392Y-60322316D01*
X88832076Y-60322316D01*
X88832076Y-60408290D01*
X88921102Y-60408290D01*
X88921102Y-60497072D01*
X89007930Y-60497072D01*
X89007930Y-60672377D01*
X88744392Y-60672377D01*
X88744392Y-60584694D01*
X88568538Y-60584694D01*
X88568538Y-60760000D01*
X89182930Y-60760000D01*
X89182930Y-60497072D01*
X89096102Y-60497072D01*
X89096102Y-60408290D01*
X89007076Y-60408290D01*
X89007076Y-60322316D01*
X88920247Y-60322316D01*
X88920247Y-60232435D01*
X88832076Y-60232435D01*
X88832076Y-60146461D01*
X88744392Y-60146461D01*
X88744392Y-59972255D01*
X89007930Y-59972255D01*
X89007930Y-60058229D01*
X89182930Y-60058229D01*
X89182930Y-59970607D01*
X89096102Y-59970607D01*
X89096102Y-59884633D01*
G37*
G36*
X90576709Y-52782622D02*
G01*
X90486828Y-52782622D01*
X90486828Y-53045061D01*
X90748656Y-53045061D01*
X90748656Y-53132683D01*
X90837683Y-53132683D01*
X90837683Y-53484392D01*
X90748656Y-53484392D01*
X90748656Y-53570366D01*
X90225000Y-53570366D01*
X90225000Y-53482744D01*
X90311828Y-53482744D01*
X90486828Y-53482744D01*
X90662683Y-53482744D01*
X90662683Y-53132683D01*
X90486828Y-53132683D01*
X90486828Y-53482744D01*
X90311828Y-53482744D01*
X90311828Y-52782622D01*
X90225000Y-52782622D01*
X90225000Y-52695000D01*
X90576709Y-52695000D01*
X90576709Y-52782622D01*
G37*
G36*
X91010484Y-53570366D02*
G01*
X91448168Y-53570366D01*
X91448168Y-53484392D01*
X91537194Y-53484392D01*
X91537194Y-53308538D01*
X91362194Y-53308538D01*
X91362194Y-53482744D01*
X91099511Y-53482744D01*
X91099511Y-52782622D01*
X91362194Y-52782622D01*
X91362194Y-53045061D01*
X91274633Y-53045061D01*
X91274633Y-53132683D01*
X91537194Y-53132683D01*
X91537194Y-52695000D01*
X91010484Y-52695000D01*
X91010484Y-52784881D01*
X90924511Y-52784881D01*
X90924511Y-53484392D01*
X91010484Y-53484392D01*
X91010484Y-53570366D01*
G37*
G36*
X91624023Y-52606767D02*
G01*
X92323534Y-52606767D01*
X92323534Y-52519145D01*
X91624023Y-52519145D01*
X91624023Y-52606767D01*
G37*
G36*
X92847191Y-52784881D02*
G01*
X92936217Y-52784881D01*
X92936217Y-53484392D01*
X92847191Y-53484392D01*
X92847191Y-53570366D01*
X92409508Y-53570366D01*
X92409508Y-53484392D01*
X92323534Y-53484392D01*
X92323534Y-53482744D01*
X92498534Y-53482744D01*
X92761217Y-53482744D01*
X92761217Y-53308538D01*
X92673656Y-53308538D01*
X92673656Y-53222564D01*
X92586095Y-53222564D01*
X92586095Y-53132683D01*
X92498534Y-53132683D01*
X92498534Y-53482744D01*
X92323534Y-53482744D01*
X92323534Y-52956828D01*
X92498534Y-52956828D01*
X92586095Y-52956828D01*
X92586095Y-53046709D01*
X92673656Y-53046709D01*
X92673656Y-53132683D01*
X92761217Y-53132683D01*
X92761217Y-52782622D01*
X92498534Y-52782622D01*
X92498534Y-52956828D01*
X92323534Y-52956828D01*
X92323534Y-52784881D01*
X92409508Y-52784881D01*
X92409508Y-52695000D01*
X92847191Y-52695000D01*
X92847191Y-52784881D01*
G37*
G36*
X87300000Y-50504633D02*
G01*
X86686461Y-50504633D01*
X86686461Y-50766461D01*
X86772435Y-50766461D01*
X86772435Y-50679389D01*
X86862316Y-50679389D01*
X86862316Y-50592255D01*
X87038171Y-50592255D01*
X87038171Y-50852435D01*
X86948290Y-50852435D01*
X86948290Y-50766461D01*
X86862316Y-50766461D01*
X86862316Y-51118171D01*
X86948290Y-51118171D01*
X86948290Y-51028290D01*
X87038171Y-51028290D01*
X87038171Y-51292377D01*
X86948290Y-51292377D01*
X86948290Y-51380000D01*
X87300000Y-51380000D01*
X87300000Y-51292377D01*
X87213171Y-51292377D01*
X87213171Y-50592255D01*
X87300000Y-50592255D01*
X87300000Y-50504633D01*
G37*
G36*
X86513660Y-50504633D02*
G01*
X86076831Y-50504633D01*
X86076831Y-50590607D01*
X85987805Y-50590607D01*
X85987805Y-50766461D01*
X86162805Y-50766461D01*
X86162805Y-50592255D01*
X86425488Y-50592255D01*
X86425488Y-50766461D01*
X86338660Y-50766461D01*
X86338660Y-50854694D01*
X86162805Y-50854694D01*
X86162805Y-50941767D01*
X86076831Y-50941767D01*
X86076831Y-51030549D01*
X85987805Y-51030549D01*
X85987805Y-51292377D01*
X86076831Y-51292377D01*
X86076831Y-51380000D01*
X86513660Y-51380000D01*
X86513660Y-51292377D01*
X86600488Y-51292377D01*
X86600488Y-51118171D01*
X86425488Y-51118171D01*
X86425488Y-51292377D01*
X86162805Y-51292377D01*
X86162805Y-51030549D01*
X86251831Y-51030549D01*
X86251831Y-50941767D01*
X86424633Y-50941767D01*
X86424633Y-50854694D01*
X86513660Y-50854694D01*
X86513660Y-50766461D01*
X86600488Y-50766461D01*
X86600488Y-50590607D01*
X86513660Y-50590607D01*
X86513660Y-50504633D01*
G37*
G36*
X85900976Y-50504633D02*
G01*
X85549267Y-50504633D01*
X85549267Y-50592255D01*
X85639148Y-50592255D01*
X85639148Y-51292377D01*
X85461339Y-51292377D01*
X85461339Y-51204816D01*
X85373412Y-51204816D01*
X85373412Y-51117316D01*
X85287438Y-51117316D01*
X85287438Y-51380000D01*
X85900976Y-51380000D01*
X85900976Y-51292377D01*
X85814148Y-51292377D01*
X85814148Y-50592255D01*
X85900976Y-50592255D01*
X85900976Y-50504633D01*
G37*
G36*
X85115491Y-50504633D02*
G01*
X84677808Y-50504633D01*
X84677808Y-50590607D01*
X84588782Y-50590607D01*
X84588782Y-50766461D01*
X84763782Y-50766461D01*
X84763782Y-50592255D01*
X85026465Y-50592255D01*
X85026465Y-51292377D01*
X84763782Y-51292377D01*
X84763782Y-51118171D01*
X84588782Y-51118171D01*
X84588782Y-51292377D01*
X84677808Y-51292377D01*
X84677808Y-51380000D01*
X85115491Y-51380000D01*
X85115491Y-51292377D01*
X85201465Y-51292377D01*
X85201465Y-50590607D01*
X85115491Y-50590607D01*
X85115491Y-50504633D01*
G37*
G36*
X84501953Y-51468232D02*
G01*
X83802442Y-51468232D01*
X83802442Y-51555854D01*
X84501953Y-51555854D01*
X84501953Y-51468232D01*
G37*
G36*
X83716468Y-50590607D02*
G01*
X83802442Y-50590607D01*
X83802442Y-51290118D01*
X83716468Y-51290118D01*
X83716468Y-51380000D01*
X83278785Y-51380000D01*
X83278785Y-51292377D01*
X83364759Y-51292377D01*
X83627442Y-51292377D01*
X83627442Y-51118171D01*
X83539881Y-51118171D01*
X83539881Y-51028290D01*
X83452320Y-51028290D01*
X83452320Y-50942316D01*
X83364759Y-50942316D01*
X83364759Y-51292377D01*
X83278785Y-51292377D01*
X83278785Y-51290118D01*
X83189759Y-51290118D01*
X83189759Y-50766461D01*
X83364759Y-50766461D01*
X83452320Y-50766461D01*
X83452320Y-50852435D01*
X83539881Y-50852435D01*
X83539881Y-50942316D01*
X83627442Y-50942316D01*
X83627442Y-50592255D01*
X83364759Y-50592255D01*
X83364759Y-50766461D01*
X83189759Y-50766461D01*
X83189759Y-50590607D01*
X83278785Y-50590607D01*
X83278785Y-50504633D01*
X83716468Y-50504633D01*
X83716468Y-50590607D01*
G37*
G36*
X112284392Y-88976343D02*
G01*
X112370366Y-88976343D01*
X112370366Y-89500000D01*
X112282744Y-89500000D01*
X112282744Y-89413171D01*
X111582622Y-89413171D01*
X111582622Y-89500000D01*
X111495000Y-89500000D01*
X111495000Y-89238171D01*
X111582622Y-89238171D01*
X112282744Y-89238171D01*
X112282744Y-89062316D01*
X111582622Y-89062316D01*
X111582622Y-89238171D01*
X111495000Y-89238171D01*
X111495000Y-88976343D01*
X111584881Y-88976343D01*
X111584881Y-88887316D01*
X112284392Y-88887316D01*
X112284392Y-88976343D01*
G37*
G36*
X112284392Y-88276831D02*
G01*
X112370366Y-88276831D01*
X112370366Y-88714515D01*
X112284392Y-88714515D01*
X112284392Y-88800488D01*
X111584881Y-88800488D01*
X111584881Y-88714515D01*
X111495000Y-88714515D01*
X111495000Y-88625488D01*
X111582622Y-88625488D01*
X112282744Y-88625488D01*
X112282744Y-88362805D01*
X111582622Y-88362805D01*
X111582622Y-88625488D01*
X111495000Y-88625488D01*
X111495000Y-88276831D01*
X111584881Y-88276831D01*
X111584881Y-88187805D01*
X112284392Y-88187805D01*
X112284392Y-88276831D01*
G37*
G36*
X112370366Y-88100976D02*
G01*
X112370366Y-88015003D01*
X112284392Y-88015003D01*
X112284392Y-87927076D01*
X112194511Y-87927076D01*
X112194511Y-87839148D01*
X112108538Y-87839148D01*
X112108538Y-87751221D01*
X112018656Y-87751221D01*
X112018656Y-87663293D01*
X112370366Y-87663293D01*
X112370366Y-87488293D01*
X111495000Y-87488293D01*
X111495000Y-87663293D01*
X111756828Y-87663293D01*
X111756828Y-87751221D01*
X111846709Y-87751221D01*
X111846709Y-87839148D01*
X111932683Y-87839148D01*
X111932683Y-87927076D01*
X111495000Y-87927076D01*
X111495000Y-88100976D01*
X112370366Y-88100976D01*
G37*
G36*
X112370366Y-87399511D02*
G01*
X112370366Y-86787927D01*
X112108538Y-86787927D01*
X112108538Y-86873900D01*
X112195610Y-86873900D01*
X112195610Y-86963782D01*
X112282744Y-86963782D01*
X112282744Y-87136584D01*
X112022564Y-87136584D01*
X112022564Y-87049755D01*
X112108538Y-87049755D01*
X112108538Y-86963782D01*
X111756828Y-86963782D01*
X111756828Y-87049755D01*
X111846709Y-87049755D01*
X111846709Y-87136584D01*
X111582622Y-87136584D01*
X111582622Y-86963782D01*
X111669755Y-86963782D01*
X111669755Y-86873900D01*
X111756828Y-86873900D01*
X111756828Y-86787927D01*
X111495000Y-86787927D01*
X111495000Y-87399511D01*
X111582622Y-87399511D01*
X111582622Y-87311584D01*
X112282744Y-87311584D01*
X112282744Y-87399511D01*
X112370366Y-87399511D01*
G37*
G36*
X111406767Y-86701953D02*
G01*
X111406767Y-86002442D01*
X111319145Y-86002442D01*
X111319145Y-86701953D01*
X111406767Y-86701953D01*
G37*
G36*
X112284392Y-85478785D02*
G01*
X112370366Y-85478785D01*
X112370366Y-86002442D01*
X112282744Y-86002442D01*
X112282744Y-85915614D01*
X111582622Y-85915614D01*
X111582622Y-86002442D01*
X111495000Y-86002442D01*
X111495000Y-85650732D01*
X111582622Y-85650732D01*
X111582622Y-85740614D01*
X111845061Y-85740614D01*
X111932683Y-85740614D01*
X112282744Y-85740614D01*
X112282744Y-85564759D01*
X111932683Y-85564759D01*
X111932683Y-85740614D01*
X111845061Y-85740614D01*
X111845061Y-85478785D01*
X111932683Y-85478785D01*
X111932683Y-85389759D01*
X112284392Y-85389759D01*
X112284392Y-85478785D01*
G37*
G36*
X112370366Y-85302930D02*
G01*
X112370366Y-85127930D01*
X111582622Y-85127930D01*
X111582622Y-84865247D01*
X112370366Y-84865247D01*
X112370366Y-84690247D01*
X111580973Y-84690247D01*
X111580973Y-84779274D01*
X111495000Y-84779274D01*
X111495000Y-85216957D01*
X111580973Y-85216957D01*
X111580973Y-85302930D01*
X112370366Y-85302930D01*
G37*
D11*
X94206586Y-80954818D02*
X94778014Y-80954818D01*
X94492300Y-81954818D02*
X94492300Y-80954818D01*
X96579819Y-67581585D02*
X96579819Y-68153013D01*
X96579819Y-67867299D02*
X95579819Y-67867299D01*
X95579819Y-67867299D02*
X95722676Y-67962537D01*
X95722676Y-67962537D02*
X95817914Y-68057775D01*
X95817914Y-68057775D02*
X95865533Y-68153013D01*
X94254205Y-69669104D02*
X94730395Y-69669104D01*
X94158967Y-69954819D02*
X94492300Y-68954819D01*
X94492300Y-68954819D02*
X94825633Y-69954819D01*
X108579818Y-68057776D02*
X108579818Y-68629204D01*
X108579818Y-68343490D02*
X107579818Y-68343490D01*
X107579818Y-68343490D02*
X107722675Y-68438728D01*
X107722675Y-68438728D02*
X107817913Y-68533966D01*
X107817913Y-68533966D02*
X107865532Y-68629204D01*
X107579818Y-67200633D02*
X107579818Y-67391109D01*
X107579818Y-67391109D02*
X107627437Y-67486347D01*
X107627437Y-67486347D02*
X107675056Y-67533966D01*
X107675056Y-67533966D02*
X107817913Y-67629204D01*
X107817913Y-67629204D02*
X108008389Y-67676823D01*
X108008389Y-67676823D02*
X108389341Y-67676823D01*
X108389341Y-67676823D02*
X108484579Y-67629204D01*
X108484579Y-67629204D02*
X108532199Y-67581585D01*
X108532199Y-67581585D02*
X108579818Y-67486347D01*
X108579818Y-67486347D02*
X108579818Y-67295871D01*
X108579818Y-67295871D02*
X108532199Y-67200633D01*
X108532199Y-67200633D02*
X108484579Y-67153014D01*
X108484579Y-67153014D02*
X108389341Y-67105395D01*
X108389341Y-67105395D02*
X108151246Y-67105395D01*
X108151246Y-67105395D02*
X108056008Y-67153014D01*
X108056008Y-67153014D02*
X108008389Y-67200633D01*
X108008389Y-67200633D02*
X107960770Y-67295871D01*
X107960770Y-67295871D02*
X107960770Y-67486347D01*
X107960770Y-67486347D02*
X108008389Y-67581585D01*
X108008389Y-67581585D02*
X108056008Y-67629204D01*
X108056008Y-67629204D02*
X108151246Y-67676823D01*
D12*
%TO.C,C68*%
X102170000Y-73672164D02*
X102170000Y-73887836D01*
X102890000Y-73672164D02*
X102890000Y-73887836D01*
%TO.C,C51*%
X101437836Y-75715000D02*
X101222164Y-75715000D01*
X101437836Y-76435000D02*
X101222164Y-76435000D01*
%TO.C,C76*%
X107092164Y-75270000D02*
X107307836Y-75270000D01*
X107092164Y-75990000D02*
X107307836Y-75990000D01*
%TO.C,TP5*%
X72500000Y-63975000D02*
G75*
G02*
X71100000Y-63975000I-700000J0D01*
G01*
X71100000Y-63975000D02*
G75*
G02*
X72500000Y-63975000I700000J0D01*
G01*
%TO.C,C22*%
X97112164Y-54620000D02*
X97327836Y-54620000D01*
X97112164Y-55340000D02*
X97327836Y-55340000D01*
%TO.C,C106*%
X86767836Y-74150000D02*
X86552164Y-74150000D01*
X86767836Y-74870000D02*
X86552164Y-74870000D01*
%TO.C,C84*%
X99392164Y-77280000D02*
X99607836Y-77280000D01*
X99392164Y-78000000D02*
X99607836Y-78000000D01*
%TO.C,R2*%
X99220000Y-49843641D02*
X99220000Y-49536359D01*
X99980000Y-49843641D02*
X99980000Y-49536359D01*
%TO.C,C26*%
X106157836Y-57310000D02*
X105942164Y-57310000D01*
X106157836Y-58030000D02*
X105942164Y-58030000D01*
%TO.C,L2*%
X107230279Y-53090000D02*
X106904721Y-53090000D01*
X107230279Y-54110000D02*
X106904721Y-54110000D01*
%TO.C,C18*%
X102237836Y-51880000D02*
X102022164Y-51880000D01*
X102237836Y-52600000D02*
X102022164Y-52600000D01*
%TO.C,C24*%
X100159190Y-58858307D02*
X100311693Y-59010810D01*
X100668307Y-58349190D02*
X100820810Y-58501693D01*
%TO.C,R51*%
X80545000Y-83943641D02*
X80545000Y-83636359D01*
X81305000Y-83943641D02*
X81305000Y-83636359D01*
%TO.C,C53*%
X94500000Y-74364420D02*
X94500000Y-74645580D01*
X95520000Y-74364420D02*
X95520000Y-74645580D01*
%TO.C,C19*%
X106080000Y-59147836D02*
X106080000Y-58932164D01*
X106800000Y-59147836D02*
X106800000Y-58932164D01*
%TO.C,L3*%
X94424721Y-48590000D02*
X94750279Y-48590000D01*
X94424721Y-49610000D02*
X94750279Y-49610000D01*
%TO.C,C58*%
X83212836Y-71475000D02*
X82997164Y-71475000D01*
X83212836Y-72195000D02*
X82997164Y-72195000D01*
%TO.C,C94*%
X95565000Y-52262836D02*
X95565000Y-52047164D01*
X96285000Y-52262836D02*
X96285000Y-52047164D01*
%TO.C,R37*%
X77437742Y-87427500D02*
X77912258Y-87427500D01*
X77437742Y-88472500D02*
X77912258Y-88472500D01*
%TO.C,R6*%
X88478641Y-50545000D02*
X88171359Y-50545000D01*
X88478641Y-51305000D02*
X88171359Y-51305000D01*
%TO.C,R18*%
X109233641Y-85220000D02*
X108926359Y-85220000D01*
X109233641Y-85980000D02*
X108926359Y-85980000D01*
%TO.C,R47*%
X96545000Y-68726359D02*
X96545000Y-69033641D01*
X97305000Y-68726359D02*
X97305000Y-69033641D01*
%TO.C,C55*%
X107984420Y-76790000D02*
X108265580Y-76790000D01*
X107984420Y-77810000D02*
X108265580Y-77810000D01*
%TO.C,C45*%
X82827836Y-67840000D02*
X82612164Y-67840000D01*
X82827836Y-68560000D02*
X82612164Y-68560000D01*
%TO.C,C79*%
X104627836Y-72870000D02*
X104412164Y-72870000D01*
X104627836Y-73590000D02*
X104412164Y-73590000D01*
%TO.C,C107*%
X84352164Y-74200000D02*
X84567836Y-74200000D01*
X84352164Y-74920000D02*
X84567836Y-74920000D01*
%TO.C,C9*%
X103370000Y-53842164D02*
X103370000Y-54057836D01*
X104090000Y-53842164D02*
X104090000Y-54057836D01*
%TO.C,C105*%
X84992164Y-68760000D02*
X85207836Y-68760000D01*
X84992164Y-69480000D02*
X85207836Y-69480000D01*
%TO.C,C49*%
X105487836Y-76190000D02*
X105272164Y-76190000D01*
X105487836Y-76910000D02*
X105272164Y-76910000D01*
%TO.C,C89*%
X98942164Y-53990000D02*
X99157836Y-53990000D01*
X98942164Y-54710000D02*
X99157836Y-54710000D01*
%TO.C,R17*%
X109243641Y-84020000D02*
X108936359Y-84020000D01*
X109243641Y-84780000D02*
X108936359Y-84780000D01*
%TO.C,C83*%
X101267836Y-72920000D02*
X101052164Y-72920000D01*
X101267836Y-73640000D02*
X101052164Y-73640000D01*
%TO.C,C80*%
X109784420Y-72470000D02*
X110065580Y-72470000D01*
X109784420Y-73490000D02*
X110065580Y-73490000D01*
%TO.C,R28*%
X92118641Y-50670000D02*
X91811359Y-50670000D01*
X92118641Y-51430000D02*
X91811359Y-51430000D01*
%TO.C,C4*%
X97499420Y-49200000D02*
X97780580Y-49200000D01*
X97499420Y-50220000D02*
X97780580Y-50220000D01*
%TO.C,C86*%
X101202164Y-78920000D02*
X101417836Y-78920000D01*
X101202164Y-79640000D02*
X101417836Y-79640000D01*
%TO.C,C15*%
X103032836Y-50040000D02*
X102817164Y-50040000D01*
X103032836Y-50760000D02*
X102817164Y-50760000D01*
%TO.C,C82*%
X109784420Y-71010000D02*
X110065580Y-71010000D01*
X109784420Y-72030000D02*
X110065580Y-72030000D01*
%TO.C,C20*%
X105057836Y-59365000D02*
X104842164Y-59365000D01*
X105057836Y-60085000D02*
X104842164Y-60085000D01*
%TO.C,C52*%
X101437836Y-74790000D02*
X101222164Y-74790000D01*
X101437836Y-75510000D02*
X101222164Y-75510000D01*
%TO.C,C37*%
X73622164Y-60440000D02*
X73837836Y-60440000D01*
X73622164Y-61160000D02*
X73837836Y-61160000D01*
%TO.C,C13*%
X102252164Y-58810000D02*
X102467836Y-58810000D01*
X102252164Y-59530000D02*
X102467836Y-59530000D01*
%TO.C,C85*%
X106232164Y-73800000D02*
X106447836Y-73800000D01*
X106232164Y-74520000D02*
X106447836Y-74520000D01*
%TO.C,R8*%
X88171359Y-51595000D02*
X88478641Y-51595000D01*
X88171359Y-52355000D02*
X88478641Y-52355000D01*
%TO.C,C71*%
X102350000Y-78007836D02*
X102350000Y-77792164D01*
X103070000Y-78007836D02*
X103070000Y-77792164D01*
%TO.C,C21*%
X105240000Y-56192164D02*
X105240000Y-56407836D01*
X105960000Y-56192164D02*
X105960000Y-56407836D01*
%TO.C,C96*%
X76327836Y-71680000D02*
X76112164Y-71680000D01*
X76327836Y-72400000D02*
X76112164Y-72400000D01*
%TO.C,R23*%
X111120000Y-81453641D02*
X111120000Y-81146359D01*
X111880000Y-81453641D02*
X111880000Y-81146359D01*
%TO.C,C48*%
X99590000Y-76377836D02*
X99590000Y-76162164D01*
X100310000Y-76377836D02*
X100310000Y-76162164D01*
%TO.C,C78*%
X104627836Y-73790000D02*
X104412164Y-73790000D01*
X104627836Y-74510000D02*
X104412164Y-74510000D01*
%TO.C,C47*%
X105487836Y-75265000D02*
X105272164Y-75265000D01*
X105487836Y-75985000D02*
X105272164Y-75985000D01*
%TO.C,C98*%
X77942164Y-67830000D02*
X78157836Y-67830000D01*
X77942164Y-68550000D02*
X78157836Y-68550000D01*
%TO.C,R26*%
X94370000Y-51906359D02*
X94370000Y-52213641D01*
X95130000Y-51906359D02*
X95130000Y-52213641D01*
%TO.C,C46*%
X103437164Y-76165000D02*
X103652836Y-76165000D01*
X103437164Y-76885000D02*
X103652836Y-76885000D01*
%TO.C,C109*%
X86817836Y-79650000D02*
X86602164Y-79650000D01*
X86817836Y-80370000D02*
X86602164Y-80370000D01*
%TO.C,C74*%
X106237164Y-79740000D02*
X106452836Y-79740000D01*
X106237164Y-80460000D02*
X106452836Y-80460000D01*
%TO.C,C73*%
X105392164Y-78560000D02*
X105607836Y-78560000D01*
X105392164Y-79280000D02*
X105607836Y-79280000D01*
%TO.C,R49*%
X80220000Y-71853641D02*
X80220000Y-71546359D01*
X80980000Y-71853641D02*
X80980000Y-71546359D01*
%TO.C,R1*%
X100220000Y-49843641D02*
X100220000Y-49536359D01*
X100980000Y-49843641D02*
X100980000Y-49536359D01*
%TO.C,C102*%
X76242164Y-79650000D02*
X76457836Y-79650000D01*
X76242164Y-80370000D02*
X76457836Y-80370000D01*
%TO.C,R39*%
X103271359Y-47595000D02*
X103578641Y-47595000D01*
X103271359Y-48355000D02*
X103578641Y-48355000D01*
%TO.C,R27*%
X92118641Y-51670000D02*
X91811359Y-51670000D01*
X92118641Y-52430000D02*
X91811359Y-52430000D01*
%TO.C,C8*%
X99847836Y-52260000D02*
X99632164Y-52260000D01*
X99847836Y-52980000D02*
X99632164Y-52980000D01*
%TO.C,R29*%
X85820000Y-45086359D02*
X85820000Y-45393641D01*
X86580000Y-45086359D02*
X86580000Y-45393641D01*
%TO.C,C41*%
X87750000Y-86167836D02*
X87750000Y-85952164D01*
X88470000Y-86167836D02*
X88470000Y-85952164D01*
%TO.C,C59*%
X82827836Y-79790000D02*
X82612164Y-79790000D01*
X82827836Y-80510000D02*
X82612164Y-80510000D01*
%TO.C,C11*%
X104267164Y-51890000D02*
X104482836Y-51890000D01*
X104267164Y-52610000D02*
X104482836Y-52610000D01*
%TO.C,L4*%
X106610279Y-48080000D02*
X106284721Y-48080000D01*
X106610279Y-49100000D02*
X106284721Y-49100000D01*
%TO.C,C70*%
X105577836Y-77315000D02*
X105362164Y-77315000D01*
X105577836Y-78035000D02*
X105362164Y-78035000D01*
%TO.C,C110*%
X87690000Y-74227836D02*
X87690000Y-74012164D01*
X88410000Y-74227836D02*
X88410000Y-74012164D01*
%TO.C,C7*%
X101455580Y-59910000D02*
X101174420Y-59910000D01*
X101455580Y-60930000D02*
X101174420Y-60930000D01*
%TO.C,C67*%
X101430000Y-78007836D02*
X101430000Y-77792164D01*
X102150000Y-78007836D02*
X102150000Y-77792164D01*
%TO.C,C3*%
X98117164Y-50765000D02*
X98332836Y-50765000D01*
X98117164Y-51485000D02*
X98332836Y-51485000D01*
%TO.C,R40*%
X110370000Y-87606359D02*
X110370000Y-87913641D01*
X111130000Y-87606359D02*
X111130000Y-87913641D01*
%TO.C,C77*%
X100510000Y-78007836D02*
X100510000Y-77792164D01*
X101230000Y-78007836D02*
X101230000Y-77792164D01*
%TO.C,C43*%
X76142164Y-86040000D02*
X76357836Y-86040000D01*
X76142164Y-86760000D02*
X76357836Y-86760000D01*
%TO.C,C100*%
X84647836Y-67830000D02*
X84432164Y-67830000D01*
X84647836Y-68550000D02*
X84432164Y-68550000D01*
%TO.C,R25*%
X108906359Y-88270000D02*
X109213641Y-88270000D01*
X108906359Y-89030000D02*
X109213641Y-89030000D01*
%TO.C,C66*%
X109569420Y-78265000D02*
X109850580Y-78265000D01*
X109569420Y-79285000D02*
X109850580Y-79285000D01*
%TO.C,C81*%
X106180000Y-72277836D02*
X106180000Y-72062164D01*
X106900000Y-72277836D02*
X106900000Y-72062164D01*
%TO.C,C91*%
X96182164Y-55570000D02*
X96397836Y-55570000D01*
X96182164Y-56290000D02*
X96397836Y-56290000D01*
%TO.C,C104*%
X84657836Y-79790000D02*
X84442164Y-79790000D01*
X84657836Y-80510000D02*
X84442164Y-80510000D01*
%TO.C,R7*%
X88478641Y-49495000D02*
X88171359Y-49495000D01*
X88478641Y-50255000D02*
X88171359Y-50255000D01*
%TO.C,C93*%
X104740000Y-53772164D02*
X104740000Y-53987836D01*
X105460000Y-53772164D02*
X105460000Y-53987836D01*
%TO.C,R19*%
X109243641Y-86420000D02*
X108936359Y-86420000D01*
X109243641Y-87180000D02*
X108936359Y-87180000D01*
%TO.C,FB1*%
X110105279Y-74790000D02*
X109779721Y-74790000D01*
X110105279Y-75810000D02*
X109779721Y-75810000D01*
%TO.C,C101*%
X82730000Y-73307836D02*
X82730000Y-73092164D01*
X83450000Y-73307836D02*
X83450000Y-73092164D01*
%TO.C,C92*%
X101789190Y-54551693D02*
X101941693Y-54399190D01*
X102298307Y-55060810D02*
X102450810Y-54908307D01*
%TO.C,C69*%
X99065000Y-73762164D02*
X99065000Y-73977836D01*
X99785000Y-73762164D02*
X99785000Y-73977836D01*
%TO.C,C54*%
X93010000Y-73769420D02*
X93010000Y-74050580D01*
X94030000Y-73769420D02*
X94030000Y-74050580D01*
%TO.C,C57*%
X94922164Y-62840000D02*
X95137836Y-62840000D01*
X94922164Y-63560000D02*
X95137836Y-63560000D01*
%TO.C,C6*%
X101170000Y-49962164D02*
X101170000Y-50177836D01*
X101890000Y-49962164D02*
X101890000Y-50177836D01*
%TO.C,C108*%
X85062164Y-80710000D02*
X85277836Y-80710000D01*
X85062164Y-81430000D02*
X85277836Y-81430000D01*
%TO.C,X1*%
X92440000Y-63940000D02*
X92440000Y-67660000D01*
X92440000Y-67660000D02*
X92490000Y-67660000D01*
X92490000Y-63590000D02*
X92490000Y-63940000D01*
X92490000Y-63940000D02*
X92440000Y-63940000D01*
X94610000Y-63940000D02*
X94610000Y-63590000D01*
X94610000Y-67660000D02*
X95790000Y-67660000D01*
X95790000Y-63940000D02*
X94610000Y-63940000D01*
X97910000Y-67660000D02*
X97960000Y-67660000D01*
X97960000Y-63940000D02*
X97910000Y-63940000D01*
X97960000Y-67660000D02*
X97960000Y-63940000D01*
%TO.C,R21*%
X71527500Y-61462258D02*
X71527500Y-60987742D01*
X72572500Y-61462258D02*
X72572500Y-60987742D01*
%TO.C,R3*%
X94256359Y-57790000D02*
X94563641Y-57790000D01*
X94256359Y-58550000D02*
X94563641Y-58550000D01*
%TO.C,C42*%
X82750000Y-85247836D02*
X82750000Y-85032164D01*
X83470000Y-85247836D02*
X83470000Y-85032164D01*
%TO.C,C111*%
X82737836Y-74210000D02*
X82522164Y-74210000D01*
X82737836Y-74930000D02*
X82522164Y-74930000D01*
%TO.C,C97*%
X76122164Y-67840000D02*
X76337836Y-67840000D01*
X76122164Y-68560000D02*
X76337836Y-68560000D01*
%TO.C,R50*%
X81545000Y-83943641D02*
X81545000Y-83636359D01*
X82305000Y-83943641D02*
X82305000Y-83636359D01*
%TO.C,C38*%
X82787836Y-86510000D02*
X82572164Y-86510000D01*
X82787836Y-87230000D02*
X82572164Y-87230000D01*
%TO.C,C112*%
X86760000Y-81497836D02*
X86760000Y-81282164D01*
X87480000Y-81497836D02*
X87480000Y-81282164D01*
%TO.C,C16*%
X103027836Y-50965000D02*
X102812164Y-50965000D01*
X103027836Y-51685000D02*
X102812164Y-51685000D01*
%TO.C,C95*%
X108152836Y-51165000D02*
X107937164Y-51165000D01*
X108152836Y-51885000D02*
X107937164Y-51885000D01*
%TO.C,C103*%
X81852164Y-80760000D02*
X82067836Y-80760000D01*
X81852164Y-81480000D02*
X82067836Y-81480000D01*
%TO.C,C10*%
X106177836Y-50960000D02*
X105962164Y-50960000D01*
X106177836Y-51680000D02*
X105962164Y-51680000D01*
%TO.C,R5*%
X94256359Y-59950000D02*
X94563641Y-59950000D01*
X94256359Y-60710000D02*
X94563641Y-60710000D01*
%TO.C,L1*%
X106610279Y-49555000D02*
X106284721Y-49555000D01*
X106610279Y-50575000D02*
X106284721Y-50575000D01*
%TO.C,C65*%
X97122164Y-74080000D02*
X97337836Y-74080000D01*
X97122164Y-74800000D02*
X97337836Y-74800000D01*
%TO.C,C5*%
X103615580Y-48700000D02*
X103334420Y-48700000D01*
X103615580Y-49720000D02*
X103334420Y-49720000D01*
%TO.C,C90*%
X96490000Y-52262836D02*
X96490000Y-52047164D01*
X97210000Y-52262836D02*
X97210000Y-52047164D01*
%TO.C,C17*%
X102257836Y-52810000D02*
X102042164Y-52810000D01*
X102257836Y-53530000D02*
X102042164Y-53530000D01*
%TO.C,R22*%
X78387742Y-71577500D02*
X78862258Y-71577500D01*
X78387742Y-72622500D02*
X78862258Y-72622500D01*
%TO.C,C72*%
X101262836Y-73865000D02*
X101047164Y-73865000D01*
X101262836Y-74585000D02*
X101047164Y-74585000D01*
%TO.C,C12*%
X97310000Y-56242164D02*
X97310000Y-56457836D01*
X98030000Y-56242164D02*
X98030000Y-56457836D01*
%TO.C,C23*%
X106332836Y-52040000D02*
X106117164Y-52040000D01*
X106332836Y-52760000D02*
X106117164Y-52760000D01*
%TO.C,C113*%
X86817836Y-67830000D02*
X86602164Y-67830000D01*
X86817836Y-68550000D02*
X86602164Y-68550000D01*
%TO.C,R24*%
X90877500Y-66312258D02*
X90877500Y-65837742D01*
X91922500Y-66312258D02*
X91922500Y-65837742D01*
%TO.C,C60*%
X78765000Y-86402836D02*
X78765000Y-86187164D01*
X79485000Y-86402836D02*
X79485000Y-86187164D01*
%TO.C,C50*%
X103437164Y-75240000D02*
X103652836Y-75240000D01*
X103437164Y-75960000D02*
X103652836Y-75960000D01*
%TO.C,C62*%
X81937836Y-82015000D02*
X81722164Y-82015000D01*
X81937836Y-82735000D02*
X81722164Y-82735000D01*
%TO.C,C39*%
X84422164Y-86500000D02*
X84637836Y-86500000D01*
X84422164Y-87220000D02*
X84637836Y-87220000D01*
%TO.C,C14*%
X107097836Y-54840000D02*
X106882164Y-54840000D01*
X107097836Y-55560000D02*
X106882164Y-55560000D01*
%TO.C,C25*%
X107087836Y-56380000D02*
X106872164Y-56380000D01*
X107087836Y-57100000D02*
X106872164Y-57100000D01*
%TO.C,C44*%
X78615000Y-74302836D02*
X78615000Y-74087164D01*
X79335000Y-74302836D02*
X79335000Y-74087164D01*
%TO.C,C75*%
X98130000Y-73177836D02*
X98130000Y-72962164D01*
X98850000Y-73177836D02*
X98850000Y-72962164D01*
%TO.C,R4*%
X94256359Y-58880000D02*
X94563641Y-58880000D01*
X94256359Y-59640000D02*
X94563641Y-59640000D01*
%TO.C,C99*%
X81117836Y-68770000D02*
X80902164Y-68770000D01*
X81117836Y-69490000D02*
X80902164Y-69490000D01*
%TO.C,C40*%
X86807836Y-86500000D02*
X86592164Y-86500000D01*
X86807836Y-87220000D02*
X86592164Y-87220000D01*
%TO.C,R48*%
X81245000Y-71853641D02*
X81245000Y-71546359D01*
X82005000Y-71853641D02*
X82005000Y-71546359D01*
%TO.C,R20*%
X74537258Y-61477500D02*
X74062742Y-61477500D01*
X74537258Y-62522500D02*
X74062742Y-62522500D01*
%TD*%
M02*
