M48
; DRILL file {KiCad 9.0.7} date 2026-03-17T22:19:18+0400
; FORMAT={-:-/ absolute / metric / decimal}
; #@! TF.CreationDate,2026-03-17T22:19:18+04:00
; #@! TF.GenerationSoftware,Kicad,Pcbnew,9.0.7
; #@! TF.FileFunction,Plated,1,8,PTH
FMAT,2
METRIC
; #@! TA.AperFunction,Plated,PTH,ViaDrill
T1C0.200
; #@! TA.AperFunction,Plated,PTH,ViaDrill
T2C0.300
; #@! TA.AperFunction,Plated,PTH,ComponentDrill
T3C0.550
; #@! TA.AperFunction,Plated,PTH,ComponentDrill
T4C0.600
; #@! TA.AperFunction,Plated,PTH,ComponentDrill
T5C1.050
; #@! TA.AperFunction,Plated,PTH,ComponentDrill
T6C1.200
%
G90
G05
T1
X84.125Y-61.6
X84.125Y-64.65
X84.45Y-79.65
X84.471Y-75.546
X84.935Y-52.57
X84.975Y-80.6
X85.55Y-63.2
X86.1Y-77.45
X86.285Y-62.0
X86.4Y-52.562
X86.525Y-60.0
X86.525Y-60.75
X86.575Y-80.85
X86.7Y-76.15
X87.085Y-77.7
X87.1Y-60.0
X87.1Y-60.75
X87.186Y-53.26
X87.2Y-52.15
X87.2Y-52.65
X87.35Y-42.925
X87.35Y-43.475
X87.35Y-44.975
X87.35Y-45.575
X87.35Y-48.475
X87.35Y-49.15
X87.35Y-50.475
X87.35Y-51.15
X87.675Y-60.75
X87.675Y-76.8
X87.7Y-60.0
X88.0Y-69.4
X88.0Y-70.2
X88.0Y-71.0
X88.0Y-74.2
X88.0Y-75.0
X88.0Y-75.8
X88.0Y-81.35
X88.0Y-82.15
X88.0Y-82.95
X88.0Y-86.15
X88.0Y-86.95
X88.0Y-87.75
X88.2Y-80.55
X88.325Y-60.0
X88.325Y-60.75
X88.4Y-76.75
X88.8Y-69.4
X88.8Y-70.2
X88.8Y-71.0
X88.8Y-74.2
X88.8Y-75.0
X88.8Y-75.8
X88.8Y-81.35
X88.8Y-82.15
X88.8Y-82.95
X88.8Y-86.15
X88.8Y-86.95
X88.8Y-87.75
X88.825Y-53.125
X88.95Y-60.0
X88.95Y-60.75
X89.6Y-53.45
X89.6Y-69.4
X89.6Y-70.2
X89.6Y-71.0
X89.6Y-74.2
X89.6Y-75.0
X89.6Y-75.8
X89.6Y-79.95
X89.6Y-81.35
X89.6Y-82.15
X89.6Y-82.95
X89.6Y-86.15
X89.6Y-86.95
X89.6Y-87.75
X89.7Y-77.15
X89.8Y-55.662
X90.025Y-80.4
X90.245Y-79.48
X90.4Y-69.4
X90.4Y-70.2
X90.4Y-71.0
X90.4Y-74.2
X90.4Y-75.0
X90.4Y-75.8
X90.4Y-81.35
X90.4Y-82.15
X90.4Y-82.95
X90.4Y-86.15
X90.4Y-86.95
X90.4Y-87.75
X90.5Y-78.35
X90.524Y-77.649
X90.625Y-59.325
X91.2Y-69.4
X91.2Y-70.2
X91.2Y-71.0
X91.2Y-74.2
X91.2Y-75.0
X91.2Y-75.8
X91.2Y-81.35
X91.2Y-82.15
X91.2Y-82.95
X91.2Y-86.15
X91.2Y-86.95
X91.2Y-87.75
X91.525Y-43.9
X91.604Y-80.35
X92.0Y-69.4
X92.0Y-70.2
X92.0Y-71.0
X92.0Y-74.2
X92.0Y-75.0
X92.0Y-75.8
X92.0Y-81.35
X92.0Y-82.15
X92.0Y-82.95
X92.0Y-86.15
X92.0Y-86.95
X92.0Y-87.75
X92.1Y-77.95
X92.25Y-43.9
X92.275Y-44.55
X92.404Y-79.85
X92.8Y-69.4
X92.8Y-70.2
X92.8Y-71.0
X92.8Y-74.2
X92.8Y-75.0
X92.8Y-75.8
X92.8Y-81.35
X92.8Y-82.15
X92.8Y-82.95
X92.8Y-86.15
X92.8Y-86.95
X92.8Y-87.75
X92.956Y-78.024
X93.0Y-43.9
X93.2Y-59.325
X93.6Y-69.4
X93.6Y-70.2
X93.6Y-71.0
X93.6Y-74.2
X93.6Y-75.0
X93.6Y-75.8
X93.6Y-81.35
X93.6Y-82.15
X93.6Y-82.95
X93.6Y-86.15
X93.6Y-86.95
X93.6Y-87.75
X93.65Y-77.875
X93.775Y-44.55
X93.9Y-76.95
X94.125Y-56.025
X94.35Y-76.7
X94.399Y-83.505
X94.4Y-69.4
X94.4Y-70.2
X94.4Y-71.0
X94.4Y-74.2
X94.4Y-75.0
X94.4Y-75.8
X94.4Y-81.35
X94.4Y-82.15
X94.4Y-82.95
X94.4Y-86.15
X94.4Y-86.95
X94.4Y-87.75
X94.775Y-51.06
X94.825Y-48.35
X94.825Y-49.425
X94.875Y-50.225
X94.885Y-77.8
X95.2Y-69.4
X95.2Y-70.2
X95.2Y-71.0
X95.2Y-74.2
X95.2Y-75.0
X95.2Y-75.8
X95.2Y-81.35
X95.2Y-82.15
X95.2Y-82.95
X95.2Y-86.15
X95.2Y-86.95
X95.2Y-87.75
X95.25Y-50.725
X95.425Y-49.05
X95.425Y-49.625
X95.45Y-48.35
X95.5Y-50.225
X95.615Y-51.09
X95.675Y-73.35
X95.775Y-59.38
X96.0Y-69.4
X96.0Y-70.2
X96.0Y-71.0
X96.0Y-74.2
X96.0Y-75.0
X96.0Y-75.8
X96.0Y-81.35
X96.0Y-82.15
X96.0Y-82.95
X96.0Y-86.15
X96.0Y-86.95
X96.0Y-87.75
X96.05Y-49.325
X96.075Y-48.35
X96.075Y-48.825
X96.075Y-49.925
X96.125Y-50.7
X96.2Y-45.2
X96.8Y-69.4
X96.8Y-70.2
X96.8Y-71.0
X96.8Y-74.2
X96.8Y-75.0
X96.8Y-75.8
X96.8Y-81.35
X96.8Y-82.15
X96.8Y-82.95
X96.8Y-86.15
X96.8Y-86.95
X96.8Y-87.75
X96.95Y-45.5
X97.425Y-47.9
X97.425Y-48.425
X97.425Y-48.95
X97.6Y-69.4
X97.6Y-70.2
X97.6Y-71.0
X97.6Y-74.2
X97.6Y-75.0
X97.6Y-75.8
X97.6Y-81.35
X97.6Y-82.15
X97.6Y-82.95
X97.6Y-86.15
X97.6Y-86.95
X97.6Y-87.75
X98.075Y-52.625
X98.4Y-69.4
X98.4Y-70.2
X98.4Y-71.0
X98.4Y-74.2
X98.4Y-75.0
X98.4Y-75.8
X98.4Y-81.35
X98.4Y-82.15
X98.4Y-82.95
X98.4Y-86.15
X98.4Y-86.95
X98.4Y-87.75
X98.5Y-56.875
X98.925Y-52.625
X99.05Y-61.85
X99.2Y-69.4
X99.2Y-70.2
X99.2Y-71.0
X99.2Y-74.2
X99.2Y-75.0
X99.2Y-75.8
X99.2Y-81.35
X99.2Y-82.15
X99.2Y-82.95
X99.2Y-86.15
X99.2Y-86.95
X99.2Y-87.75
X99.89Y-51.075
X99.9Y-52.625
X100.0Y-69.4
X100.0Y-70.2
X100.0Y-71.0
X100.0Y-74.2
X100.0Y-75.0
X100.0Y-75.8
X100.0Y-81.35
X100.0Y-82.15
X100.0Y-82.95
X100.0Y-86.15
X100.0Y-86.95
X100.0Y-87.75
X100.91Y-51.075
X101.025Y-52.15
X101.075Y-53.15
X102.05Y-52.6
X102.075Y-53.25
X102.1Y-64.275
X102.725Y-52.6
X104.075Y-50.175
X104.855Y-50.18
X105.585Y-56.0
X105.875Y-50.18
X106.828Y-52.65
X106.835Y-53.9
X106.875Y-51.916
X107.875Y-51.825
X107.956Y-53.885
X108.2Y-70.7
X108.2Y-71.5
X108.2Y-72.3
X108.2Y-73.1
X108.2Y-73.9
X108.2Y-74.7
X108.2Y-75.5
X108.2Y-76.3
X108.2Y-77.1
X108.2Y-77.9
X108.2Y-78.7
X108.2Y-79.5
X108.2Y-80.3
X108.2Y-81.1
X108.2Y-81.9
X108.2Y-82.7
X109.0Y-70.7
X109.0Y-71.5
X109.0Y-72.3
X109.0Y-73.1
X109.0Y-73.9
X109.0Y-76.3
X109.0Y-77.1
X109.0Y-77.9
X109.0Y-78.7
X109.0Y-79.5
X109.0Y-80.3
X109.0Y-81.1
X109.0Y-81.9
X109.0Y-82.7
X109.8Y-70.7
X109.8Y-71.5
X109.8Y-72.3
X109.8Y-73.1
X109.8Y-73.9
X109.8Y-74.7
X109.8Y-77.1
X109.8Y-77.9
X109.8Y-79.5
X109.8Y-80.3
X109.8Y-81.1
X109.8Y-81.9
X109.8Y-82.7
X109.825Y-52.35
X109.825Y-53.15
X109.825Y-53.95
X109.825Y-54.75
X109.825Y-55.55
X109.825Y-56.35
X109.825Y-57.15
X109.825Y-57.95
X109.825Y-58.75
X109.825Y-59.55
X109.825Y-60.35
X110.6Y-70.7
X110.6Y-71.5
X110.6Y-72.3
X110.6Y-73.1
X110.6Y-75.5
X110.6Y-76.3
X110.6Y-77.1
X110.6Y-77.9
X110.6Y-80.3
X110.6Y-81.1
X110.6Y-81.9
X110.6Y-82.7
X110.625Y-52.35
X110.625Y-53.15
X110.625Y-53.95
X110.625Y-54.75
X110.625Y-55.55
X110.625Y-56.35
X110.625Y-57.15
X110.625Y-57.95
X110.625Y-58.75
X110.625Y-59.55
X110.625Y-60.35
X110.745Y-47.65
X110.745Y-48.15
X110.995Y-46.692
X110.995Y-47.225
X111.4Y-70.7
X111.4Y-71.5
X111.4Y-72.3
X111.4Y-73.1
X111.4Y-77.1
X111.4Y-80.3
X111.4Y-81.1
X111.4Y-81.9
X111.4Y-82.7
X111.425Y-52.35
X111.425Y-53.15
X111.425Y-53.95
X111.425Y-54.75
X111.425Y-55.55
X111.425Y-56.35
X111.425Y-57.15
X111.425Y-57.95
X111.425Y-58.75
X111.425Y-59.55
X111.425Y-60.35
X111.79Y-73.51
X112.2Y-70.7
X112.2Y-71.5
X112.2Y-72.3
X112.2Y-73.1
X112.2Y-74.7
X112.2Y-75.5
X112.2Y-76.3
X112.2Y-77.1
X112.2Y-77.9
X112.2Y-78.7
X112.2Y-79.5
X112.2Y-80.3
X112.2Y-81.1
X112.2Y-81.9
X112.2Y-82.7
X112.225Y-52.35
X112.225Y-53.15
X112.225Y-54.75
X112.225Y-55.55
X112.225Y-56.35
X112.225Y-57.15
X112.225Y-57.95
X112.225Y-58.75
X112.225Y-59.55
X112.225Y-60.35
X112.25Y-48.55
X112.255Y-47.57
X112.255Y-48.093
X112.505Y-46.1
X112.505Y-46.692
X112.625Y-51.925
X113.0Y-70.7
X113.0Y-71.5
X113.0Y-72.3
X113.0Y-73.1
X113.0Y-74.7
X113.0Y-75.5
X113.0Y-76.3
X113.0Y-77.1
X113.0Y-77.9
X113.0Y-78.7
X113.0Y-81.9
X113.0Y-82.7
X113.025Y-52.35
X113.025Y-53.15
X113.025Y-53.95
X113.025Y-54.75
X113.025Y-55.55
X113.025Y-56.35
X113.025Y-57.15
X113.025Y-57.95
X113.025Y-58.75
X113.025Y-59.55
X113.025Y-60.35
X113.055Y-48.91
X113.414Y-79.177
X113.8Y-70.7
X113.8Y-71.5
X113.8Y-72.3
X113.8Y-73.1
X113.8Y-74.7
X113.8Y-75.5
X113.8Y-76.3
X113.8Y-77.1
X113.8Y-77.9
X113.8Y-78.7
X113.8Y-81.9
X113.8Y-82.7
X113.825Y-52.35
X113.825Y-53.15
X113.825Y-55.55
X113.825Y-57.15
X113.825Y-57.95
X113.825Y-58.75
X113.825Y-59.55
X113.825Y-60.35
X113.915Y-48.9
X114.225Y-48.093
X114.225Y-56.725
X114.6Y-70.7
X114.6Y-71.5
X114.6Y-72.3
X114.6Y-73.1
X114.6Y-74.7
X114.6Y-75.5
X114.6Y-76.3
X114.6Y-77.1
X114.6Y-77.9
X114.6Y-78.7
X114.6Y-80.3
X114.6Y-81.1
X114.6Y-81.9
X114.6Y-82.7
X114.625Y-52.35
X114.625Y-53.15
X114.625Y-56.35
X114.625Y-57.15
X114.625Y-57.95
X114.625Y-58.75
X114.625Y-59.55
X114.625Y-60.35
X114.745Y-47.575
X114.745Y-48.093
X114.995Y-46.075
X114.995Y-46.692
X115.4Y-70.7
X115.4Y-71.5
X115.4Y-72.3
X115.4Y-73.1
X115.4Y-73.9
X115.4Y-74.7
X115.4Y-75.5
X115.4Y-76.3
X115.4Y-77.1
X115.4Y-77.9
X115.4Y-78.7
X115.4Y-79.5
X115.4Y-80.3
X115.4Y-81.1
X115.4Y-81.9
X115.4Y-82.7
X115.425Y-52.35
X115.425Y-53.15
X115.425Y-53.95
X115.425Y-54.75
X115.425Y-56.35
X115.425Y-57.15
X115.425Y-57.95
X115.425Y-58.75
X115.425Y-59.55
X116.2Y-70.7
X116.2Y-71.5
X116.2Y-72.3
X116.2Y-73.1
X116.2Y-74.7
X116.2Y-75.5
X116.2Y-76.3
X116.2Y-77.1
X116.2Y-77.9
X116.2Y-78.7
X116.2Y-80.3
X116.2Y-81.1
X116.2Y-81.9
X116.2Y-82.7
X116.225Y-52.35
X116.225Y-53.15
X116.225Y-55.55
X116.225Y-56.35
X116.225Y-57.15
X116.225Y-57.95
X116.225Y-58.75
X116.225Y-59.55
X116.225Y-60.35
X116.245Y-47.65
X116.245Y-48.15
X116.505Y-46.692
X116.505Y-47.225
X117.0Y-70.7
X117.0Y-71.5
X117.0Y-72.3
X117.0Y-73.1
X117.0Y-81.1
X117.0Y-81.9
X117.0Y-82.7
X117.025Y-52.35
X117.025Y-53.15
X117.025Y-55.55
X117.025Y-56.35
X117.025Y-57.15
X117.025Y-57.95
X117.025Y-58.75
X117.025Y-59.55
X117.025Y-60.35
X117.8Y-70.7
X117.8Y-71.5
X117.8Y-72.3
X117.8Y-73.1
X117.8Y-73.9
X117.8Y-74.7
X117.8Y-79.5
X117.8Y-82.7
X117.825Y-53.95
X117.825Y-55.55
X117.825Y-56.35
X117.825Y-57.15
X117.825Y-57.95
X117.825Y-58.75
X117.825Y-59.55
X117.825Y-60.35
X118.195Y-77.48
X118.6Y-70.7
X118.6Y-71.5
X118.6Y-72.3
X118.6Y-74.7
X118.6Y-79.5
X118.6Y-82.7
X118.695Y-54.74
X119.0Y-80.675
X119.025Y-74.275
X119.175Y-48.87
X119.35Y-53.951
X119.4Y-70.7
X119.4Y-71.5
X119.4Y-72.3
X119.4Y-73.1
X119.4Y-73.9
X119.4Y-74.7
X119.4Y-79.5
X119.4Y-80.3
X119.4Y-81.9
X119.4Y-82.7
X119.579Y-83.604
X119.795Y-83.1
X120.2Y-70.7
X120.2Y-71.5
X120.2Y-72.3
X120.2Y-73.1
X120.2Y-73.9
X120.2Y-74.7
X120.2Y-76.3
X120.2Y-77.9
X120.2Y-78.7
X120.2Y-79.5
X120.2Y-80.3
X120.2Y-81.1
X120.2Y-81.9
X120.2Y-82.7
X120.275Y-52.025
X120.375Y-56.351
X120.625Y-89.85
X120.725Y-53.3
X120.925Y-46.45
X120.975Y-83.3
X120.985Y-59.285
X121.115Y-52.0
X121.645Y-89.85
X122.25Y-78.375
X122.475Y-54.7
X122.542Y-87.317
X122.825Y-88.45
X122.835Y-56.01
X123.825Y-72.475
X123.825Y-73.45
X123.865Y-43.225
X124.375Y-83.2
X124.675Y-69.3
X124.675Y-70.1
X124.675Y-70.9
X124.675Y-71.7
X124.675Y-72.5
X124.69Y-75.62
X124.69Y-76.445
X124.69Y-77.255
X124.835Y-85.33
X124.835Y-86.32
X124.835Y-89.28
X124.84Y-88.295
X124.845Y-87.325
X124.98Y-58.89
X124.99Y-59.56
X124.99Y-60.18
X125.15Y-61.475
X125.15Y-62.0
X125.15Y-62.525
X125.15Y-83.5
X125.15Y-84.025
X125.15Y-84.55
X125.325Y-56.85
X125.605Y-58.5
X125.605Y-59.175
X125.605Y-59.8
X125.605Y-60.48
X126.075Y-44.6
X126.075Y-47.6
X126.075Y-56.85
X126.36Y-87.22
X128.964Y-65.99
X128.964Y-77.687
X129.322Y-87.83
X130.092Y-88.91
X130.095Y-87.89
X130.095Y-88.39
X130.255Y-65.99
X130.265Y-66.66
X130.265Y-67.18
T2
X87.355Y-44.2
X87.355Y-49.8
X98.285Y-46.96
X119.795Y-48.72
X121.675Y-43.925
X125.341Y-74.996
X126.195Y-71.24
X126.205Y-65.225
X126.205Y-72.11
X126.205Y-72.93
X126.5Y-77.125
X127.845Y-48.28
X127.845Y-49.02
X127.845Y-49.79
X127.845Y-50.55
X127.845Y-53.93
X127.845Y-54.67
X127.845Y-55.39
X127.845Y-56.12
X127.845Y-56.83
X130.165Y-79.15
X130.175Y-78.4
X130.185Y-77.687
T3
X110.225Y-46.112
X117.025Y-46.112
T5
X100.31Y-44.453
X100.31Y-46.993
X102.85Y-44.453
X102.85Y-46.993
X105.39Y-44.453
X105.39Y-46.993
T4
G00X109.305Y-43.562
M15
G01X109.305Y-42.263
M16
G05
G00X117.945Y-43.562
M15
G01X117.945Y-42.263
M16
G05
T6
G00X109.565Y-47.762
M15
G01X109.565Y-47.163
M16
G05
G00X117.685Y-47.762
M15
G01X117.685Y-47.163
M16
G05
M30
