%TF.GenerationSoftware,KiCad,Pcbnew,9.0.7*%
%TF.CreationDate,2026-03-07T14:05:11+04:00*%
%TF.ProjectId,fpga_board,66706761-5f62-46f6-9172-642e6b696361,rev?*%
%TF.SameCoordinates,Original*%
%TF.FileFunction,Legend,Top*%
%TF.FilePolarity,Positive*%
%FSLAX46Y46*%
G04 Gerber Fmt 4.6, Leading zero omitted, Abs format (unit mm)*
G04 Created by KiCad (PCBNEW 9.0.7) date 2026-03-07 14:05:11*
%MOMM*%
%LPD*%
G01*
G04 APERTURE LIST*
%ADD10C,0.100000*%
%ADD11C,0.150000*%
%ADD12C,0.120000*%
%ADD13C,0.250000*%
%ADD14C,0.152400*%
%ADD15C,0.200000*%
G04 APERTURE END LIST*
D10*
X86660000Y-52315000D02*
X89555000Y-52315000D01*
X89555000Y-55265000D01*
X90685000Y-55265000D01*
X90685000Y-57415000D01*
X89460000Y-57415000D01*
X89460000Y-59590000D01*
X83585000Y-59590000D01*
X83585000Y-55790000D01*
X84285000Y-55790000D01*
X84285000Y-52015000D01*
X86660000Y-52015000D01*
X86660000Y-52315000D01*
X104925000Y-49175000D02*
G75*
G02*
X102984580Y-48596672I300000J4551000D01*
G01*
X131558472Y-62740000D02*
X130858472Y-62740000D01*
X130858472Y-66515000D01*
X128483472Y-66515000D01*
X128483472Y-66040000D01*
X125588472Y-66040000D01*
X125588472Y-63065000D01*
X124308472Y-63065000D01*
X124308472Y-60940000D01*
X125683472Y-60940000D01*
X125683472Y-58940000D01*
X131558472Y-58940000D01*
X131558472Y-62740000D01*
X131550000Y-74450000D02*
X130850000Y-74450000D01*
X130850000Y-78225000D01*
X128475000Y-78225000D01*
X128475000Y-77850000D01*
X125580000Y-77850000D01*
X125580000Y-74850000D01*
X124300000Y-74850000D01*
X124300000Y-72725000D01*
X125675000Y-72725000D01*
X125675000Y-70650000D01*
X131550000Y-70650000D01*
X131550000Y-74450000D01*
X106650000Y-58400000D02*
X107600000Y-58400000D01*
X107600000Y-62000000D01*
X99500000Y-62000000D01*
X99500000Y-56275000D01*
X106650000Y-56275000D01*
X106650000Y-58400000D01*
X97975000Y-62000000D02*
X89875000Y-62000000D01*
X89875000Y-58400000D01*
X90825000Y-58400000D01*
X90825000Y-56275000D01*
X97975000Y-56275000D01*
X97975000Y-62000000D01*
X93475000Y-54630000D02*
X93475000Y-56050000D01*
X94050000Y-44382910D02*
X96945000Y-44382910D01*
X96945000Y-47357910D01*
X98175000Y-47357910D01*
X98175000Y-49532910D01*
X96900000Y-49532910D01*
X96900000Y-51632910D01*
X90975000Y-51632910D01*
X90975000Y-47832910D01*
X91675000Y-47832910D01*
X91675000Y-44057910D01*
X94050000Y-44057910D01*
X94050000Y-44382910D01*
X131550000Y-84630000D02*
X130850000Y-84630000D01*
X130850000Y-88405000D01*
X128475000Y-88405000D01*
X128475000Y-88080000D01*
X125580000Y-88080000D01*
X125580000Y-85080000D01*
X124325000Y-85080000D01*
X124325000Y-83030000D01*
X125675000Y-83030000D01*
X125675000Y-80830000D01*
X131550000Y-80830000D01*
X131550000Y-84630000D01*
G36*
X105285973Y-48929633D02*
G01*
X105809630Y-48929633D01*
X105809630Y-49192866D01*
X105723656Y-49192866D01*
X105723656Y-49105488D01*
X105636828Y-49105488D01*
X105636828Y-49717377D01*
X105723656Y-49717377D01*
X105723656Y-49805000D01*
X105371946Y-49805000D01*
X105371946Y-49717377D01*
X105461828Y-49717377D01*
X105461828Y-49105488D01*
X105371946Y-49105488D01*
X105371946Y-49192866D01*
X105285973Y-49192866D01*
X105285973Y-48929633D01*
G37*
G36*
X105985484Y-48929633D02*
G01*
X106423168Y-48929633D01*
X106423168Y-49015607D01*
X106512194Y-49015607D01*
X106512194Y-49191461D01*
X106337194Y-49191461D01*
X106337194Y-49017255D01*
X106074511Y-49017255D01*
X106074511Y-49717377D01*
X106337194Y-49717377D01*
X106337194Y-49543171D01*
X106512194Y-49543171D01*
X106512194Y-49717377D01*
X106423168Y-49717377D01*
X106423168Y-49805000D01*
X105985484Y-49805000D01*
X105985484Y-49717377D01*
X105899511Y-49717377D01*
X105899511Y-49015607D01*
X105985484Y-49015607D01*
X105985484Y-48929633D01*
G37*
G36*
X106600976Y-48929633D02*
G01*
X106863904Y-48929633D01*
X106863904Y-49277435D01*
X106951587Y-49277435D01*
X106951587Y-49191461D01*
X107040430Y-49191461D01*
X107040430Y-48929633D01*
X107212561Y-48929633D01*
X107212561Y-49191461D01*
X107126587Y-49191461D01*
X107126587Y-49277435D01*
X107040430Y-49277435D01*
X107040430Y-49453290D01*
X107126587Y-49453290D01*
X107126587Y-49543171D01*
X107212561Y-49543171D01*
X107212561Y-49805000D01*
X107040430Y-49805000D01*
X107040430Y-49543171D01*
X106951587Y-49543171D01*
X106951587Y-49453290D01*
X106863904Y-49453290D01*
X106863904Y-49805000D01*
X106600976Y-49805000D01*
X106600976Y-49717377D01*
X106688904Y-49717377D01*
X106688904Y-49017255D01*
X106600976Y-49017255D01*
X106600976Y-48929633D01*
G37*
G36*
X106929633Y-47914026D02*
G01*
X106929633Y-47476343D01*
X107015607Y-47476343D01*
X107015607Y-47387316D01*
X107277435Y-47387316D01*
X107277435Y-47476343D01*
X107365057Y-47476343D01*
X107365057Y-47387316D01*
X107716767Y-47387316D01*
X107716767Y-47476343D01*
X107805000Y-47476343D01*
X107805000Y-47914026D01*
X107716767Y-47914026D01*
X107716767Y-48000000D01*
X107629145Y-48000000D01*
X107629145Y-47825000D01*
X107717377Y-47825000D01*
X107717377Y-47562316D01*
X107365057Y-47562316D01*
X107365057Y-47825000D01*
X107279694Y-47825000D01*
X107279694Y-47562316D01*
X107017255Y-47562316D01*
X107017255Y-47825000D01*
X107103229Y-47825000D01*
X107103229Y-48000000D01*
X107015607Y-48000000D01*
X107015607Y-47914026D01*
X106929633Y-47914026D01*
G37*
G36*
X107191461Y-47300488D02*
G01*
X107191461Y-47125488D01*
X107543171Y-47125488D01*
X107543171Y-47038660D01*
X107629145Y-47038660D01*
X107629145Y-46951831D01*
X107543171Y-46951831D01*
X107543171Y-46863660D01*
X107191461Y-46863660D01*
X107191461Y-46689515D01*
X107543171Y-46689515D01*
X107543171Y-46776831D01*
X107629145Y-46776831D01*
X107629145Y-46863660D01*
X107719026Y-46863660D01*
X107719026Y-46952686D01*
X107805000Y-46952686D01*
X107805000Y-47038660D01*
X107719026Y-47038660D01*
X107719026Y-47124633D01*
X107629145Y-47124633D01*
X107629145Y-47213660D01*
X107543171Y-47213660D01*
X107543171Y-47300488D01*
X107191461Y-47300488D01*
G37*
G36*
X106929633Y-46515003D02*
G01*
X106929633Y-46077320D01*
X107015607Y-46077320D01*
X107015607Y-45988293D01*
X107277435Y-45988293D01*
X107277435Y-46077320D01*
X107365057Y-46077320D01*
X107365057Y-45988293D01*
X107716767Y-45988293D01*
X107716767Y-46077320D01*
X107805000Y-46077320D01*
X107805000Y-46515003D01*
X107716767Y-46515003D01*
X107716767Y-46600976D01*
X107629145Y-46600976D01*
X107629145Y-46425976D01*
X107717377Y-46425976D01*
X107717377Y-46163293D01*
X107365057Y-46163293D01*
X107365057Y-46425976D01*
X107279694Y-46425976D01*
X107279694Y-46163293D01*
X107017255Y-46163293D01*
X107017255Y-46425976D01*
X107103229Y-46425976D01*
X107103229Y-46600976D01*
X107015607Y-46600976D01*
X107015607Y-46515003D01*
X106929633Y-46515003D01*
G37*
G36*
X125945300Y-57894633D02*
G01*
X126120300Y-57894633D01*
X126120300Y-58682377D01*
X126293102Y-58682377D01*
X126293102Y-58770000D01*
X125769445Y-58770000D01*
X125769445Y-58682377D01*
X125945300Y-58682377D01*
X125945300Y-58156461D01*
X125769445Y-58156461D01*
X125769445Y-58068839D01*
X125857372Y-58068839D01*
X125857372Y-57981706D01*
X125945300Y-57981706D01*
X125945300Y-57894633D01*
G37*
G36*
X126382983Y-58156461D02*
G01*
X126557983Y-58156461D01*
X126557983Y-58508171D01*
X126644811Y-58508171D01*
X126644811Y-58594145D01*
X126731640Y-58594145D01*
X126731640Y-58508171D01*
X126819811Y-58508171D01*
X126819811Y-58156461D01*
X126993956Y-58156461D01*
X126993956Y-58508171D01*
X126906640Y-58508171D01*
X126906640Y-58594145D01*
X126819811Y-58594145D01*
X126819811Y-58684026D01*
X126730785Y-58684026D01*
X126730785Y-58770000D01*
X126644811Y-58770000D01*
X126644811Y-58684026D01*
X126558838Y-58684026D01*
X126558838Y-58594145D01*
X126469811Y-58594145D01*
X126469811Y-58508171D01*
X126382983Y-58508171D01*
X126382983Y-58156461D01*
G37*
G36*
X127169323Y-57894633D02*
G01*
X127606151Y-57894633D01*
X127606151Y-57980607D01*
X127696887Y-57980607D01*
X127696887Y-58156461D01*
X127606151Y-58156461D01*
X127606151Y-58242435D01*
X127521033Y-58242435D01*
X127521033Y-58332316D01*
X127433349Y-58332316D01*
X127433349Y-58418290D01*
X127344323Y-58418290D01*
X127344323Y-58507072D01*
X127257495Y-58507072D01*
X127257495Y-58682377D01*
X127521033Y-58682377D01*
X127521033Y-58594694D01*
X127696887Y-58594694D01*
X127696887Y-58770000D01*
X127082495Y-58770000D01*
X127082495Y-58507072D01*
X127169323Y-58507072D01*
X127169323Y-58418290D01*
X127258349Y-58418290D01*
X127258349Y-58332316D01*
X127345178Y-58332316D01*
X127345178Y-58242435D01*
X127433349Y-58242435D01*
X127433349Y-58156461D01*
X127521033Y-58156461D01*
X127521033Y-57982255D01*
X127257495Y-57982255D01*
X127257495Y-58068229D01*
X127082495Y-58068229D01*
X127082495Y-57980607D01*
X127169323Y-57980607D01*
X127169323Y-57894633D01*
G37*
G36*
X82913872Y-65695312D02*
G01*
X83088872Y-65695312D01*
X83088872Y-66308850D01*
X83175700Y-66308850D01*
X83175700Y-66394824D01*
X83262528Y-66394824D01*
X83262528Y-66308850D01*
X83350700Y-66308850D01*
X83350700Y-65695312D01*
X83524845Y-65695312D01*
X83524845Y-66308850D01*
X83437528Y-66308850D01*
X83437528Y-66394824D01*
X83350700Y-66394824D01*
X83350700Y-66484705D01*
X83261673Y-66484705D01*
X83261673Y-66570679D01*
X83175700Y-66570679D01*
X83175700Y-66484705D01*
X83089726Y-66484705D01*
X83089726Y-66394824D01*
X83000700Y-66394824D01*
X83000700Y-66308850D01*
X82913872Y-66308850D01*
X82913872Y-65695312D01*
G37*
G36*
X84137040Y-65781286D02*
G01*
X84226066Y-65781286D01*
X84226066Y-66132995D01*
X84137040Y-66132995D01*
X84137040Y-66308850D01*
X84226066Y-66308850D01*
X84226066Y-66570679D01*
X84051066Y-66570679D01*
X84051066Y-66308850D01*
X83962040Y-66308850D01*
X83962040Y-66220617D01*
X83875211Y-66220617D01*
X83875211Y-66570679D01*
X83613383Y-66570679D01*
X83613383Y-66483056D01*
X83700211Y-66483056D01*
X83700211Y-66132995D01*
X83875211Y-66132995D01*
X84051066Y-66132995D01*
X84051066Y-65782934D01*
X83875211Y-65782934D01*
X83875211Y-66132995D01*
X83700211Y-66132995D01*
X83700211Y-65782934D01*
X83613383Y-65782934D01*
X83613383Y-65695312D01*
X84137040Y-65695312D01*
X84137040Y-65781286D01*
G37*
G36*
X84314848Y-65695312D02*
G01*
X84926433Y-65695312D01*
X84926433Y-65957140D01*
X84840459Y-65957140D01*
X84840459Y-65870068D01*
X84750578Y-65870068D01*
X84750578Y-65782934D01*
X84577776Y-65782934D01*
X84577776Y-66043114D01*
X84664604Y-66043114D01*
X84664604Y-65957140D01*
X84750578Y-65957140D01*
X84750578Y-66308850D01*
X84664604Y-66308850D01*
X84664604Y-66218969D01*
X84577776Y-66218969D01*
X84577776Y-66483056D01*
X84750578Y-66483056D01*
X84750578Y-66395923D01*
X84840459Y-66395923D01*
X84840459Y-66308850D01*
X84926433Y-66308850D01*
X84926433Y-66570679D01*
X84314848Y-66570679D01*
X84314848Y-66483056D01*
X84402776Y-66483056D01*
X84402776Y-65782934D01*
X84314848Y-65782934D01*
X84314848Y-65695312D01*
G37*
G36*
X85012406Y-65695312D02*
G01*
X85625944Y-65695312D01*
X85625944Y-65957140D01*
X85539971Y-65957140D01*
X85539971Y-65870068D01*
X85450089Y-65870068D01*
X85450089Y-65782934D01*
X85274234Y-65782934D01*
X85274234Y-66043114D01*
X85364116Y-66043114D01*
X85364116Y-65957140D01*
X85450089Y-65957140D01*
X85450089Y-66308850D01*
X85364116Y-66308850D01*
X85364116Y-66218969D01*
X85274234Y-66218969D01*
X85274234Y-66483056D01*
X85364116Y-66483056D01*
X85364116Y-66570679D01*
X85012406Y-66570679D01*
X85012406Y-66483056D01*
X85099234Y-66483056D01*
X85099234Y-65782934D01*
X85012406Y-65782934D01*
X85012406Y-65695312D01*
G37*
G36*
X101985973Y-42054633D02*
G01*
X102509630Y-42054633D01*
X102509630Y-42317866D01*
X102423656Y-42317866D01*
X102423656Y-42230488D01*
X102336828Y-42230488D01*
X102336828Y-42842377D01*
X102423656Y-42842377D01*
X102423656Y-42930000D01*
X102071946Y-42930000D01*
X102071946Y-42842377D01*
X102161828Y-42842377D01*
X102161828Y-42230488D01*
X102071946Y-42230488D01*
X102071946Y-42317866D01*
X101985973Y-42317866D01*
X101985973Y-42054633D01*
G37*
G36*
X103123168Y-42140607D02*
G01*
X103212194Y-42140607D01*
X103212194Y-42840118D01*
X103123168Y-42840118D01*
X103123168Y-42930000D01*
X102599511Y-42930000D01*
X102599511Y-42842377D01*
X102686339Y-42842377D01*
X102861339Y-42842377D01*
X103037194Y-42842377D01*
X103037194Y-42142255D01*
X102861339Y-42142255D01*
X102861339Y-42842377D01*
X102686339Y-42842377D01*
X102686339Y-42142255D01*
X102599511Y-42142255D01*
X102599511Y-42054633D01*
X103123168Y-42054633D01*
X103123168Y-42140607D01*
G37*
G36*
X103474877Y-42054633D02*
G01*
X103826587Y-42054633D01*
X103826587Y-42142255D01*
X103736706Y-42142255D01*
X103736706Y-42842377D01*
X103826587Y-42842377D01*
X103826587Y-42930000D01*
X103474877Y-42930000D01*
X103474877Y-42842377D01*
X103561706Y-42842377D01*
X103561706Y-42142255D01*
X103474877Y-42142255D01*
X103474877Y-42054633D01*
G37*
G36*
X99435973Y-42079633D02*
G01*
X99959630Y-42079633D01*
X99959630Y-42342866D01*
X99873656Y-42342866D01*
X99873656Y-42255488D01*
X99786828Y-42255488D01*
X99786828Y-42867377D01*
X99873656Y-42867377D01*
X99873656Y-42955000D01*
X99521946Y-42955000D01*
X99521946Y-42867377D01*
X99611828Y-42867377D01*
X99611828Y-42255488D01*
X99521946Y-42255488D01*
X99521946Y-42342866D01*
X99435973Y-42342866D01*
X99435973Y-42079633D01*
G37*
G36*
X100573168Y-42165607D02*
G01*
X100662194Y-42165607D01*
X100662194Y-42865118D01*
X100573168Y-42865118D01*
X100573168Y-42955000D01*
X100049511Y-42955000D01*
X100049511Y-42867377D01*
X100136339Y-42867377D01*
X100311339Y-42867377D01*
X100487194Y-42867377D01*
X100487194Y-42167255D01*
X100311339Y-42167255D01*
X100311339Y-42867377D01*
X100136339Y-42867377D01*
X100136339Y-42167255D01*
X100049511Y-42167255D01*
X100049511Y-42079633D01*
X100573168Y-42079633D01*
X100573168Y-42165607D01*
G37*
G36*
X101272679Y-42165607D02*
G01*
X101361706Y-42165607D01*
X101361706Y-42865118D01*
X101272679Y-42865118D01*
X101272679Y-42955000D01*
X100834996Y-42955000D01*
X100834996Y-42867377D01*
X100924023Y-42867377D01*
X101186706Y-42867377D01*
X101186706Y-42167255D01*
X100924023Y-42167255D01*
X100924023Y-42867377D01*
X100834996Y-42867377D01*
X100834996Y-42865118D01*
X100749023Y-42865118D01*
X100749023Y-42165607D01*
X100834996Y-42165607D01*
X100834996Y-42079633D01*
X101272679Y-42079633D01*
X101272679Y-42165607D01*
G37*
G36*
X125761828Y-69604633D02*
G01*
X126198656Y-69604633D01*
X126198656Y-69690607D01*
X126289392Y-69690607D01*
X126289392Y-69866461D01*
X126198656Y-69866461D01*
X126198656Y-69952435D01*
X126113538Y-69952435D01*
X126113538Y-70042316D01*
X126025854Y-70042316D01*
X126025854Y-70128290D01*
X125936828Y-70128290D01*
X125936828Y-70217072D01*
X125850000Y-70217072D01*
X125850000Y-70392377D01*
X126113538Y-70392377D01*
X126113538Y-70304694D01*
X126289392Y-70304694D01*
X126289392Y-70480000D01*
X125675000Y-70480000D01*
X125675000Y-70217072D01*
X125761828Y-70217072D01*
X125761828Y-70128290D01*
X125850854Y-70128290D01*
X125850854Y-70042316D01*
X125937683Y-70042316D01*
X125937683Y-69952435D01*
X126025854Y-69952435D01*
X126025854Y-69866461D01*
X126113538Y-69866461D01*
X126113538Y-69692255D01*
X125850000Y-69692255D01*
X125850000Y-69778229D01*
X125675000Y-69778229D01*
X125675000Y-69690607D01*
X125761828Y-69690607D01*
X125761828Y-69604633D01*
G37*
G36*
X126374511Y-69866461D02*
G01*
X126549511Y-69866461D01*
X126549511Y-70218171D01*
X126636339Y-70218171D01*
X126636339Y-70304145D01*
X126723168Y-70304145D01*
X126723168Y-70218171D01*
X126811339Y-70218171D01*
X126811339Y-69866461D01*
X126985484Y-69866461D01*
X126985484Y-70218171D01*
X126898168Y-70218171D01*
X126898168Y-70304145D01*
X126811339Y-70304145D01*
X126811339Y-70394026D01*
X126722313Y-70394026D01*
X126722313Y-70480000D01*
X126636339Y-70480000D01*
X126636339Y-70394026D01*
X126550366Y-70394026D01*
X126550366Y-70304145D01*
X126461339Y-70304145D01*
X126461339Y-70218171D01*
X126374511Y-70218171D01*
X126374511Y-69866461D01*
G37*
G36*
X127074023Y-69604633D02*
G01*
X127686706Y-69604633D01*
X127686706Y-69692255D01*
X127249023Y-69692255D01*
X127249023Y-69954694D01*
X127597679Y-69954694D01*
X127597679Y-70040057D01*
X127686706Y-70040057D01*
X127686706Y-70391767D01*
X127597679Y-70391767D01*
X127597679Y-70480000D01*
X127159996Y-70480000D01*
X127159996Y-70391767D01*
X127074023Y-70391767D01*
X127074023Y-70304145D01*
X127249023Y-70304145D01*
X127249023Y-70392377D01*
X127511706Y-70392377D01*
X127511706Y-70040057D01*
X127074023Y-70040057D01*
X127074023Y-69604633D01*
G37*
G36*
X125936828Y-79784633D02*
G01*
X126111828Y-79784633D01*
X126111828Y-80572377D01*
X126284630Y-80572377D01*
X126284630Y-80660000D01*
X125760973Y-80660000D01*
X125760973Y-80572377D01*
X125936828Y-80572377D01*
X125936828Y-80046461D01*
X125760973Y-80046461D01*
X125760973Y-79958839D01*
X125848900Y-79958839D01*
X125848900Y-79871706D01*
X125936828Y-79871706D01*
X125936828Y-79784633D01*
G37*
G36*
X126374511Y-80046461D02*
G01*
X126549511Y-80046461D01*
X126549511Y-80398171D01*
X126636339Y-80398171D01*
X126636339Y-80484145D01*
X126723168Y-80484145D01*
X126723168Y-80398171D01*
X126811339Y-80398171D01*
X126811339Y-80046461D01*
X126985484Y-80046461D01*
X126985484Y-80398171D01*
X126898168Y-80398171D01*
X126898168Y-80484145D01*
X126811339Y-80484145D01*
X126811339Y-80574026D01*
X126722313Y-80574026D01*
X126722313Y-80660000D01*
X126636339Y-80660000D01*
X126636339Y-80574026D01*
X126550366Y-80574026D01*
X126550366Y-80484145D01*
X126461339Y-80484145D01*
X126461339Y-80398171D01*
X126374511Y-80398171D01*
X126374511Y-80046461D01*
G37*
G36*
X127335851Y-79784633D02*
G01*
X127510851Y-79784633D01*
X127510851Y-80572377D01*
X127683653Y-80572377D01*
X127683653Y-80660000D01*
X127159996Y-80660000D01*
X127159996Y-80572377D01*
X127335851Y-80572377D01*
X127335851Y-80046461D01*
X127159996Y-80046461D01*
X127159996Y-79958839D01*
X127247923Y-79958839D01*
X127247923Y-79871706D01*
X127335851Y-79871706D01*
X127335851Y-79784633D01*
G37*
G36*
X104485973Y-42054633D02*
G01*
X104923656Y-42054633D01*
X104923656Y-42140607D01*
X105012683Y-42140607D01*
X105012683Y-42316461D01*
X104837683Y-42316461D01*
X104837683Y-42142255D01*
X104575000Y-42142255D01*
X104575000Y-42842377D01*
X104837683Y-42842377D01*
X104837683Y-42579938D01*
X104750122Y-42579938D01*
X104750122Y-42492316D01*
X105012683Y-42492316D01*
X105012683Y-42930000D01*
X104485973Y-42930000D01*
X104485973Y-42840118D01*
X104400000Y-42840118D01*
X104400000Y-42140607D01*
X104485973Y-42140607D01*
X104485973Y-42054633D01*
G37*
G36*
X105099511Y-42054633D02*
G01*
X105185484Y-42054633D01*
X105185484Y-42140607D01*
X105273412Y-42140607D01*
X105273412Y-42230488D01*
X105361339Y-42230488D01*
X105361339Y-42316461D01*
X105449267Y-42316461D01*
X105449267Y-42406343D01*
X105537194Y-42406343D01*
X105537194Y-42054633D01*
X105712194Y-42054633D01*
X105712194Y-42930000D01*
X105537194Y-42930000D01*
X105537194Y-42668171D01*
X105449267Y-42668171D01*
X105449267Y-42578290D01*
X105361339Y-42578290D01*
X105361339Y-42492316D01*
X105273412Y-42492316D01*
X105273412Y-42930000D01*
X105099511Y-42930000D01*
X105099511Y-42054633D01*
G37*
G36*
X106322679Y-42140607D02*
G01*
X106411706Y-42140607D01*
X106411706Y-42840118D01*
X106322679Y-42840118D01*
X106322679Y-42930000D01*
X105799023Y-42930000D01*
X105799023Y-42842377D01*
X105885851Y-42842377D01*
X106060851Y-42842377D01*
X106236706Y-42842377D01*
X106236706Y-42142255D01*
X106060851Y-42142255D01*
X106060851Y-42842377D01*
X105885851Y-42842377D01*
X105885851Y-42142255D01*
X105799023Y-42142255D01*
X105799023Y-42054633D01*
X106322679Y-42054633D01*
X106322679Y-42140607D01*
G37*
G36*
X121050000Y-42129633D02*
G01*
X121662683Y-42129633D01*
X121662683Y-42217255D01*
X121225000Y-42217255D01*
X121225000Y-42479694D01*
X121573656Y-42479694D01*
X121573656Y-42565057D01*
X121662683Y-42565057D01*
X121662683Y-42916767D01*
X121573656Y-42916767D01*
X121573656Y-43005000D01*
X121135973Y-43005000D01*
X121135973Y-42916767D01*
X121050000Y-42916767D01*
X121050000Y-42829145D01*
X121225000Y-42829145D01*
X121225000Y-42917377D01*
X121487683Y-42917377D01*
X121487683Y-42565057D01*
X121050000Y-42565057D01*
X121050000Y-42129633D01*
G37*
G36*
X121749511Y-42391461D02*
G01*
X121924511Y-42391461D01*
X121924511Y-42743171D01*
X122011339Y-42743171D01*
X122011339Y-42829145D01*
X122098168Y-42829145D01*
X122098168Y-42743171D01*
X122186339Y-42743171D01*
X122186339Y-42391461D01*
X122360484Y-42391461D01*
X122360484Y-42743171D01*
X122273168Y-42743171D01*
X122273168Y-42829145D01*
X122186339Y-42829145D01*
X122186339Y-42919026D01*
X122097313Y-42919026D01*
X122097313Y-43005000D01*
X122011339Y-43005000D01*
X122011339Y-42919026D01*
X121925366Y-42919026D01*
X121925366Y-42829145D01*
X121836339Y-42829145D01*
X121836339Y-42743171D01*
X121749511Y-42743171D01*
X121749511Y-42391461D01*
G37*
G36*
X97994633Y-48176858D02*
G01*
X97994633Y-47653201D01*
X98257866Y-47653201D01*
X98257866Y-47739175D01*
X98170488Y-47739175D01*
X98170488Y-47826003D01*
X98782377Y-47826003D01*
X98782377Y-47739175D01*
X98870000Y-47739175D01*
X98870000Y-48090885D01*
X98782377Y-48090885D01*
X98782377Y-48001003D01*
X98170488Y-48001003D01*
X98170488Y-48090885D01*
X98257866Y-48090885D01*
X98257866Y-48176858D01*
X97994633Y-48176858D01*
G37*
G36*
X97994633Y-47563320D02*
G01*
X97994633Y-47477347D01*
X98080607Y-47477347D01*
X98080607Y-47389053D01*
X98170488Y-47389053D01*
X98170488Y-47300820D01*
X98256461Y-47300820D01*
X98256461Y-47215518D01*
X98170488Y-47215518D01*
X98170488Y-47125637D01*
X98080607Y-47125637D01*
X98080607Y-47035755D01*
X97994633Y-47035755D01*
X97994633Y-46949782D01*
X98870000Y-46949782D01*
X98870000Y-47125637D01*
X98432316Y-47125637D01*
X98432316Y-47215518D01*
X98518290Y-47215518D01*
X98518290Y-47300820D01*
X98432316Y-47300820D01*
X98432316Y-47389053D01*
X98870000Y-47389053D01*
X98870000Y-47563320D01*
X97994633Y-47563320D01*
G37*
G36*
X97994633Y-46776980D02*
G01*
X97994633Y-46340152D01*
X98080607Y-46340152D01*
X98080607Y-46251125D01*
X98256461Y-46251125D01*
X98256461Y-46426125D01*
X98082255Y-46426125D01*
X98082255Y-46688808D01*
X98256461Y-46688808D01*
X98256461Y-46601980D01*
X98344694Y-46601980D01*
X98344694Y-46426125D01*
X98431767Y-46426125D01*
X98431767Y-46340152D01*
X98520549Y-46340152D01*
X98520549Y-46251125D01*
X98782377Y-46251125D01*
X98782377Y-46340152D01*
X98870000Y-46340152D01*
X98870000Y-46776980D01*
X98782377Y-46776980D01*
X98782377Y-46863808D01*
X98608171Y-46863808D01*
X98608171Y-46688808D01*
X98782377Y-46688808D01*
X98782377Y-46426125D01*
X98520549Y-46426125D01*
X98520549Y-46515152D01*
X98431767Y-46515152D01*
X98431767Y-46687954D01*
X98344694Y-46687954D01*
X98344694Y-46776980D01*
X98256461Y-46776980D01*
X98256461Y-46863808D01*
X98080607Y-46863808D01*
X98080607Y-46776980D01*
X97994633Y-46776980D01*
G37*
G36*
X90575000Y-54864633D02*
G01*
X91188538Y-54864633D01*
X91188538Y-55126461D01*
X91102564Y-55126461D01*
X91102564Y-55039389D01*
X91012683Y-55039389D01*
X91012683Y-54952255D01*
X90836828Y-54952255D01*
X90836828Y-55212435D01*
X90926709Y-55212435D01*
X90926709Y-55126461D01*
X91012683Y-55126461D01*
X91012683Y-55478171D01*
X90926709Y-55478171D01*
X90926709Y-55388290D01*
X90836828Y-55388290D01*
X90836828Y-55652377D01*
X90926709Y-55652377D01*
X90926709Y-55740000D01*
X90575000Y-55740000D01*
X90575000Y-55652377D01*
X90661828Y-55652377D01*
X90661828Y-54952255D01*
X90575000Y-54952255D01*
X90575000Y-54864633D01*
G37*
G36*
X91798168Y-54950607D02*
G01*
X91887194Y-54950607D01*
X91887194Y-55302316D01*
X91798168Y-55302316D01*
X91798168Y-55389938D01*
X91536339Y-55389938D01*
X91536339Y-55652377D01*
X91626221Y-55652377D01*
X91626221Y-55740000D01*
X91274511Y-55740000D01*
X91274511Y-55652377D01*
X91361339Y-55652377D01*
X91361339Y-55302316D01*
X91536339Y-55302316D01*
X91712194Y-55302316D01*
X91712194Y-54952255D01*
X91536339Y-54952255D01*
X91536339Y-55302316D01*
X91361339Y-55302316D01*
X91361339Y-54952255D01*
X91274511Y-54952255D01*
X91274511Y-54864633D01*
X91798168Y-54864633D01*
X91798168Y-54950607D01*
G37*
G36*
X92059996Y-54864633D02*
G01*
X92497679Y-54864633D01*
X92497679Y-54950607D01*
X92586706Y-54950607D01*
X92586706Y-55126461D01*
X92411706Y-55126461D01*
X92411706Y-54952255D01*
X92149023Y-54952255D01*
X92149023Y-55652377D01*
X92411706Y-55652377D01*
X92411706Y-55389938D01*
X92324145Y-55389938D01*
X92324145Y-55302316D01*
X92586706Y-55302316D01*
X92586706Y-55740000D01*
X92059996Y-55740000D01*
X92059996Y-55650118D01*
X91974023Y-55650118D01*
X91974023Y-54950607D01*
X92059996Y-54950607D01*
X92059996Y-54864633D01*
G37*
G36*
X93111217Y-54952255D02*
G01*
X93197191Y-54952255D01*
X93197191Y-55040488D01*
X93286217Y-55040488D01*
X93286217Y-55740000D01*
X93111217Y-55740000D01*
X93111217Y-55389938D01*
X92848534Y-55389938D01*
X92848534Y-55740000D01*
X92673534Y-55740000D01*
X92673534Y-55040488D01*
X92760362Y-55040488D01*
X92848534Y-55040488D01*
X92848534Y-55302316D01*
X93111217Y-55302316D01*
X93111217Y-55040488D01*
X93022191Y-55040488D01*
X93022191Y-54952255D01*
X92935362Y-54952255D01*
X92935362Y-55040488D01*
X92848534Y-55040488D01*
X92760362Y-55040488D01*
X92760362Y-54952255D01*
X92849389Y-54952255D01*
X92849389Y-54864633D01*
X93111217Y-54864633D01*
X93111217Y-54952255D01*
G37*
G36*
X93625000Y-54894633D02*
G01*
X94238538Y-54894633D01*
X94238538Y-55156461D01*
X94152564Y-55156461D01*
X94152564Y-55069389D01*
X94062683Y-55069389D01*
X94062683Y-54982255D01*
X93886828Y-54982255D01*
X93886828Y-55242435D01*
X93976709Y-55242435D01*
X93976709Y-55156461D01*
X94062683Y-55156461D01*
X94062683Y-55508171D01*
X93976709Y-55508171D01*
X93976709Y-55418290D01*
X93886828Y-55418290D01*
X93886828Y-55682377D01*
X93976709Y-55682377D01*
X93976709Y-55770000D01*
X93625000Y-55770000D01*
X93625000Y-55682377D01*
X93711828Y-55682377D01*
X93711828Y-54982255D01*
X93625000Y-54982255D01*
X93625000Y-54894633D01*
G37*
G36*
X94324511Y-54894633D02*
G01*
X94499511Y-54894633D01*
X94499511Y-55066580D01*
X94586339Y-55066580D01*
X94586339Y-55156461D01*
X94673168Y-55156461D01*
X94673168Y-55066580D01*
X94762194Y-55066580D01*
X94762194Y-54894633D01*
X94937194Y-54894633D01*
X94937194Y-55070488D01*
X94848168Y-55070488D01*
X94848168Y-55244328D01*
X94762194Y-55244328D01*
X94762194Y-55420183D01*
X94848168Y-55420183D01*
X94848168Y-55594145D01*
X94937194Y-55594145D01*
X94937194Y-55770000D01*
X94762194Y-55770000D01*
X94762194Y-55594145D01*
X94673168Y-55594145D01*
X94673168Y-55508171D01*
X94586339Y-55508171D01*
X94586339Y-55594145D01*
X94499511Y-55594145D01*
X94499511Y-55770000D01*
X94324511Y-55770000D01*
X94324511Y-55594145D01*
X94411339Y-55594145D01*
X94411339Y-55420183D01*
X94500366Y-55420183D01*
X94500366Y-55244328D01*
X94411339Y-55244328D01*
X94411339Y-55070488D01*
X94324511Y-55070488D01*
X94324511Y-54894633D01*
G37*
G36*
X95109996Y-54894633D02*
G01*
X95547679Y-54894633D01*
X95547679Y-54980607D01*
X95636706Y-54980607D01*
X95636706Y-55242435D01*
X95547679Y-55242435D01*
X95547679Y-55330057D01*
X95636706Y-55330057D01*
X95636706Y-55681767D01*
X95547679Y-55681767D01*
X95547679Y-55770000D01*
X95109996Y-55770000D01*
X95109996Y-55681767D01*
X95024023Y-55681767D01*
X95024023Y-55594145D01*
X95199023Y-55594145D01*
X95199023Y-55682377D01*
X95461706Y-55682377D01*
X95461706Y-55330057D01*
X95199023Y-55330057D01*
X95199023Y-55244694D01*
X95461706Y-55244694D01*
X95461706Y-54982255D01*
X95199023Y-54982255D01*
X95199023Y-55068229D01*
X95024023Y-55068229D01*
X95024023Y-54980607D01*
X95109996Y-54980607D01*
X95109996Y-54894633D01*
G37*
G36*
X83846828Y-59834633D02*
G01*
X84021828Y-59834633D01*
X84021828Y-60622377D01*
X84194630Y-60622377D01*
X84194630Y-60710000D01*
X83670973Y-60710000D01*
X83670973Y-60622377D01*
X83846828Y-60622377D01*
X83846828Y-60096461D01*
X83670973Y-60096461D01*
X83670973Y-60008839D01*
X83758900Y-60008839D01*
X83758900Y-59921706D01*
X83846828Y-59921706D01*
X83846828Y-59834633D01*
G37*
G36*
X84284511Y-60096461D02*
G01*
X84459511Y-60096461D01*
X84459511Y-60448171D01*
X84546339Y-60448171D01*
X84546339Y-60534145D01*
X84633168Y-60534145D01*
X84633168Y-60448171D01*
X84721339Y-60448171D01*
X84721339Y-60096461D01*
X84895484Y-60096461D01*
X84895484Y-60448171D01*
X84808168Y-60448171D01*
X84808168Y-60534145D01*
X84721339Y-60534145D01*
X84721339Y-60624026D01*
X84632313Y-60624026D01*
X84632313Y-60710000D01*
X84546339Y-60710000D01*
X84546339Y-60624026D01*
X84460366Y-60624026D01*
X84460366Y-60534145D01*
X84371339Y-60534145D01*
X84371339Y-60448171D01*
X84284511Y-60448171D01*
X84284511Y-60096461D01*
G37*
G36*
X85069996Y-59834633D02*
G01*
X85507679Y-59834633D01*
X85507679Y-59920607D01*
X85596706Y-59920607D01*
X85596706Y-60182435D01*
X85507679Y-60182435D01*
X85507679Y-60270057D01*
X85596706Y-60270057D01*
X85596706Y-60621767D01*
X85507679Y-60621767D01*
X85507679Y-60710000D01*
X85069996Y-60710000D01*
X85069996Y-60621767D01*
X84984023Y-60621767D01*
X84984023Y-60534145D01*
X85159023Y-60534145D01*
X85159023Y-60622377D01*
X85421706Y-60622377D01*
X85421706Y-60270057D01*
X85159023Y-60270057D01*
X85159023Y-60184694D01*
X85421706Y-60184694D01*
X85421706Y-59922255D01*
X85159023Y-59922255D01*
X85159023Y-60008229D01*
X84984023Y-60008229D01*
X84984023Y-59920607D01*
X85069996Y-59920607D01*
X85069996Y-59834633D01*
G37*
G36*
X85683534Y-59834633D02*
G01*
X86296217Y-59834633D01*
X86296217Y-59922255D01*
X85858534Y-59922255D01*
X85858534Y-60184694D01*
X86207191Y-60184694D01*
X86207191Y-60270057D01*
X86296217Y-60270057D01*
X86296217Y-60621767D01*
X86207191Y-60621767D01*
X86207191Y-60710000D01*
X85769508Y-60710000D01*
X85769508Y-60621767D01*
X85683534Y-60621767D01*
X85683534Y-60534145D01*
X85858534Y-60534145D01*
X85858534Y-60622377D01*
X86121217Y-60622377D01*
X86121217Y-60270057D01*
X85683534Y-60270057D01*
X85683534Y-59834633D01*
G37*
G36*
X127377316Y-47316343D02*
G01*
X127553171Y-47316343D01*
X127553171Y-47227316D01*
X127815000Y-47227316D01*
X127815000Y-47402316D01*
X127553171Y-47402316D01*
X127553171Y-47491343D01*
X127464938Y-47491343D01*
X127464938Y-47578171D01*
X127815000Y-47578171D01*
X127815000Y-47840000D01*
X127727377Y-47840000D01*
X127727377Y-47753171D01*
X127027255Y-47753171D01*
X127027255Y-47840000D01*
X126939633Y-47840000D01*
X126939633Y-47578171D01*
X127027255Y-47578171D01*
X127377316Y-47578171D01*
X127377316Y-47402316D01*
X127027255Y-47402316D01*
X127027255Y-47578171D01*
X126939633Y-47578171D01*
X126939633Y-47316343D01*
X127025607Y-47316343D01*
X127025607Y-47227316D01*
X127377316Y-47227316D01*
X127377316Y-47316343D01*
G37*
G36*
X126939633Y-47138534D02*
G01*
X126939633Y-46526950D01*
X127201461Y-46526950D01*
X127201461Y-46612923D01*
X127114389Y-46612923D01*
X127114389Y-46702805D01*
X127027255Y-46702805D01*
X127027255Y-46875607D01*
X127287435Y-46875607D01*
X127287435Y-46788778D01*
X127201461Y-46788778D01*
X127201461Y-46702805D01*
X127553171Y-46702805D01*
X127553171Y-46788778D01*
X127463290Y-46788778D01*
X127463290Y-46875607D01*
X127727377Y-46875607D01*
X127727377Y-46702805D01*
X127640244Y-46702805D01*
X127640244Y-46612923D01*
X127553171Y-46612923D01*
X127553171Y-46526950D01*
X127815000Y-46526950D01*
X127815000Y-47138534D01*
X127727377Y-47138534D01*
X127727377Y-47050607D01*
X127027255Y-47050607D01*
X127027255Y-47138534D01*
X126939633Y-47138534D01*
G37*
G36*
X126939633Y-46354148D02*
G01*
X126939633Y-45917320D01*
X127025607Y-45917320D01*
X127025607Y-45828293D01*
X127201461Y-45828293D01*
X127201461Y-46003293D01*
X127027255Y-46003293D01*
X127027255Y-46265976D01*
X127201461Y-46265976D01*
X127201461Y-46179148D01*
X127289694Y-46179148D01*
X127289694Y-46003293D01*
X127376767Y-46003293D01*
X127376767Y-45917320D01*
X127465549Y-45917320D01*
X127465549Y-45828293D01*
X127727377Y-45828293D01*
X127727377Y-45917320D01*
X127815000Y-45917320D01*
X127815000Y-46354148D01*
X127727377Y-46354148D01*
X127727377Y-46440976D01*
X127553171Y-46440976D01*
X127553171Y-46265976D01*
X127727377Y-46265976D01*
X127727377Y-46003293D01*
X127465549Y-46003293D01*
X127465549Y-46092320D01*
X127376767Y-46092320D01*
X127376767Y-46265122D01*
X127289694Y-46265122D01*
X127289694Y-46354148D01*
X127201461Y-46354148D01*
X127201461Y-46440976D01*
X127025607Y-46440976D01*
X127025607Y-46354148D01*
X126939633Y-46354148D01*
G37*
G36*
X126939633Y-45739511D02*
G01*
X126939633Y-45127927D01*
X127201461Y-45127927D01*
X127201461Y-45213900D01*
X127114389Y-45213900D01*
X127114389Y-45303782D01*
X127027255Y-45303782D01*
X127027255Y-45476584D01*
X127287435Y-45476584D01*
X127287435Y-45389755D01*
X127201461Y-45389755D01*
X127201461Y-45303782D01*
X127553171Y-45303782D01*
X127553171Y-45389755D01*
X127463290Y-45389755D01*
X127463290Y-45476584D01*
X127727377Y-45476584D01*
X127727377Y-45303782D01*
X127640244Y-45303782D01*
X127640244Y-45213900D01*
X127553171Y-45213900D01*
X127553171Y-45127927D01*
X127815000Y-45127927D01*
X127815000Y-45739511D01*
X127727377Y-45739511D01*
X127727377Y-45651584D01*
X127027255Y-45651584D01*
X127027255Y-45739511D01*
X126939633Y-45739511D01*
G37*
G36*
X126939633Y-44955980D02*
G01*
X126939633Y-44432323D01*
X127202866Y-44432323D01*
X127202866Y-44518297D01*
X127115488Y-44518297D01*
X127115488Y-44605125D01*
X127727377Y-44605125D01*
X127727377Y-44518297D01*
X127815000Y-44518297D01*
X127815000Y-44870006D01*
X127727377Y-44870006D01*
X127727377Y-44780125D01*
X127115488Y-44780125D01*
X127115488Y-44870006D01*
X127202866Y-44870006D01*
X127202866Y-44955980D01*
X126939633Y-44955980D01*
G37*
G36*
X94850973Y-51874633D02*
G01*
X95288656Y-51874633D01*
X95288656Y-51960607D01*
X95377683Y-51960607D01*
X95377683Y-52222435D01*
X95288656Y-52222435D01*
X95288656Y-52310057D01*
X95377683Y-52310057D01*
X95377683Y-52661767D01*
X95288656Y-52661767D01*
X95288656Y-52750000D01*
X94850973Y-52750000D01*
X94850973Y-52661767D01*
X94765000Y-52661767D01*
X94765000Y-52574145D01*
X94940000Y-52574145D01*
X94940000Y-52662377D01*
X95202683Y-52662377D01*
X95202683Y-52310057D01*
X94940000Y-52310057D01*
X94940000Y-52224694D01*
X95202683Y-52224694D01*
X95202683Y-51962255D01*
X94940000Y-51962255D01*
X94940000Y-52048229D01*
X94765000Y-52048229D01*
X94765000Y-51960607D01*
X94850973Y-51960607D01*
X94850973Y-51874633D01*
G37*
G36*
X95464511Y-52136461D02*
G01*
X95639511Y-52136461D01*
X95639511Y-52488171D01*
X95726339Y-52488171D01*
X95726339Y-52574145D01*
X95813168Y-52574145D01*
X95813168Y-52488171D01*
X95901339Y-52488171D01*
X95901339Y-52136461D01*
X96075484Y-52136461D01*
X96075484Y-52488171D01*
X95988168Y-52488171D01*
X95988168Y-52574145D01*
X95901339Y-52574145D01*
X95901339Y-52664026D01*
X95812313Y-52664026D01*
X95812313Y-52750000D01*
X95726339Y-52750000D01*
X95726339Y-52664026D01*
X95640366Y-52664026D01*
X95640366Y-52574145D01*
X95551339Y-52574145D01*
X95551339Y-52488171D01*
X95464511Y-52488171D01*
X95464511Y-52136461D01*
G37*
G36*
X96249996Y-51874633D02*
G01*
X96687679Y-51874633D01*
X96687679Y-51960607D01*
X96776706Y-51960607D01*
X96776706Y-52222435D01*
X96687679Y-52222435D01*
X96687679Y-52310057D01*
X96776706Y-52310057D01*
X96776706Y-52661767D01*
X96687679Y-52661767D01*
X96687679Y-52750000D01*
X96249996Y-52750000D01*
X96249996Y-52661767D01*
X96164023Y-52661767D01*
X96164023Y-52574145D01*
X96339023Y-52574145D01*
X96339023Y-52662377D01*
X96601706Y-52662377D01*
X96601706Y-52310057D01*
X96339023Y-52310057D01*
X96339023Y-52224694D01*
X96601706Y-52224694D01*
X96601706Y-51962255D01*
X96339023Y-51962255D01*
X96339023Y-52048229D01*
X96164023Y-52048229D01*
X96164023Y-51960607D01*
X96249996Y-51960607D01*
X96249996Y-51874633D01*
G37*
D11*
X125457142Y-64039580D02*
X125409523Y-64087200D01*
X125409523Y-64087200D02*
X125266666Y-64134819D01*
X125266666Y-64134819D02*
X125171428Y-64134819D01*
X125171428Y-64134819D02*
X125028571Y-64087200D01*
X125028571Y-64087200D02*
X124933333Y-63991961D01*
X124933333Y-63991961D02*
X124885714Y-63896723D01*
X124885714Y-63896723D02*
X124838095Y-63706247D01*
X124838095Y-63706247D02*
X124838095Y-63563390D01*
X124838095Y-63563390D02*
X124885714Y-63372914D01*
X124885714Y-63372914D02*
X124933333Y-63277676D01*
X124933333Y-63277676D02*
X125028571Y-63182438D01*
X125028571Y-63182438D02*
X125171428Y-63134819D01*
X125171428Y-63134819D02*
X125266666Y-63134819D01*
X125266666Y-63134819D02*
X125409523Y-63182438D01*
X125409523Y-63182438D02*
X125457142Y-63230057D01*
X125790476Y-63134819D02*
X126409523Y-63134819D01*
X126409523Y-63134819D02*
X126076190Y-63515771D01*
X126076190Y-63515771D02*
X126219047Y-63515771D01*
X126219047Y-63515771D02*
X126314285Y-63563390D01*
X126314285Y-63563390D02*
X126361904Y-63611009D01*
X126361904Y-63611009D02*
X126409523Y-63706247D01*
X126409523Y-63706247D02*
X126409523Y-63944342D01*
X126409523Y-63944342D02*
X126361904Y-64039580D01*
X126361904Y-64039580D02*
X126314285Y-64087200D01*
X126314285Y-64087200D02*
X126219047Y-64134819D01*
X126219047Y-64134819D02*
X125933333Y-64134819D01*
X125933333Y-64134819D02*
X125838095Y-64087200D01*
X125838095Y-64087200D02*
X125790476Y-64039580D01*
X127028571Y-63134819D02*
X127123809Y-63134819D01*
X127123809Y-63134819D02*
X127219047Y-63182438D01*
X127219047Y-63182438D02*
X127266666Y-63230057D01*
X127266666Y-63230057D02*
X127314285Y-63325295D01*
X127314285Y-63325295D02*
X127361904Y-63515771D01*
X127361904Y-63515771D02*
X127361904Y-63753866D01*
X127361904Y-63753866D02*
X127314285Y-63944342D01*
X127314285Y-63944342D02*
X127266666Y-64039580D01*
X127266666Y-64039580D02*
X127219047Y-64087200D01*
X127219047Y-64087200D02*
X127123809Y-64134819D01*
X127123809Y-64134819D02*
X127028571Y-64134819D01*
X127028571Y-64134819D02*
X126933333Y-64087200D01*
X126933333Y-64087200D02*
X126885714Y-64039580D01*
X126885714Y-64039580D02*
X126838095Y-63944342D01*
X126838095Y-63944342D02*
X126790476Y-63753866D01*
X126790476Y-63753866D02*
X126790476Y-63515771D01*
X126790476Y-63515771D02*
X126838095Y-63325295D01*
X126838095Y-63325295D02*
X126885714Y-63230057D01*
X126885714Y-63230057D02*
X126933333Y-63182438D01*
X126933333Y-63182438D02*
X127028571Y-63134819D01*
X125457142Y-75814580D02*
X125409523Y-75862200D01*
X125409523Y-75862200D02*
X125266666Y-75909819D01*
X125266666Y-75909819D02*
X125171428Y-75909819D01*
X125171428Y-75909819D02*
X125028571Y-75862200D01*
X125028571Y-75862200D02*
X124933333Y-75766961D01*
X124933333Y-75766961D02*
X124885714Y-75671723D01*
X124885714Y-75671723D02*
X124838095Y-75481247D01*
X124838095Y-75481247D02*
X124838095Y-75338390D01*
X124838095Y-75338390D02*
X124885714Y-75147914D01*
X124885714Y-75147914D02*
X124933333Y-75052676D01*
X124933333Y-75052676D02*
X125028571Y-74957438D01*
X125028571Y-74957438D02*
X125171428Y-74909819D01*
X125171428Y-74909819D02*
X125266666Y-74909819D01*
X125266666Y-74909819D02*
X125409523Y-74957438D01*
X125409523Y-74957438D02*
X125457142Y-75005057D01*
X126314285Y-74909819D02*
X126123809Y-74909819D01*
X126123809Y-74909819D02*
X126028571Y-74957438D01*
X126028571Y-74957438D02*
X125980952Y-75005057D01*
X125980952Y-75005057D02*
X125885714Y-75147914D01*
X125885714Y-75147914D02*
X125838095Y-75338390D01*
X125838095Y-75338390D02*
X125838095Y-75719342D01*
X125838095Y-75719342D02*
X125885714Y-75814580D01*
X125885714Y-75814580D02*
X125933333Y-75862200D01*
X125933333Y-75862200D02*
X126028571Y-75909819D01*
X126028571Y-75909819D02*
X126219047Y-75909819D01*
X126219047Y-75909819D02*
X126314285Y-75862200D01*
X126314285Y-75862200D02*
X126361904Y-75814580D01*
X126361904Y-75814580D02*
X126409523Y-75719342D01*
X126409523Y-75719342D02*
X126409523Y-75481247D01*
X126409523Y-75481247D02*
X126361904Y-75386009D01*
X126361904Y-75386009D02*
X126314285Y-75338390D01*
X126314285Y-75338390D02*
X126219047Y-75290771D01*
X126219047Y-75290771D02*
X126028571Y-75290771D01*
X126028571Y-75290771D02*
X125933333Y-75338390D01*
X125933333Y-75338390D02*
X125885714Y-75386009D01*
X125885714Y-75386009D02*
X125838095Y-75481247D01*
X127266666Y-75243152D02*
X127266666Y-75909819D01*
X127028571Y-74862200D02*
X126790476Y-75576485D01*
X126790476Y-75576485D02*
X127409523Y-75576485D01*
X125457142Y-86064580D02*
X125409523Y-86112200D01*
X125409523Y-86112200D02*
X125266666Y-86159819D01*
X125266666Y-86159819D02*
X125171428Y-86159819D01*
X125171428Y-86159819D02*
X125028571Y-86112200D01*
X125028571Y-86112200D02*
X124933333Y-86016961D01*
X124933333Y-86016961D02*
X124885714Y-85921723D01*
X124885714Y-85921723D02*
X124838095Y-85731247D01*
X124838095Y-85731247D02*
X124838095Y-85588390D01*
X124838095Y-85588390D02*
X124885714Y-85397914D01*
X124885714Y-85397914D02*
X124933333Y-85302676D01*
X124933333Y-85302676D02*
X125028571Y-85207438D01*
X125028571Y-85207438D02*
X125171428Y-85159819D01*
X125171428Y-85159819D02*
X125266666Y-85159819D01*
X125266666Y-85159819D02*
X125409523Y-85207438D01*
X125409523Y-85207438D02*
X125457142Y-85255057D01*
X125790476Y-85159819D02*
X126409523Y-85159819D01*
X126409523Y-85159819D02*
X126076190Y-85540771D01*
X126076190Y-85540771D02*
X126219047Y-85540771D01*
X126219047Y-85540771D02*
X126314285Y-85588390D01*
X126314285Y-85588390D02*
X126361904Y-85636009D01*
X126361904Y-85636009D02*
X126409523Y-85731247D01*
X126409523Y-85731247D02*
X126409523Y-85969342D01*
X126409523Y-85969342D02*
X126361904Y-86064580D01*
X126361904Y-86064580D02*
X126314285Y-86112200D01*
X126314285Y-86112200D02*
X126219047Y-86159819D01*
X126219047Y-86159819D02*
X125933333Y-86159819D01*
X125933333Y-86159819D02*
X125838095Y-86112200D01*
X125838095Y-86112200D02*
X125790476Y-86064580D01*
X127266666Y-85159819D02*
X127076190Y-85159819D01*
X127076190Y-85159819D02*
X126980952Y-85207438D01*
X126980952Y-85207438D02*
X126933333Y-85255057D01*
X126933333Y-85255057D02*
X126838095Y-85397914D01*
X126838095Y-85397914D02*
X126790476Y-85588390D01*
X126790476Y-85588390D02*
X126790476Y-85969342D01*
X126790476Y-85969342D02*
X126838095Y-86064580D01*
X126838095Y-86064580D02*
X126885714Y-86112200D01*
X126885714Y-86112200D02*
X126980952Y-86159819D01*
X126980952Y-86159819D02*
X127171428Y-86159819D01*
X127171428Y-86159819D02*
X127266666Y-86112200D01*
X127266666Y-86112200D02*
X127314285Y-86064580D01*
X127314285Y-86064580D02*
X127361904Y-85969342D01*
X127361904Y-85969342D02*
X127361904Y-85731247D01*
X127361904Y-85731247D02*
X127314285Y-85636009D01*
X127314285Y-85636009D02*
X127266666Y-85588390D01*
X127266666Y-85588390D02*
X127171428Y-85540771D01*
X127171428Y-85540771D02*
X126980952Y-85540771D01*
X126980952Y-85540771D02*
X126885714Y-85588390D01*
X126885714Y-85588390D02*
X126838095Y-85636009D01*
X126838095Y-85636009D02*
X126790476Y-85731247D01*
X95832142Y-47104580D02*
X95784523Y-47152200D01*
X95784523Y-47152200D02*
X95641666Y-47199819D01*
X95641666Y-47199819D02*
X95546428Y-47199819D01*
X95546428Y-47199819D02*
X95403571Y-47152200D01*
X95403571Y-47152200D02*
X95308333Y-47056961D01*
X95308333Y-47056961D02*
X95260714Y-46961723D01*
X95260714Y-46961723D02*
X95213095Y-46771247D01*
X95213095Y-46771247D02*
X95213095Y-46628390D01*
X95213095Y-46628390D02*
X95260714Y-46437914D01*
X95260714Y-46437914D02*
X95308333Y-46342676D01*
X95308333Y-46342676D02*
X95403571Y-46247438D01*
X95403571Y-46247438D02*
X95546428Y-46199819D01*
X95546428Y-46199819D02*
X95641666Y-46199819D01*
X95641666Y-46199819D02*
X95784523Y-46247438D01*
X95784523Y-46247438D02*
X95832142Y-46295057D01*
X96165476Y-46199819D02*
X96784523Y-46199819D01*
X96784523Y-46199819D02*
X96451190Y-46580771D01*
X96451190Y-46580771D02*
X96594047Y-46580771D01*
X96594047Y-46580771D02*
X96689285Y-46628390D01*
X96689285Y-46628390D02*
X96736904Y-46676009D01*
X96736904Y-46676009D02*
X96784523Y-46771247D01*
X96784523Y-46771247D02*
X96784523Y-47009342D01*
X96784523Y-47009342D02*
X96736904Y-47104580D01*
X96736904Y-47104580D02*
X96689285Y-47152200D01*
X96689285Y-47152200D02*
X96594047Y-47199819D01*
X96594047Y-47199819D02*
X96308333Y-47199819D01*
X96308333Y-47199819D02*
X96213095Y-47152200D01*
X96213095Y-47152200D02*
X96165476Y-47104580D01*
X97165476Y-46295057D02*
X97213095Y-46247438D01*
X97213095Y-46247438D02*
X97308333Y-46199819D01*
X97308333Y-46199819D02*
X97546428Y-46199819D01*
X97546428Y-46199819D02*
X97641666Y-46247438D01*
X97641666Y-46247438D02*
X97689285Y-46295057D01*
X97689285Y-46295057D02*
X97736904Y-46390295D01*
X97736904Y-46390295D02*
X97736904Y-46485533D01*
X97736904Y-46485533D02*
X97689285Y-46628390D01*
X97689285Y-46628390D02*
X97117857Y-47199819D01*
X97117857Y-47199819D02*
X97736904Y-47199819D01*
G36*
X107739633Y-69155226D02*
G01*
X107739633Y-68980226D01*
X108527377Y-68980226D01*
X108527377Y-68807424D01*
X108615000Y-68807424D01*
X108615000Y-69331081D01*
X108527377Y-69331081D01*
X108527377Y-69155226D01*
X108001461Y-69155226D01*
X108001461Y-69331081D01*
X107913839Y-69331081D01*
X107913839Y-69243154D01*
X107826706Y-69243154D01*
X107826706Y-69155226D01*
X107739633Y-69155226D01*
G37*
G36*
X106655228Y-70327255D02*
G01*
X106741201Y-70327255D01*
X106741201Y-70415488D01*
X106830228Y-70415488D01*
X106830228Y-71115000D01*
X106655228Y-71115000D01*
X106655228Y-70764938D01*
X106392545Y-70764938D01*
X106392545Y-71115000D01*
X106217545Y-71115000D01*
X106217545Y-70415488D01*
X106304373Y-70415488D01*
X106392545Y-70415488D01*
X106392545Y-70677316D01*
X106655228Y-70677316D01*
X106655228Y-70415488D01*
X106566201Y-70415488D01*
X106566201Y-70327255D01*
X106479373Y-70327255D01*
X106479373Y-70415488D01*
X106392545Y-70415488D01*
X106304373Y-70415488D01*
X106304373Y-70327255D01*
X106393399Y-70327255D01*
X106393399Y-70239633D01*
X106655228Y-70239633D01*
X106655228Y-70327255D01*
G37*
G36*
X119739632Y-69217682D02*
G01*
X119739632Y-69042682D01*
X120527376Y-69042682D01*
X120527376Y-68869880D01*
X120614999Y-68869880D01*
X120614999Y-69393537D01*
X120527376Y-69393537D01*
X120527376Y-69217682D01*
X120001460Y-69217682D01*
X120001460Y-69393537D01*
X119913838Y-69393537D01*
X119913838Y-69305610D01*
X119826705Y-69305610D01*
X119826705Y-69217682D01*
X119739632Y-69217682D01*
G37*
G36*
X119913228Y-68342316D02*
G01*
X119827254Y-68342316D01*
X119827254Y-68604999D01*
X120089693Y-68604999D01*
X120177315Y-68604999D01*
X120527376Y-68604999D01*
X120527376Y-68342316D01*
X120177315Y-68342316D01*
X120177315Y-68604999D01*
X120089693Y-68604999D01*
X120089693Y-68256342D01*
X120177315Y-68256342D01*
X120177315Y-68167316D01*
X120527376Y-68167316D01*
X120527376Y-68256342D01*
X120614999Y-68256342D01*
X120614999Y-68694026D01*
X120527376Y-68694026D01*
X120527376Y-68779999D01*
X119825606Y-68779999D01*
X119825606Y-68694026D01*
X119739632Y-68694026D01*
X119739632Y-68256342D01*
X119825606Y-68256342D01*
X119825606Y-68167316D01*
X119913228Y-68167316D01*
X119913228Y-68342316D01*
G37*
G36*
X106303518Y-82239632D02*
G01*
X106827175Y-82239632D01*
X106827175Y-82502865D01*
X106741201Y-82502865D01*
X106741201Y-82415487D01*
X106654373Y-82415487D01*
X106654373Y-83027376D01*
X106741201Y-83027376D01*
X106741201Y-83114999D01*
X106389491Y-83114999D01*
X106389491Y-83027376D01*
X106479373Y-83027376D01*
X106479373Y-82415487D01*
X106389491Y-82415487D01*
X106389491Y-82502865D01*
X106303518Y-82502865D01*
X106303518Y-82239632D01*
G37*
X119012142Y-47794580D02*
X118964523Y-47842200D01*
X118964523Y-47842200D02*
X118821666Y-47889819D01*
X118821666Y-47889819D02*
X118726428Y-47889819D01*
X118726428Y-47889819D02*
X118583571Y-47842200D01*
X118583571Y-47842200D02*
X118488333Y-47746961D01*
X118488333Y-47746961D02*
X118440714Y-47651723D01*
X118440714Y-47651723D02*
X118393095Y-47461247D01*
X118393095Y-47461247D02*
X118393095Y-47318390D01*
X118393095Y-47318390D02*
X118440714Y-47127914D01*
X118440714Y-47127914D02*
X118488333Y-47032676D01*
X118488333Y-47032676D02*
X118583571Y-46937438D01*
X118583571Y-46937438D02*
X118726428Y-46889819D01*
X118726428Y-46889819D02*
X118821666Y-46889819D01*
X118821666Y-46889819D02*
X118964523Y-46937438D01*
X118964523Y-46937438D02*
X119012142Y-46985057D01*
X119869285Y-46889819D02*
X119678809Y-46889819D01*
X119678809Y-46889819D02*
X119583571Y-46937438D01*
X119583571Y-46937438D02*
X119535952Y-46985057D01*
X119535952Y-46985057D02*
X119440714Y-47127914D01*
X119440714Y-47127914D02*
X119393095Y-47318390D01*
X119393095Y-47318390D02*
X119393095Y-47699342D01*
X119393095Y-47699342D02*
X119440714Y-47794580D01*
X119440714Y-47794580D02*
X119488333Y-47842200D01*
X119488333Y-47842200D02*
X119583571Y-47889819D01*
X119583571Y-47889819D02*
X119774047Y-47889819D01*
X119774047Y-47889819D02*
X119869285Y-47842200D01*
X119869285Y-47842200D02*
X119916904Y-47794580D01*
X119916904Y-47794580D02*
X119964523Y-47699342D01*
X119964523Y-47699342D02*
X119964523Y-47461247D01*
X119964523Y-47461247D02*
X119916904Y-47366009D01*
X119916904Y-47366009D02*
X119869285Y-47318390D01*
X119869285Y-47318390D02*
X119774047Y-47270771D01*
X119774047Y-47270771D02*
X119583571Y-47270771D01*
X119583571Y-47270771D02*
X119488333Y-47318390D01*
X119488333Y-47318390D02*
X119440714Y-47366009D01*
X119440714Y-47366009D02*
X119393095Y-47461247D01*
X120916904Y-47889819D02*
X120345476Y-47889819D01*
X120631190Y-47889819D02*
X120631190Y-46889819D01*
X120631190Y-46889819D02*
X120535952Y-47032676D01*
X120535952Y-47032676D02*
X120440714Y-47127914D01*
X120440714Y-47127914D02*
X120345476Y-47175533D01*
X88457142Y-55029580D02*
X88409523Y-55077200D01*
X88409523Y-55077200D02*
X88266666Y-55124819D01*
X88266666Y-55124819D02*
X88171428Y-55124819D01*
X88171428Y-55124819D02*
X88028571Y-55077200D01*
X88028571Y-55077200D02*
X87933333Y-54981961D01*
X87933333Y-54981961D02*
X87885714Y-54886723D01*
X87885714Y-54886723D02*
X87838095Y-54696247D01*
X87838095Y-54696247D02*
X87838095Y-54553390D01*
X87838095Y-54553390D02*
X87885714Y-54362914D01*
X87885714Y-54362914D02*
X87933333Y-54267676D01*
X87933333Y-54267676D02*
X88028571Y-54172438D01*
X88028571Y-54172438D02*
X88171428Y-54124819D01*
X88171428Y-54124819D02*
X88266666Y-54124819D01*
X88266666Y-54124819D02*
X88409523Y-54172438D01*
X88409523Y-54172438D02*
X88457142Y-54220057D01*
X88790476Y-54124819D02*
X89409523Y-54124819D01*
X89409523Y-54124819D02*
X89076190Y-54505771D01*
X89076190Y-54505771D02*
X89219047Y-54505771D01*
X89219047Y-54505771D02*
X89314285Y-54553390D01*
X89314285Y-54553390D02*
X89361904Y-54601009D01*
X89361904Y-54601009D02*
X89409523Y-54696247D01*
X89409523Y-54696247D02*
X89409523Y-54934342D01*
X89409523Y-54934342D02*
X89361904Y-55029580D01*
X89361904Y-55029580D02*
X89314285Y-55077200D01*
X89314285Y-55077200D02*
X89219047Y-55124819D01*
X89219047Y-55124819D02*
X88933333Y-55124819D01*
X88933333Y-55124819D02*
X88838095Y-55077200D01*
X88838095Y-55077200D02*
X88790476Y-55029580D01*
X90266666Y-54458152D02*
X90266666Y-55124819D01*
X90028571Y-54077200D02*
X89790476Y-54791485D01*
X89790476Y-54791485D02*
X90409523Y-54791485D01*
D12*
%TO.C,R10*%
X127472258Y-65747500D02*
X126997742Y-65747500D01*
X127472258Y-64702500D02*
X126997742Y-64702500D01*
%TO.C,R9*%
X127472258Y-64247500D02*
X126997742Y-64247500D01*
X127472258Y-63202500D02*
X126997742Y-63202500D01*
%TO.C,C30*%
X126361252Y-61265000D02*
X125838748Y-61265000D01*
X126361252Y-62735000D02*
X125838748Y-62735000D01*
%TO.C,C64*%
X126361252Y-74510000D02*
X125838748Y-74510000D01*
X126361252Y-73040000D02*
X125838748Y-73040000D01*
%TO.C,C36*%
X126361252Y-84760000D02*
X125838748Y-84760000D01*
X126361252Y-83290000D02*
X125838748Y-83290000D01*
%TO.C,C32*%
X96213748Y-47690000D02*
X96736252Y-47690000D01*
X96213748Y-49160000D02*
X96736252Y-49160000D01*
D13*
%TO.C,SW1*%
X124495000Y-46900000D02*
X124495000Y-45300000D01*
X125455000Y-44700000D02*
X125535000Y-44700000D01*
X125455000Y-47500000D02*
X125535000Y-47500000D01*
X126495000Y-46900000D02*
X126495000Y-45300000D01*
X125955000Y-46100000D02*
G75*
G02*
X125035000Y-46100000I-460000J0D01*
G01*
X125035000Y-46100000D02*
G75*
G02*
X125955000Y-46100000I460000J0D01*
G01*
D12*
%TO.C,Q4*%
X90115000Y-60997500D02*
X90115000Y-59527500D01*
X90765000Y-60997500D02*
X90115000Y-60997500D01*
X91135000Y-59527500D02*
X91415000Y-59527500D01*
X92435000Y-59613248D02*
X92435000Y-60997500D01*
X92435000Y-60997500D02*
X91785000Y-60997500D01*
X92635000Y-59462500D02*
X92445000Y-59322500D01*
X92635000Y-59182500D01*
X92635000Y-59462500D01*
G36*
X92635000Y-59462500D02*
G01*
X92445000Y-59322500D01*
X92635000Y-59182500D01*
X92635000Y-59462500D01*
G37*
%TO.C,TP5*%
X84825000Y-64650000D02*
G75*
G02*
X83425000Y-64650000I-700000J0D01*
G01*
X83425000Y-64650000D02*
G75*
G02*
X84825000Y-64650000I700000J0D01*
G01*
%TO.C,Y1*%
X123310000Y-52540000D02*
X119890000Y-52540000D01*
X123310000Y-55460000D02*
X123310000Y-52540000D01*
%TO.C,R30*%
X124221359Y-42845000D02*
X124528641Y-42845000D01*
X124221359Y-43605000D02*
X124528641Y-43605000D01*
%TO.C,R52*%
X127437258Y-75002500D02*
X126962742Y-75002500D01*
X127437258Y-76047500D02*
X126962742Y-76047500D01*
%TO.C,TP3*%
X127485000Y-59990000D02*
G75*
G02*
X126085000Y-59990000I-700000J0D01*
G01*
X126085000Y-59990000D02*
G75*
G02*
X127485000Y-59990000I700000J0D01*
G01*
D14*
%TO.C,U1*%
X107075300Y-69575300D02*
X107075300Y-83824700D01*
X107075300Y-83824700D02*
X121324700Y-83824700D01*
X107202300Y-73899904D02*
X106948300Y-73899904D01*
X107202300Y-77899896D02*
X106948300Y-77899896D01*
X107202300Y-81899888D02*
X106948300Y-81899888D01*
X111399904Y-69702300D02*
X111399904Y-69448300D01*
X111399904Y-83697700D02*
X111399904Y-83951700D01*
X115399896Y-69702300D02*
X115399896Y-69448300D01*
X115399896Y-83697700D02*
X115399896Y-83951700D01*
X119399888Y-69702300D02*
X119399888Y-69448300D01*
X119399888Y-83697700D02*
X119399888Y-83951700D01*
X121197700Y-73899904D02*
X121451700Y-73899904D01*
X121197700Y-77899896D02*
X121451700Y-77899896D01*
X121197700Y-81899888D02*
X121451700Y-81899888D01*
X121324700Y-69575300D02*
X107075300Y-69575300D01*
X121324700Y-83824700D02*
X121324700Y-69575300D01*
%TO.C,L5*%
X129392903Y-62566400D02*
X129820997Y-62566400D01*
X129820997Y-59213600D02*
X129392903Y-59213600D01*
D12*
%TO.C,TP7*%
X127460000Y-71787434D02*
G75*
G02*
X126060000Y-71787434I-700000J0D01*
G01*
X126060000Y-71787434D02*
G75*
G02*
X127460000Y-71787434I700000J0D01*
G01*
D10*
%TO.C,D1*%
X91375000Y-54175000D02*
X91375000Y-54775000D01*
X91375000Y-54775000D02*
X91975000Y-54775000D01*
D12*
%TO.C,C29*%
X129897836Y-65630000D02*
X129682164Y-65630000D01*
X129897836Y-66350000D02*
X129682164Y-66350000D01*
%TO.C,R44*%
X92220000Y-57568641D02*
X92220000Y-57261359D01*
X92980000Y-57568641D02*
X92980000Y-57261359D01*
%TO.C,R36*%
X100895000Y-57553641D02*
X100895000Y-57246359D01*
X101655000Y-57553641D02*
X101655000Y-57246359D01*
%TO.C,R45*%
X96570000Y-57553641D02*
X96570000Y-57246359D01*
X97330000Y-57553641D02*
X97330000Y-57246359D01*
%TO.C,C28*%
X121487164Y-55640000D02*
X121702836Y-55640000D01*
X121487164Y-56360000D02*
X121702836Y-56360000D01*
D10*
%TO.C,D2*%
X93975000Y-54175000D02*
X93975000Y-54775000D01*
X93975000Y-54775000D02*
X94575000Y-54775000D01*
D12*
%TO.C,R15*%
X127422258Y-85227500D02*
X126947742Y-85227500D01*
X127422258Y-86272500D02*
X126947742Y-86272500D01*
%TO.C,R41*%
X91170000Y-57568641D02*
X91170000Y-57261359D01*
X91930000Y-57568641D02*
X91930000Y-57261359D01*
D14*
%TO.C,L9*%
X129395953Y-74213834D02*
X129824047Y-74213834D01*
X129824047Y-70861034D02*
X129395953Y-70861034D01*
D12*
%TO.C,U10*%
X128817500Y-86405568D02*
X128817500Y-85270000D01*
X130687500Y-85270000D02*
X130687500Y-86690000D01*
X128812500Y-86700000D02*
X128622500Y-86840000D01*
X128622500Y-86560000D01*
X128812500Y-86700000D01*
G36*
X128812500Y-86700000D02*
G01*
X128622500Y-86840000D01*
X128622500Y-86560000D01*
X128812500Y-86700000D01*
G37*
%TO.C,Q2*%
X102340000Y-60997500D02*
X102340000Y-59527500D01*
X102990000Y-60997500D02*
X102340000Y-60997500D01*
X103360000Y-59527500D02*
X103640000Y-59527500D01*
X104660000Y-59613248D02*
X104660000Y-60997500D01*
X104660000Y-60997500D02*
X104010000Y-60997500D01*
X104860000Y-59462500D02*
X104670000Y-59322500D01*
X104860000Y-59182500D01*
X104860000Y-59462500D01*
G36*
X104860000Y-59462500D02*
G01*
X104670000Y-59322500D01*
X104860000Y-59182500D01*
X104860000Y-59462500D01*
G37*
%TO.C,Q1*%
X104915000Y-60997500D02*
X104915000Y-59527500D01*
X105565000Y-60997500D02*
X104915000Y-60997500D01*
X105935000Y-59527500D02*
X106215000Y-59527500D01*
X107235000Y-59613248D02*
X107235000Y-60997500D01*
X107235000Y-60997500D02*
X106585000Y-60997500D01*
X107435000Y-59462500D02*
X107245000Y-59322500D01*
X107435000Y-59182500D01*
X107435000Y-59462500D01*
G36*
X107435000Y-59462500D02*
G01*
X107245000Y-59322500D01*
X107435000Y-59182500D01*
X107435000Y-59462500D01*
G37*
%TO.C,Q3*%
X99765000Y-60997500D02*
X99765000Y-59527500D01*
X100415000Y-60997500D02*
X99765000Y-60997500D01*
X100785000Y-59527500D02*
X101065000Y-59527500D01*
X102085000Y-59613248D02*
X102085000Y-60997500D01*
X102085000Y-60997500D02*
X101435000Y-60997500D01*
X102285000Y-59462500D02*
X102095000Y-59322500D01*
X102285000Y-59182500D01*
X102285000Y-59462500D01*
G36*
X102285000Y-59462500D02*
G01*
X102095000Y-59322500D01*
X102285000Y-59182500D01*
X102285000Y-59462500D01*
G37*
%TO.C,C56*%
X118372836Y-49470000D02*
X118157164Y-49470000D01*
X118372836Y-50190000D02*
X118157164Y-50190000D01*
%TO.C,R53*%
X127437258Y-77522500D02*
X126962742Y-77522500D01*
X127437258Y-76477500D02*
X126962742Y-76477500D01*
%TO.C,C114*%
X124435000Y-49180000D02*
X126785000Y-49180000D01*
X124435000Y-54935563D02*
X124435000Y-49180000D01*
X125499437Y-56000000D02*
X124435000Y-54935563D01*
X125499437Y-56000000D02*
X126785000Y-56000000D01*
X125603750Y-56633750D02*
X126391250Y-56633750D01*
X125997500Y-57027500D02*
X125997500Y-56240000D01*
X130190563Y-56000000D02*
X128905000Y-56000000D01*
X130190563Y-56000000D02*
X131255000Y-54935563D01*
X131255000Y-49180000D02*
X128905000Y-49180000D01*
X131255000Y-54935563D02*
X131255000Y-49180000D01*
%TO.C,Q5*%
X95265000Y-60997500D02*
X95265000Y-59527500D01*
X95915000Y-60997500D02*
X95265000Y-60997500D01*
X96285000Y-59527500D02*
X96565000Y-59527500D01*
X97585000Y-59613248D02*
X97585000Y-60997500D01*
X97585000Y-60997500D02*
X96935000Y-60997500D01*
X97785000Y-59462500D02*
X97595000Y-59322500D01*
X97785000Y-59182500D01*
X97785000Y-59462500D01*
G36*
X97785000Y-59462500D02*
G01*
X97595000Y-59322500D01*
X97785000Y-59182500D01*
X97785000Y-59462500D01*
G37*
%TO.C,U2*%
X108715000Y-61460000D02*
X108715000Y-52240000D01*
X109715000Y-51240000D02*
X118935000Y-51240000D01*
X118935000Y-51240000D02*
X118935000Y-61460000D01*
X118935000Y-61460000D02*
X108715000Y-61460000D01*
X108715000Y-51240000D02*
X108215000Y-51240000D01*
X108715000Y-50740000D01*
X108715000Y-51240000D01*
G36*
X108715000Y-51240000D02*
G01*
X108215000Y-51240000D01*
X108715000Y-50740000D01*
X108715000Y-51240000D01*
G37*
%TO.C,C88*%
X83945000Y-43590000D02*
X86295000Y-43590000D01*
X83945000Y-49345563D02*
X83945000Y-43590000D01*
X85009437Y-50410000D02*
X83945000Y-49345563D01*
X85009437Y-50410000D02*
X86295000Y-50410000D01*
X85113750Y-51043750D02*
X85901250Y-51043750D01*
X85507500Y-51437500D02*
X85507500Y-50650000D01*
X89700563Y-50410000D02*
X88415000Y-50410000D01*
X89700563Y-50410000D02*
X90765000Y-49345563D01*
X90765000Y-43590000D02*
X88415000Y-43590000D01*
X90765000Y-49345563D02*
X90765000Y-43590000D01*
%TO.C,C27*%
X121702836Y-51640000D02*
X121487164Y-51640000D01*
X121702836Y-52360000D02*
X121487164Y-52360000D01*
%TO.C,R42*%
X95470000Y-57553641D02*
X95470000Y-57246359D01*
X96230000Y-57553641D02*
X96230000Y-57246359D01*
%TO.C,TP6*%
X122375000Y-43925000D02*
G75*
G02*
X120975000Y-43925000I-700000J0D01*
G01*
X120975000Y-43925000D02*
G75*
G02*
X122375000Y-43925000I700000J0D01*
G01*
%TO.C,C2*%
X114645000Y-49547836D02*
X114645000Y-49332164D01*
X115365000Y-49547836D02*
X115365000Y-49332164D01*
%TO.C,R35*%
X99795000Y-57543641D02*
X99795000Y-57236359D01*
X100555000Y-57543641D02*
X100555000Y-57236359D01*
%TO.C,R43*%
X93295000Y-57553641D02*
X93295000Y-57246359D01*
X94055000Y-57553641D02*
X94055000Y-57246359D01*
%TO.C,U8*%
X91840000Y-47110000D02*
X91840000Y-45690000D01*
X93710000Y-45974432D02*
X93710000Y-47110000D01*
X93905000Y-45820000D02*
X93715000Y-45680000D01*
X93905000Y-45540000D01*
X93905000Y-45820000D01*
G36*
X93905000Y-45820000D02*
G01*
X93715000Y-45680000D01*
X93905000Y-45540000D01*
X93905000Y-45820000D01*
G37*
%TO.C,R46*%
X94370000Y-57553641D02*
X94370000Y-57246359D01*
X95130000Y-57553641D02*
X95130000Y-57246359D01*
%TO.C,C1*%
X115615000Y-49547836D02*
X115615000Y-49332164D01*
X116335000Y-49547836D02*
X116335000Y-49332164D01*
%TO.C,U7*%
X128875000Y-64565568D02*
X128875000Y-63430000D01*
X130745000Y-63430000D02*
X130745000Y-64850000D01*
X128870000Y-64860000D02*
X128680000Y-65000000D01*
X128680000Y-64720000D01*
X128870000Y-64860000D01*
G36*
X128870000Y-64860000D02*
G01*
X128680000Y-65000000D01*
X128680000Y-64720000D01*
X128870000Y-64860000D01*
G37*
D13*
%TO.C,USB1*%
X109155000Y-40212500D02*
X109155000Y-41542500D01*
X109155000Y-44272500D02*
X109155000Y-46242500D01*
X118095000Y-40212500D02*
X109155000Y-40212500D01*
X118095000Y-41542500D02*
X118095000Y-40212500D01*
X118095000Y-46242500D02*
X118095000Y-44272500D01*
D12*
%TO.C,Q6*%
X92690000Y-60997500D02*
X92690000Y-59527500D01*
X93340000Y-60997500D02*
X92690000Y-60997500D01*
X93710000Y-59527500D02*
X93990000Y-59527500D01*
X95010000Y-59613248D02*
X95010000Y-60997500D01*
X95010000Y-60997500D02*
X94360000Y-60997500D01*
X95210000Y-59462500D02*
X95020000Y-59322500D01*
X95210000Y-59182500D01*
X95210000Y-59462500D01*
G36*
X95210000Y-59462500D02*
G01*
X95020000Y-59322500D01*
X95210000Y-59182500D01*
X95210000Y-59462500D01*
G37*
%TO.C,C31*%
X92647164Y-44190000D02*
X92862836Y-44190000D01*
X92647164Y-44910000D02*
X92862836Y-44910000D01*
%TO.C,U5*%
X86890000Y-79940000D02*
X100110000Y-79940000D01*
X86890000Y-89160000D02*
X86890000Y-79940000D01*
X101110000Y-80940000D02*
X101110000Y-89160000D01*
X101110000Y-89160000D02*
X86890000Y-89160000D01*
X101610000Y-79940000D02*
X101110000Y-79940000D01*
X101110000Y-79440000D01*
X101610000Y-79940000D01*
G36*
X101610000Y-79940000D02*
G01*
X101110000Y-79940000D01*
X101110000Y-79440000D01*
X101610000Y-79940000D01*
G37*
D14*
%TO.C,L6*%
X92764003Y-51326400D02*
X93192097Y-51326400D01*
X93192097Y-47973600D02*
X92764003Y-47973600D01*
D12*
%TO.C,R34*%
X104220000Y-57553641D02*
X104220000Y-57246359D01*
X104980000Y-57553641D02*
X104980000Y-57246359D01*
%TO.C,TP2*%
X96475000Y-50425000D02*
G75*
G02*
X95075000Y-50425000I-700000J0D01*
G01*
X95075000Y-50425000D02*
G75*
G02*
X96475000Y-50425000I700000J0D01*
G01*
D14*
%TO.C,L8*%
X129388453Y-84409450D02*
X129816547Y-84409450D01*
X129816547Y-81056650D02*
X129388453Y-81056650D01*
D12*
%TO.C,U6*%
X86890000Y-67990000D02*
X100110000Y-67990000D01*
X86890000Y-77210000D02*
X86890000Y-67990000D01*
X101110000Y-68990000D02*
X101110000Y-77210000D01*
X101110000Y-77210000D02*
X86890000Y-77210000D01*
X101610000Y-67990000D02*
X101110000Y-67990000D01*
X101110000Y-67490000D01*
X101610000Y-67990000D01*
G36*
X101610000Y-67990000D02*
G01*
X101110000Y-67990000D01*
X101110000Y-67490000D01*
X101610000Y-67990000D01*
G37*
%TO.C,C63*%
X129812836Y-77327434D02*
X129597164Y-77327434D01*
X129812836Y-78047434D02*
X129597164Y-78047434D01*
%TO.C,R32*%
X105345000Y-57553641D02*
X105345000Y-57246359D01*
X106105000Y-57553641D02*
X106105000Y-57246359D01*
%TO.C,R33*%
X101995000Y-57553641D02*
X101995000Y-57246359D01*
X102755000Y-57553641D02*
X102755000Y-57246359D01*
%TO.C,R12*%
X95137742Y-44677500D02*
X95612258Y-44677500D01*
X95137742Y-45722500D02*
X95612258Y-45722500D01*
D15*
%TO.C,H1*%
X99040000Y-43182832D02*
X99040000Y-48262832D01*
X99040000Y-43182832D02*
X103900000Y-43182832D01*
X99040000Y-48262832D02*
X106660000Y-48262832D01*
X104120000Y-45722832D02*
X104120000Y-43182832D01*
X106660000Y-43182832D02*
X99040000Y-43182832D01*
X106660000Y-45722832D02*
X104120000Y-45722832D01*
X106660000Y-48262832D02*
X106660000Y-43182832D01*
D12*
%TO.C,R16*%
X127422258Y-86697500D02*
X126947742Y-86697500D01*
X127422258Y-87742500D02*
X126947742Y-87742500D01*
%TO.C,U3*%
X128800000Y-76250502D02*
X128800000Y-75114934D01*
X130670000Y-75114934D02*
X130670000Y-76534934D01*
X128795000Y-76544934D02*
X128605000Y-76684934D01*
X128605000Y-76404934D01*
X128795000Y-76544934D01*
G36*
X128795000Y-76544934D02*
G01*
X128605000Y-76684934D01*
X128605000Y-76404934D01*
X128795000Y-76544934D01*
G37*
%TO.C,R38*%
X119962742Y-47027500D02*
X120437258Y-47027500D01*
X119962742Y-48072500D02*
X120437258Y-48072500D01*
%TO.C,R31*%
X103095000Y-57553641D02*
X103095000Y-57246359D01*
X103855000Y-57553641D02*
X103855000Y-57246359D01*
%TO.C,C87*%
X98315000Y-49215000D02*
X98315000Y-51565000D01*
X98315000Y-56035000D02*
X98315000Y-53685000D01*
X104070563Y-49215000D02*
X98315000Y-49215000D01*
X104070563Y-56035000D02*
X98315000Y-56035000D01*
X105135000Y-50279437D02*
X104070563Y-49215000D01*
X105135000Y-50279437D02*
X105135000Y-51565000D01*
X105135000Y-54970563D02*
X104070563Y-56035000D01*
X105135000Y-54970563D02*
X105135000Y-53685000D01*
X105768750Y-54866250D02*
X105768750Y-54078750D01*
X106162500Y-54472500D02*
X105375000Y-54472500D01*
%TO.C,C35*%
X129910336Y-87470000D02*
X129694664Y-87470000D01*
X129910336Y-88190000D02*
X129694664Y-88190000D01*
%TO.C,TP4*%
X127502500Y-82030000D02*
G75*
G02*
X126102500Y-82030000I-700000J0D01*
G01*
X126102500Y-82030000D02*
G75*
G02*
X127502500Y-82030000I700000J0D01*
G01*
%TO.C,R11*%
X95137742Y-46177500D02*
X95612258Y-46177500D01*
X95137742Y-47222500D02*
X95612258Y-47222500D01*
%TO.C,C61*%
X119762836Y-45915000D02*
X119547164Y-45915000D01*
X119762836Y-46635000D02*
X119547164Y-46635000D01*
%TO.C,U9*%
X84465000Y-55122168D02*
X84465000Y-53702168D01*
X86335000Y-53986600D02*
X86335000Y-55122168D01*
X86530000Y-53832168D02*
X86340000Y-53692168D01*
X86530000Y-53552168D01*
X86530000Y-53832168D01*
G36*
X86530000Y-53832168D02*
G01*
X86340000Y-53692168D01*
X86530000Y-53552168D01*
X86530000Y-53832168D01*
G37*
D14*
%TO.C,L7*%
X85382903Y-59338568D02*
X85810997Y-59338568D01*
X85810997Y-55985768D02*
X85382903Y-55985768D01*
D12*
%TO.C,R14*%
X87762742Y-52602500D02*
X88237258Y-52602500D01*
X87762742Y-53647500D02*
X88237258Y-53647500D01*
%TO.C,R13*%
X87762742Y-54102500D02*
X88237258Y-54102500D01*
X87762742Y-55147500D02*
X88237258Y-55147500D01*
%TO.C,C33*%
X85312164Y-52202168D02*
X85527836Y-52202168D01*
X85312164Y-52922168D02*
X85527836Y-52922168D01*
%TO.C,TP1*%
X89100000Y-58362168D02*
G75*
G02*
X87700000Y-58362168I-700000J0D01*
G01*
X87700000Y-58362168D02*
G75*
G02*
X89100000Y-58362168I700000J0D01*
G01*
%TO.C,C34*%
X88838748Y-55615000D02*
X89361252Y-55615000D01*
X88838748Y-57085000D02*
X89361252Y-57085000D01*
%TD*%
M02*
