%TF.GenerationSoftware,KiCad,Pcbnew,9.0.7*%
%TF.CreationDate,2026-03-07T14:05:10+04:00*%
%TF.ProjectId,fpga_board,66706761-5f62-46f6-9172-642e6b696361,rev?*%
%TF.SameCoordinates,Original*%
%TF.FileFunction,Copper,L5,Inr*%
%TF.FilePolarity,Positive*%
%FSLAX46Y46*%
G04 Gerber Fmt 4.6, Leading zero omitted, Abs format (unit mm)*
G04 Created by KiCad (PCBNEW 9.0.7) date 2026-03-07 14:05:10*
%MOMM*%
%LPD*%
G01*
G04 APERTURE LIST*
%TA.AperFunction,ComponentPad*%
%ADD10C,0.550000*%
%TD*%
%TA.AperFunction,ComponentPad*%
%ADD11O,1.000000X2.300000*%
%TD*%
%TA.AperFunction,ComponentPad*%
%ADD12O,1.600000X2.300000*%
%TD*%
%TA.AperFunction,ComponentPad*%
%ADD13R,1.800000X1.800000*%
%TD*%
%TA.AperFunction,ComponentPad*%
%ADD14C,1.800000*%
%TD*%
%TA.AperFunction,ViaPad*%
%ADD15C,0.400000*%
%TD*%
%TA.AperFunction,ViaPad*%
%ADD16C,0.500000*%
%TD*%
%TA.AperFunction,Conductor*%
%ADD17C,0.170000*%
%TD*%
%TA.AperFunction,Conductor*%
%ADD18C,0.190000*%
%TD*%
%TA.AperFunction,Conductor*%
%ADD19C,0.500000*%
%TD*%
G04 APERTURE END LIST*
D10*
%TO.N,*%
%TO.C,USB1*%
X117025000Y-46112500D03*
X110225000Y-46112500D03*
D11*
%TO.N,Net-(C61-Pad2)*%
X117945000Y-42912500D03*
X109305000Y-42912500D03*
D12*
X109565000Y-47462500D03*
X117685000Y-47462500D03*
%TD*%
D13*
%TO.N,GND*%
%TO.C,H1*%
X105390000Y-44452832D03*
D14*
%TO.N,3v3*%
X105390000Y-46992832D03*
%TO.N,JTAG.TDI*%
X102850000Y-44452832D03*
%TO.N,JTAG.TCK*%
X102850000Y-46992832D03*
%TO.N,JTAG.TDO*%
X100310000Y-44452832D03*
%TO.N,JTAG.TMS*%
X100310000Y-46992832D03*
%TD*%
D15*
%TO.N,5v_VBUS*%
X87350000Y-51150000D03*
X87350000Y-50475000D03*
X87350000Y-48475000D03*
X87350000Y-49150000D03*
%TO.N,GND*%
X87350000Y-45575000D03*
X87350000Y-44975000D03*
X87350000Y-42925000D03*
X87350000Y-43475000D03*
%TO.N,Net-(U2A-FSLC[2])*%
X101075000Y-53150000D03*
%TO.N,GND*%
X99900000Y-52625000D03*
X97425000Y-48950000D03*
X97425000Y-48425000D03*
X96200000Y-45200000D03*
X125150000Y-84550000D03*
X125150000Y-84025000D03*
X125150000Y-61475000D03*
X125150000Y-62525000D03*
%TO.N,FIFO_DQ15*%
X115425000Y-57150000D03*
X116999999Y-73099999D03*
%TO.N,FIFO_DQ12*%
X117025000Y-59550000D03*
X116199999Y-72299999D03*
%TO.N,Net-(U2B-GPIO[32])*%
X112225000Y-60350000D03*
%TO.N,Net-(U2C-U3RXVDDQ)*%
X110625000Y-52350000D03*
%TO.N,GND*%
X97600000Y-81350000D03*
D16*
X127845000Y-49020000D03*
D15*
X86285000Y-62000000D03*
X110745000Y-47650000D03*
X128964000Y-77687434D03*
X129322500Y-87830000D03*
X98500000Y-56875000D03*
D16*
X126499663Y-77124663D03*
D15*
X109825000Y-60350000D03*
X124835000Y-85330000D03*
X96800000Y-81350000D03*
X120925000Y-46450000D03*
X108200000Y-76299999D03*
D16*
X98075000Y-52625000D03*
D15*
X96800000Y-70200000D03*
X124675000Y-70100000D03*
X109000000Y-73099999D03*
X123825000Y-73450000D03*
D16*
X127845000Y-48280000D03*
D15*
X93600000Y-75000000D03*
X113800000Y-77899998D03*
X116999999Y-82699998D03*
X93600000Y-86950000D03*
X119000000Y-80675000D03*
X122835000Y-56010000D03*
X89600000Y-87750000D03*
X93600000Y-70200000D03*
D16*
X98925000Y-52625000D03*
D15*
X95200000Y-69400000D03*
D16*
X127845000Y-50550000D03*
D15*
X123825000Y-72475000D03*
X96800000Y-75000000D03*
X113825000Y-60350000D03*
X116245000Y-47650000D03*
X109000000Y-80299998D03*
X97600000Y-75000000D03*
X113413859Y-79177341D03*
X120199999Y-70699999D03*
X115425000Y-52350000D03*
X99200000Y-71000000D03*
X102100000Y-64275000D03*
X122541808Y-87316808D03*
X125150000Y-62000000D03*
X118195000Y-77480000D03*
X96950000Y-45500000D03*
X115425000Y-54750000D03*
X116245000Y-48150003D03*
X95675000Y-73350000D03*
X116225000Y-53150000D03*
X111790000Y-73510000D03*
X113800000Y-76299999D03*
X119399999Y-73099999D03*
X120199999Y-82699998D03*
X120725000Y-53300000D03*
X124675000Y-72500000D03*
X96800000Y-82150000D03*
X119175000Y-48870000D03*
X124690000Y-75620000D03*
X89600000Y-75800000D03*
X91200000Y-81350000D03*
X91200000Y-75800000D03*
X124675000Y-70900000D03*
X95200000Y-75800000D03*
X124835000Y-89280000D03*
X112225000Y-59550000D03*
X119025000Y-74275000D03*
X117825000Y-57150000D03*
X111425000Y-60350000D03*
X97600000Y-86950000D03*
X89600000Y-69400000D03*
X97600000Y-69400000D03*
X124835000Y-86320000D03*
X99050000Y-61850000D03*
X109825000Y-57150000D03*
X95200000Y-87750000D03*
X126360000Y-87220000D03*
X89600000Y-81350000D03*
X99890000Y-51075000D03*
X124675000Y-71700000D03*
X115399999Y-75499999D03*
X114225000Y-56725000D03*
X94125000Y-56025000D03*
X91200000Y-87750000D03*
X111425000Y-59550000D03*
D16*
X87355000Y-44200000D03*
D15*
X96000000Y-75800000D03*
X128964000Y-65990000D03*
X113800000Y-75499999D03*
X110745000Y-48150003D03*
X88000000Y-75800000D03*
X95200000Y-86950000D03*
X99200000Y-87750000D03*
X122250000Y-78375000D03*
X114600000Y-77899998D03*
X114625000Y-53150000D03*
X108200000Y-70699999D03*
X93775000Y-44550000D03*
X110625000Y-60350000D03*
X110995000Y-46692500D03*
X112200000Y-77899998D03*
X117825000Y-60350000D03*
X113800000Y-74699999D03*
X100000000Y-87750000D03*
X119399999Y-80299998D03*
X95200000Y-75000000D03*
X84125000Y-61600000D03*
X110995000Y-47225000D03*
D16*
X125341041Y-74996041D03*
D15*
X94398808Y-83505000D03*
X88000000Y-81350000D03*
D16*
X127845000Y-49790000D03*
D15*
X114600000Y-76299999D03*
X120199999Y-76299999D03*
X96800000Y-69400000D03*
X119350000Y-53951000D03*
X111400000Y-82699998D03*
X115399999Y-76299999D03*
X120985000Y-59285000D03*
X110625000Y-55550000D03*
X114600000Y-77099999D03*
X99200000Y-81350000D03*
X96800000Y-86950000D03*
X99200000Y-75800000D03*
X122475000Y-54700000D03*
X96000000Y-87750000D03*
X124845000Y-87325000D03*
D16*
X126205000Y-65225000D03*
D15*
X116505000Y-46692500D03*
X114600000Y-74699999D03*
X113800000Y-77099999D03*
X125150000Y-83500000D03*
X115425000Y-53150000D03*
X88000000Y-87750000D03*
X115399999Y-77899998D03*
X124675000Y-69300000D03*
D16*
X98285000Y-46960000D03*
D15*
X124690000Y-77255000D03*
X99200000Y-82950000D03*
X126075000Y-44600000D03*
X126075000Y-47600000D03*
X97425000Y-47900000D03*
X88000000Y-69400000D03*
X108200000Y-82699998D03*
X113000000Y-77899998D03*
X91200000Y-69400000D03*
X124690000Y-76445000D03*
X107955529Y-53885000D03*
X120275000Y-52025000D03*
X99200000Y-69400000D03*
X115399999Y-77099999D03*
X93600000Y-82150000D03*
X120375000Y-56351000D03*
X100000000Y-75800000D03*
X116505000Y-47225000D03*
X124840000Y-88295000D03*
X121115000Y-52000000D03*
X95200000Y-81350000D03*
X105585000Y-56000000D03*
X109825000Y-52350000D03*
%TO.N,FIFO_DQ10*%
X116999999Y-72299999D03*
X117825000Y-59550000D03*
%TO.N,unconnected-(U2B-GPIO[45]-PadF2)*%
X110625000Y-56350000D03*
%TO.N,FIFO_DQ25*%
X110625000Y-57150000D03*
X111400000Y-73099999D03*
%TO.N,FIFO_DQ29*%
X109825000Y-55550000D03*
X110600000Y-73099999D03*
%TO.N,FIFO_DQ16*%
X112200000Y-72299999D03*
X110625000Y-59550000D03*
%TO.N,Net-(U2A-SSTXP)*%
X113025000Y-52350000D03*
%TO.N,FIFO_DQ17*%
X112225000Y-58750000D03*
X113000000Y-70699999D03*
%TO.N,FIFO_DQ1*%
X118599999Y-71499999D03*
X116225000Y-56350000D03*
%TO.N,FIFO_DQ13*%
X115399999Y-71499999D03*
X116225000Y-59550000D03*
%TO.N,Net-(U2A-SSTXM)*%
X113825000Y-52350000D03*
%TO.N,Net-(U2B-R_USB2)*%
X115425000Y-53950000D03*
X112625000Y-51925000D03*
%TO.N,Net-(U2B-GPIO[31])*%
X112225000Y-57950000D03*
%TO.N,Net-(U2B-GPIO[30])*%
X112225000Y-57150000D03*
%TO.N,FIFO_DQ30*%
X109800000Y-71499999D03*
X113025000Y-55550000D03*
%TO.N,SS_RX_N*%
X112225000Y-52350000D03*
%TO.N,FIFO_DQ24*%
X112225000Y-56350000D03*
X113000000Y-73099999D03*
%TO.N,FIFO_DQ3*%
X117025000Y-57150000D03*
X118599999Y-70699999D03*
%TO.N,FIFO_DQ26*%
X112200000Y-71499999D03*
X111425000Y-57150000D03*
%TO.N,5v_VBUS*%
X112255000Y-47570000D03*
D16*
X127845000Y-56830000D03*
D15*
X130265000Y-66660000D03*
X130095000Y-88390000D03*
X130265000Y-67180000D03*
D16*
X130185000Y-77687434D03*
D15*
X126075000Y-56850000D03*
D16*
X127845000Y-55390000D03*
D15*
X91525000Y-43900000D03*
D16*
X102050000Y-52600000D03*
X102725000Y-52600000D03*
D15*
X112255000Y-48092500D03*
X112250000Y-48550000D03*
X114745000Y-48092500D03*
X93000000Y-43900000D03*
X117025000Y-55550000D03*
X92250000Y-43900000D03*
X125325000Y-56850000D03*
D16*
X87355000Y-49800000D03*
D15*
X112505000Y-46692500D03*
D16*
X130165000Y-79150000D03*
X127845000Y-53930000D03*
D15*
X112505000Y-46100000D03*
X130091950Y-88910000D03*
X130095000Y-87890000D03*
D16*
X121675000Y-43925000D03*
X127845000Y-56120000D03*
D15*
X84935000Y-52570000D03*
D16*
X130175000Y-78400000D03*
D15*
X92275000Y-44550000D03*
X117825000Y-55550000D03*
X114995000Y-46075000D03*
D16*
X127845000Y-54670000D03*
D15*
X130255000Y-65990000D03*
X114745000Y-47575000D03*
X114995000Y-46692500D03*
%TO.N,Net-(U2C-AVDD)*%
X114625000Y-52350000D03*
%TO.N,JTAG.TMS*%
X116199999Y-82699998D03*
%TO.N,GPIO_23*%
X113825000Y-59550000D03*
X113800000Y-72299999D03*
%TO.N,FIFO_DQ27*%
X111400000Y-71499999D03*
X111425000Y-56350000D03*
%TO.N,Net-(U2A-FSLC[0])*%
X110625000Y-53150000D03*
X101025000Y-52150000D03*
%TO.N,SS_RX_P*%
X111425000Y-52350000D03*
%TO.N,FIFO_DQ4*%
X116225000Y-57150000D03*
X117799999Y-71499999D03*
%TO.N,FIFO_DQ6*%
X117799999Y-70699999D03*
X117025000Y-57950000D03*
%TO.N,Net-(U2C-U3TXVDDQ)*%
X113025000Y-53150000D03*
%TO.N,FIFO_DQ21*%
X109825000Y-58750000D03*
X110600000Y-71499999D03*
%TO.N,FIFO_DQ22*%
X110625000Y-57950000D03*
X111400000Y-70699999D03*
%TO.N,FIFO_DQ5*%
X115425000Y-56350000D03*
X117799999Y-73099999D03*
%TO.N,JTAG.TDI*%
X116199999Y-81899998D03*
%TO.N,Net-(U2C-CVDDQ)*%
X113825000Y-53150000D03*
X118695000Y-54740000D03*
%TO.N,FIFO_DQ14*%
X115425000Y-58750000D03*
X115399999Y-72299999D03*
%TO.N,Net-(U2B-R_USB3)*%
X111425000Y-53150000D03*
%TO.N,Net-(U1A-PROGRAMN)*%
X102075000Y-53250000D03*
X114600000Y-81899998D03*
%TO.N,FIFO_DQ8*%
X117799999Y-72299999D03*
X117025000Y-58750000D03*
%TO.N,FIFO_DQ2*%
X119399999Y-70699999D03*
X114625000Y-56350000D03*
%TO.N,FIFO_DQ19*%
X110625000Y-58750000D03*
X109800000Y-70699999D03*
%TO.N,FIFO_DQ7*%
X116999999Y-70699999D03*
X116225000Y-57950000D03*
%TO.N,Net-(U2A-FSLC[1])*%
X112225000Y-53150000D03*
X100910000Y-51075000D03*
%TO.N,FIFO_DQ31*%
X110600000Y-72299999D03*
X112225000Y-55550000D03*
%TO.N,FIFO_DQ23*%
X111425000Y-57950000D03*
X112200000Y-70699999D03*
%TO.N,SPI.MISO*%
X110625000Y-53950000D03*
X113000000Y-82699998D03*
%TO.N,JTAG.TDO*%
X115399999Y-79499998D03*
%TO.N,FIFO_DQ9*%
X116225000Y-58750000D03*
X116999999Y-71499999D03*
%TO.N,FIFO_DQ18*%
X109825000Y-59550000D03*
X110600000Y-70699999D03*
%TO.N,FIFO_DQ28*%
X111400000Y-72299999D03*
X113025000Y-56350000D03*
%TO.N,SPI.SCK*%
X112225000Y-54750000D03*
X114600000Y-80299998D03*
%TO.N,Net-(U2A-FSLC[2])*%
X113825000Y-55550000D03*
%TO.N,SPI.SSN*%
X106835000Y-53900000D03*
X109825000Y-53950000D03*
%TO.N,FIFO_DQ11*%
X117025000Y-60350000D03*
X116199999Y-71499999D03*
%TO.N,FIFO_DQ20*%
X113000000Y-72299999D03*
X111425000Y-58750000D03*
%TO.N,FIFO_DQ0*%
X117025000Y-56350000D03*
X117799999Y-73899999D03*
%TO.N,SPI.MOSI*%
X113025000Y-54750000D03*
X113800000Y-82699998D03*
%TO.N,Net-(U9-FB)*%
X87186100Y-53260000D03*
X87200000Y-52150000D03*
X87200000Y-52650000D03*
%TO.N,INIT*%
X114600000Y-82699998D03*
X106875000Y-51916000D03*
X124375000Y-83200000D03*
X111425000Y-54750000D03*
%TO.N,BYTE_LANE_0_2*%
X96000000Y-70200000D03*
X108200000Y-72299999D03*
%TO.N,unconnected-(U1B-PL65D-PadN5)*%
X111400000Y-80299998D03*
%TO.N,JTAG.TCK*%
X115399999Y-82699998D03*
%TO.N,FPGA_CLK*%
X109000000Y-70699999D03*
%TO.N,Net-(U1A-PB13A)*%
X113800000Y-81899998D03*
X106827853Y-52650000D03*
X120625000Y-89850000D03*
%TO.N,D_P*%
X113915000Y-48900000D03*
X116225000Y-52350000D03*
%TO.N,D_N*%
X113055000Y-48910000D03*
X117025000Y-52350000D03*
%TO.N,GPIO25*%
X113025000Y-57150000D03*
%TO.N,GPIO27*%
X113025000Y-59550000D03*
%TO.N,RESET#*%
X113025000Y-53950000D03*
%TO.N,GPIO26*%
X113825000Y-57950000D03*
%TO.N,Net-(U5B-ZQ)*%
X92000000Y-86950000D03*
%TO.N,PROGRAMN*%
X110625000Y-54750000D03*
%TO.N,unconnected-(U5B-NC-PadL9)*%
X92000000Y-87750000D03*
%TO.N,unconnected-(U5B-NC-PadJ1)*%
X93600000Y-81350000D03*
%TO.N,unconnected-(U5B-NC-PadJ9)*%
X93600000Y-87750000D03*
%TO.N,unconnected-(U5B-NC-PadM7)*%
X91200000Y-86150000D03*
%TO.N,unconnected-(U5B-NC-PadL1)*%
X92000000Y-81350000D03*
%TO.N,unconnected-(U6B-NC-PadL1)*%
X92000000Y-69400000D03*
%TO.N,1v35*%
X112200000Y-77099999D03*
X86525000Y-60750000D03*
X88325000Y-60750000D03*
X92800000Y-82150000D03*
X96800000Y-87750000D03*
X90400000Y-69400000D03*
X94400000Y-75800000D03*
X113000000Y-76299999D03*
X87100000Y-60750000D03*
X100000000Y-69400000D03*
X100000000Y-75000000D03*
X116199999Y-77899998D03*
X88800000Y-75800000D03*
X116199999Y-77099999D03*
X99200000Y-70200000D03*
X94400000Y-87750000D03*
X88950000Y-60750000D03*
X90400000Y-87750000D03*
X86525000Y-60000000D03*
X97600000Y-70200000D03*
X95200000Y-86150000D03*
X98400000Y-69400000D03*
X97600000Y-75800000D03*
X92800000Y-70200000D03*
X88325000Y-60000000D03*
X87675000Y-60750000D03*
X112200000Y-76299999D03*
X88800000Y-81350000D03*
X96000000Y-81350000D03*
X100000000Y-86950000D03*
X94400000Y-70200000D03*
X95200000Y-74200000D03*
X87700000Y-60000000D03*
X92800000Y-86950000D03*
X113000000Y-77099999D03*
X100000000Y-81350000D03*
X99200000Y-82150000D03*
X116199999Y-78699998D03*
X97600000Y-82150000D03*
X88800000Y-87750000D03*
X90400000Y-81350000D03*
X92800000Y-75000000D03*
X98400000Y-75800000D03*
X97600000Y-87750000D03*
X116199999Y-76299999D03*
X96000000Y-69400000D03*
X98400000Y-81350000D03*
X88800000Y-69400000D03*
X88950000Y-60000000D03*
X94400000Y-82150000D03*
X98400000Y-87750000D03*
X96800000Y-75800000D03*
X90400000Y-75800000D03*
X87100000Y-60000000D03*
%TO.N,DQS0_N*%
X95200000Y-71000000D03*
X109000000Y-73899999D03*
%TO.N,BYTE_LANE_0_3*%
X109800000Y-74699999D03*
X96000000Y-75000000D03*
%TO.N,DQS0_P*%
X96000000Y-71000000D03*
X108200000Y-73099999D03*
%TO.N,BYTE_LANE_0_5*%
X110600000Y-75499999D03*
X94400000Y-75000000D03*
%TO.N,BYTE_LANE_0_4*%
X108200000Y-71499999D03*
X94400000Y-71000000D03*
%TO.N,BYTE_LANE_0_7*%
X94400000Y-74200000D03*
X109800000Y-73099999D03*
%TO.N,BYTE_LANE_0_1*%
X109800000Y-73899999D03*
X96000000Y-74200000D03*
%TO.N,BYTE_LANE_0_6*%
X109000000Y-71499999D03*
X95200000Y-70200000D03*
%TO.N,unconnected-(U6B-NC-PadJ1)*%
X93600000Y-69400000D03*
%TO.N,BYTE_LANE_0_0*%
X109000000Y-72299999D03*
X96800000Y-71000000D03*
%TO.N,BYTE_LANE_1_4*%
X109800000Y-77899998D03*
X100000000Y-74200000D03*
%TO.N,BYTE_LANE_1_6*%
X99200000Y-75000000D03*
X108200000Y-77099999D03*
%TO.N,BYTE_LANE_1_5*%
X110600000Y-76299999D03*
X100000000Y-70200000D03*
%TO.N,BYTE_LANE_1_3*%
X98400000Y-70200000D03*
X111400000Y-77099999D03*
%TO.N,DM0*%
X96800000Y-74200000D03*
X109800000Y-72299999D03*
%TO.N,BYTE_LANE_1_7*%
X100000000Y-71000000D03*
X110600000Y-77099999D03*
%TO.N,DQS1_N*%
X109000000Y-76299999D03*
X99200000Y-74200000D03*
%TO.N,DRAM_VREF*%
X94400000Y-81350000D03*
X91200000Y-86950000D03*
X85550000Y-63200000D03*
X94400000Y-69400000D03*
X84125000Y-64650000D03*
X91200000Y-75000000D03*
%TO.N,Net-(U6B-ZQ)*%
X92000000Y-75000000D03*
%TO.N,BYTE_LANE_1_2*%
X109000000Y-77899998D03*
X98400000Y-75000000D03*
%TO.N,DQS1_P*%
X108200000Y-75499999D03*
X98400000Y-74200000D03*
%TO.N,BYTE_LANE_1_1*%
X98400000Y-71000000D03*
X109800000Y-77099999D03*
%TO.N,BYTE_LANE_1_0*%
X108200000Y-77899998D03*
X97600000Y-74200000D03*
%TO.N,DM1*%
X108200000Y-74699999D03*
X97600000Y-71000000D03*
%TO.N,DQS2_P*%
X108200000Y-80299998D03*
X96000000Y-82950000D03*
%TO.N,BYTE_LANE_2_2*%
X109000000Y-78699998D03*
X96000000Y-82150000D03*
%TO.N,unconnected-(U6B-NC-PadJ9)*%
X93600000Y-75800000D03*
%TO.N,BYTE_LANE_2_3*%
X96000000Y-86950000D03*
X109800000Y-79499998D03*
%TO.N,BYTE_LANE_3_3*%
X98400000Y-82150000D03*
X110600000Y-81099998D03*
%TO.N,BYTE_LANE_3_4*%
X100000000Y-86150000D03*
X112200000Y-79499998D03*
%TO.N,BYTE_LANE_2_7*%
X108200000Y-81099998D03*
X94400000Y-86150000D03*
%TO.N,BYTE_LANE_2_5*%
X94400000Y-86950000D03*
X109800000Y-80299998D03*
%TO.N,BYTE_LANE_3_1*%
X98400000Y-82950000D03*
X109000000Y-81899998D03*
%TO.N,BYTE_LANE_2_0*%
X96800000Y-82950000D03*
X108200000Y-79499998D03*
%TO.N,DQS2_N*%
X95200000Y-82950000D03*
X109000000Y-81099998D03*
%TO.N,BYTE_LANE_3_0*%
X97600000Y-86150000D03*
X112200000Y-81099998D03*
%TO.N,DQS3_P*%
X111400000Y-81899998D03*
X98400000Y-86150000D03*
%TO.N,BYTE_LANE_3_2*%
X109000000Y-82699998D03*
X98400000Y-86950000D03*
%TO.N,DQS3_N*%
X99200000Y-86150000D03*
X110600000Y-82699998D03*
%TO.N,BYTE_LANE_2_1*%
X96000000Y-86150000D03*
X108200000Y-81899998D03*
%TO.N,BYTE_LANE_2_4*%
X110600000Y-77899998D03*
X94400000Y-82950000D03*
%TO.N,BYTE_LANE_2_6*%
X95200000Y-82150000D03*
X108200000Y-78699998D03*
%TO.N,BYTE_LANE_3_6*%
X112200000Y-80299998D03*
X99200000Y-86950000D03*
%TO.N,unconnected-(U6B-NC-PadL9)*%
X92000000Y-75800000D03*
%TO.N,unconnected-(U6B-NC-PadM7)*%
X91200000Y-74200000D03*
%TO.N,BYTE_LANE_3_5*%
X109800000Y-81099998D03*
X100000000Y-82150000D03*
%TO.N,BYTE_LANE_3_7*%
X111400000Y-81099998D03*
X100000000Y-82950000D03*
%TO.N,DM3*%
X97600000Y-82950000D03*
X110600000Y-80299998D03*
%TO.N,DM2*%
X109000000Y-79499998D03*
X96800000Y-86150000D03*
%TO.N,unconnected-(U1A-PL32B-PadJ2)*%
X109000000Y-77099999D03*
%TO.N,FIFO.A1*%
X113025000Y-58750000D03*
X113800000Y-73099999D03*
%TO.N,FIFO.SLOE#*%
X114600000Y-71499999D03*
X114625000Y-58750000D03*
%TO.N,FIFO.SLRD#*%
X114625000Y-57950000D03*
X114600000Y-72299999D03*
%TO.N,FIFO.SLCS#*%
X115399999Y-70699999D03*
X115425000Y-59550000D03*
%TO.N,FIFO.CLK*%
X113825000Y-58750000D03*
X113800000Y-70699999D03*
%TO.N,FIFO.SLWR#*%
X114625000Y-59550000D03*
X114600000Y-70699999D03*
%TO.N,FIFO.FLAG_A*%
X116199999Y-70699999D03*
X114625000Y-57150000D03*
%TO.N,FIFO.PKTEND#*%
X114600000Y-73099999D03*
X115425000Y-57950000D03*
%TO.N,FIFO.FLAG_B*%
X113000000Y-71499999D03*
X113825000Y-57150000D03*
%TO.N,FIFO.A0*%
X113800000Y-71499999D03*
X113025000Y-57950000D03*
D16*
%TO.N,1v2*%
X119795000Y-48720000D03*
D15*
X125605000Y-58500000D03*
X117025000Y-53150000D03*
X114625000Y-60350000D03*
X124990000Y-59560000D03*
X125605000Y-59175000D03*
X125605000Y-60480000D03*
X117825000Y-58750000D03*
X104855000Y-50180000D03*
X117825000Y-56350000D03*
X125605000Y-59800000D03*
X123865000Y-43225000D03*
X124990000Y-60180000D03*
X111425000Y-53950000D03*
X124980000Y-58890000D03*
X113025000Y-60350000D03*
X104075000Y-50175000D03*
X105875000Y-50180000D03*
X116225000Y-55550000D03*
X109825000Y-57950000D03*
%TO.N,unconnected-(U1A-PB6A-PadR7)*%
X113000000Y-81899998D03*
%TO.N,Net-(U1A-CFG_2)*%
X120975000Y-83300000D03*
X115399999Y-81899998D03*
D16*
%TO.N,2v5*%
X126205000Y-72110000D03*
X126195000Y-71240000D03*
X126205000Y-72930000D03*
D15*
%TO.N,1v1*%
X112200000Y-75499999D03*
X114600000Y-78699998D03*
X114600000Y-75499999D03*
X113000000Y-75499999D03*
X115399999Y-78699998D03*
X113800000Y-78699998D03*
%TO.N,unconnected-(U1C-PT20B-PadD6)*%
X112200000Y-73099999D03*
%TO.N,unconnected-(U1A-PB4A-PadT6)*%
X112200000Y-82699998D03*
%TO.N,unconnected-(U1A-PL20D-PadE1)*%
X108200000Y-73899999D03*
%TO.N,Net-(U1A-CFG_0)*%
X119794999Y-83100000D03*
X115399999Y-80299998D03*
%TO.N,Net-(U1A-CFG_1)*%
X115399999Y-81099998D03*
X119579308Y-83604308D03*
%TO.N,unconnected-(U1A-PB4B-PadR6)*%
X112200000Y-81899998D03*
%TO.N,unconnected-(U1A-PL62D-PadT3)*%
X109800000Y-82699998D03*
%TO.N,unconnected-(U1A-PL62B-PadR3)*%
X109800000Y-81899998D03*
%TO.N,unconnected-(U1A-PL62C-PadR4)*%
X110600000Y-81899998D03*
%TO.N,3v3*%
X96075000Y-48825000D03*
X111425000Y-55550000D03*
X96075000Y-49925000D03*
X112200000Y-74699999D03*
X94825000Y-49425000D03*
X95425000Y-49625000D03*
X117825000Y-53950000D03*
X113000000Y-74699999D03*
X96125000Y-50700000D03*
X115399999Y-74699999D03*
X112200000Y-78699998D03*
X117825000Y-57950000D03*
X121645000Y-89850000D03*
X94825000Y-48350000D03*
X116199999Y-74699999D03*
X116225000Y-60350000D03*
X96075000Y-48350000D03*
X95500000Y-50225000D03*
X95450000Y-48350000D03*
X95425000Y-49050000D03*
X109825000Y-56350000D03*
X95615000Y-51090000D03*
X96050000Y-49325000D03*
X94875000Y-50225000D03*
X95250000Y-50725000D03*
X94775000Y-51060000D03*
X109825000Y-53150000D03*
%TO.N,DONE*%
X109825000Y-54750000D03*
X107875000Y-51825000D03*
X114600000Y-81099998D03*
X122825000Y-88450000D03*
%TO.N,FPGA.R*%
X115399999Y-73099999D03*
X93200000Y-59325000D03*
%TO.N,FPGA.G*%
X90625000Y-59325000D03*
X115399999Y-73899999D03*
%TO.N,FPGA.B*%
X95775000Y-59380000D03*
X116199999Y-73099999D03*
%TO.N,Net-(USB1-CC1)*%
X114225000Y-48092500D03*
%TO.N,ACC.CK_0_P*%
X93600000Y-74200000D03*
X120199999Y-71499999D03*
%TO.N,ACC.CK_0_N*%
X119399999Y-71499999D03*
X92800000Y-74200000D03*
%TO.N,ACC.CK_1_P*%
X93600000Y-86150000D03*
X120199999Y-81099998D03*
%TO.N,ACC.CK_1_N*%
X92800000Y-86150000D03*
X120199999Y-81899998D03*
%TO.N,ACC.#CAS*%
X116999999Y-81099998D03*
X92800000Y-82950000D03*
X92800000Y-71000000D03*
X94885000Y-77800000D03*
%TO.N,ACC.#CS*%
X92000000Y-82150000D03*
X92000000Y-70200000D03*
X118599999Y-72299999D03*
X92100000Y-77950000D03*
%TO.N,ACC.#RAS*%
X93600000Y-71000000D03*
X93600000Y-82950000D03*
X94350000Y-76700000D03*
X116199999Y-80299998D03*
%TO.N,ACC.#RESET*%
X120199999Y-74699999D03*
X88000000Y-70200000D03*
X88000000Y-82150000D03*
X84470692Y-75545692D03*
%TO.N,ACC.#WE*%
X93650000Y-77875000D03*
X92000000Y-82950000D03*
X92000000Y-71000000D03*
X116999999Y-81899998D03*
%TO.N,ACC.A0*%
X90400000Y-82950000D03*
X90500000Y-78350000D03*
X118599999Y-74699999D03*
X90400000Y-71000000D03*
%TO.N,ACC.A1*%
X119399999Y-81899998D03*
X89600000Y-74200000D03*
X89600000Y-86150000D03*
X90025000Y-80400000D03*
%TO.N,ACC.A2*%
X89600000Y-82950000D03*
X88400000Y-76750000D03*
X89600000Y-71000000D03*
X120199999Y-72299999D03*
%TO.N,ACC.A3*%
X90400000Y-70200000D03*
X90400000Y-82150000D03*
X89700000Y-77150000D03*
X120199999Y-73899999D03*
%TO.N,ACC.A4*%
X118599999Y-79499998D03*
X89600000Y-75000000D03*
X89600000Y-86950000D03*
X88200000Y-80550000D03*
%TO.N,ACC.A5*%
X89600000Y-70200000D03*
X119399999Y-72299999D03*
X87675000Y-76800000D03*
X89600000Y-82150000D03*
%TO.N,ACC.A6*%
X88800000Y-86950000D03*
X88800000Y-75000000D03*
X86575000Y-80850000D03*
X120199999Y-80299998D03*
%TO.N,ACC.A7*%
X86700000Y-76150000D03*
X120199999Y-73099999D03*
X88800000Y-70200000D03*
X88800000Y-82150000D03*
%TO.N,ACC.A8*%
X88000000Y-75000000D03*
X120199999Y-78699998D03*
X84975000Y-80600000D03*
X88000000Y-86950000D03*
%TO.N,ACC.A9*%
X88800000Y-82950000D03*
X87085000Y-77700000D03*
X88800000Y-71000000D03*
X120199999Y-79499998D03*
%TO.N,ACC.A10*%
X91604000Y-80350000D03*
X117799999Y-79499998D03*
X92000000Y-74200000D03*
X92000000Y-86150000D03*
%TO.N,ACC.A11*%
X88800000Y-86150000D03*
X88800000Y-74200000D03*
%TO.N,ACC.A12*%
X90244866Y-79480134D03*
X117799999Y-74699999D03*
X90400000Y-86150000D03*
X90400000Y-74200000D03*
%TO.N,ACC.A13*%
X88000000Y-71000000D03*
X88000000Y-82950000D03*
X119399999Y-74699999D03*
X86100000Y-77450000D03*
%TO.N,ACC.A14*%
X88000000Y-74200000D03*
X120199999Y-77899998D03*
X88000000Y-86150000D03*
X84450000Y-79650000D03*
%TO.N,ACC.BA0*%
X90523888Y-77648812D03*
X91200000Y-82150000D03*
X91200000Y-70200000D03*
X119399999Y-73899999D03*
%TO.N,ACC.BA1*%
X90400000Y-86950000D03*
X89600000Y-79950000D03*
X119399999Y-82699998D03*
X90400000Y-75000000D03*
%TO.N,ACC.BA2*%
X92956056Y-78024471D03*
X91200000Y-71000000D03*
X91200000Y-82950000D03*
X117799999Y-82699998D03*
%TO.N,ACC.CKE*%
X92404000Y-79850000D03*
X92800000Y-75800000D03*
X92800000Y-87750000D03*
X118599999Y-82699998D03*
%TO.N,ACC.ODT*%
X93900000Y-76950000D03*
X92800000Y-69400000D03*
X116199999Y-81099998D03*
X92800000Y-81350000D03*
%TO.N,unconnected-(U1B-PR35D-PadM15)*%
X119399999Y-79499998D03*
%TO.N,VCCAUX*%
X113000000Y-78699998D03*
X116199999Y-75499999D03*
%TO.N,GND*%
X86400000Y-52562168D03*
X89800000Y-55662168D03*
X89600000Y-53450000D03*
X88825000Y-53125000D03*
%TD*%
D17*
%TO.N,FIFO_DQ1*%
X118798712Y-55505841D02*
X118900712Y-55505841D01*
X122570415Y-57545415D02*
X123325000Y-58300000D01*
X119204712Y-56164000D02*
X119514712Y-56164000D01*
X119104712Y-55760000D02*
X119104712Y-55964000D01*
X123325000Y-68350000D02*
X121925000Y-69750000D01*
X120989000Y-55964000D02*
X121384979Y-56359979D01*
X119104712Y-55964000D02*
X119104712Y-56064000D01*
X121925000Y-69750000D02*
X119675000Y-69750000D01*
X119614712Y-55760000D02*
X119614712Y-55710701D01*
X119614712Y-55964000D02*
X119614712Y-55760000D01*
X120124712Y-55710701D02*
X120124712Y-55760000D01*
X123325000Y-58300000D02*
X123325000Y-68350000D01*
X119675000Y-69750000D02*
X118985999Y-70439001D01*
X121694694Y-57156167D02*
X121812082Y-57273555D01*
X119614712Y-56064000D02*
X119614712Y-55964000D01*
X118985999Y-70439001D02*
X118985999Y-71113999D01*
X118985999Y-71113999D02*
X118599999Y-71499999D01*
X116611000Y-55964000D02*
X118390712Y-55964000D01*
X116225000Y-56350000D02*
X116611000Y-55964000D01*
X122393312Y-57368312D02*
X122570415Y-57545415D01*
X120430712Y-55964000D02*
X120989000Y-55964000D01*
X119818712Y-55506701D02*
X119920712Y-55506701D01*
X121887025Y-56720604D02*
X121816313Y-56791313D01*
X118594712Y-55760000D02*
X118594712Y-55709841D01*
X119104712Y-55709841D02*
X119104712Y-55760000D01*
X120328712Y-55964000D02*
X120430712Y-55964000D01*
X122298554Y-57273555D02*
X122393312Y-57368312D01*
X121816313Y-56791313D02*
X121694694Y-56912931D01*
X121667821Y-56359979D02*
X121887024Y-56579182D01*
X121526401Y-56359980D02*
G75*
G02*
X121667810Y-56359990I70699J-70720D01*
G01*
X122055318Y-57273555D02*
G75*
G02*
X122298554Y-57273555I121618J-121617D01*
G01*
X119614712Y-55710701D02*
G75*
G02*
X119818712Y-55506712I203988J1D01*
G01*
X118390712Y-55964000D02*
G75*
G03*
X118594700Y-55760000I-12J204000D01*
G01*
X121812082Y-57273555D02*
G75*
G03*
X122055318Y-57273555I121618J121617D01*
G01*
X121384979Y-56359979D02*
G75*
G03*
X121526411Y-56359990I70721J70679D01*
G01*
X118900712Y-55505841D02*
G75*
G02*
X119104659Y-55709841I-12J-203959D01*
G01*
X119514712Y-56164000D02*
G75*
G03*
X119614700Y-56064000I-12J100000D01*
G01*
X119104712Y-56064000D02*
G75*
G03*
X119204712Y-56163988I99988J0D01*
G01*
X118594712Y-55709841D02*
G75*
G02*
X118798712Y-55505812I203988J41D01*
G01*
X120124712Y-55760000D02*
G75*
G03*
X120328712Y-55963988I203988J0D01*
G01*
X121694694Y-56912931D02*
G75*
G03*
X121694743Y-57156118I121606J-121569D01*
G01*
X119920712Y-55506701D02*
G75*
G02*
X120124699Y-55710701I-12J-203999D01*
G01*
X121887024Y-56579182D02*
G75*
G02*
X121887032Y-56720610I-70724J-70718D01*
G01*
D18*
%TO.N,Net-(U2B-R_USB2)*%
X113193029Y-52750000D02*
X113189029Y-52754000D01*
X115425000Y-53950000D02*
X115021000Y-53546000D01*
X114785029Y-52750000D02*
X113193029Y-52750000D01*
X115021000Y-53546000D02*
X115021000Y-52985971D01*
X113189029Y-52754000D02*
X112860971Y-52754000D01*
X112860971Y-52754000D02*
X112625000Y-52518029D01*
X112625000Y-52518029D02*
X112625000Y-51925000D01*
X115021000Y-52985971D02*
X114785029Y-52750000D01*
D17*
%TO.N,FIFO_DQ30*%
X109549999Y-71499999D02*
X109800000Y-71499999D01*
X108614000Y-70859886D02*
X108840113Y-71085999D01*
X113025000Y-55550000D02*
X112611000Y-55136000D01*
X111811000Y-54590113D02*
X111584887Y-54364000D01*
X107936000Y-54364000D02*
X104050000Y-58250000D01*
X104050000Y-65976112D02*
X108614000Y-70540112D01*
X112037113Y-55136000D02*
X111811000Y-54909887D01*
X108614000Y-70540112D02*
X108614000Y-70859886D01*
X109135999Y-71085999D02*
X109549999Y-71499999D01*
X104050000Y-58250000D02*
X104050000Y-65976112D01*
X111584887Y-54364000D02*
X107936000Y-54364000D01*
X108840113Y-71085999D02*
X109135999Y-71085999D01*
X112611000Y-55136000D02*
X112037113Y-55136000D01*
X111811000Y-54909887D02*
X111811000Y-54590113D01*
%TO.N,FIFO_DQ3*%
X122725000Y-61092348D02*
X122838904Y-61092348D01*
X122952410Y-66006053D02*
X122952410Y-66378643D01*
X120625000Y-56764000D02*
X120739000Y-56764000D01*
X121675000Y-69200000D02*
X119425000Y-69200000D01*
X118599999Y-70025001D02*
X118599999Y-70699999D01*
X122497540Y-59404808D02*
X122497540Y-59778618D01*
X122725000Y-68150000D02*
X121675000Y-69200000D01*
X122725000Y-58750000D02*
X122725000Y-59177348D01*
X119425000Y-69200000D02*
X118599999Y-70025001D01*
X122497193Y-63006251D02*
X122497193Y-63378445D01*
X119455234Y-56764000D02*
X119455234Y-56914000D01*
X122611096Y-63492348D02*
X122725000Y-63492348D01*
X120739000Y-56764000D02*
X122725000Y-58750000D01*
X118935234Y-56914000D02*
X118935234Y-56764000D01*
X122838904Y-65292348D02*
X122725000Y-65292348D01*
X122611270Y-59892348D02*
X122725000Y-59892348D01*
X122725000Y-64092348D02*
X122611096Y-64092348D01*
X122725000Y-60492348D02*
X122611096Y-60492348D01*
X122611096Y-61092348D02*
X122725000Y-61092348D01*
X120345234Y-56764000D02*
X120625000Y-56764000D01*
X122497192Y-61806252D02*
X122497192Y-62178444D01*
X122725000Y-64692348D02*
X122838904Y-64692348D01*
X122952807Y-61206251D02*
X122952807Y-61578445D01*
X119605234Y-57064000D02*
X119825234Y-57064000D01*
X122497192Y-64206252D02*
X122497192Y-64578444D01*
X122952808Y-62406252D02*
X122952808Y-62778444D01*
X122725000Y-67706834D02*
X122725000Y-68150000D01*
X122497193Y-60606251D02*
X122497193Y-60978445D01*
X122725000Y-61692348D02*
X122611096Y-61692348D01*
X122725000Y-66977348D02*
X122725000Y-67706834D01*
X122725000Y-62292348D02*
X122838904Y-62292348D01*
X122952808Y-63606252D02*
X122952808Y-63978444D01*
X122725000Y-66606053D02*
X122725000Y-66977348D01*
X120125234Y-56764000D02*
X120345234Y-56764000D01*
X118935234Y-56764000D02*
X118935234Y-56639000D01*
X122838904Y-61692348D02*
X122725000Y-61692348D01*
X122725000Y-63492348D02*
X122838904Y-63492348D01*
X117025000Y-57150000D02*
X117411000Y-56764000D01*
X122611096Y-64692348D02*
X122725000Y-64692348D01*
X122497186Y-65406255D02*
X122497186Y-65778441D01*
X118565234Y-57064000D02*
X118785234Y-57064000D01*
X122838877Y-60492348D02*
X122725000Y-60492348D01*
X122725000Y-65892348D02*
X122838705Y-65892348D01*
X122952753Y-60006224D02*
X122952753Y-60378472D01*
X122952807Y-64806251D02*
X122952807Y-65178445D01*
X122611093Y-65892348D02*
X122725000Y-65892348D01*
X119455234Y-56639000D02*
X119455234Y-56764000D01*
X122725000Y-62892348D02*
X122611096Y-62892348D01*
X117411000Y-56764000D02*
X118265234Y-56764000D01*
X122725000Y-59892348D02*
X122838877Y-59892348D01*
X122725000Y-65292348D02*
X122611093Y-65292348D01*
X122611096Y-62292348D02*
X122725000Y-62292348D01*
X122838904Y-64092348D02*
X122725000Y-64092348D01*
X119060234Y-56514000D02*
X119330234Y-56514000D01*
X122838904Y-62892348D02*
X122725000Y-62892348D01*
X122952808Y-63978444D02*
G75*
G02*
X122838904Y-64092308I-113908J44D01*
G01*
X122838705Y-65892348D02*
G75*
G02*
X122952452Y-66006053I-5J-113752D01*
G01*
X119330234Y-56514000D02*
G75*
G02*
X119455200Y-56639000I-34J-125000D01*
G01*
X122497186Y-65778441D02*
G75*
G03*
X122611093Y-65892314I113914J41D01*
G01*
X122497193Y-63378445D02*
G75*
G03*
X122611096Y-63492307I113907J45D01*
G01*
X122611270Y-59291078D02*
G75*
G03*
X122497578Y-59404808I30J-113722D01*
G01*
X122497540Y-59778618D02*
G75*
G03*
X122611270Y-59892360I113760J18D01*
G01*
X122838904Y-62292348D02*
G75*
G02*
X122952852Y-62406252I-4J-113952D01*
G01*
X122952410Y-66378643D02*
G75*
G02*
X122838705Y-66492310I-113710J43D01*
G01*
X122497192Y-64578444D02*
G75*
G03*
X122611096Y-64692308I113908J44D01*
G01*
X122838904Y-61092348D02*
G75*
G02*
X122952752Y-61206251I-4J-113852D01*
G01*
X122952807Y-65178445D02*
G75*
G02*
X122838904Y-65292307I-113907J45D01*
G01*
X122497193Y-60978445D02*
G75*
G03*
X122611096Y-61092307I113907J45D01*
G01*
X122611096Y-64092348D02*
G75*
G03*
X122497148Y-64206252I4J-113952D01*
G01*
X119455234Y-56914000D02*
G75*
G03*
X119605234Y-57063966I149966J0D01*
G01*
X118415234Y-56914000D02*
G75*
G03*
X118565234Y-57063966I149966J0D01*
G01*
X122725000Y-59177348D02*
G75*
G02*
X122611270Y-59291000I-113700J48D01*
G01*
X119975234Y-56914000D02*
G75*
G02*
X120125234Y-56764034I149966J0D01*
G01*
X122838705Y-66492348D02*
G75*
G03*
X122724948Y-66606053I-5J-113752D01*
G01*
X118785234Y-57064000D02*
G75*
G03*
X118935200Y-56914000I-34J150000D01*
G01*
X122611096Y-62892348D02*
G75*
G03*
X122497248Y-63006251I4J-113852D01*
G01*
X122952807Y-61578445D02*
G75*
G02*
X122838904Y-61692307I-113907J45D01*
G01*
X122838904Y-64692348D02*
G75*
G02*
X122952752Y-64806251I-4J-113852D01*
G01*
X118265234Y-56764000D02*
G75*
G02*
X118415200Y-56914000I-34J-150000D01*
G01*
X122611096Y-60492348D02*
G75*
G03*
X122497248Y-60606251I4J-113852D01*
G01*
X122838904Y-63492348D02*
G75*
G02*
X122952852Y-63606252I-4J-113952D01*
G01*
X122611093Y-65292348D02*
G75*
G03*
X122497148Y-65406255I7J-113952D01*
G01*
X122952753Y-60378472D02*
G75*
G02*
X122838877Y-60492353I-113853J-28D01*
G01*
X119825234Y-57064000D02*
G75*
G03*
X119975200Y-56914000I-34J150000D01*
G01*
X118935234Y-56639000D02*
G75*
G02*
X119060234Y-56514034I124966J0D01*
G01*
X122611096Y-61692348D02*
G75*
G03*
X122497148Y-61806252I4J-113952D01*
G01*
X122838877Y-59892348D02*
G75*
G02*
X122952752Y-60006224I23J-113852D01*
G01*
X122952808Y-62778444D02*
G75*
G02*
X122838904Y-62892308I-113908J44D01*
G01*
X122497192Y-62178444D02*
G75*
G03*
X122611096Y-62292308I113908J44D01*
G01*
%TO.N,FIFO_DQ26*%
X107183000Y-61200441D02*
X107729841Y-61200441D01*
X110211000Y-58618113D02*
X110211000Y-58909887D01*
X107729841Y-61720441D02*
X107183000Y-61720441D01*
X107183000Y-63280441D02*
X107729816Y-63280441D01*
X111786000Y-70111000D02*
X111786000Y-71085999D01*
X106975000Y-65300000D02*
X111786000Y-70111000D01*
X106975000Y-64526062D02*
X106975000Y-64632441D01*
X109984887Y-59136000D02*
X107239000Y-59136000D01*
X107729841Y-60680441D02*
X107183000Y-60680441D01*
X107937841Y-62448441D02*
X107937841Y-62552441D01*
X111039000Y-58086000D02*
X110761000Y-58364000D01*
X106975000Y-61928441D02*
X106975000Y-62032441D01*
X111786000Y-71085999D02*
X112200000Y-71499999D01*
X107183000Y-62240441D02*
X107729841Y-62240441D01*
X110211000Y-58909887D02*
X109984887Y-59136000D01*
X107183000Y-60160441D02*
X107729841Y-60160441D01*
X106975000Y-64632441D02*
X106975000Y-64950000D01*
X107937841Y-61408441D02*
X107937841Y-61512441D01*
X107937841Y-60368441D02*
X107937841Y-60472441D01*
X107183000Y-63800441D02*
X106975000Y-63800441D01*
X107729816Y-63800441D02*
X107183000Y-63800441D01*
X106975000Y-60888441D02*
X106975000Y-60992441D01*
X111425000Y-57400000D02*
X111039000Y-57786000D01*
X107239000Y-59136000D02*
X106975000Y-59400000D01*
X106975000Y-62968441D02*
X106975000Y-63072441D01*
X106975000Y-63800441D02*
X106769379Y-63800441D01*
X111425000Y-57150000D02*
X111425000Y-57400000D01*
X110465113Y-58364000D02*
X110211000Y-58618113D01*
X111039000Y-57786000D02*
X111039000Y-58086000D01*
X110761000Y-58364000D02*
X110465113Y-58364000D01*
X107729841Y-62760441D02*
X107183000Y-62760441D01*
X106563758Y-64006062D02*
X106563758Y-64114820D01*
X106975000Y-59400000D02*
X106975000Y-59952441D01*
X106975000Y-64950000D02*
X106975000Y-65300000D01*
X107937816Y-63488441D02*
X107937816Y-63592441D01*
X106975000Y-63072441D02*
G75*
G03*
X107183000Y-63280400I208000J41D01*
G01*
X107729841Y-61200441D02*
G75*
G02*
X107937759Y-61408441I-41J-207959D01*
G01*
X107937841Y-60472441D02*
G75*
G02*
X107729841Y-60680441I-208041J41D01*
G01*
X106975000Y-62032441D02*
G75*
G03*
X107183000Y-62240400I208000J41D01*
G01*
X107937841Y-62552441D02*
G75*
G02*
X107729841Y-62760441I-208041J41D01*
G01*
X106975000Y-59952441D02*
G75*
G03*
X107183000Y-60160400I208000J41D01*
G01*
X107729841Y-62240441D02*
G75*
G02*
X107937759Y-62448441I-41J-207959D01*
G01*
X106975000Y-60992441D02*
G75*
G03*
X107183000Y-61200400I208000J41D01*
G01*
X107937816Y-63592441D02*
G75*
G02*
X107729816Y-63800416I-208016J41D01*
G01*
X107183000Y-62760441D02*
G75*
G03*
X106975041Y-62968441I0J-207959D01*
G01*
X107183000Y-61720441D02*
G75*
G03*
X106975041Y-61928441I0J-207959D01*
G01*
X107729816Y-63280441D02*
G75*
G02*
X107937759Y-63488441I-16J-207959D01*
G01*
X106769379Y-64320441D02*
G75*
G02*
X106975059Y-64526062I21J-205659D01*
G01*
X107729841Y-60160441D02*
G75*
G02*
X107937759Y-60368441I-41J-207959D01*
G01*
X107183000Y-60680441D02*
G75*
G03*
X106975041Y-60888441I0J-207959D01*
G01*
X106563758Y-64114820D02*
G75*
G03*
X106769379Y-64320442I205642J20D01*
G01*
X107937841Y-61512441D02*
G75*
G02*
X107729841Y-61720441I-208041J41D01*
G01*
X106769379Y-63800441D02*
G75*
G03*
X106563741Y-64006062I21J-205659D01*
G01*
D18*
%TO.N,JTAG.TMS*%
X100310000Y-46992832D02*
X101592168Y-48275000D01*
X124351002Y-79903998D02*
X118756028Y-79903998D01*
X116199999Y-82460027D02*
X116199999Y-82699998D01*
X107895000Y-46140000D02*
X108945000Y-45090000D01*
X115803999Y-82064027D02*
X116199999Y-82460027D01*
X107895000Y-46950000D02*
X107895000Y-46140000D01*
X117960026Y-80700000D02*
X116039968Y-80700000D01*
X106570000Y-48275000D02*
X107895000Y-46950000D01*
X118915000Y-45090000D02*
X127215000Y-53390000D01*
X118756028Y-79903998D02*
X117960026Y-80700000D01*
X127215000Y-53390000D02*
X127215000Y-77040000D01*
X101592168Y-48275000D02*
X106570000Y-48275000D01*
X115803999Y-80935969D02*
X115803999Y-82064027D01*
X108945000Y-45090000D02*
X118915000Y-45090000D01*
X127215000Y-77040000D02*
X124351002Y-79903998D01*
X116039968Y-80700000D02*
X115803999Y-80935969D01*
D17*
%TO.N,GPIO_23*%
X114214000Y-67472000D02*
X114674160Y-67472000D01*
X114003173Y-69592000D02*
X114214000Y-69592000D01*
X114774147Y-70122000D02*
X114426000Y-70122000D01*
X114924150Y-69062000D02*
X114214000Y-69062000D01*
X114214000Y-66942000D02*
X113553847Y-66942000D01*
X114674160Y-66942000D02*
X114214000Y-66942000D01*
X114214000Y-64030000D02*
X114214000Y-64610000D01*
X114214000Y-65564000D02*
X114214000Y-65670000D01*
X115136150Y-68744000D02*
X115136150Y-68850000D01*
X113603837Y-66412000D02*
X114002000Y-66412000D01*
X113653843Y-65352000D02*
X114002000Y-65352000D01*
X114214000Y-60193113D02*
X114214000Y-60650000D01*
X114002000Y-64822000D02*
X113653843Y-64822000D01*
X114002000Y-66412000D02*
X114214000Y-66412000D01*
X114214000Y-69062000D02*
X114003173Y-69062000D01*
X114214000Y-71885999D02*
X113800000Y-72299999D01*
X113825000Y-59804113D02*
X114214000Y-60193113D01*
X114002000Y-65882000D02*
X113603837Y-65882000D01*
X114214000Y-66412000D02*
X114674160Y-66412000D01*
X114214000Y-70850000D02*
X114214000Y-71885999D01*
X114214000Y-68002000D02*
X113003843Y-68002000D01*
X113391837Y-66094000D02*
X113391837Y-66200000D01*
X114986147Y-69804000D02*
X114986147Y-69910000D01*
X113603837Y-61392000D02*
X114002000Y-61392000D01*
X114886160Y-66624000D02*
X114886160Y-66730000D01*
X113825000Y-59550000D02*
X113825000Y-59804113D01*
X113441843Y-65034000D02*
X113441843Y-65140000D01*
X112791843Y-68214000D02*
X112791843Y-68320000D01*
X113391837Y-61074000D02*
X113391837Y-61180000D01*
X114214000Y-61604000D02*
X114214000Y-61710000D01*
X113792346Y-69272827D02*
X113792346Y-69381173D01*
X114214000Y-68532000D02*
X114924150Y-68532000D01*
X114674160Y-68002000D02*
X114214000Y-68002000D01*
X114002000Y-60862000D02*
X113603837Y-60862000D01*
X114214000Y-70440000D02*
X114214000Y-70850000D01*
X113341847Y-67154000D02*
X113341847Y-67260000D01*
X114886160Y-67684000D02*
X114886160Y-67790000D01*
X114214000Y-69592000D02*
X114426000Y-69592000D01*
X113553847Y-67472000D02*
X114214000Y-67472000D01*
X113003843Y-68532000D02*
X114214000Y-68532000D01*
X114214000Y-61710000D02*
X114214000Y-64030000D01*
X114426000Y-69592000D02*
X114774147Y-69592000D01*
X114214000Y-70334000D02*
X114214000Y-70440000D01*
X114774147Y-69592000D02*
G75*
G02*
X114986100Y-69804000I-47J-212000D01*
G01*
X114924150Y-68532000D02*
G75*
G02*
X115136200Y-68744000I50J-212000D01*
G01*
X114674160Y-67472000D02*
G75*
G02*
X114886200Y-67684000I40J-212000D01*
G01*
X114886160Y-67790000D02*
G75*
G02*
X114674160Y-68001960I-211960J0D01*
G01*
X113003843Y-68002000D02*
G75*
G03*
X112791800Y-68214000I-43J-212000D01*
G01*
X113603837Y-60862000D02*
G75*
G03*
X113391800Y-61074000I-37J-212000D01*
G01*
X113653843Y-64822000D02*
G75*
G03*
X113441800Y-65034000I-43J-212000D01*
G01*
X114674160Y-66412000D02*
G75*
G02*
X114886200Y-66624000I40J-212000D01*
G01*
X114002000Y-65352000D02*
G75*
G02*
X114214000Y-65564000I0J-212000D01*
G01*
X113391837Y-61180000D02*
G75*
G03*
X113603837Y-61391963I211963J0D01*
G01*
X115136150Y-68850000D02*
G75*
G02*
X114924150Y-69061950I-211950J0D01*
G01*
X114214000Y-65670000D02*
G75*
G02*
X114002000Y-65882000I-212000J0D01*
G01*
X113341847Y-67260000D02*
G75*
G03*
X113553847Y-67471953I211953J0D01*
G01*
X113603837Y-65882000D02*
G75*
G03*
X113391800Y-66094000I-37J-212000D01*
G01*
X112791843Y-68320000D02*
G75*
G03*
X113003843Y-68531957I211957J0D01*
G01*
X114886160Y-66730000D02*
G75*
G02*
X114674160Y-66941960I-211960J0D01*
G01*
X113553847Y-66942000D02*
G75*
G03*
X113341800Y-67154000I-47J-212000D01*
G01*
X113441843Y-65140000D02*
G75*
G03*
X113653843Y-65351957I211957J0D01*
G01*
X114986147Y-69910000D02*
G75*
G02*
X114774147Y-70122047I-212047J0D01*
G01*
X114003173Y-69062000D02*
G75*
G03*
X113792400Y-69272827I27J-210800D01*
G01*
X113792346Y-69381173D02*
G75*
G03*
X114003173Y-69592054I210854J-27D01*
G01*
X113391837Y-66200000D02*
G75*
G03*
X113603837Y-66411963I211963J0D01*
G01*
X114214000Y-60650000D02*
G75*
G02*
X114002000Y-60862000I-212000J0D01*
G01*
X114214000Y-64610000D02*
G75*
G02*
X114002000Y-64822000I-212000J0D01*
G01*
X114426000Y-70122000D02*
G75*
G03*
X114214000Y-70334000I0J-212000D01*
G01*
X114002000Y-61392000D02*
G75*
G02*
X114214000Y-61604000I0J-212000D01*
G01*
%TO.N,FIFO_DQ27*%
X108651715Y-57815447D02*
X108651715Y-57564000D01*
X111400000Y-71499999D02*
X111400000Y-71274999D01*
X106851715Y-57804000D02*
X106851715Y-57865432D01*
X108051715Y-57564000D02*
X108051715Y-57815447D01*
X108291715Y-58055447D02*
X108411715Y-58055447D01*
X108891715Y-57022568D02*
X109011715Y-57022568D01*
X107451715Y-57865432D02*
X107451715Y-57804000D01*
X107451715Y-57564000D02*
X107451715Y-56862562D01*
X111039000Y-56736000D02*
X111425000Y-56350000D01*
X111400000Y-71499999D02*
X111400000Y-71475000D01*
X108651715Y-57324000D02*
X108651715Y-57262568D01*
X109251715Y-57262568D02*
X109251715Y-57324000D01*
X111400000Y-71274999D02*
X111014000Y-70888999D01*
X107451715Y-57804000D02*
X107451715Y-57564000D01*
X107091715Y-58105432D02*
X107211715Y-58105432D01*
X107691715Y-56622562D02*
X107811715Y-56622562D01*
X106311000Y-57564000D02*
X106611715Y-57564000D01*
X109611715Y-57564000D02*
X110093930Y-57564000D01*
X109491715Y-57564000D02*
X109611715Y-57564000D01*
X111039000Y-57402748D02*
X111039000Y-56736000D01*
X111014000Y-70489000D02*
X105125000Y-64600000D01*
X111014000Y-70888999D02*
X111014000Y-70489000D01*
X105125000Y-58750000D02*
X106311000Y-57564000D01*
X108651715Y-57564000D02*
X108651715Y-57324000D01*
X108051715Y-56862562D02*
X108051715Y-57564000D01*
X105125000Y-64600000D02*
X105125000Y-58750000D01*
X110093930Y-57564000D02*
X110877748Y-57564000D01*
X110877748Y-57564000D02*
X111039000Y-57402748D01*
X106851715Y-57865432D02*
G75*
G03*
X107091715Y-58105385I239985J32D01*
G01*
X106611715Y-57564000D02*
G75*
G02*
X106851700Y-57804000I-15J-240000D01*
G01*
X108651715Y-57262568D02*
G75*
G02*
X108891715Y-57022615I239985J-32D01*
G01*
X107451715Y-56862562D02*
G75*
G02*
X107691715Y-56622615I239985J-38D01*
G01*
X109251715Y-57324000D02*
G75*
G03*
X109491715Y-57563985I239985J0D01*
G01*
X109011715Y-57022568D02*
G75*
G02*
X109251732Y-57262568I-15J-240032D01*
G01*
X108051715Y-57815447D02*
G75*
G03*
X108291715Y-58055385I239985J47D01*
G01*
X107211715Y-58105432D02*
G75*
G03*
X107451732Y-57865432I-15J240032D01*
G01*
X107811715Y-56622562D02*
G75*
G02*
X108051738Y-56862562I-15J-240038D01*
G01*
X108411715Y-58055447D02*
G75*
G03*
X108651747Y-57815447I-15J240047D01*
G01*
%TO.N,FIFO_DQ4*%
X119633638Y-57732000D02*
X119633638Y-57810000D01*
X122075000Y-66291719D02*
X121835000Y-66291719D01*
X121112867Y-66051719D02*
X121112867Y-65931719D01*
X121835000Y-66891719D02*
X122075000Y-66891719D01*
X122075000Y-65451719D02*
X122075000Y-65331719D01*
X116225000Y-57150000D02*
X116611000Y-57536000D01*
X122075000Y-65331719D02*
X122075000Y-64713106D01*
X119175000Y-68700000D02*
X121275000Y-68700000D01*
X121275000Y-68700000D02*
X122075000Y-67900000D01*
X119143638Y-57810000D02*
X119143638Y-57732000D01*
X117799999Y-71499999D02*
X117802999Y-71499999D01*
X120319638Y-57536000D02*
X120417638Y-57536000D01*
X122225885Y-66291719D02*
X122075000Y-66291719D01*
X122075000Y-58950000D02*
X120722503Y-57597503D01*
X121835000Y-66291719D02*
X121352867Y-66291719D01*
X120417638Y-57536000D02*
X120661000Y-57536000D01*
X120123638Y-57810000D02*
X120123638Y-57732000D01*
X119339638Y-57536000D02*
X119437638Y-57536000D01*
X118849638Y-58006000D02*
X118947638Y-58006000D01*
X122376769Y-66740835D02*
X122376769Y-66442603D01*
X117802999Y-71499999D02*
X118213999Y-71088999D01*
X120661000Y-57536000D02*
X120722503Y-57597503D01*
X121835000Y-67491719D02*
X121352867Y-67491719D01*
X119829638Y-58006000D02*
X119927638Y-58006000D01*
X121352867Y-66891719D02*
X121835000Y-66891719D01*
X118213999Y-69661001D02*
X119175000Y-68700000D01*
X121112867Y-67251719D02*
X121112867Y-67131719D01*
X116611000Y-57536000D02*
X118457638Y-57536000D01*
X122075000Y-67900000D02*
X122075000Y-67731719D01*
X118213999Y-71088999D02*
X118213999Y-69661001D01*
X121352867Y-65691719D02*
X121835000Y-65691719D01*
X122075000Y-66891719D02*
X122225885Y-66891719D01*
X122075000Y-64713106D02*
X122075000Y-58950000D01*
X118653638Y-57732000D02*
X118653638Y-57810000D01*
X121352867Y-67491719D02*
G75*
G02*
X121112881Y-67251719I33J240019D01*
G01*
X120123638Y-57732000D02*
G75*
G02*
X120319638Y-57536038I195962J0D01*
G01*
X118457638Y-57536000D02*
G75*
G02*
X118653600Y-57732000I-38J-196000D01*
G01*
X118653638Y-57810000D02*
G75*
G03*
X118849638Y-58005962I195962J0D01*
G01*
X122225885Y-66891719D02*
G75*
G03*
X122376819Y-66740835I15J150919D01*
G01*
X119927638Y-58006000D02*
G75*
G03*
X120123600Y-57810000I-38J196000D01*
G01*
X121112867Y-67131719D02*
G75*
G02*
X121352867Y-66891667I240033J19D01*
G01*
X121835000Y-65691719D02*
G75*
G03*
X122075019Y-65451719I0J240019D01*
G01*
X121352867Y-66291719D02*
G75*
G02*
X121112881Y-66051719I33J240019D01*
G01*
X119633638Y-57810000D02*
G75*
G03*
X119829638Y-58005962I195962J0D01*
G01*
X121112867Y-65931719D02*
G75*
G02*
X121352867Y-65691667I240033J19D01*
G01*
X119437638Y-57536000D02*
G75*
G02*
X119633600Y-57732000I-38J-196000D01*
G01*
X118947638Y-58006000D02*
G75*
G03*
X119143600Y-57810000I-38J196000D01*
G01*
X119143638Y-57732000D02*
G75*
G02*
X119339638Y-57536038I195962J0D01*
G01*
X122075000Y-67731719D02*
G75*
G03*
X121835000Y-67491700I-240000J19D01*
G01*
X122376769Y-66442603D02*
G75*
G03*
X122225885Y-66291731I-150869J3D01*
G01*
%TO.N,FIFO_DQ6*%
X121325000Y-65350000D02*
X121525000Y-65150000D01*
X121525000Y-61881722D02*
X120946149Y-61881722D01*
X121341000Y-64641722D02*
X120925427Y-64641722D01*
X121341000Y-60961722D02*
X120991872Y-60961722D01*
X119025000Y-68200000D02*
X120375000Y-68200000D01*
X121625000Y-60961722D02*
X121525000Y-60961722D01*
X121525000Y-63261722D02*
X121625000Y-63261722D01*
X117799999Y-70699999D02*
X117799999Y-69425001D01*
X121725000Y-61321722D02*
X121725000Y-61061722D01*
X121525000Y-60961722D02*
X121341000Y-60961722D01*
X121725000Y-63161722D02*
X121725000Y-62901722D01*
X121525000Y-61421722D02*
X121625000Y-61421722D01*
X120725000Y-65550000D02*
X120925000Y-65350000D01*
X121625000Y-61881722D02*
X121525000Y-61881722D01*
X121625000Y-63721722D02*
X121525000Y-63721722D01*
X117661000Y-58336000D02*
X117275000Y-57950000D01*
X121525000Y-63721722D02*
X120929000Y-63721722D01*
X121525000Y-62801722D02*
X120934724Y-62801722D01*
X117799999Y-69425001D02*
X119025000Y-68200000D01*
X121525000Y-62341722D02*
X121625000Y-62341722D01*
X120946149Y-61421722D02*
X121525000Y-61421722D01*
X120929000Y-63261722D02*
X121525000Y-63261722D01*
X120934724Y-62341722D02*
X121525000Y-62341722D01*
X120745000Y-63537722D02*
X120745000Y-63445722D01*
X120711000Y-58336000D02*
X117661000Y-58336000D01*
X121525000Y-60225722D02*
X121525000Y-59209633D01*
X120741427Y-64457722D02*
X120741427Y-64365722D01*
X121625000Y-62801722D02*
X121525000Y-62801722D01*
X120375000Y-68200000D02*
X120725000Y-67850000D01*
X117275000Y-57950000D02*
X117025000Y-57950000D01*
X121341000Y-64181722D02*
X121525000Y-64181722D01*
X121525000Y-59150000D02*
X120711000Y-58336000D01*
X121725000Y-62241722D02*
X121725000Y-61981722D01*
X120925427Y-64181722D02*
X121341000Y-64181722D01*
X120725000Y-67850000D02*
X120725000Y-65550000D01*
X120750724Y-62617722D02*
X120750724Y-62525722D01*
X121725000Y-64081722D02*
X121725000Y-63821722D01*
X121525000Y-59209633D02*
X121525000Y-59150000D01*
X120762149Y-61697722D02*
X120762149Y-61605722D01*
X121525000Y-60317722D02*
X121525000Y-60225722D01*
X120807872Y-60777722D02*
X120807872Y-60685722D01*
X121525000Y-65150000D02*
X121525000Y-64825722D01*
X120925000Y-65350000D02*
X121325000Y-65350000D01*
X121525000Y-64181722D02*
X121625000Y-64181722D01*
X120991872Y-60501722D02*
X121341000Y-60501722D01*
X121725000Y-61981722D02*
G75*
G03*
X121625000Y-61881700I-100000J22D01*
G01*
X120762149Y-61605722D02*
G75*
G02*
X120946149Y-61421749I183951J22D01*
G01*
X120807872Y-60685722D02*
G75*
G02*
X120991872Y-60501672I184028J22D01*
G01*
X120934724Y-62801722D02*
G75*
G02*
X120750678Y-62617722I-24J184022D01*
G01*
X120750724Y-62525722D02*
G75*
G02*
X120934724Y-62341724I183976J22D01*
G01*
X121625000Y-64181722D02*
G75*
G03*
X121725022Y-64081722I0J100022D01*
G01*
X121725000Y-63821722D02*
G75*
G03*
X121625000Y-63721700I-100000J22D01*
G01*
X121725000Y-61061722D02*
G75*
G03*
X121625000Y-60961700I-100000J22D01*
G01*
X120745000Y-63445722D02*
G75*
G02*
X120929000Y-63261700I184000J22D01*
G01*
X120946149Y-61881722D02*
G75*
G02*
X120762078Y-61697722I-49J184022D01*
G01*
X120929000Y-63721722D02*
G75*
G02*
X120744978Y-63537722I0J184022D01*
G01*
X121625000Y-63261722D02*
G75*
G03*
X121725022Y-63161722I0J100022D01*
G01*
X120925427Y-64641722D02*
G75*
G02*
X120741378Y-64457722I-27J184022D01*
G01*
X121625000Y-62341722D02*
G75*
G03*
X121725022Y-62241722I0J100022D01*
G01*
X121341000Y-60501722D02*
G75*
G03*
X121525022Y-60317722I0J184022D01*
G01*
X120991872Y-60961722D02*
G75*
G02*
X120807878Y-60777722I28J184022D01*
G01*
X120741427Y-64365722D02*
G75*
G02*
X120925427Y-64181727I183973J22D01*
G01*
X121525000Y-64825722D02*
G75*
G03*
X121341000Y-64641700I-184000J22D01*
G01*
X121625000Y-61421722D02*
G75*
G03*
X121725022Y-61321722I0J100022D01*
G01*
X121725000Y-62901722D02*
G75*
G03*
X121625000Y-62801700I-100000J22D01*
G01*
%TO.N,FIFO_DQ22*%
X106527073Y-63324085D02*
X106527073Y-63434085D01*
X110400000Y-58025000D02*
X110089000Y-58336000D01*
X106601757Y-60024085D02*
X106601757Y-60134085D01*
X110625000Y-57950000D02*
X110550000Y-58025000D01*
X105675000Y-59804085D02*
X106381757Y-59804085D01*
X105575000Y-60904085D02*
X105675000Y-60904085D01*
X105675000Y-63104085D02*
X105895000Y-63104085D01*
X105475000Y-59329085D02*
X105475000Y-59704085D01*
X110089000Y-58336000D02*
X108839000Y-58336000D01*
X105575000Y-62004085D02*
X105675000Y-62004085D01*
X111400000Y-70275000D02*
X111400000Y-70699999D01*
X105675000Y-58950000D02*
X105675000Y-59129085D01*
X105675000Y-63984085D02*
X105675000Y-64550000D01*
X106361396Y-62554085D02*
X105675000Y-62554085D01*
X105475000Y-62654085D02*
X105475000Y-63004085D01*
X106307073Y-63654085D02*
X105895000Y-63654085D01*
X106374969Y-61454085D02*
X105675000Y-61454085D01*
X105675000Y-63874085D02*
X105675000Y-63984085D01*
X105675000Y-61454085D02*
X105575000Y-61454085D01*
X106100000Y-58525000D02*
X105675000Y-58950000D01*
X108839000Y-58336000D02*
X108650000Y-58525000D01*
X106594969Y-61124085D02*
X106594969Y-61234085D01*
X106381757Y-60354085D02*
X105675000Y-60354085D01*
X105475000Y-60454085D02*
X105475000Y-60804085D01*
X105575000Y-63104085D02*
X105675000Y-63104085D01*
X110550000Y-58025000D02*
X110400000Y-58025000D01*
X105895000Y-63104085D02*
X106307073Y-63104085D01*
X105675000Y-64550000D02*
X111400000Y-70275000D01*
X105575000Y-59804085D02*
X105675000Y-59804085D01*
X105675000Y-60354085D02*
X105575000Y-60354085D01*
X105675000Y-62554085D02*
X105575000Y-62554085D01*
X108650000Y-58525000D02*
X106100000Y-58525000D01*
X105475000Y-61554085D02*
X105475000Y-61904085D01*
X106581396Y-62224085D02*
X106581396Y-62334085D01*
X105675000Y-62004085D02*
X106361396Y-62004085D01*
X105675000Y-60904085D02*
X106374969Y-60904085D01*
X105475000Y-60804085D02*
G75*
G03*
X105575000Y-60904100I100000J-15D01*
G01*
X106374969Y-60904085D02*
G75*
G02*
X106595015Y-61124085I31J-220015D01*
G01*
X105475000Y-63004085D02*
G75*
G03*
X105575000Y-63104100I100000J-15D01*
G01*
X105575000Y-59229085D02*
G75*
G03*
X105474985Y-59329085I0J-100015D01*
G01*
X106527073Y-63434085D02*
G75*
G02*
X106307073Y-63654073I-219973J-15D01*
G01*
X106601757Y-60134085D02*
G75*
G02*
X106381757Y-60354057I-219957J-15D01*
G01*
X106594969Y-61234085D02*
G75*
G02*
X106374969Y-61454069I-219969J-15D01*
G01*
X105575000Y-62554085D02*
G75*
G03*
X105474985Y-62654085I0J-100015D01*
G01*
X106307073Y-63104085D02*
G75*
G02*
X106527115Y-63324085I27J-220015D01*
G01*
X105575000Y-60354085D02*
G75*
G03*
X105474985Y-60454085I0J-100015D01*
G01*
X106361396Y-62004085D02*
G75*
G02*
X106581415Y-62224085I4J-220015D01*
G01*
X105575000Y-61454085D02*
G75*
G03*
X105474985Y-61554085I0J-100015D01*
G01*
X105475000Y-59704085D02*
G75*
G03*
X105575000Y-59804100I100000J-15D01*
G01*
X105475000Y-61904085D02*
G75*
G03*
X105575000Y-62004100I100000J-15D01*
G01*
X106581396Y-62334085D02*
G75*
G02*
X106361396Y-62554096I-219996J-15D01*
G01*
X106381757Y-59804085D02*
G75*
G02*
X106601815Y-60024085I43J-220015D01*
G01*
X105675000Y-59129085D02*
G75*
G02*
X105575000Y-59229100I-100000J-15D01*
G01*
X105895000Y-63654085D02*
G75*
G03*
X105674985Y-63874085I0J-220015D01*
G01*
D18*
%TO.N,JTAG.TDI*%
X106600000Y-43200000D02*
X108070000Y-44670000D01*
X102850000Y-44452832D02*
X104102832Y-43200000D01*
X116595999Y-81503998D02*
X116199999Y-81899998D01*
X125140973Y-80464027D02*
X120595999Y-80464027D01*
X128525000Y-53350000D02*
X128525000Y-77080000D01*
X108070000Y-44670000D02*
X117320000Y-44670000D01*
X117325000Y-44675000D02*
X119850000Y-44675000D01*
X120595999Y-80464027D02*
X120360026Y-80700000D01*
X119535029Y-80700000D02*
X118731031Y-81503998D01*
X119850000Y-44675000D02*
X128525000Y-53350000D01*
X117320000Y-44670000D02*
X117325000Y-44675000D01*
X128525000Y-77080000D02*
X125140973Y-80464027D01*
X118731031Y-81503998D02*
X116595999Y-81503998D01*
X104102832Y-43200000D02*
X106600000Y-43200000D01*
X120360026Y-80700000D02*
X119535029Y-80700000D01*
%TO.N,Net-(U2C-CVDDQ)*%
X113825000Y-53150000D02*
X115029000Y-54354000D01*
X117429000Y-54354000D02*
X117815000Y-54740000D01*
X117815000Y-54740000D02*
X118695000Y-54740000D01*
X115029000Y-54354000D02*
X117429000Y-54354000D01*
D17*
%TO.N,FIFO_DQ14*%
X115425000Y-58750000D02*
X115013999Y-59161001D01*
X116681023Y-64309163D02*
X117279000Y-64309163D01*
X115785999Y-71913999D02*
X115399999Y-72299999D01*
X117475000Y-65485163D02*
X117475000Y-65583163D01*
X115830784Y-67744216D02*
X115785999Y-67789001D01*
X117279000Y-63819163D02*
X116681023Y-63819163D01*
X116485023Y-63035163D02*
X116485023Y-63133163D01*
X116438240Y-66904828D02*
X115948922Y-66415510D01*
X115375000Y-60750000D02*
X115775000Y-61150000D01*
X117475000Y-65850000D02*
X117475000Y-66100000D01*
X115013999Y-59738999D02*
X115375000Y-60100000D01*
X116485023Y-64995163D02*
X116485023Y-65093163D01*
X117018068Y-66325000D02*
X116528750Y-65835682D01*
X116681023Y-62349163D02*
X117279000Y-62349163D01*
X117075000Y-61150000D02*
X117475000Y-61550000D01*
X116238836Y-66125595D02*
X116728153Y-66614912D01*
X116485023Y-64015163D02*
X116485023Y-64113163D01*
X117475000Y-61550000D02*
X117475000Y-61663163D01*
X116681023Y-65289163D02*
X117279000Y-65289163D01*
X115775000Y-61150000D02*
X117075000Y-61150000D01*
X117475000Y-65583163D02*
X117475000Y-65850000D01*
X116090344Y-67484655D02*
X115830784Y-67744216D01*
X115716991Y-66415510D02*
X115659008Y-66473492D01*
X115013999Y-59161001D02*
X115013999Y-59738999D01*
X116296819Y-65835682D02*
X116238836Y-65893664D01*
X117475000Y-66100000D02*
X117250000Y-66325000D01*
X116728153Y-66846843D02*
X116670172Y-66904827D01*
X116485023Y-62055163D02*
X116485023Y-62153163D01*
X117475000Y-64505163D02*
X117475000Y-64603163D01*
X117279000Y-64799163D02*
X116681023Y-64799163D01*
X115659008Y-66705423D02*
X116148325Y-67194740D01*
X117475000Y-63525163D02*
X117475000Y-63623163D01*
X117279000Y-61859163D02*
X116681023Y-61859163D01*
X117475000Y-62545163D02*
X117475000Y-62643163D01*
X116148325Y-67426671D02*
X116090344Y-67484655D01*
X116681023Y-63329163D02*
X117279000Y-63329163D01*
X117279000Y-62839163D02*
X116681023Y-62839163D01*
X115375000Y-60100000D02*
X115375000Y-60750000D01*
X116670172Y-66904827D02*
X116670172Y-66904828D01*
X115785999Y-67789001D02*
X115785999Y-71913999D01*
X116681023Y-63819163D02*
G75*
G03*
X116484963Y-64015163I-23J-196037D01*
G01*
X116148325Y-67194740D02*
G75*
G02*
X116148320Y-67426665I-115925J-115960D01*
G01*
X116670172Y-66904828D02*
G75*
G02*
X116438240Y-66904828I-115966J115965D01*
G01*
X115659008Y-66473492D02*
G75*
G03*
X115658965Y-66705465I115992J-116008D01*
G01*
X116238836Y-65893664D02*
G75*
G03*
X116238865Y-66125565I115964J-115936D01*
G01*
X116485023Y-65093163D02*
G75*
G03*
X116681023Y-65289177I195977J-37D01*
G01*
X117475000Y-64603163D02*
G75*
G02*
X117279000Y-64799200I-196000J-37D01*
G01*
X116681023Y-64799163D02*
G75*
G03*
X116484963Y-64995163I-23J-196037D01*
G01*
X117279000Y-63329163D02*
G75*
G02*
X117475037Y-63525163I0J-196037D01*
G01*
X117279000Y-62349163D02*
G75*
G02*
X117475037Y-62545163I0J-196037D01*
G01*
X116728153Y-66614912D02*
G75*
G02*
X116728176Y-66846866I-115953J-115988D01*
G01*
X117475000Y-62643163D02*
G75*
G02*
X117279000Y-62839200I-196000J-37D01*
G01*
X117279000Y-65289163D02*
G75*
G02*
X117475037Y-65485163I0J-196037D01*
G01*
X117279000Y-64309163D02*
G75*
G02*
X117475037Y-64505163I0J-196037D01*
G01*
X117250000Y-66325000D02*
G75*
G02*
X117018068Y-66325000I-115966J115965D01*
G01*
X116681023Y-61859163D02*
G75*
G03*
X116484963Y-62055163I-23J-196037D01*
G01*
X116485023Y-64113163D02*
G75*
G03*
X116681023Y-64309177I195977J-37D01*
G01*
X116681023Y-62839163D02*
G75*
G03*
X116484963Y-63035163I-23J-196037D01*
G01*
X117475000Y-63623163D02*
G75*
G02*
X117279000Y-63819200I-196000J-37D01*
G01*
X117475000Y-61663163D02*
G75*
G02*
X117279000Y-61859200I-196000J-37D01*
G01*
X116528750Y-65835682D02*
G75*
G03*
X116296818Y-65835681I-115966J-115964D01*
G01*
X116485023Y-62153163D02*
G75*
G03*
X116681023Y-62349177I195977J-37D01*
G01*
X115948922Y-66415510D02*
G75*
G03*
X115716990Y-66415509I-115966J-115964D01*
G01*
X116485023Y-63133163D02*
G75*
G03*
X116681023Y-63329177I195977J-37D01*
G01*
%TO.N,Net-(U1A-PROGRAMN)*%
X114986000Y-82964000D02*
X114986000Y-82511000D01*
X87025000Y-61350000D02*
X85275000Y-61350000D01*
X88775000Y-90150000D02*
X107800000Y-90150000D01*
X82735000Y-63890000D02*
X82735000Y-84110000D01*
X102075000Y-53250000D02*
X102075000Y-54725000D01*
X114986000Y-82511000D02*
X114600000Y-82125000D01*
X87900000Y-62225000D02*
X87025000Y-61350000D01*
X94575000Y-62225000D02*
X87900000Y-62225000D01*
X102075000Y-54725000D02*
X94575000Y-62225000D01*
X85275000Y-61350000D02*
X82735000Y-63890000D01*
X107800000Y-90150000D02*
X114986000Y-82964000D01*
X114600000Y-82125000D02*
X114600000Y-81899998D01*
X82735000Y-84110000D02*
X88775000Y-90150000D01*
%TO.N,FIFO_DQ2*%
X115839000Y-55800000D02*
X115839000Y-55390113D01*
X114625000Y-56350000D02*
X115011000Y-55964000D01*
X119975000Y-70250000D02*
X119525001Y-70699999D01*
X120889000Y-55164000D02*
X123875000Y-58150000D01*
X115839000Y-55390113D02*
X116065113Y-55164000D01*
X122275000Y-70250000D02*
X119975000Y-70250000D01*
X119525001Y-70699999D02*
X119399999Y-70699999D01*
X123875000Y-58150000D02*
X123875000Y-68650000D01*
X115675000Y-55964000D02*
X115839000Y-55800000D01*
X123875000Y-68650000D02*
X122275000Y-70250000D01*
X116065113Y-55164000D02*
X120889000Y-55164000D01*
X115011000Y-55964000D02*
X115675000Y-55964000D01*
%TO.N,FIFO_DQ7*%
X118499824Y-60254000D02*
X118499824Y-60340000D01*
X120325000Y-60082000D02*
X120153000Y-60082000D01*
X117184887Y-58364000D02*
X117322943Y-58502057D01*
X121000206Y-59824000D02*
X121000206Y-59910000D01*
X118499795Y-59394000D02*
X118499795Y-59480000D01*
X116639000Y-58364000D02*
X117184887Y-58364000D01*
X118671824Y-60512000D02*
X120153000Y-60512000D01*
X120075000Y-67800000D02*
X118675000Y-67800000D01*
X120325000Y-59652000D02*
X120828206Y-59652000D01*
X118671795Y-59652000D02*
X120153000Y-59652000D01*
X120325000Y-61550000D02*
X120325000Y-67550000D01*
X120325000Y-60770000D02*
X120325000Y-61550000D01*
X116999999Y-70625001D02*
X116999999Y-70699999D01*
X117439000Y-58618113D02*
X117439000Y-59000000D01*
X120325000Y-67550000D02*
X120075000Y-67800000D01*
X117375000Y-70250000D02*
X116999999Y-70625001D01*
X120828206Y-60082000D02*
X120325000Y-60082000D01*
X120325000Y-60684000D02*
X120325000Y-60770000D01*
X119975000Y-58700000D02*
X120325000Y-59050000D01*
X117439000Y-59000000D02*
X117589000Y-59150000D01*
X117375000Y-69100000D02*
X117375000Y-70250000D01*
X118675000Y-67800000D02*
X117375000Y-69100000D01*
X120153000Y-59652000D02*
X120325000Y-59652000D01*
X117589000Y-59150000D02*
X118125000Y-59150000D01*
X120153000Y-59222000D02*
X118671795Y-59222000D01*
X116225000Y-57950000D02*
X116639000Y-58364000D01*
X120153000Y-60082000D02*
X118671824Y-60082000D01*
X117322943Y-58502057D02*
X117439000Y-58618113D01*
X118125000Y-59150000D02*
X118575000Y-58700000D01*
X118575000Y-58700000D02*
X119975000Y-58700000D01*
X120153000Y-60512000D02*
G75*
G02*
X120325000Y-60684000I0J-172000D01*
G01*
X118499824Y-60340000D02*
G75*
G03*
X118671824Y-60511976I171976J0D01*
G01*
X121000206Y-59910000D02*
G75*
G02*
X120828206Y-60082006I-172006J0D01*
G01*
X120325000Y-59050000D02*
G75*
G02*
X120153000Y-59222000I-172000J0D01*
G01*
X120828206Y-59652000D02*
G75*
G02*
X121000200Y-59824000I-6J-172000D01*
G01*
X118671824Y-60082000D02*
G75*
G03*
X118499800Y-60254000I-24J-172000D01*
G01*
X118499795Y-59480000D02*
G75*
G03*
X118671795Y-59652005I172005J0D01*
G01*
X118671795Y-59222000D02*
G75*
G03*
X118499800Y-59394000I5J-172000D01*
G01*
%TO.N,FIFO_DQ31*%
X108690962Y-55164000D02*
X108690962Y-55351376D01*
X104425000Y-58400000D02*
X107661000Y-55164000D01*
X109399861Y-70845747D02*
X109399861Y-70553973D01*
X107661000Y-55164000D02*
X107850962Y-55164000D01*
X110002191Y-71085443D02*
X109639557Y-71085443D01*
X109846130Y-55164000D02*
X111589000Y-55164000D01*
X108690962Y-54976650D02*
X108690962Y-55164000D01*
X104425000Y-65579112D02*
X104425000Y-58400000D01*
X110214000Y-71297252D02*
X110002191Y-71085443D01*
X110214000Y-71913999D02*
X110214000Y-71297252D01*
X109478338Y-55164000D02*
X109650962Y-55164000D01*
X109650962Y-55164000D02*
X109846130Y-55164000D01*
X109399861Y-70553973D02*
X104425000Y-65579112D01*
X108878338Y-55538752D02*
X109103586Y-55538752D01*
X110600000Y-72299999D02*
X110214000Y-71913999D01*
X111975000Y-55550000D02*
X112225000Y-55550000D01*
X111589000Y-55164000D02*
X111975000Y-55550000D01*
X108225662Y-54789300D02*
X108503612Y-54789300D01*
X109639557Y-71085443D02*
X109399861Y-70845747D01*
X108503612Y-54789300D02*
G75*
G02*
X108691000Y-54976650I-12J-187400D01*
G01*
X108690962Y-55351376D02*
G75*
G03*
X108878338Y-55538738I187338J-24D01*
G01*
X108038312Y-54976650D02*
G75*
G02*
X108225662Y-54789312I187388J-50D01*
G01*
X109103586Y-55538752D02*
G75*
G03*
X109290952Y-55351376I14J187352D01*
G01*
X109290962Y-55351376D02*
G75*
G02*
X109478338Y-55164062I187338J-24D01*
G01*
X107850962Y-55164000D02*
G75*
G03*
X108038400Y-54976650I38J187400D01*
G01*
%TO.N,FIFO_DQ23*%
X108325000Y-62249019D02*
X108325000Y-62343019D01*
X110239000Y-59386000D02*
X110489000Y-59136000D01*
X108325000Y-64881019D02*
X108137000Y-64881019D01*
X108325000Y-63941019D02*
X108170352Y-63941019D01*
X108015705Y-64095666D02*
X108015705Y-64256372D01*
X112200000Y-70000000D02*
X112200000Y-70699999D01*
X108325000Y-61309019D02*
X108325000Y-61403019D01*
X110239000Y-59681887D02*
X110239000Y-59386000D01*
X111011000Y-58909887D02*
X111011000Y-58614000D01*
X109293052Y-63659019D02*
X109293052Y-63753019D01*
X107544948Y-65351019D02*
X108137000Y-65351019D01*
X109105052Y-63001019D02*
X108513000Y-63001019D01*
X108137000Y-64881019D02*
X107544948Y-64881019D01*
X109984887Y-59936000D02*
X108689000Y-59936000D01*
X108513000Y-61591019D02*
X109105052Y-61591019D01*
X108325000Y-65633019D02*
X108325000Y-65850000D01*
X108325000Y-66125000D02*
X112200000Y-70000000D01*
X110239000Y-59681887D02*
X109984887Y-59936000D01*
X107356948Y-65069019D02*
X107356948Y-65163019D01*
X109105052Y-63941019D02*
X108513000Y-63941019D01*
X109105052Y-62061019D02*
X108513000Y-62061019D01*
X109293052Y-61779019D02*
X109293052Y-61873019D01*
X109105065Y-64881019D02*
X108325000Y-64881019D01*
X108325000Y-60300000D02*
X108325000Y-60463019D01*
X108689000Y-59936000D02*
X108325000Y-60300000D01*
X108325000Y-63189019D02*
X108325000Y-63283019D01*
X111011000Y-58614000D02*
X111425000Y-58200000D01*
X108325000Y-64411019D02*
X109105065Y-64411019D01*
X108513000Y-63471019D02*
X109105052Y-63471019D01*
X109293065Y-64599019D02*
X109293065Y-64693019D01*
X109293052Y-62719019D02*
X109293052Y-62813019D01*
X110784887Y-59136000D02*
X111011000Y-58909887D01*
X108170352Y-64411019D02*
X108325000Y-64411019D01*
X111425000Y-58200000D02*
X111425000Y-57950000D01*
X108513000Y-60651019D02*
X109105065Y-60651019D01*
X108513000Y-63941019D02*
X108325000Y-63941019D01*
X109293065Y-60839019D02*
X109293065Y-60933019D01*
X109105065Y-61121019D02*
X108513000Y-61121019D01*
X108513000Y-62531019D02*
X109105052Y-62531019D01*
X110489000Y-59136000D02*
X110784887Y-59136000D01*
X108325000Y-65850000D02*
X108325000Y-66125000D01*
X108325000Y-65539019D02*
X108325000Y-65633019D01*
X109105065Y-60651019D02*
G75*
G02*
X109293081Y-60839019I35J-187981D01*
G01*
X109105052Y-61591019D02*
G75*
G02*
X109293081Y-61779019I48J-187981D01*
G01*
X108015705Y-64256372D02*
G75*
G03*
X108170352Y-64411095I154695J-28D01*
G01*
X107356948Y-65163019D02*
G75*
G03*
X107544948Y-65350952I187952J19D01*
G01*
X108170352Y-63941019D02*
G75*
G03*
X108015719Y-64095666I48J-154681D01*
G01*
X109105052Y-62531019D02*
G75*
G02*
X109293081Y-62719019I48J-187981D01*
G01*
X109293052Y-62813019D02*
G75*
G02*
X109105052Y-63000952I-187952J19D01*
G01*
X109293052Y-63753019D02*
G75*
G02*
X109105052Y-63940952I-187952J19D01*
G01*
X108325000Y-63283019D02*
G75*
G03*
X108513000Y-63471000I188000J19D01*
G01*
X108325000Y-61403019D02*
G75*
G03*
X108513000Y-61591000I188000J19D01*
G01*
X109105052Y-63471019D02*
G75*
G02*
X109293081Y-63659019I48J-187981D01*
G01*
X108513000Y-61121019D02*
G75*
G03*
X108325019Y-61309019I0J-187981D01*
G01*
X108137000Y-65351019D02*
G75*
G02*
X108324981Y-65539019I0J-187981D01*
G01*
X108325000Y-60463019D02*
G75*
G03*
X108513000Y-60651000I188000J19D01*
G01*
X108513000Y-62061019D02*
G75*
G03*
X108325019Y-62249019I0J-187981D01*
G01*
X109105065Y-64411019D02*
G75*
G02*
X109293081Y-64599019I35J-187981D01*
G01*
X108325000Y-62343019D02*
G75*
G03*
X108513000Y-62531000I188000J19D01*
G01*
X108513000Y-63001019D02*
G75*
G03*
X108325019Y-63189019I0J-187981D01*
G01*
X107544948Y-64881019D02*
G75*
G03*
X107356919Y-65069019I-48J-187981D01*
G01*
X109293065Y-60933019D02*
G75*
G02*
X109105065Y-61120965I-187965J19D01*
G01*
X109293052Y-61873019D02*
G75*
G02*
X109105052Y-62060952I-187952J19D01*
G01*
X109293065Y-64693019D02*
G75*
G02*
X109105065Y-64880965I-187965J19D01*
G01*
D18*
%TO.N,JTAG.TDO*%
X99050000Y-48100000D02*
X99825000Y-48875000D01*
X126650000Y-53925000D02*
X126650000Y-76345000D01*
X100310000Y-44452832D02*
X99050000Y-45712832D01*
X118200000Y-45475000D02*
X126650000Y-53925000D01*
X99825000Y-48875000D02*
X107030000Y-48875000D01*
X123891002Y-79103998D02*
X117085222Y-79103998D01*
X107030000Y-48875000D02*
X108435000Y-47470000D01*
X99050000Y-45712832D02*
X99050000Y-48100000D01*
X126650000Y-76345000D02*
X123891002Y-79103998D01*
X108435000Y-47470000D02*
X108435000Y-46565000D01*
X116689221Y-79499998D02*
X115399999Y-79499998D01*
X108435000Y-46565000D02*
X109525000Y-45475000D01*
X117085222Y-79103998D02*
X116689221Y-79499998D01*
X109525000Y-45475000D02*
X118200000Y-45475000D01*
D17*
%TO.N,FIFO_DQ9*%
X119825000Y-66807788D02*
X119825000Y-67083656D01*
X117310340Y-67485395D02*
X117375394Y-67420342D01*
X116611000Y-59850000D02*
X116711000Y-59950000D01*
X117635610Y-67420341D02*
X117965028Y-67749759D01*
X119395154Y-66471788D02*
X119601000Y-66471788D01*
X119395157Y-65351788D02*
X119825000Y-65351788D01*
X119825000Y-62551788D02*
X119395157Y-62551788D01*
X120027148Y-62092862D02*
X120027148Y-62450714D01*
X119625000Y-67300000D02*
X119825000Y-67100000D01*
X119825000Y-64791788D02*
X119395157Y-64791788D01*
X116611000Y-71111000D02*
X116611000Y-69364000D01*
X117411000Y-60190113D02*
X117411000Y-60636000D01*
X117639756Y-68335245D02*
X117639756Y-68335244D01*
X119825000Y-63111788D02*
X119926084Y-63111788D01*
X119926084Y-63671788D02*
X119825000Y-63671788D01*
X117411000Y-60636000D02*
X117575000Y-60800000D01*
X116611000Y-69364000D02*
X116989216Y-68985784D01*
X116711000Y-59950000D02*
X117170887Y-59950000D01*
X119601000Y-61431788D02*
X119395157Y-61431788D01*
X118290296Y-67684705D02*
X118650920Y-67324079D01*
X119825000Y-65351788D02*
X119926084Y-65351788D01*
X117170887Y-59950000D02*
X117411000Y-60190113D01*
X119395157Y-63111788D02*
X119825000Y-63111788D01*
X119825000Y-66695788D02*
X119825000Y-66807788D01*
X118225244Y-67749759D02*
X118290296Y-67684705D01*
X119825000Y-67100000D02*
X119825000Y-67083656D01*
X119601000Y-61991788D02*
X119825000Y-61991788D01*
X117639757Y-68075028D02*
X117310340Y-67745611D01*
X119825000Y-64231788D02*
X119926084Y-64231788D01*
X119825000Y-63671788D02*
X119395157Y-63671788D01*
X118650920Y-67324079D02*
X118675000Y-67300000D01*
X120027167Y-64332871D02*
X120027167Y-64690705D01*
X119171157Y-61655788D02*
X119171157Y-61767788D01*
X116989217Y-68725568D02*
X116659786Y-68396137D01*
X119171154Y-66135788D02*
X119171154Y-66247788D01*
X119171157Y-62775788D02*
X119171157Y-62887788D01*
X119171157Y-63895788D02*
X119171157Y-64007788D01*
X117574703Y-68400300D02*
X117639756Y-68335245D01*
X119525000Y-60800000D02*
X119825000Y-61100000D01*
X119601000Y-65911788D02*
X119395154Y-65911788D01*
X119926084Y-65911788D02*
X119825000Y-65911788D01*
X116659785Y-68135923D02*
X116724841Y-68070868D01*
X119926084Y-64791788D02*
X119825000Y-64791788D01*
X119825000Y-61100000D02*
X119825000Y-61207788D01*
X119395157Y-64231788D02*
X119825000Y-64231788D01*
X118994665Y-67300000D02*
X119625000Y-67300000D01*
X117575000Y-60800000D02*
X119525000Y-60800000D01*
X116225000Y-58750000D02*
X116611000Y-59136000D01*
X116999999Y-71499999D02*
X116611000Y-71111000D01*
X118675000Y-67300000D02*
X118994665Y-67300000D01*
X120027167Y-65452871D02*
X120027167Y-65810705D01*
X119171157Y-65015788D02*
X119171157Y-65127788D01*
X119825000Y-61991788D02*
X119926074Y-61991788D01*
X116985055Y-68070869D02*
X117314487Y-68400301D01*
X119395157Y-61991788D02*
X119601000Y-61991788D01*
X119926074Y-62551788D02*
X119825000Y-62551788D01*
X119825000Y-65911788D02*
X119601000Y-65911788D01*
X120027167Y-63212871D02*
X120027167Y-63570705D01*
X116611000Y-59136000D02*
X116611000Y-59850000D01*
X119171157Y-62887788D02*
G75*
G03*
X119395157Y-63111843I224043J-12D01*
G01*
X116989216Y-68985784D02*
G75*
G03*
X116989193Y-68725593I-130116J130084D01*
G01*
X116724841Y-68070868D02*
G75*
G02*
X116985008Y-68070916I130059J-130132D01*
G01*
X119395157Y-64791788D02*
G75*
G03*
X119171188Y-65015788I43J-224012D01*
G01*
X119601000Y-66471788D02*
G75*
G02*
X119825012Y-66695788I0J-224012D01*
G01*
X120027167Y-63570705D02*
G75*
G02*
X119926084Y-63671767I-101067J5D01*
G01*
X119171154Y-66247788D02*
G75*
G03*
X119395154Y-66471846I224046J-12D01*
G01*
X119395157Y-62551788D02*
G75*
G03*
X119171188Y-62775788I43J-224012D01*
G01*
X119926084Y-65351788D02*
G75*
G02*
X120027212Y-65452871I16J-101112D01*
G01*
X117310340Y-67745611D02*
G75*
G02*
X117310337Y-67485392I130060J130111D01*
G01*
X119395157Y-63671788D02*
G75*
G03*
X119171188Y-63895788I43J-224012D01*
G01*
X119926084Y-64231788D02*
G75*
G02*
X120027212Y-64332871I16J-101112D01*
G01*
X120027167Y-64690705D02*
G75*
G02*
X119926084Y-64791767I-101067J5D01*
G01*
X116659786Y-68396137D02*
G75*
G02*
X116659755Y-68135894I130114J130137D01*
G01*
X117375394Y-67420342D02*
G75*
G02*
X117635608Y-67420344I130106J-130158D01*
G01*
X117965028Y-67749759D02*
G75*
G03*
X118225244Y-67749759I130108J130110D01*
G01*
X119395157Y-61431788D02*
G75*
G03*
X119171188Y-61655788I43J-224012D01*
G01*
X120027148Y-62450714D02*
G75*
G02*
X119926074Y-62551748I-101048J14D01*
G01*
X119926084Y-63111788D02*
G75*
G02*
X120027212Y-63212871I16J-101112D01*
G01*
X117639756Y-68335244D02*
G75*
G03*
X117639793Y-68074993I-130156J130144D01*
G01*
X117314487Y-68400301D02*
G75*
G03*
X117574709Y-68400306I130113J130101D01*
G01*
X119825000Y-61207788D02*
G75*
G02*
X119601000Y-61431800I-224000J-12D01*
G01*
X119171157Y-65127788D02*
G75*
G03*
X119395157Y-65351843I224043J-12D01*
G01*
X119171157Y-61767788D02*
G75*
G03*
X119395157Y-61991843I224043J-12D01*
G01*
X119171157Y-64007788D02*
G75*
G03*
X119395157Y-64231843I224043J-12D01*
G01*
X120027167Y-65810705D02*
G75*
G02*
X119926084Y-65911767I-101067J5D01*
G01*
X119926074Y-61991788D02*
G75*
G02*
X120027212Y-62092862I26J-101112D01*
G01*
X119395154Y-65911788D02*
G75*
G03*
X119171188Y-66135788I46J-224012D01*
G01*
%TO.N,FIFO_DQ28*%
X110188999Y-70888999D02*
X110385443Y-71085443D01*
X112639000Y-55964000D02*
X109010451Y-55964000D01*
X110385443Y-71085443D02*
X110785443Y-71085443D01*
X111014000Y-71314000D02*
X111014000Y-71659886D01*
X113025000Y-56350000D02*
X112639000Y-55964000D01*
X108366451Y-56355896D02*
X108366451Y-56148000D01*
X104775000Y-58575000D02*
X104775000Y-65129112D01*
X107386000Y-55964000D02*
X104775000Y-58575000D01*
X110188999Y-70543111D02*
X110188999Y-70888999D01*
X107550000Y-55964000D02*
X107386000Y-55964000D01*
X108642451Y-56539896D02*
X108550451Y-56539896D01*
X111400000Y-72045886D02*
X111400000Y-72299999D01*
X104775000Y-65129112D02*
X110188999Y-70543111D01*
X110785443Y-71085443D02*
X111014000Y-71314000D01*
X108090451Y-55964000D02*
X107550000Y-55964000D01*
X108826451Y-56148000D02*
X108826451Y-56355896D01*
X111014000Y-71659886D02*
X111400000Y-72045886D01*
X108182451Y-55964000D02*
X108090451Y-55964000D01*
X109010451Y-55964000D02*
G75*
G03*
X108826400Y-56148000I-51J-184000D01*
G01*
X108366451Y-56148000D02*
G75*
G03*
X108182451Y-55964049I-183951J0D01*
G01*
X108826451Y-56355896D02*
G75*
G02*
X108642451Y-56539851I-183951J-4D01*
G01*
X108550451Y-56539896D02*
G75*
G02*
X108366404Y-56355896I-51J183996D01*
G01*
%TO.N,unconnected-(U1B-PL65D-PadN5)*%
X111400000Y-80299998D02*
X111400000Y-80300000D01*
D18*
%TO.N,JTAG.TCK*%
X129359000Y-78186000D02*
X129359000Y-53034000D01*
X106850000Y-42825000D02*
X102625000Y-42825000D01*
X117914968Y-82025000D02*
X118725000Y-82025000D01*
X118725000Y-82014968D02*
X119243970Y-81495998D01*
X108300000Y-44275000D02*
X106850000Y-42825000D01*
X117403999Y-82941999D02*
X117403999Y-82535969D01*
X120600000Y-44275000D02*
X108300000Y-44275000D01*
X102625000Y-42825000D02*
X101575000Y-43875000D01*
X119243970Y-81495998D02*
X120550000Y-81495998D01*
X117403999Y-82535969D02*
X117914968Y-82025000D01*
X118725000Y-82025000D02*
X118725000Y-82014968D01*
X129359000Y-53034000D02*
X120600000Y-44275000D01*
X115795999Y-83095998D02*
X117250000Y-83095998D01*
X101575000Y-45717832D02*
X102850000Y-46992832D01*
X120886999Y-81158999D02*
X126386001Y-81158999D01*
X117250000Y-83095998D02*
X117403999Y-82941999D01*
X101575000Y-43875000D02*
X101575000Y-45717832D01*
X120550000Y-81495998D02*
X120886999Y-81158999D01*
X115399999Y-82699998D02*
X115795999Y-83095998D01*
X126386001Y-81158999D02*
X129359000Y-78186000D01*
D17*
%TO.N,BYTE_LANE_1_4*%
X99999239Y-77559020D02*
X99999239Y-77910000D01*
X100599239Y-78150000D02*
X100599239Y-77910000D01*
X101799239Y-78327014D02*
X101799239Y-78150000D01*
X99639239Y-78150000D02*
X99050000Y-78150000D01*
X101199239Y-78150000D02*
X101199239Y-78327014D01*
X101799239Y-78150000D02*
X101799239Y-77659000D01*
X102399239Y-78150000D02*
X102399239Y-78327014D01*
X105864001Y-77485999D02*
X105200000Y-78150000D01*
X98800000Y-77900000D02*
X98800000Y-74854113D01*
X99050000Y-78150000D02*
X98925000Y-78025000D01*
X102849977Y-77851475D02*
X102548501Y-77851475D01*
X100599239Y-78327014D02*
X100599239Y-78150000D01*
X103505149Y-78484090D02*
X103166284Y-78484090D01*
X109800000Y-77899998D02*
X109386001Y-77485999D01*
X105200000Y-78150000D02*
X105039239Y-78150000D01*
X102399239Y-78000737D02*
X102399239Y-78150000D01*
X102999239Y-78150000D02*
X102999239Y-78000737D01*
X99054113Y-74600000D02*
X99600000Y-74600000D01*
X99759239Y-78150000D02*
X99639239Y-78150000D01*
X98800000Y-74854113D02*
X99054113Y-74600000D01*
X101022226Y-78504027D02*
X100776252Y-78504027D01*
X104132651Y-78150000D02*
X103839239Y-78150000D01*
X104732651Y-78456588D02*
X104439239Y-78456588D01*
X102222226Y-78504027D02*
X101976252Y-78504027D01*
X100599239Y-77910000D02*
X100599239Y-77559020D01*
X100359239Y-77319020D02*
X100239239Y-77319020D01*
X109386001Y-77485999D02*
X105864001Y-77485999D01*
X102999239Y-78317045D02*
X102999239Y-78150000D01*
X99600000Y-74600000D02*
X100000000Y-74200000D01*
X98925000Y-78025000D02*
X98800000Y-77900000D01*
X101559239Y-77419000D02*
X101439239Y-77419000D01*
X101199239Y-77659000D02*
X101199239Y-78150000D01*
X100776252Y-78504027D02*
G75*
G02*
X100599273Y-78327014I48J177027D01*
G01*
X104885945Y-78303294D02*
G75*
G02*
X104732651Y-78456545I-153245J-6D01*
G01*
X103672194Y-78317045D02*
G75*
G02*
X103505149Y-78483994I-166994J45D01*
G01*
X104439239Y-78456588D02*
G75*
G02*
X104285912Y-78303294I-39J153288D01*
G01*
X101439239Y-77419000D02*
G75*
G03*
X101199200Y-77659000I-39J-240000D01*
G01*
X101199239Y-78327014D02*
G75*
G02*
X101022226Y-78504039I-177039J14D01*
G01*
X101799239Y-77659000D02*
G75*
G03*
X101559239Y-77418961I-240039J0D01*
G01*
X105039239Y-78150000D02*
G75*
G03*
X104885900Y-78303294I-39J-153300D01*
G01*
X100599239Y-77559020D02*
G75*
G03*
X100359239Y-77318961I-240039J20D01*
G01*
X100239239Y-77319020D02*
G75*
G03*
X99999220Y-77559020I-39J-239980D01*
G01*
X102399239Y-78327014D02*
G75*
G02*
X102222226Y-78504039I-177039J14D01*
G01*
X101976252Y-78504027D02*
G75*
G02*
X101799273Y-78327014I48J177027D01*
G01*
X103166284Y-78484090D02*
G75*
G02*
X102999210Y-78317045I16J167090D01*
G01*
X99999239Y-77910000D02*
G75*
G02*
X99759239Y-78150039I-240039J0D01*
G01*
X104285945Y-78303294D02*
G75*
G03*
X104132651Y-78150055I-153245J-6D01*
G01*
X102548501Y-77851475D02*
G75*
G03*
X102399275Y-78000737I-1J-149225D01*
G01*
X102999239Y-78000737D02*
G75*
G03*
X102849977Y-77851461I-149239J37D01*
G01*
X103839239Y-78150000D02*
G75*
G03*
X103672200Y-78317045I-39J-167000D01*
G01*
%TO.N,BYTE_LANE_1_6*%
X104960000Y-76859999D02*
X104960000Y-77099999D01*
X101000000Y-77099999D02*
X100750001Y-77099999D01*
X103160000Y-77099999D02*
X103160000Y-76859999D01*
X100400000Y-75600000D02*
X100186000Y-75386000D01*
X100400000Y-76750000D02*
X100400000Y-76641814D01*
X104960000Y-77099999D02*
X104960000Y-77537177D01*
X104720000Y-77777177D02*
X104600000Y-77777177D01*
X108200000Y-77099999D02*
X105800000Y-77099999D01*
X103160000Y-77537177D02*
X103160000Y-77099999D01*
X100400000Y-76641814D02*
X100400000Y-75600000D01*
X102920000Y-75372835D02*
X102800000Y-75372835D01*
X103760000Y-76976829D02*
X103760000Y-77099999D01*
X100750001Y-77099999D02*
X100750000Y-77100000D01*
X100750000Y-77100000D02*
X100400000Y-76750000D01*
X99586000Y-75386000D02*
X99200000Y-75000000D01*
X101120000Y-77099999D02*
X101000000Y-77099999D01*
X104960000Y-76662821D02*
X104960000Y-76859999D01*
X104360000Y-77099999D02*
X104360000Y-76976829D01*
X103760000Y-77099999D02*
X103760000Y-77537177D01*
X103520000Y-77777177D02*
X103400000Y-77777177D01*
X104236831Y-76853660D02*
X103883169Y-76853660D01*
X101360000Y-75312843D02*
X101360000Y-76859999D01*
X103160000Y-76859999D02*
X103160000Y-75612835D01*
X101720000Y-75072843D02*
X101600000Y-75072843D01*
X102560000Y-75612835D02*
X102560000Y-76859999D01*
X100186000Y-75386000D02*
X99586000Y-75386000D01*
X105560000Y-76859999D02*
X105560000Y-76662821D01*
X101960000Y-76859999D02*
X101960000Y-75312843D01*
X104360000Y-77537177D02*
X104360000Y-77099999D01*
X105320000Y-76422821D02*
X105200000Y-76422821D01*
X102320000Y-77099999D02*
X102200000Y-77099999D01*
X105560000Y-76662821D02*
G75*
G03*
X105320000Y-76422800I-240000J21D01*
G01*
X102200000Y-77099999D02*
G75*
G02*
X101960001Y-76859999I0J239999D01*
G01*
X103400000Y-77777177D02*
G75*
G02*
X103160023Y-77537177I0J239977D01*
G01*
X104960000Y-77537177D02*
G75*
G02*
X104720000Y-77777200I-240000J-23D01*
G01*
X104600000Y-77777177D02*
G75*
G02*
X104360023Y-77537177I0J239977D01*
G01*
X102560000Y-76859999D02*
G75*
G02*
X102320000Y-77100000I-240000J-1D01*
G01*
X101960000Y-75312843D02*
G75*
G03*
X101720000Y-75072800I-240000J43D01*
G01*
X103883169Y-76853660D02*
G75*
G03*
X103760060Y-76976829I31J-123140D01*
G01*
X102800000Y-75372835D02*
G75*
G03*
X102560035Y-75612835I0J-239965D01*
G01*
X104360000Y-76976829D02*
G75*
G03*
X104236831Y-76853600I-123200J29D01*
G01*
X105200000Y-76422821D02*
G75*
G03*
X104960021Y-76662821I0J-239979D01*
G01*
X101600000Y-75072843D02*
G75*
G03*
X101360043Y-75312843I0J-239957D01*
G01*
X105800000Y-77099999D02*
G75*
G02*
X105560001Y-76859999I0J239999D01*
G01*
X103760000Y-77537177D02*
G75*
G02*
X103520000Y-77777200I-240000J-23D01*
G01*
X101360000Y-76859999D02*
G75*
G02*
X101120000Y-77100000I-240000J-1D01*
G01*
X103160000Y-75612835D02*
G75*
G03*
X102920000Y-75372800I-240000J35D01*
G01*
%TO.N,BYTE_LANE_1_5*%
X109663999Y-73513999D02*
X109959887Y-73513999D01*
X109959887Y-73513999D02*
X110200000Y-73754112D01*
X108040113Y-71885999D02*
X108331887Y-71885999D01*
X105308949Y-69152654D02*
X105308949Y-69560000D01*
X110200000Y-73754112D02*
X110200000Y-74845886D01*
X102548949Y-68912653D02*
X102668949Y-68912653D01*
X100400000Y-69800000D02*
X100868949Y-69800000D01*
X109386000Y-72940112D02*
X109386000Y-73236000D01*
X100000000Y-70200000D02*
X100400000Y-69800000D01*
X109386000Y-73236000D02*
X109663999Y-73513999D01*
X110200000Y-74845886D02*
X110440113Y-75085999D01*
X105668949Y-69800000D02*
X105954114Y-69800000D01*
X105954114Y-69800000D02*
X106435037Y-70280923D01*
X110986000Y-75340112D02*
X110986000Y-75913999D01*
X101348949Y-68912654D02*
X101468949Y-68912654D01*
X103508949Y-69560000D02*
X103508949Y-69152651D01*
X110986000Y-75913999D02*
X110600000Y-76299999D01*
X103148949Y-69800000D02*
X103268949Y-69800000D01*
X103748949Y-68912651D02*
X103868949Y-68912651D01*
X102308949Y-69560000D02*
X102308949Y-69152653D01*
X108586000Y-72140112D02*
X108586000Y-72459886D01*
X102908949Y-69152653D02*
X102908949Y-69560000D01*
X105548949Y-69800000D02*
X105668949Y-69800000D01*
X104948949Y-68912654D02*
X105068949Y-68912654D01*
X108586000Y-72459886D02*
X108812113Y-72685999D01*
X101108949Y-69560000D02*
X101108949Y-69152654D01*
X108331887Y-71885999D02*
X108586000Y-72140112D01*
X101708949Y-69152654D02*
X101708949Y-69560000D01*
X106435037Y-70280923D02*
X108040113Y-71885999D01*
X109131887Y-72685999D02*
X109386000Y-72940112D01*
X110600000Y-76299999D02*
X110600000Y-76257126D01*
X110440113Y-75085999D02*
X110731887Y-75085999D01*
X104708949Y-69560000D02*
X104708949Y-69152654D01*
X104108949Y-69152651D02*
X104108949Y-69560000D01*
X104348949Y-69800000D02*
X104468949Y-69800000D01*
X108812113Y-72685999D02*
X109131887Y-72685999D01*
X101948949Y-69800000D02*
X102068949Y-69800000D01*
X110731887Y-75085999D02*
X110986000Y-75340112D01*
X102908949Y-69560000D02*
G75*
G03*
X103148949Y-69799951I239951J0D01*
G01*
X103868949Y-68912651D02*
G75*
G02*
X104108949Y-69152651I51J-239949D01*
G01*
X103508949Y-69152651D02*
G75*
G02*
X103748949Y-68912649I239951J51D01*
G01*
X102068949Y-69800000D02*
G75*
G03*
X102309000Y-69560000I51J240000D01*
G01*
X101468949Y-68912654D02*
G75*
G02*
X101709046Y-69152654I51J-240046D01*
G01*
X105068949Y-68912654D02*
G75*
G02*
X105309046Y-69152654I51J-240046D01*
G01*
X105308949Y-69560000D02*
G75*
G03*
X105548949Y-69799951I239951J0D01*
G01*
X104708949Y-69152654D02*
G75*
G02*
X104948949Y-68912749I239951J-46D01*
G01*
X101708949Y-69560000D02*
G75*
G03*
X101948949Y-69799951I239951J0D01*
G01*
X103268949Y-69800000D02*
G75*
G03*
X103509000Y-69560000I51J240000D01*
G01*
X102308949Y-69152653D02*
G75*
G02*
X102548949Y-68912749I239951J-47D01*
G01*
X100868949Y-69800000D02*
G75*
G03*
X101109000Y-69560000I51J240000D01*
G01*
X104108949Y-69560000D02*
G75*
G03*
X104348949Y-69799951I239951J0D01*
G01*
X102668949Y-68912653D02*
G75*
G02*
X102909047Y-69152653I51J-240047D01*
G01*
X101108949Y-69152654D02*
G75*
G02*
X101348949Y-68912749I239951J-46D01*
G01*
X104468949Y-69800000D02*
G75*
G03*
X104709000Y-69560000I51J240000D01*
G01*
%TO.N,BYTE_LANE_1_3*%
X102789849Y-68350000D02*
X103028882Y-68350000D01*
X101518882Y-68550000D02*
X101968882Y-68550000D01*
X108359887Y-71113999D02*
X108586000Y-71340112D01*
X99704113Y-68350000D02*
X101318882Y-68350000D01*
X111531887Y-75085999D02*
X111786000Y-75340112D01*
X108586000Y-71631886D02*
X108840113Y-71885999D01*
X110759887Y-73513999D02*
X110986000Y-73740112D01*
X108840113Y-71885999D02*
X109135999Y-71885999D01*
X98800000Y-69800000D02*
X98800000Y-69254113D01*
X109400000Y-72150000D02*
X109400000Y-72445886D01*
X108586000Y-71340112D02*
X108586000Y-71631886D01*
X110186000Y-72936000D02*
X110186000Y-73259886D01*
X111786000Y-76713999D02*
X111400000Y-77099999D01*
X110986000Y-74831886D02*
X111240113Y-75085999D01*
X98400000Y-70200000D02*
X98800000Y-69800000D01*
X111786000Y-75340112D02*
X111786000Y-76713999D01*
X110440113Y-73513999D02*
X110759887Y-73513999D01*
X103028882Y-68350000D02*
X104750355Y-68350000D01*
X107863999Y-71113999D02*
X108359887Y-71113999D01*
X102068882Y-68450000D02*
X102068882Y-68350000D01*
X111240113Y-75085999D02*
X111531887Y-75085999D01*
X102068882Y-68350000D02*
X102068882Y-68229033D01*
X109640113Y-72685999D02*
X109935999Y-72685999D01*
X109400000Y-72445886D02*
X109640113Y-72685999D01*
X102189849Y-68108066D02*
X102547915Y-68108066D01*
X105100000Y-68350000D02*
X107863999Y-71113999D01*
X109135999Y-71885999D02*
X109400000Y-72150000D01*
X104750355Y-68350000D02*
X105100000Y-68350000D01*
X109935999Y-72685999D02*
X110186000Y-72936000D01*
X110186000Y-73259886D02*
X110440113Y-73513999D01*
X110986000Y-73740112D02*
X110986000Y-74831886D01*
X98800000Y-69254113D02*
X99704113Y-68350000D01*
X101318882Y-68350000D02*
G75*
G02*
X101418900Y-68450000I18J-100000D01*
G01*
X101968882Y-68550000D02*
G75*
G03*
X102068900Y-68450000I18J100000D01*
G01*
X101418882Y-68450000D02*
G75*
G03*
X101518882Y-68550018I100018J0D01*
G01*
X102668882Y-68229033D02*
G75*
G03*
X102789849Y-68349918I120918J33D01*
G01*
X102547915Y-68108066D02*
G75*
G02*
X102668834Y-68229033I-15J-120934D01*
G01*
X102068882Y-68229033D02*
G75*
G02*
X102189849Y-68108082I120918J33D01*
G01*
%TO.N,BYTE_LANE_1_7*%
X104656114Y-70760000D02*
X104656114Y-71240000D01*
X107700000Y-72700000D02*
X108345888Y-72700000D01*
X108586000Y-73356860D02*
X108743139Y-73513999D01*
X102256114Y-70360061D02*
X102256114Y-70760000D01*
X101656114Y-70760000D02*
X101656114Y-70360061D01*
X105616114Y-71000000D02*
X106000000Y-71000000D01*
X106200000Y-71200000D02*
X107700000Y-72700000D01*
X105256114Y-71289918D02*
X105256114Y-71240000D01*
X104656114Y-71240000D02*
X104656114Y-71289918D01*
X109959887Y-75113999D02*
X110186000Y-75340112D01*
X104656114Y-70360061D02*
X104656114Y-70760000D01*
X106000000Y-71000000D02*
X106200000Y-71200000D01*
X105496114Y-71000000D02*
X105616114Y-71000000D01*
X101056114Y-70360061D02*
X101056114Y-70760000D01*
X104296114Y-70120061D02*
X104416114Y-70120061D01*
X108743139Y-73513999D02*
X109159887Y-73513999D01*
X109386000Y-74859886D02*
X109640113Y-75113999D01*
X108586000Y-72940112D02*
X108586000Y-73356860D01*
X104056114Y-70760000D02*
X104056114Y-70360061D01*
X100000000Y-71000000D02*
X100216114Y-71000000D01*
X110186000Y-76685999D02*
X110600000Y-77099999D01*
X103696114Y-71000000D02*
X103816114Y-71000000D01*
X102496114Y-71000000D02*
X102616114Y-71000000D01*
X110186000Y-75340112D02*
X110186000Y-76685999D01*
X103096114Y-70120061D02*
X103216114Y-70120061D01*
X108345888Y-72700000D02*
X108586000Y-72940112D01*
X109386000Y-73740112D02*
X109386000Y-74859886D01*
X100456114Y-70760000D02*
X100456114Y-70360061D01*
X101296114Y-71000000D02*
X101416114Y-71000000D01*
X102856114Y-70760000D02*
X102856114Y-70360061D01*
X101896114Y-70120061D02*
X102016114Y-70120061D01*
X109640113Y-75113999D02*
X109959887Y-75113999D01*
X103456114Y-70360061D02*
X103456114Y-70760000D01*
X100696114Y-70120061D02*
X100816114Y-70120061D01*
X109159887Y-73513999D02*
X109386000Y-73740112D01*
X104896114Y-71529918D02*
X105016114Y-71529918D01*
X102016114Y-70120061D02*
G75*
G02*
X102256139Y-70360061I-14J-240039D01*
G01*
X103816114Y-71000000D02*
G75*
G03*
X104056100Y-70760000I-14J240000D01*
G01*
X101656114Y-70360061D02*
G75*
G02*
X101896114Y-70120114I239986J-39D01*
G01*
X103456114Y-70760000D02*
G75*
G03*
X103696114Y-70999986I239986J0D01*
G01*
X100456114Y-70360061D02*
G75*
G02*
X100696114Y-70120114I239986J-39D01*
G01*
X100816114Y-70120061D02*
G75*
G02*
X101056139Y-70360061I-14J-240039D01*
G01*
X101416114Y-71000000D02*
G75*
G03*
X101656100Y-70760000I-14J240000D01*
G01*
X101056114Y-70760000D02*
G75*
G03*
X101296114Y-70999986I239986J0D01*
G01*
X102856114Y-70360061D02*
G75*
G02*
X103096114Y-70120114I239986J-39D01*
G01*
X104056114Y-70360061D02*
G75*
G02*
X104296114Y-70120114I239986J-39D01*
G01*
X100216114Y-71000000D02*
G75*
G03*
X100456100Y-70760000I-14J240000D01*
G01*
X102256114Y-70760000D02*
G75*
G03*
X102496114Y-70999986I239986J0D01*
G01*
X105256114Y-71240000D02*
G75*
G02*
X105496114Y-71000014I239986J0D01*
G01*
X102616114Y-71000000D02*
G75*
G03*
X102856100Y-70760000I-14J240000D01*
G01*
X104656114Y-71289918D02*
G75*
G03*
X104896114Y-71529886I239986J18D01*
G01*
X103216114Y-70120061D02*
G75*
G02*
X103456139Y-70360061I-14J-240039D01*
G01*
X105016114Y-71529918D02*
G75*
G03*
X105256118Y-71289918I-14J240018D01*
G01*
X104416114Y-70120061D02*
G75*
G02*
X104656139Y-70360061I-14J-240039D01*
G01*
%TO.N,DQS1_N*%
X105934790Y-75384790D02*
X106076213Y-75526213D01*
X101640000Y-72870421D02*
X101800000Y-72870421D01*
X106463999Y-75913999D02*
X108614000Y-75913999D01*
X104717930Y-76260966D02*
X105594105Y-75384790D01*
X99855500Y-73115500D02*
X99855500Y-73054938D01*
X100384500Y-73571000D02*
X100384500Y-73916076D01*
X102440000Y-74971562D02*
X102600000Y-74971562D01*
X101984500Y-73054921D02*
X101984500Y-73300000D01*
X100840000Y-74371576D02*
X101000000Y-74371576D01*
X100384500Y-73054938D02*
X100384500Y-73115500D01*
X99200000Y-74200000D02*
X98950000Y-73950000D01*
X98950000Y-73950000D02*
X98950000Y-73700000D01*
X100384500Y-73115500D02*
X100384500Y-73571000D01*
X103055500Y-74516062D02*
X103055500Y-73755500D01*
X104662000Y-74452685D02*
X103785824Y-75328860D01*
X103240000Y-73571000D02*
X103400000Y-73571000D01*
X106076213Y-75526213D02*
X106450102Y-75900102D01*
X101455500Y-73916076D02*
X101455500Y-73571000D01*
X99079000Y-73571000D02*
X99400000Y-73571000D01*
X104662000Y-74112000D02*
X104662000Y-74111999D01*
X100040000Y-72870438D02*
X100200000Y-72870438D01*
X108614000Y-75913999D02*
X109000000Y-76299999D01*
X98950000Y-73700000D02*
X99079000Y-73571000D01*
X106450102Y-75900102D02*
X106463999Y-75913999D01*
X101455500Y-73571000D02*
X101455500Y-73300000D01*
X101984500Y-73300000D02*
X101984500Y-73755500D01*
X103785824Y-76119545D02*
X103927245Y-76260966D01*
X103400000Y-73571000D02*
X104121000Y-73571000D01*
X104276492Y-73726492D02*
X104662000Y-74112000D01*
X101455500Y-73300000D02*
X101455500Y-73054921D01*
X104121000Y-73571000D02*
X104276492Y-73726492D01*
X101984500Y-73755500D02*
X101984500Y-74516062D01*
X101000000Y-74371576D02*
G75*
G03*
X101455476Y-73916076I0J455476D01*
G01*
X101984500Y-74516062D02*
G75*
G03*
X102440000Y-74971600I455500J-38D01*
G01*
X99400000Y-73571000D02*
G75*
G03*
X99855500Y-73115500I0J455500D01*
G01*
X104662000Y-74111999D02*
G75*
G02*
X104661958Y-74452643I-170300J-170301D01*
G01*
X103055500Y-73755500D02*
G75*
G02*
X103240000Y-73571000I184500J0D01*
G01*
X105594105Y-75384790D02*
G75*
G02*
X105934790Y-75384789I170343J-170343D01*
G01*
X102600000Y-74971562D02*
G75*
G03*
X103055462Y-74516062I0J455462D01*
G01*
X101800000Y-72870421D02*
G75*
G02*
X101984479Y-73054921I0J-184479D01*
G01*
X103927245Y-76260966D02*
G75*
G03*
X104717930Y-76260966I395342J395343D01*
G01*
X99855500Y-73054938D02*
G75*
G02*
X100040000Y-72870400I184500J38D01*
G01*
X100200000Y-72870438D02*
G75*
G02*
X100384462Y-73054938I0J-184462D01*
G01*
X101455500Y-73054921D02*
G75*
G02*
X101640000Y-72870400I184500J21D01*
G01*
X103785824Y-75328860D02*
G75*
G03*
X103785826Y-76119543I395376J-395340D01*
G01*
X100384500Y-73916076D02*
G75*
G03*
X100840000Y-74371600I455500J-24D01*
G01*
D18*
%TO.N,DRAM_VREF*%
X94400000Y-81350000D02*
X94804000Y-81754000D01*
X94804000Y-83218971D02*
X94871000Y-83285971D01*
X94871000Y-83285971D02*
X94871000Y-83654000D01*
D19*
X93653040Y-85030000D02*
X94949808Y-83733232D01*
X91645000Y-85030000D02*
X91645000Y-85725768D01*
X85007893Y-65782893D02*
X85007893Y-68675000D01*
D18*
X91600000Y-86550000D02*
X91600000Y-85770768D01*
D19*
X83899000Y-69783893D02*
X83899000Y-80303232D01*
X91645000Y-85030000D02*
X93653040Y-85030000D01*
X83899000Y-80303232D02*
X88625768Y-85030000D01*
D18*
X94804000Y-81754000D02*
X94804000Y-83218971D01*
D19*
X88625768Y-85030000D02*
X91645000Y-85030000D01*
X85550000Y-63200000D02*
X85550000Y-65240786D01*
X85550000Y-65240786D02*
X85007893Y-65782893D01*
X85007893Y-68675000D02*
X83899000Y-69783893D01*
X94949808Y-83733232D02*
X94949808Y-83654000D01*
D18*
X91200000Y-86950000D02*
X91600000Y-86550000D01*
D19*
X93675000Y-68675000D02*
X94400000Y-69400000D01*
X85007893Y-68675000D02*
X93675000Y-68675000D01*
D17*
%TO.N,BYTE_LANE_1_2*%
X96414000Y-78264000D02*
X96414000Y-74040113D01*
X108586000Y-78887885D02*
X108359887Y-79113998D01*
X108040113Y-79113998D02*
X107804111Y-79350000D01*
X97986000Y-74586000D02*
X98400000Y-75000000D01*
X108586000Y-78313998D02*
X108586000Y-78887885D01*
X96640113Y-73814000D02*
X97759887Y-73814000D01*
X97759887Y-73814000D02*
X97986000Y-74040113D01*
X97986000Y-74040113D02*
X97986000Y-74586000D01*
X109000000Y-77899998D02*
X108586000Y-78313998D01*
X97500000Y-79350000D02*
X96414000Y-78264000D01*
X96414000Y-74040113D02*
X96640113Y-73814000D01*
X107804111Y-79350000D02*
X97500000Y-79350000D01*
X108359887Y-79113998D02*
X108040113Y-79113998D01*
%TO.N,DQS1_P*%
X98400000Y-74200000D02*
X98600000Y-74000000D01*
X106831375Y-75499999D02*
X106593483Y-75499999D01*
X108200000Y-75499999D02*
X108145980Y-75554019D01*
X101640000Y-72599421D02*
X101800000Y-72599421D01*
X108200000Y-75499999D02*
X107793483Y-75499999D01*
X106301213Y-75301213D02*
X106463926Y-75463926D01*
X102255500Y-73054921D02*
X102255500Y-73300000D01*
X102784500Y-74516062D02*
X102784500Y-73755500D01*
X104501492Y-73501492D02*
X104887000Y-73887000D01*
X104300000Y-73300000D02*
X104501492Y-73501492D01*
X103240000Y-73300000D02*
X103400000Y-73300000D01*
X100840000Y-74100576D02*
X101000000Y-74100576D01*
X104010823Y-75894545D02*
X104152244Y-76035966D01*
X101184500Y-73300000D02*
X101184500Y-73054921D01*
X103400000Y-73300000D02*
X104300000Y-73300000D01*
X100655500Y-73115500D02*
X100655500Y-73571000D01*
X100040000Y-72599438D02*
X100200000Y-72599438D01*
X101184500Y-73571000D02*
X101184500Y-73300000D01*
X99584500Y-73115500D02*
X99584500Y-73054938D01*
X106593483Y-75499999D02*
X106499999Y-75499999D01*
X101184500Y-73916076D02*
X101184500Y-73571000D01*
X100655500Y-73054938D02*
X100655500Y-73115500D01*
X102255500Y-73300000D02*
X102255500Y-73755500D01*
X100655500Y-73571000D02*
X100655500Y-73916076D01*
X98850000Y-73300000D02*
X99400000Y-73300000D01*
X102440000Y-74700562D02*
X102600000Y-74700562D01*
X98600000Y-73550000D02*
X98850000Y-73300000D01*
X107431375Y-75137891D02*
X107193483Y-75137891D01*
X98600000Y-74000000D02*
X98600000Y-73550000D01*
X106159789Y-75159790D02*
X106301213Y-75301213D01*
X102255500Y-73755500D02*
X102255500Y-74516062D01*
X104886999Y-74677685D02*
X104010823Y-75553860D01*
X104887000Y-73887000D02*
X104886999Y-73887000D01*
X104492929Y-76035966D02*
X105369104Y-75159790D01*
X106499999Y-75499999D02*
X106463926Y-75463926D01*
X100655500Y-73916076D02*
G75*
G03*
X100840000Y-74100600I184500J-24D01*
G01*
X107193483Y-75137891D02*
G75*
G03*
X107012491Y-75318945I17J-181009D01*
G01*
X101184500Y-73054921D02*
G75*
G02*
X101640000Y-72599400I455500J21D01*
G01*
X99584500Y-73054938D02*
G75*
G02*
X100040000Y-72599400I455500J38D01*
G01*
X107612429Y-75318945D02*
G75*
G03*
X107431375Y-75137871I-181029J45D01*
G01*
X101800000Y-72599421D02*
G75*
G02*
X102255479Y-73054921I0J-455479D01*
G01*
X104152244Y-76035966D02*
G75*
G03*
X104492929Y-76035967I170343J170343D01*
G01*
X101000000Y-74100576D02*
G75*
G03*
X101184476Y-73916076I0J184476D01*
G01*
X107012429Y-75318945D02*
G75*
G02*
X106831375Y-75499929I-181029J45D01*
G01*
X104886999Y-73887000D02*
G75*
G02*
X104886957Y-74677642I-395299J-395300D01*
G01*
X102600000Y-74700562D02*
G75*
G03*
X102784462Y-74516062I0J184462D01*
G01*
X99400000Y-73300000D02*
G75*
G03*
X99584500Y-73115500I0J184500D01*
G01*
X104010823Y-75553860D02*
G75*
G03*
X104010825Y-75894543I170377J-170340D01*
G01*
X107793483Y-75499999D02*
G75*
G02*
X107612401Y-75318945I17J181099D01*
G01*
X100200000Y-72599438D02*
G75*
G02*
X100655462Y-73054938I0J-455462D01*
G01*
X102255500Y-74516062D02*
G75*
G03*
X102440000Y-74700600I184500J-38D01*
G01*
X102784500Y-73755500D02*
G75*
G02*
X103240000Y-73300000I455500J0D01*
G01*
X105369104Y-75159790D02*
G75*
G02*
X106159789Y-75159789I395343J-395343D01*
G01*
%TO.N,BYTE_LANE_1_1*%
X103500000Y-71564377D02*
X103500000Y-71610000D01*
X107845452Y-74285999D02*
X108335999Y-74285999D01*
X102900000Y-71610000D02*
X102900000Y-71564355D01*
X101460000Y-71324377D02*
X101340000Y-71324377D01*
X106546518Y-72082305D02*
X106631370Y-72167157D01*
X108586000Y-74859886D02*
X108840113Y-75113999D01*
X105839412Y-72450001D02*
X106207106Y-72082304D01*
X107335999Y-74285999D02*
X107845452Y-74285999D01*
X99250000Y-71850000D02*
X98400000Y-71000000D01*
X109386000Y-75340112D02*
X109386000Y-76685999D01*
X101700000Y-71610000D02*
X101700000Y-71564377D01*
X103260000Y-71850000D02*
X103140000Y-71850000D01*
X106687940Y-73298529D02*
X107055634Y-72930832D01*
X104535952Y-72214048D02*
X104282024Y-72214048D01*
X102660000Y-71324355D02*
X102540000Y-71324355D01*
X109386000Y-76685999D02*
X109800000Y-77099999D01*
X107112202Y-74062203D02*
X107197056Y-74147056D01*
X107197056Y-74147056D02*
X107335999Y-74285999D01*
X104950000Y-71900000D02*
X104900000Y-71850000D01*
X99732726Y-71850000D02*
X99540000Y-71850000D01*
X104100000Y-72032024D02*
X104100000Y-71850000D01*
X107479898Y-73355097D02*
X107112201Y-73722791D01*
X99278169Y-71850000D02*
X99250000Y-71850000D01*
X104100000Y-71850000D02*
X104100000Y-71610000D01*
X102300000Y-71564355D02*
X102300000Y-71610000D01*
X101100000Y-71564377D02*
X101100000Y-71610000D01*
X103860000Y-71324377D02*
X103740000Y-71324377D01*
X106631370Y-72506569D02*
X106263673Y-72874263D01*
X105500000Y-72450000D02*
X104950000Y-71900000D01*
X102060000Y-71850000D02*
X101940000Y-71850000D01*
X109159887Y-75113999D02*
X109386000Y-75340112D01*
X108586000Y-74536000D02*
X108586000Y-74859886D01*
X100332726Y-71442726D02*
X100140000Y-71442726D01*
X108335999Y-74285999D02*
X108586000Y-74536000D01*
X104100000Y-71610000D02*
X104100000Y-71564377D01*
X99540000Y-71850000D02*
X99278169Y-71850000D01*
X106263674Y-73213675D02*
X106348528Y-73298528D01*
X107395046Y-72930833D02*
X107479898Y-73015685D01*
X108840113Y-75113999D02*
X109159887Y-75113999D01*
X100860000Y-71850000D02*
X100740000Y-71850000D01*
X106207106Y-72082304D02*
G75*
G02*
X106546506Y-72082316I169694J-169696D01*
G01*
X101340000Y-71324377D02*
G75*
G03*
X101099977Y-71564377I0J-240023D01*
G01*
X105500000Y-72450000D02*
G75*
G03*
X105839405Y-72449995I169700J169700D01*
G01*
X104282024Y-72214048D02*
G75*
G02*
X104099952Y-72032024I-24J182048D01*
G01*
X101700000Y-71564377D02*
G75*
G03*
X101460000Y-71324400I-240000J-23D01*
G01*
X104100000Y-71564377D02*
G75*
G03*
X103860000Y-71324400I-240000J-23D01*
G01*
X101100000Y-71610000D02*
G75*
G02*
X100860000Y-71850000I-240000J0D01*
G01*
X102900000Y-71564355D02*
G75*
G03*
X102660000Y-71324400I-240000J-45D01*
G01*
X103500000Y-71610000D02*
G75*
G02*
X103260000Y-71850000I-240000J0D01*
G01*
X106631370Y-72167157D02*
G75*
G02*
X106631407Y-72506606I-169670J-169743D01*
G01*
X103740000Y-71324377D02*
G75*
G03*
X103499977Y-71564377I0J-240023D01*
G01*
X102300000Y-71610000D02*
G75*
G02*
X102060000Y-71850000I-240000J0D01*
G01*
X107055634Y-72930832D02*
G75*
G02*
X107395006Y-72930872I169666J-169668D01*
G01*
X104900000Y-71850000D02*
G75*
G03*
X104718000Y-72032024I0J-182000D01*
G01*
X100536363Y-71646363D02*
G75*
G03*
X100332726Y-71442737I-203663J-37D01*
G01*
X106263673Y-72874263D02*
G75*
G03*
X106263642Y-73213706I169727J-169737D01*
G01*
X99936363Y-71646363D02*
G75*
G02*
X99732726Y-71850063I-203663J-37D01*
G01*
X103140000Y-71850000D02*
G75*
G02*
X102900000Y-71610000I0J240000D01*
G01*
X106348528Y-73298528D02*
G75*
G03*
X106687906Y-73298495I169672J169728D01*
G01*
X100740000Y-71850000D02*
G75*
G02*
X100536400Y-71646363I0J203600D01*
G01*
X107112201Y-73722791D02*
G75*
G03*
X107112198Y-74062207I169699J-169709D01*
G01*
X102540000Y-71324355D02*
G75*
G03*
X102299955Y-71564355I0J-240045D01*
G01*
X100140000Y-71442726D02*
G75*
G03*
X99936326Y-71646363I0J-203674D01*
G01*
X101940000Y-71850000D02*
G75*
G02*
X101700000Y-71610000I0J240000D01*
G01*
X104717976Y-72032024D02*
G75*
G02*
X104535952Y-72213976I-181976J24D01*
G01*
X107479898Y-73015685D02*
G75*
G02*
X107479907Y-73355106I-169698J-169715D01*
G01*
%TO.N,BYTE_LANE_1_0*%
X97214000Y-78438420D02*
X97214000Y-78464000D01*
X97600000Y-74200000D02*
X97214000Y-74586000D01*
X97994000Y-76785454D02*
X97434000Y-76785454D01*
X97214000Y-78105454D02*
X97214000Y-78215454D01*
X96934000Y-77335454D02*
X97214000Y-77335454D01*
X107400000Y-78950000D02*
X108200000Y-78150000D01*
X97214000Y-76785454D02*
X96934000Y-76785454D01*
X108200000Y-78150000D02*
X108200000Y-77899998D01*
X97994000Y-77885454D02*
X97434000Y-77885454D01*
X98214000Y-76455454D02*
X98214000Y-76565454D01*
X107385107Y-78950000D02*
X107400000Y-78950000D01*
X97214000Y-77335454D02*
X97434000Y-77335454D01*
X106019802Y-78710000D02*
X106019802Y-78672655D01*
X106859802Y-78950000D02*
X106979802Y-78950000D01*
X97434000Y-76785454D02*
X97214000Y-76785454D01*
X97434000Y-76235454D02*
X97994000Y-76235454D01*
X96714000Y-77005454D02*
X96714000Y-77115454D01*
X106619802Y-78672655D02*
X106619802Y-78710000D01*
X97700000Y-78950000D02*
X105779802Y-78950000D01*
X97214000Y-78215454D02*
X97214000Y-78438420D01*
X106259802Y-78432655D02*
X106379802Y-78432655D01*
X106979802Y-78950000D02*
X107385107Y-78950000D01*
X97434000Y-77335454D02*
X97994000Y-77335454D01*
X98214000Y-77555454D02*
X98214000Y-77665454D01*
X97214000Y-74586000D02*
X97214000Y-76015454D01*
X97214000Y-78464000D02*
X97700000Y-78950000D01*
X97994000Y-77335454D02*
G75*
G02*
X98214046Y-77555454I0J-220046D01*
G01*
X97434000Y-77885454D02*
G75*
G03*
X97213954Y-78105454I0J-220046D01*
G01*
X96934000Y-76785454D02*
G75*
G03*
X96713954Y-77005454I0J-220046D01*
G01*
X106019802Y-78672655D02*
G75*
G02*
X106259802Y-78432702I239998J-45D01*
G01*
X106619802Y-78710000D02*
G75*
G03*
X106859802Y-78949998I239998J0D01*
G01*
X98214000Y-76565454D02*
G75*
G02*
X97994000Y-76785500I-220000J-46D01*
G01*
X105779802Y-78950000D02*
G75*
G03*
X106019800Y-78710000I-2J240000D01*
G01*
X97214000Y-76015454D02*
G75*
G03*
X97434000Y-76235500I220000J-46D01*
G01*
X106379802Y-78432655D02*
G75*
G02*
X106619845Y-78672655I-2J-240045D01*
G01*
X97994000Y-76235454D02*
G75*
G02*
X98214046Y-76455454I0J-220046D01*
G01*
X96714000Y-77115454D02*
G75*
G03*
X96934000Y-77335500I220000J-46D01*
G01*
X98214000Y-77665454D02*
G75*
G02*
X97994000Y-77885500I-220000J-46D01*
G01*
%TO.N,DM1*%
X97710000Y-72300000D02*
X97710000Y-72540000D01*
X98670000Y-73044446D02*
X98550000Y-73044446D01*
X96000000Y-71545887D02*
X96159887Y-71386000D01*
X105900000Y-73500000D02*
X105350000Y-72950000D01*
X108200000Y-74699999D02*
X108157128Y-74699999D01*
X98070000Y-71305552D02*
X97950000Y-71305552D01*
X98310000Y-72540000D02*
X98310000Y-72300000D01*
X96000000Y-72100000D02*
X96000000Y-71545887D01*
X105936004Y-73995263D02*
X105995928Y-73935340D01*
X96200000Y-72300000D02*
X96000000Y-72100000D01*
X105995928Y-73595928D02*
X105911077Y-73511077D01*
X97710000Y-72540000D02*
X97710000Y-73054457D01*
X97710000Y-71545552D02*
X97710000Y-72300000D01*
X97470000Y-73294457D02*
X97350000Y-73294457D01*
X96159887Y-71386000D02*
X97214000Y-71386000D01*
X103600000Y-72950000D02*
X102950000Y-72300000D01*
X98310000Y-72804446D02*
X98310000Y-72540000D01*
X108200000Y-74699999D02*
X107099999Y-74699999D01*
X106020857Y-74419528D02*
X105936004Y-74334675D01*
X105350000Y-72950000D02*
X103600000Y-72950000D01*
X97214000Y-71386000D02*
X97600000Y-71000000D01*
X105911077Y-73511077D02*
X105900000Y-73500000D01*
X98310000Y-72300000D02*
X98310000Y-71545552D01*
X98910000Y-72540000D02*
X98910000Y-72804446D01*
X107099999Y-74699999D02*
X106759606Y-74359606D01*
X106420194Y-74359606D02*
X106360269Y-74419528D01*
X102950000Y-72300000D02*
X99150000Y-72300000D01*
X96870000Y-72300000D02*
X96750000Y-72300000D01*
X97110000Y-73054457D02*
X97110000Y-72540000D01*
X96362034Y-72300000D02*
X96200000Y-72300000D01*
X96750000Y-72300000D02*
X96362034Y-72300000D01*
X106360269Y-74419528D02*
G75*
G02*
X106020857Y-74419528I-169706J169701D01*
G01*
X97110000Y-72540000D02*
G75*
G03*
X96870000Y-72300000I-240000J0D01*
G01*
X98910000Y-72804446D02*
G75*
G02*
X98670000Y-73044400I-240000J46D01*
G01*
X97950000Y-71305552D02*
G75*
G03*
X97709952Y-71545552I0J-240048D01*
G01*
X99150000Y-72300000D02*
G75*
G03*
X98910000Y-72540000I0J-240000D01*
G01*
X105995928Y-73935340D02*
G75*
G03*
X105995962Y-73595894I-169728J169740D01*
G01*
X98550000Y-73044446D02*
G75*
G02*
X98309954Y-72804446I0J240046D01*
G01*
X98310000Y-71545552D02*
G75*
G03*
X98070000Y-71305600I-240000J-48D01*
G01*
X97710000Y-73054457D02*
G75*
G02*
X97470000Y-73294500I-240000J-43D01*
G01*
X106759606Y-74359606D02*
G75*
G03*
X106420194Y-74359606I-169706J-169701D01*
G01*
X105936004Y-74334675D02*
G75*
G02*
X105936035Y-73995294I169696J169675D01*
G01*
X97350000Y-73294457D02*
G75*
G02*
X97110043Y-73054457I0J239957D01*
G01*
%TO.N,BYTE_LANE_3_3*%
X108068113Y-80713998D02*
X110214000Y-80713998D01*
X98345000Y-80955248D02*
X98465000Y-80955248D01*
X105175000Y-80200000D02*
X107000000Y-80200000D01*
X97214000Y-80336000D02*
X97350000Y-80200000D01*
X104105000Y-80098037D02*
X104105000Y-80200000D01*
X101206962Y-79996075D02*
X101603038Y-79996075D01*
X101105000Y-80200000D02*
X101105000Y-80098037D01*
X103505000Y-80326968D02*
X103505000Y-80200000D01*
X101705000Y-80098037D02*
X101705000Y-80200000D01*
X99431967Y-80453935D02*
X99778033Y-80453935D01*
X102905000Y-80200000D02*
X102905000Y-80326968D01*
X98806962Y-79996075D02*
X99203038Y-79996075D01*
X102305000Y-80326968D02*
X102305000Y-80200000D01*
X97986000Y-81736000D02*
X97440113Y-81736000D01*
X99305000Y-80200000D02*
X99305000Y-80326968D01*
X102905000Y-80098037D02*
X102905000Y-80200000D01*
X104831484Y-80200000D02*
X105175000Y-80200000D01*
X100631967Y-80453935D02*
X100978033Y-80453935D01*
X99905000Y-80326968D02*
X99905000Y-80200000D01*
X98105000Y-80098516D02*
X98105000Y-80200000D01*
X103031967Y-80453935D02*
X103378033Y-80453935D01*
X97350000Y-80200000D02*
X97400000Y-80200000D01*
X103606962Y-79996075D02*
X104003038Y-79996075D01*
X100505000Y-80098037D02*
X100505000Y-80200000D01*
X102406962Y-79996075D02*
X102803038Y-79996075D01*
X97440113Y-81736000D02*
X97214000Y-81509887D01*
X98105000Y-80200000D02*
X98105000Y-80715248D01*
X98705000Y-80715248D02*
X98705000Y-80200000D01*
X101105000Y-80326968D02*
X101105000Y-80200000D01*
X100505000Y-80200000D02*
X100505000Y-80326968D01*
X107000000Y-80200000D02*
X107554116Y-80200000D01*
X104105000Y-80200000D02*
X104105000Y-80326484D01*
X110214000Y-80713998D02*
X110600000Y-81099998D01*
X101831967Y-80453935D02*
X102178033Y-80453935D01*
X103505000Y-80200000D02*
X103505000Y-80098037D01*
X98705000Y-80200000D02*
X98705000Y-80098037D01*
X102305000Y-80200000D02*
X102305000Y-80098037D01*
X97214000Y-81509887D02*
X97214000Y-80336000D01*
X99305000Y-80098037D02*
X99305000Y-80200000D01*
X97602968Y-79997032D02*
X98003516Y-79997032D01*
X104231484Y-80452968D02*
X104578516Y-80452968D01*
X99905000Y-80200000D02*
X99905000Y-80098037D01*
X107554116Y-80200000D02*
X108068113Y-80713998D01*
X98400000Y-82150000D02*
X97986000Y-81736000D01*
X100006962Y-79996075D02*
X100403038Y-79996075D01*
X101705000Y-80200000D02*
X101705000Y-80326968D01*
X104105000Y-80326484D02*
G75*
G03*
X104231484Y-80453000I126500J-16D01*
G01*
X101705000Y-80326968D02*
G75*
G03*
X101831967Y-80454000I127000J-32D01*
G01*
X97501484Y-80098516D02*
G75*
G02*
X97602968Y-79996984I101516J16D01*
G01*
X98105000Y-80715248D02*
G75*
G03*
X98345000Y-80955200I240000J48D01*
G01*
X97400000Y-80200000D02*
G75*
G03*
X97501500Y-80098516I0J101500D01*
G01*
X100978033Y-80453935D02*
G75*
G03*
X101104935Y-80326968I-33J126935D01*
G01*
X99305000Y-80326968D02*
G75*
G03*
X99431967Y-80454000I127000J-32D01*
G01*
X98003516Y-79997032D02*
G75*
G02*
X98104968Y-80098516I-16J-101468D01*
G01*
X99778033Y-80453935D02*
G75*
G03*
X99904935Y-80326968I-33J126935D01*
G01*
X104705000Y-80326484D02*
G75*
G02*
X104831484Y-80200000I126500J-16D01*
G01*
X102178033Y-80453935D02*
G75*
G03*
X102304935Y-80326968I-33J126935D01*
G01*
X99203038Y-79996075D02*
G75*
G02*
X99304925Y-80098037I-38J-101925D01*
G01*
X98705000Y-80098037D02*
G75*
G02*
X98806962Y-79996000I102000J37D01*
G01*
X98465000Y-80955248D02*
G75*
G03*
X98705048Y-80715248I0J240048D01*
G01*
X102305000Y-80098037D02*
G75*
G02*
X102406962Y-79996000I102000J37D01*
G01*
X103505000Y-80098037D02*
G75*
G02*
X103606962Y-79996000I102000J37D01*
G01*
X99905000Y-80098037D02*
G75*
G02*
X100006962Y-79996000I102000J37D01*
G01*
X100403038Y-79996075D02*
G75*
G02*
X100504925Y-80098037I-38J-101925D01*
G01*
X102803038Y-79996075D02*
G75*
G02*
X102904925Y-80098037I-38J-101925D01*
G01*
X100505000Y-80326968D02*
G75*
G03*
X100631967Y-80454000I127000J-32D01*
G01*
X101105000Y-80098037D02*
G75*
G02*
X101206962Y-79996000I102000J37D01*
G01*
X103378033Y-80453935D02*
G75*
G03*
X103504935Y-80326968I-33J126935D01*
G01*
X101603038Y-79996075D02*
G75*
G02*
X101704925Y-80098037I-38J-101925D01*
G01*
X104578516Y-80452968D02*
G75*
G03*
X104704968Y-80326484I-16J126468D01*
G01*
X104003038Y-79996075D02*
G75*
G02*
X104104925Y-80098037I-38J-101925D01*
G01*
X102905000Y-80326968D02*
G75*
G03*
X103031967Y-80454000I127000J-32D01*
G01*
%TO.N,BYTE_LANE_3_4*%
X102450808Y-87989478D02*
X102564808Y-87989478D01*
X104502808Y-88322000D02*
X104502808Y-88217463D01*
X102222808Y-88322000D02*
X102222808Y-88217478D01*
X105599828Y-88550000D02*
X106095885Y-88550000D01*
X101125000Y-86725000D02*
X101125000Y-87925000D01*
X103362808Y-88322000D02*
X103362808Y-88217478D01*
X103020808Y-88550000D02*
X103134808Y-88550000D01*
X105072808Y-88217463D02*
X105072808Y-88322000D01*
X103590808Y-87989478D02*
X103704808Y-87989478D01*
X100000000Y-86150000D02*
X100550000Y-86150000D01*
X103932808Y-88217478D02*
X103932808Y-88322000D01*
X101750000Y-88550000D02*
X101994808Y-88550000D01*
X104730808Y-87989463D02*
X104844808Y-87989463D01*
X102792808Y-88217478D02*
X102792808Y-88322000D01*
X111800000Y-82845885D02*
X111800000Y-79899998D01*
X104160808Y-88550000D02*
X104274808Y-88550000D01*
X105414808Y-88550000D02*
X105599828Y-88550000D01*
X100550000Y-86150000D02*
X101125000Y-86725000D01*
X105300808Y-88550000D02*
X105414808Y-88550000D01*
X106095885Y-88550000D02*
X111800000Y-82845885D01*
X111800000Y-79899998D02*
X112200000Y-79499998D01*
X101125000Y-87925000D02*
X101750000Y-88550000D01*
X104844808Y-87989463D02*
G75*
G02*
X105072837Y-88217463I-8J-228037D01*
G01*
X104502808Y-88217463D02*
G75*
G02*
X104730808Y-87989508I227992J-37D01*
G01*
X105072808Y-88322000D02*
G75*
G03*
X105300808Y-88549992I227992J0D01*
G01*
X103932808Y-88322000D02*
G75*
G03*
X104160808Y-88549992I227992J0D01*
G01*
X102564808Y-87989478D02*
G75*
G02*
X102792822Y-88217478I-8J-228022D01*
G01*
X103704808Y-87989478D02*
G75*
G02*
X103932822Y-88217478I-8J-228022D01*
G01*
X103362808Y-88217478D02*
G75*
G02*
X103590808Y-87989508I227992J-22D01*
G01*
X103134808Y-88550000D02*
G75*
G03*
X103362800Y-88322000I-8J228000D01*
G01*
X104274808Y-88550000D02*
G75*
G03*
X104502800Y-88322000I-8J228000D01*
G01*
X102222808Y-88217478D02*
G75*
G02*
X102450808Y-87989508I227992J-22D01*
G01*
X102792808Y-88322000D02*
G75*
G03*
X103020808Y-88549992I227992J0D01*
G01*
X101994808Y-88550000D02*
G75*
G03*
X102222800Y-88322000I-8J228000D01*
G01*
%TO.N,BYTE_LANE_3_1*%
X105346358Y-82350000D02*
X105346358Y-83147381D01*
X105856358Y-83147381D02*
X105856358Y-82350000D01*
X98400000Y-82950000D02*
X98786000Y-82564000D01*
X105856358Y-82350000D02*
X105856358Y-81152617D01*
X107814000Y-82350000D02*
X107850002Y-82313998D01*
X108452750Y-82313998D02*
X108866750Y-81899998D01*
X108866750Y-81899998D02*
X109000000Y-81899998D01*
X107080358Y-82350000D02*
X107182358Y-82350000D01*
X101676358Y-83347384D02*
X101676358Y-82554000D01*
X104326358Y-82554000D02*
X104326358Y-83047388D01*
X104530358Y-83251388D02*
X104632358Y-83251388D01*
X100336000Y-82564000D02*
X100550000Y-82350000D01*
X104984528Y-82053659D02*
X105198188Y-82053659D01*
X104836358Y-82350000D02*
X104836358Y-82201829D01*
X107182358Y-82350000D02*
X107814000Y-82350000D01*
X105346358Y-82201829D02*
X105346358Y-82350000D01*
X102542358Y-82350000D02*
X103102358Y-82350000D01*
X103339818Y-82587460D02*
X103612358Y-82587460D01*
X104836358Y-83047388D02*
X104836358Y-82554000D01*
X106876358Y-83147381D02*
X106876358Y-82554000D01*
X98786000Y-82564000D02*
X100336000Y-82564000D01*
X106366358Y-82554000D02*
X106366358Y-83147381D01*
X107850002Y-82313998D02*
X108100000Y-82313998D01*
X106570358Y-83351381D02*
X106672358Y-83351381D01*
X108100000Y-82313998D02*
X108452750Y-82313998D01*
X101982358Y-82350000D02*
X102542358Y-82350000D01*
X103849818Y-82350000D02*
X104122358Y-82350000D01*
X101166358Y-82554000D02*
X101166358Y-83347384D01*
X101370358Y-83551384D02*
X101472358Y-83551384D01*
X106366358Y-81152617D02*
X106366358Y-82350000D01*
X100550000Y-82350000D02*
X100962358Y-82350000D01*
X105550358Y-83351381D02*
X105652358Y-83351381D01*
X106060358Y-80948617D02*
X106162358Y-80948617D01*
X101880358Y-82350000D02*
X101982358Y-82350000D01*
X104836358Y-82554000D02*
X104836358Y-82350000D01*
X106366358Y-82350000D02*
X106366358Y-82554000D01*
X105198188Y-82053659D02*
G75*
G02*
X105346341Y-82201829I12J-148141D01*
G01*
X104326358Y-83047388D02*
G75*
G03*
X104530358Y-83251442I204042J-12D01*
G01*
X101472358Y-83551384D02*
G75*
G03*
X101676384Y-83347384I42J203984D01*
G01*
X103731088Y-82468730D02*
G75*
G02*
X103849818Y-82349988I118712J30D01*
G01*
X105856358Y-81152617D02*
G75*
G02*
X106060358Y-80948558I204042J17D01*
G01*
X105652358Y-83351381D02*
G75*
G03*
X105856381Y-83147381I42J203981D01*
G01*
X106876358Y-82554000D02*
G75*
G02*
X107080358Y-82349958I204042J0D01*
G01*
X104122358Y-82350000D02*
G75*
G02*
X104326400Y-82554000I42J-204000D01*
G01*
X101166358Y-83347384D02*
G75*
G03*
X101370358Y-83551442I204042J-16D01*
G01*
X103221088Y-82468730D02*
G75*
G03*
X103339818Y-82587412I118712J30D01*
G01*
X105346358Y-83147381D02*
G75*
G03*
X105550358Y-83351442I204042J-19D01*
G01*
X103612358Y-82587460D02*
G75*
G03*
X103731160Y-82468730I42J118760D01*
G01*
X104632358Y-83251388D02*
G75*
G03*
X104836388Y-83047388I42J203988D01*
G01*
X101676358Y-82554000D02*
G75*
G02*
X101880358Y-82349958I204042J0D01*
G01*
X103102358Y-82350000D02*
G75*
G02*
X103221100Y-82468730I42J-118700D01*
G01*
X106162358Y-80948617D02*
G75*
G02*
X106366383Y-81152617I42J-203983D01*
G01*
X104836358Y-82201829D02*
G75*
G02*
X104984528Y-82053658I148142J29D01*
G01*
X106366358Y-83147381D02*
G75*
G03*
X106570358Y-83351442I204042J-19D01*
G01*
X106672358Y-83351381D02*
G75*
G03*
X106876381Y-83147381I42J203981D01*
G01*
X100962358Y-82350000D02*
G75*
G02*
X101166400Y-82554000I42J-204000D01*
G01*
%TO.N,BYTE_LANE_3_0*%
X112614000Y-81664000D02*
X112200000Y-81250000D01*
X100650000Y-88525000D02*
X101075000Y-88950000D01*
X98000000Y-86550000D02*
X100200000Y-86550000D01*
X112200000Y-81250000D02*
X112200000Y-81099998D01*
X100200000Y-86550000D02*
X100650000Y-87000000D01*
X100650000Y-87000000D02*
X100650000Y-88525000D01*
X106550000Y-88950000D02*
X112614000Y-82886000D01*
X101075000Y-88950000D02*
X106550000Y-88950000D01*
X97600000Y-86150000D02*
X98000000Y-86550000D01*
X112614000Y-82886000D02*
X112614000Y-81664000D01*
%TO.N,DQS3_P*%
X110999998Y-82300000D02*
X110454111Y-82300000D01*
X98400000Y-86150000D02*
X98675000Y-85875000D01*
X101892190Y-85900000D02*
X101892190Y-86518432D01*
X102592190Y-86518432D02*
X102592190Y-85900000D01*
X107342190Y-85350000D02*
X107450000Y-85350000D01*
X98675000Y-85875000D02*
X98675000Y-85575000D01*
X104142190Y-86768432D02*
X104342190Y-86768432D01*
X106142190Y-86768432D02*
X106342190Y-86768432D01*
X111400000Y-81899998D02*
X110999998Y-82300000D01*
X110200000Y-82850000D02*
X107700000Y-85350000D01*
X105892190Y-85900000D02*
X105892190Y-86518432D01*
X103142190Y-85350000D02*
X103342190Y-85350000D01*
X110200000Y-82554111D02*
X110200000Y-82850000D01*
X98900000Y-85350000D02*
X101342190Y-85350000D01*
X105142190Y-85350000D02*
X105342190Y-85350000D01*
X104592190Y-86518432D02*
X104592190Y-85900000D01*
X106592190Y-86518432D02*
X106592190Y-85900000D01*
X103892190Y-85900000D02*
X103892190Y-86518432D01*
X102142190Y-86768432D02*
X102342190Y-86768432D01*
X98675000Y-85575000D02*
X98900000Y-85350000D01*
X107700000Y-85350000D02*
X107450000Y-85350000D01*
X110454111Y-82300000D02*
X110200000Y-82554111D01*
X107142190Y-85350000D02*
X107342190Y-85350000D01*
X106342190Y-86768432D02*
G75*
G03*
X106592232Y-86518432I10J250032D01*
G01*
X102592190Y-85900000D02*
G75*
G02*
X103142190Y-85349990I550010J0D01*
G01*
X106592190Y-85900000D02*
G75*
G02*
X107142190Y-85349990I550010J0D01*
G01*
X104342190Y-86768432D02*
G75*
G03*
X104592232Y-86518432I10J250032D01*
G01*
X104592190Y-85900000D02*
G75*
G02*
X105142190Y-85349990I550010J0D01*
G01*
X105342190Y-85350000D02*
G75*
G02*
X105892200Y-85900000I10J-550000D01*
G01*
X102342190Y-86768432D02*
G75*
G03*
X102592232Y-86518432I10J250032D01*
G01*
X103892190Y-86518432D02*
G75*
G03*
X104142190Y-86768410I250010J32D01*
G01*
X101892190Y-86518432D02*
G75*
G03*
X102142190Y-86768410I250010J32D01*
G01*
X103342190Y-85350000D02*
G75*
G02*
X103892200Y-85900000I10J-550000D01*
G01*
X101342190Y-85350000D02*
G75*
G02*
X101892200Y-85900000I10J-550000D01*
G01*
X105892190Y-86518432D02*
G75*
G03*
X106142190Y-86768410I250010J32D01*
G01*
%TO.N,BYTE_LANE_3_2*%
X97214000Y-85300000D02*
X97714000Y-84800000D01*
X102660425Y-84800000D02*
X107600000Y-84800000D01*
X98716481Y-85000000D02*
X99116481Y-85000000D01*
X101016481Y-84337552D02*
X101016481Y-84560000D01*
X98256481Y-83842384D02*
X98376481Y-83842384D01*
X109000000Y-83400000D02*
X109000000Y-82699998D01*
X99216481Y-84800000D02*
X99216481Y-84083434D01*
X99816481Y-84800000D02*
X99816481Y-84900000D01*
X101376481Y-84800000D02*
X102660425Y-84800000D01*
X98400000Y-86950000D02*
X98014000Y-87336000D01*
X107600000Y-84800000D02*
X109000000Y-83400000D01*
X98616481Y-84800000D02*
X98616481Y-84900000D01*
X99916481Y-85000000D02*
X100316481Y-85000000D01*
X98016481Y-84560000D02*
X98016481Y-84082384D01*
X100416481Y-84560000D02*
X100416481Y-84337552D01*
X100656481Y-84097552D02*
X100776481Y-84097552D01*
X99456481Y-83843434D02*
X99576481Y-83843434D01*
X101256481Y-84800000D02*
X101376481Y-84800000D01*
X97214000Y-87109887D02*
X97214000Y-85300000D01*
X99816481Y-84083434D02*
X99816481Y-84800000D01*
X97440113Y-87336000D02*
X97214000Y-87109887D01*
X100416481Y-84800000D02*
X100416481Y-84560000D01*
X99216481Y-84900000D02*
X99216481Y-84800000D01*
X100416481Y-84900000D02*
X100416481Y-84800000D01*
X98616481Y-84560000D02*
X98616481Y-84800000D01*
X98616481Y-84082384D02*
X98616481Y-84560000D01*
X98014000Y-87336000D02*
X97440113Y-87336000D01*
X97714000Y-84800000D02*
X97776481Y-84800000D01*
X100776481Y-84097552D02*
G75*
G02*
X101016548Y-84337552I19J-240048D01*
G01*
X98376481Y-83842384D02*
G75*
G02*
X98616516Y-84082384I19J-240016D01*
G01*
X99576481Y-83843434D02*
G75*
G02*
X99816466Y-84083434I19J-239966D01*
G01*
X100416481Y-84337552D02*
G75*
G02*
X100656481Y-84097581I240019J-48D01*
G01*
X97776481Y-84800000D02*
G75*
G03*
X98016500Y-84560000I19J240000D01*
G01*
X99116481Y-85000000D02*
G75*
G03*
X99216500Y-84900000I19J100000D01*
G01*
X99216481Y-84083434D02*
G75*
G02*
X99456481Y-83843381I240019J34D01*
G01*
X98616481Y-84900000D02*
G75*
G03*
X98716481Y-85000019I100019J0D01*
G01*
X98016481Y-84082384D02*
G75*
G02*
X98256481Y-83842381I240019J-16D01*
G01*
X99816481Y-84900000D02*
G75*
G03*
X99916481Y-85000019I100019J0D01*
G01*
X100316481Y-85000000D02*
G75*
G03*
X100416500Y-84900000I19J100000D01*
G01*
X101016481Y-84560000D02*
G75*
G03*
X101256481Y-84800019I240019J0D01*
G01*
%TO.N,DQS3_N*%
X109848297Y-84200660D02*
X109781830Y-84267128D01*
X98950000Y-85900000D02*
X98950000Y-85800000D01*
X107142190Y-85650000D02*
X107342190Y-85650000D01*
X106892190Y-86518432D02*
X106892190Y-85900000D01*
X105592190Y-85900000D02*
X105592190Y-86518432D01*
X109806317Y-83892808D02*
X109848297Y-83934788D01*
X110600000Y-82833252D02*
X110471000Y-82962252D01*
X110512986Y-83535985D02*
X110446519Y-83602453D01*
X104142190Y-87068432D02*
X104342190Y-87068432D01*
X101592190Y-85900000D02*
X101592190Y-86518432D01*
X102142190Y-87068432D02*
X102342190Y-87068432D01*
X99100000Y-85650000D02*
X101342190Y-85650000D01*
X109515958Y-84267128D02*
X109473979Y-84225149D01*
X103142190Y-85650000D02*
X103342190Y-85650000D01*
X106142190Y-87068432D02*
X106342190Y-87068432D01*
X109872789Y-83560467D02*
X109806319Y-83626934D01*
X108476955Y-84956298D02*
X108316626Y-85116626D01*
X103592190Y-85900000D02*
X103592190Y-86518432D01*
X110600000Y-82699998D02*
X110600000Y-82833252D01*
X108316626Y-85116626D02*
X107783252Y-85650000D01*
X107342190Y-85650000D02*
X107450000Y-85650000D01*
X104892190Y-86518432D02*
X104892190Y-85900000D01*
X109208107Y-84225149D02*
X109141637Y-84291616D01*
X107783252Y-85650000D02*
X107450000Y-85650000D01*
X109141637Y-84291616D02*
X109141636Y-84291616D01*
X108851276Y-84931810D02*
X108809297Y-84889831D01*
X109141635Y-84557490D02*
X109183615Y-84599470D01*
X99200000Y-86150000D02*
X98950000Y-85900000D01*
X110180647Y-83602453D02*
X110138661Y-83560467D01*
X109806319Y-83626934D02*
X109806318Y-83626934D01*
X109183615Y-84865342D02*
X109117148Y-84931810D01*
X108543425Y-84889831D02*
X108476955Y-84956298D01*
X105142190Y-85650000D02*
X105342190Y-85650000D01*
X98950000Y-85800000D02*
X99100000Y-85650000D01*
X102892190Y-86518432D02*
X102892190Y-85900000D01*
X110470999Y-83228126D02*
X110512986Y-83270113D01*
X108809297Y-84889831D02*
G75*
G03*
X108543425Y-84889831I-132936J-132936D01*
G01*
X105592190Y-86518432D02*
G75*
G03*
X106142190Y-87068410I550010J32D01*
G01*
X110471000Y-82962252D02*
G75*
G03*
X110470988Y-83228137I132900J-132948D01*
G01*
X103342190Y-85650000D02*
G75*
G02*
X103592200Y-85900000I10J-250000D01*
G01*
X110446519Y-83602453D02*
G75*
G02*
X110180647Y-83602453I-132936J132936D01*
G01*
X101592190Y-86518432D02*
G75*
G03*
X102142190Y-87068410I550010J32D01*
G01*
X106892190Y-85900000D02*
G75*
G02*
X107142190Y-85649990I250010J0D01*
G01*
X109848297Y-83934788D02*
G75*
G02*
X109848273Y-84200636I-132897J-132912D01*
G01*
X110138661Y-83560467D02*
G75*
G03*
X109872789Y-83560467I-132936J-132936D01*
G01*
X109806318Y-83626934D02*
G75*
G03*
X109806288Y-83892836I132982J-132966D01*
G01*
X102342190Y-87068432D02*
G75*
G03*
X102892232Y-86518432I10J550032D01*
G01*
X109141636Y-84291616D02*
G75*
G03*
X109141588Y-84557536I132964J-132984D01*
G01*
X106342190Y-87068432D02*
G75*
G03*
X106892232Y-86518432I10J550032D01*
G01*
X105342190Y-85650000D02*
G75*
G02*
X105592200Y-85900000I10J-250000D01*
G01*
X110512986Y-83270113D02*
G75*
G02*
X110512937Y-83535936I-132886J-132887D01*
G01*
X109183615Y-84599470D02*
G75*
G02*
X109183609Y-84865336I-132915J-132930D01*
G01*
X109473979Y-84225149D02*
G75*
G03*
X109208107Y-84225149I-132936J-132936D01*
G01*
X109781830Y-84267128D02*
G75*
G02*
X109515958Y-84267128I-132936J132936D01*
G01*
X104342190Y-87068432D02*
G75*
G03*
X104892232Y-86518432I10J550032D01*
G01*
X103592190Y-86518432D02*
G75*
G03*
X104142190Y-87068410I550010J32D01*
G01*
X101342190Y-85650000D02*
G75*
G02*
X101592200Y-85900000I10J-250000D01*
G01*
X109117148Y-84931810D02*
G75*
G02*
X108851276Y-84931810I-132936J132936D01*
G01*
X102892190Y-85900000D02*
G75*
G02*
X103142190Y-85649990I250010J0D01*
G01*
X104892190Y-85900000D02*
G75*
G02*
X105142190Y-85649990I250010J0D01*
G01*
%TO.N,BYTE_LANE_3_6*%
X113400000Y-82873885D02*
X113400000Y-81754111D01*
X112847250Y-81513998D02*
X113159887Y-81513998D01*
X99200000Y-86950000D02*
X99614000Y-87364000D01*
X99614000Y-87364000D02*
X99614000Y-88164000D01*
X106923885Y-89350000D02*
X113400000Y-82873885D01*
X112614000Y-80713998D02*
X112614000Y-81280748D01*
X112200000Y-80299998D02*
X112614000Y-80713998D01*
X113400000Y-81754111D02*
X113386000Y-81740111D01*
X112614000Y-81280748D02*
X112847250Y-81513998D01*
X113159887Y-81513998D02*
X113386000Y-81740111D01*
X100800000Y-89350000D02*
X106923885Y-89350000D01*
X99614000Y-88164000D02*
X100800000Y-89350000D01*
%TO.N,BYTE_LANE_3_5*%
X100050000Y-80650000D02*
X100245382Y-80650000D01*
X103485382Y-81808535D02*
X103485382Y-80890000D01*
X99586000Y-81736000D02*
X99586000Y-81114000D01*
X104925382Y-80650000D02*
X105045382Y-80650000D01*
X100000000Y-82150000D02*
X99586000Y-81736000D01*
X102525382Y-80650000D02*
X102645382Y-80650000D01*
X101325382Y-80650000D02*
X101445382Y-80650000D01*
X99586000Y-81114000D02*
X100050000Y-80650000D01*
X109414000Y-81485998D02*
X109800000Y-81099998D01*
X101685382Y-80890000D02*
X101685382Y-81808535D01*
X107204114Y-80650000D02*
X108040113Y-81485998D01*
X108040113Y-81485998D02*
X109414000Y-81485998D01*
X104685382Y-81758520D02*
X104685382Y-80890000D01*
X101925382Y-82048535D02*
X102045382Y-82048535D01*
X102285382Y-81808535D02*
X102285382Y-80890000D01*
X106700000Y-80650000D02*
X107204114Y-80650000D01*
X104085382Y-80890000D02*
X104085382Y-81758520D01*
X101085382Y-81808516D02*
X101085382Y-80890000D01*
X102885382Y-80890000D02*
X102885382Y-81808535D01*
X100725382Y-82048516D02*
X100845382Y-82048516D01*
X103125382Y-82048535D02*
X103245382Y-82048535D01*
X105045382Y-80650000D02*
X106700000Y-80650000D01*
X100485382Y-80890000D02*
X100485382Y-81808516D01*
X104325382Y-81998520D02*
X104445382Y-81998520D01*
X103725382Y-80650000D02*
X103845382Y-80650000D01*
X102045382Y-82048535D02*
G75*
G03*
X102285435Y-81808535I18J240035D01*
G01*
X104085382Y-81758520D02*
G75*
G03*
X104325382Y-81998518I240018J20D01*
G01*
X102645382Y-80650000D02*
G75*
G02*
X102885400Y-80890000I18J-240000D01*
G01*
X103485382Y-80890000D02*
G75*
G02*
X103725382Y-80649982I240018J0D01*
G01*
X100245382Y-80650000D02*
G75*
G02*
X100485400Y-80890000I18J-240000D01*
G01*
X102885382Y-81808535D02*
G75*
G03*
X103125382Y-82048518I240018J35D01*
G01*
X100845382Y-82048516D02*
G75*
G03*
X101085416Y-81808516I18J240016D01*
G01*
X103245382Y-82048535D02*
G75*
G03*
X103485435Y-81808535I18J240035D01*
G01*
X102285382Y-80890000D02*
G75*
G02*
X102525382Y-80649982I240018J0D01*
G01*
X101085382Y-80890000D02*
G75*
G02*
X101325382Y-80649982I240018J0D01*
G01*
X101685382Y-81808535D02*
G75*
G03*
X101925382Y-82048518I240018J35D01*
G01*
X101445382Y-80650000D02*
G75*
G02*
X101685400Y-80890000I18J-240000D01*
G01*
X104445382Y-81998520D02*
G75*
G03*
X104685420Y-81758520I18J240020D01*
G01*
X104685382Y-80890000D02*
G75*
G02*
X104925382Y-80649982I240018J0D01*
G01*
X100485382Y-81808516D02*
G75*
G03*
X100725382Y-82048518I240018J16D01*
G01*
X103845382Y-80650000D02*
G75*
G02*
X104085400Y-80890000I18J-240000D01*
G01*
%TO.N,BYTE_LANE_3_7*%
X111014000Y-81485998D02*
X111400000Y-81099998D01*
X106630000Y-84350000D02*
X106750000Y-84350000D01*
X106390000Y-83785249D02*
X106390000Y-84110000D01*
X103630000Y-82895259D02*
X103750000Y-82895259D01*
X107095885Y-84350000D02*
X108586000Y-82859885D01*
X106750000Y-84350000D02*
X107000000Y-84350000D01*
X104830000Y-83545254D02*
X104950000Y-83545254D01*
X102430000Y-82645258D02*
X102550000Y-82645258D01*
X110200000Y-81754111D02*
X110468113Y-81485998D01*
X106030000Y-83545249D02*
X106150000Y-83545249D01*
X105430000Y-84350000D02*
X105550000Y-84350000D01*
X103990000Y-83135259D02*
X103990000Y-84110000D01*
X103390000Y-84110000D02*
X103390000Y-83135259D01*
X103030000Y-84350000D02*
X103150000Y-84350000D01*
X107000000Y-84350000D02*
X107095885Y-84350000D01*
X100275000Y-82950000D02*
X101675000Y-84350000D01*
X108864002Y-82285998D02*
X109959887Y-82285998D01*
X108586000Y-82564000D02*
X108864002Y-82285998D01*
X102790000Y-82885258D02*
X102790000Y-84110000D01*
X108586000Y-82859885D02*
X108586000Y-82564000D01*
X109959887Y-82285998D02*
X110200000Y-82045885D01*
X110468113Y-81485998D02*
X111014000Y-81485998D01*
X102190000Y-84110000D02*
X102190000Y-82885258D01*
X101675000Y-84350000D02*
X101950000Y-84350000D01*
X105790000Y-84110000D02*
X105790000Y-83785249D01*
X104590000Y-84110000D02*
X104590000Y-83785254D01*
X104230000Y-84350000D02*
X104350000Y-84350000D01*
X105190000Y-83785254D02*
X105190000Y-84110000D01*
X110200000Y-82045885D02*
X110200000Y-81754111D01*
X100000000Y-82950000D02*
X100275000Y-82950000D01*
X105790000Y-83785249D02*
G75*
G02*
X106030000Y-83545200I240000J49D01*
G01*
X102550000Y-82645258D02*
G75*
G02*
X102790042Y-82885258I0J-240042D01*
G01*
X104350000Y-84350000D02*
G75*
G03*
X104590000Y-84110000I0J240000D01*
G01*
X105190000Y-84110000D02*
G75*
G03*
X105430000Y-84350000I240000J0D01*
G01*
X102790000Y-84110000D02*
G75*
G03*
X103030000Y-84350000I240000J0D01*
G01*
X104950000Y-83545254D02*
G75*
G02*
X105190046Y-83785254I0J-240046D01*
G01*
X103150000Y-84350000D02*
G75*
G03*
X103390000Y-84110000I0J240000D01*
G01*
X102190000Y-82885258D02*
G75*
G02*
X102430000Y-82645300I240000J-42D01*
G01*
X106390000Y-84110000D02*
G75*
G03*
X106630000Y-84350000I240000J0D01*
G01*
X101950000Y-84350000D02*
G75*
G03*
X102190000Y-84110000I0J240000D01*
G01*
X106150000Y-83545249D02*
G75*
G02*
X106389951Y-83785249I0J-239951D01*
G01*
X103390000Y-83135259D02*
G75*
G02*
X103630000Y-82895300I240000J-41D01*
G01*
X103750000Y-82895259D02*
G75*
G02*
X103990041Y-83135259I0J-240041D01*
G01*
X103990000Y-84110000D02*
G75*
G03*
X104230000Y-84350000I240000J0D01*
G01*
X105550000Y-84350000D02*
G75*
G03*
X105790000Y-84110000I0J240000D01*
G01*
X104590000Y-83785254D02*
G75*
G02*
X104830000Y-83545300I240000J-46D01*
G01*
%TO.N,DM3*%
X96690000Y-79700000D02*
X96690000Y-79800000D01*
X97765000Y-79700000D02*
X97900000Y-79700000D01*
X96790000Y-79900000D02*
X97190000Y-79900000D01*
X97600000Y-82950000D02*
X97186000Y-82536000D01*
X96330000Y-78878452D02*
X96450000Y-78878452D01*
X95600000Y-82323887D02*
X95600000Y-79850000D01*
X95750000Y-79700000D02*
X95850000Y-79700000D01*
X107927058Y-79772942D02*
X108054115Y-79900000D01*
X96090000Y-79460000D02*
X96090000Y-79118452D01*
X108054115Y-79900000D02*
X110200002Y-79900000D01*
X95600000Y-79850000D02*
X95750000Y-79700000D01*
X97900000Y-79700000D02*
X107854115Y-79700000D01*
X97186000Y-82536000D02*
X95812113Y-82536000D01*
X95812113Y-82536000D02*
X95600000Y-82323887D01*
X107854115Y-79700000D02*
X107927058Y-79772942D01*
X96690000Y-79460000D02*
X96690000Y-79700000D01*
X110200002Y-79900000D02*
X110600000Y-80299998D01*
X97390000Y-79700000D02*
X97765000Y-79700000D01*
X96690000Y-79118452D02*
X96690000Y-79460000D01*
X97190000Y-79900000D02*
G75*
G03*
X97290000Y-79800000I0J100000D01*
G01*
X96450000Y-78878452D02*
G75*
G02*
X96690048Y-79118452I0J-240048D01*
G01*
X96690000Y-79800000D02*
G75*
G03*
X96790000Y-79900000I100000J0D01*
G01*
X95850000Y-79700000D02*
G75*
G03*
X96090000Y-79460000I0J240000D01*
G01*
X96090000Y-79118452D02*
G75*
G02*
X96330000Y-78878500I240000J-48D01*
G01*
X97290000Y-79800000D02*
G75*
G02*
X97390000Y-79700000I100000J0D01*
G01*
%TO.N,FIFO.SLOE#*%
X114523957Y-62522000D02*
X114523957Y-62620000D01*
X115475000Y-67900000D02*
X115475000Y-69950000D01*
X114784887Y-59964000D02*
X115025000Y-60204113D01*
X116126047Y-63012000D02*
X116126047Y-63110000D01*
X116126047Y-62032000D02*
X116126047Y-62130000D01*
X115225000Y-66850000D02*
X115225000Y-67650000D01*
X115013999Y-71086000D02*
X114600000Y-71499999D01*
X115930047Y-63306000D02*
X115225000Y-63306000D01*
X115475000Y-69950000D02*
X115013999Y-70411001D01*
X115225000Y-63306000D02*
X114719957Y-63306000D01*
X115930047Y-64286000D02*
X115225000Y-64286000D01*
X115225000Y-64286000D02*
X114719957Y-64286000D01*
X115025000Y-60950000D02*
X115225000Y-61150000D01*
X114625000Y-58750000D02*
X114214000Y-59161000D01*
X115225000Y-66417023D02*
X115225000Y-66551000D01*
X115225000Y-61836000D02*
X115930047Y-61836000D01*
X114719957Y-62816000D02*
X115225000Y-62816000D01*
X115013999Y-70411001D02*
X115013999Y-71086000D01*
X114214000Y-59684887D02*
X114493113Y-59964000D01*
X114719957Y-64776000D02*
X115225000Y-64776000D01*
X114523957Y-63502000D02*
X114523957Y-63600000D01*
X114523957Y-61542000D02*
X114523957Y-61640000D01*
X114523951Y-65462000D02*
X114523951Y-65560000D01*
X115029000Y-61346000D02*
X114719957Y-61346000D01*
X116126047Y-64972000D02*
X116126047Y-65070000D01*
X114719951Y-65756000D02*
X115225000Y-65756000D01*
X115225000Y-62816000D02*
X115930047Y-62816000D01*
X115225000Y-65756000D02*
X115396023Y-65756000D01*
X114719957Y-63796000D02*
X115225000Y-63796000D01*
X115567046Y-65927023D02*
X115567046Y-66074977D01*
X115225000Y-64776000D02*
X115930047Y-64776000D01*
X114214000Y-59161000D02*
X114214000Y-59684887D01*
X114719957Y-61836000D02*
X115029000Y-61836000D01*
X115930047Y-65266000D02*
X115225000Y-65266000D01*
X115025000Y-60204113D02*
X115025000Y-60950000D01*
X115225000Y-67650000D02*
X115475000Y-67900000D01*
X115225000Y-66551000D02*
X115225000Y-66850000D01*
X115225000Y-62326000D02*
X114719957Y-62326000D01*
X115225000Y-63796000D02*
X115930047Y-63796000D01*
X114523957Y-64482000D02*
X114523957Y-64580000D01*
X115930047Y-62326000D02*
X115225000Y-62326000D01*
X115029000Y-61836000D02*
X115225000Y-61836000D01*
X115225000Y-65266000D02*
X114719951Y-65266000D01*
X114493113Y-59964000D02*
X114784887Y-59964000D01*
X116126047Y-63992000D02*
X116126047Y-64090000D01*
X114523951Y-65560000D02*
G75*
G03*
X114719951Y-65756049I196049J0D01*
G01*
X115396023Y-66246000D02*
G75*
G03*
X115225000Y-66417023I-23J-171000D01*
G01*
X115930047Y-61836000D02*
G75*
G02*
X116126000Y-62032000I-47J-196000D01*
G01*
X115930047Y-62816000D02*
G75*
G02*
X116126000Y-63012000I-47J-196000D01*
G01*
X114719957Y-64286000D02*
G75*
G03*
X114524000Y-64482000I43J-196000D01*
G01*
X114719951Y-65266000D02*
G75*
G03*
X114524000Y-65462000I49J-196000D01*
G01*
X116126047Y-62130000D02*
G75*
G02*
X115930047Y-62326047I-196047J0D01*
G01*
X115930047Y-64776000D02*
G75*
G02*
X116126000Y-64972000I-47J-196000D01*
G01*
X114523957Y-63600000D02*
G75*
G03*
X114719957Y-63796043I196043J0D01*
G01*
X114719957Y-63306000D02*
G75*
G03*
X114524000Y-63502000I43J-196000D01*
G01*
X114523957Y-61640000D02*
G75*
G03*
X114719957Y-61836043I196043J0D01*
G01*
X116126047Y-63110000D02*
G75*
G02*
X115930047Y-63306047I-196047J0D01*
G01*
X115225000Y-61150000D02*
G75*
G02*
X115029000Y-61346000I-196000J0D01*
G01*
X114523957Y-62620000D02*
G75*
G03*
X114719957Y-62816043I196043J0D01*
G01*
X115567046Y-66074977D02*
G75*
G02*
X115396023Y-66246046I-171046J-23D01*
G01*
X114719957Y-61346000D02*
G75*
G03*
X114524000Y-61542000I43J-196000D01*
G01*
X114719957Y-62326000D02*
G75*
G03*
X114524000Y-62522000I43J-196000D01*
G01*
X116126047Y-64090000D02*
G75*
G02*
X115930047Y-64286047I-196047J0D01*
G01*
X114523957Y-64580000D02*
G75*
G03*
X114719957Y-64776043I196043J0D01*
G01*
X115930047Y-63796000D02*
G75*
G02*
X116126000Y-63992000I-47J-196000D01*
G01*
X116126047Y-65070000D02*
G75*
G02*
X115930047Y-65266047I-196047J0D01*
G01*
X115396023Y-65756000D02*
G75*
G02*
X115567000Y-65927023I-23J-171000D01*
G01*
%TO.N,FIFO.CLK*%
X113800000Y-69925000D02*
X113800000Y-70699999D01*
X112425000Y-67822000D02*
X112425000Y-67920000D01*
X112621000Y-67136000D02*
X112229000Y-67136000D01*
X112425000Y-61400000D02*
X112425000Y-61550000D01*
X112425000Y-68550000D02*
X113800000Y-69925000D01*
X111648094Y-67626000D02*
X112229000Y-67626000D01*
X112425000Y-66352000D02*
X112425000Y-66450000D01*
X113825000Y-58750000D02*
X113439000Y-59136000D01*
X112240597Y-63308201D02*
X112240597Y-63613799D01*
X112255000Y-65261000D02*
X112255000Y-65581000D01*
X111452094Y-67332000D02*
X111452094Y-67430000D01*
X113827753Y-61942000D02*
X113827753Y-62040000D01*
X113089000Y-60736000D02*
X112425000Y-61400000D01*
X112282798Y-62726000D02*
X112425000Y-62726000D01*
X112621000Y-65666000D02*
X112851882Y-65666000D01*
X112851882Y-66156000D02*
X112621000Y-66156000D01*
X113411000Y-60509887D02*
X113184887Y-60736000D01*
X113631753Y-62236000D02*
X112621000Y-62236000D01*
X112425000Y-65666000D02*
X112621000Y-65666000D01*
X112425000Y-62236000D02*
X112282798Y-62236000D01*
X112425000Y-62726000D02*
X113631753Y-62726000D01*
X112621000Y-62236000D02*
X112425000Y-62236000D01*
X112876154Y-65176000D02*
X112425000Y-65176000D01*
X112140597Y-62378201D02*
X112140597Y-62583799D01*
X112229000Y-67136000D02*
X111648094Y-67136000D01*
X113631753Y-63216000D02*
X112425000Y-63216000D01*
X113411000Y-60414000D02*
X113411000Y-60509887D01*
X112255000Y-64281000D02*
X112255000Y-64601000D01*
X112621000Y-61746000D02*
X113631753Y-61746000D01*
X112332798Y-63706000D02*
X112425000Y-63706000D01*
X113184887Y-60736000D02*
X113089000Y-60736000D01*
X113439000Y-59136000D02*
X113439000Y-60386000D01*
X112425000Y-65176000D02*
X112340000Y-65176000D01*
X112425000Y-63706000D02*
X113631753Y-63706000D01*
X113827753Y-63902000D02*
X113827753Y-64000000D01*
X112340000Y-65666000D02*
X112425000Y-65666000D01*
X112621000Y-66646000D02*
X112851882Y-66646000D01*
X112425000Y-63216000D02*
X112332798Y-63216000D01*
X113439000Y-60386000D02*
X113411000Y-60414000D01*
X112425000Y-67920000D02*
X112425000Y-68550000D01*
X113072154Y-64882000D02*
X113072154Y-64980000D01*
X113631753Y-64196000D02*
X112425000Y-64196000D01*
X112425000Y-64196000D02*
X112340000Y-64196000D01*
X113827753Y-62922000D02*
X113827753Y-63020000D01*
X112340000Y-64686000D02*
X112425000Y-64686000D01*
X112851882Y-67136000D02*
X112621000Y-67136000D01*
X113047882Y-66842000D02*
X113047882Y-66940000D01*
X112425000Y-64686000D02*
X112876154Y-64686000D01*
X113047882Y-65862000D02*
X113047882Y-65960000D01*
X112240597Y-63613799D02*
G75*
G03*
X112332798Y-63706003I92203J-1D01*
G01*
X112851882Y-65666000D02*
G75*
G02*
X113047900Y-65862000I18J-196000D01*
G01*
X111452094Y-67430000D02*
G75*
G03*
X111648094Y-67626006I196006J0D01*
G01*
X113047882Y-66940000D02*
G75*
G02*
X112851882Y-67135982I-195982J0D01*
G01*
X111648094Y-67136000D02*
G75*
G03*
X111452100Y-67332000I6J-196000D01*
G01*
X112425000Y-61550000D02*
G75*
G03*
X112621000Y-61746000I196000J0D01*
G01*
X113631753Y-63706000D02*
G75*
G02*
X113827800Y-63902000I47J-196000D01*
G01*
X113072154Y-64980000D02*
G75*
G02*
X112876154Y-65175954I-195954J0D01*
G01*
X112332798Y-63216000D02*
G75*
G03*
X112240600Y-63308201I2J-92200D01*
G01*
X112140597Y-62583799D02*
G75*
G03*
X112282798Y-62726003I142203J-1D01*
G01*
X112876154Y-64686000D02*
G75*
G02*
X113072200Y-64882000I46J-196000D01*
G01*
X112229000Y-67626000D02*
G75*
G02*
X112425000Y-67822000I0J-196000D01*
G01*
X112255000Y-65581000D02*
G75*
G03*
X112340000Y-65666000I85000J0D01*
G01*
X113827753Y-62040000D02*
G75*
G02*
X113631753Y-62235953I-195953J0D01*
G01*
X113827753Y-64000000D02*
G75*
G02*
X113631753Y-64195953I-195953J0D01*
G01*
X113631753Y-62726000D02*
G75*
G02*
X113827800Y-62922000I47J-196000D01*
G01*
X113047882Y-65960000D02*
G75*
G02*
X112851882Y-66155982I-195982J0D01*
G01*
X112340000Y-64196000D02*
G75*
G03*
X112255000Y-64281000I0J-85000D01*
G01*
X112425000Y-66450000D02*
G75*
G03*
X112621000Y-66646000I196000J0D01*
G01*
X112282798Y-62236000D02*
G75*
G03*
X112140600Y-62378201I2J-142200D01*
G01*
X112340000Y-65176000D02*
G75*
G03*
X112255000Y-65261000I0J-85000D01*
G01*
X113827753Y-63020000D02*
G75*
G02*
X113631753Y-63215953I-195953J0D01*
G01*
X113631753Y-61746000D02*
G75*
G02*
X113827800Y-61942000I47J-196000D01*
G01*
X112851882Y-66646000D02*
G75*
G02*
X113047900Y-66842000I18J-196000D01*
G01*
X112255000Y-64601000D02*
G75*
G03*
X112340000Y-64686000I85000J0D01*
G01*
X112621000Y-66156000D02*
G75*
G03*
X112425000Y-66352000I0J-196000D01*
G01*
%TO.N,FIFO.FLAG_A*%
X117125000Y-60800000D02*
X117475000Y-61150000D01*
X118825000Y-65372000D02*
X118825000Y-65470000D01*
X118825000Y-61300000D02*
X118825000Y-61550000D01*
X118629000Y-61746000D02*
X118009157Y-61746000D01*
X118009154Y-64196000D02*
X118629000Y-64196000D01*
X118825000Y-62432000D02*
X118825000Y-62530000D01*
X118629000Y-65666000D02*
X118059148Y-65666000D01*
X118825000Y-66450000D02*
X118825000Y-66600000D01*
X115584887Y-58364000D02*
X115813999Y-58593112D01*
X117863148Y-65862000D02*
X117863148Y-65960000D01*
X115011000Y-58086000D02*
X115289000Y-58364000D01*
X117813157Y-61942000D02*
X117813157Y-62040000D01*
X118629000Y-62726000D02*
X118009157Y-62726000D01*
X118825000Y-63412000D02*
X118825000Y-63510000D01*
X118825000Y-66600000D02*
X118825000Y-66700000D01*
X118009152Y-65176000D02*
X118629000Y-65176000D01*
X114625000Y-57150000D02*
X115011000Y-57536000D01*
X118575000Y-66950000D02*
X117125000Y-66950000D01*
X118009157Y-62236000D02*
X118629000Y-62236000D01*
X118629000Y-64686000D02*
X118009152Y-64686000D01*
X116199999Y-67875001D02*
X116199999Y-70699999D01*
X115011000Y-57536000D02*
X115011000Y-58086000D01*
X117813157Y-62922000D02*
X117813157Y-63020000D01*
X115289000Y-58364000D02*
X115584887Y-58364000D01*
X118825000Y-66352000D02*
X118825000Y-66450000D01*
X117125000Y-66950000D02*
X116199999Y-67875001D01*
X118675000Y-61150000D02*
X118825000Y-61300000D01*
X118629000Y-63706000D02*
X118009154Y-63706000D01*
X115813999Y-58593112D02*
X115813999Y-60550000D01*
X116063998Y-60800000D02*
X117125000Y-60800000D01*
X118825000Y-66700000D02*
X118575000Y-66950000D01*
X117813154Y-63902000D02*
X117813154Y-64000000D01*
X118059148Y-66156000D02*
X118629000Y-66156000D01*
X117813152Y-64882000D02*
X117813152Y-64980000D01*
X115813999Y-60550000D02*
X116063998Y-60800000D01*
X117475000Y-61150000D02*
X118675000Y-61150000D01*
X118825000Y-64392000D02*
X118825000Y-64490000D01*
X118009157Y-63216000D02*
X118629000Y-63216000D01*
X118629000Y-65176000D02*
G75*
G02*
X118825000Y-65372000I0J-196000D01*
G01*
X117813154Y-64000000D02*
G75*
G03*
X118009154Y-64196046I196046J0D01*
G01*
X118009154Y-63706000D02*
G75*
G03*
X117813200Y-63902000I46J-196000D01*
G01*
X118629000Y-62236000D02*
G75*
G02*
X118825000Y-62432000I0J-196000D01*
G01*
X117813157Y-63020000D02*
G75*
G03*
X118009157Y-63216043I196043J0D01*
G01*
X118009157Y-62726000D02*
G75*
G03*
X117813200Y-62922000I43J-196000D01*
G01*
X118825000Y-64490000D02*
G75*
G02*
X118629000Y-64686000I-196000J0D01*
G01*
X118009152Y-64686000D02*
G75*
G03*
X117813200Y-64882000I48J-196000D01*
G01*
X118825000Y-63510000D02*
G75*
G02*
X118629000Y-63706000I-196000J0D01*
G01*
X117813152Y-64980000D02*
G75*
G03*
X118009152Y-65176048I196048J0D01*
G01*
X118059148Y-65666000D02*
G75*
G03*
X117863100Y-65862000I-48J-196000D01*
G01*
X118825000Y-61550000D02*
G75*
G02*
X118629000Y-61746000I-196000J0D01*
G01*
X118825000Y-65470000D02*
G75*
G02*
X118629000Y-65666000I-196000J0D01*
G01*
X118629000Y-63216000D02*
G75*
G02*
X118825000Y-63412000I0J-196000D01*
G01*
X118629000Y-66156000D02*
G75*
G02*
X118825000Y-66352000I0J-196000D01*
G01*
X118009157Y-61746000D02*
G75*
G03*
X117813200Y-61942000I43J-196000D01*
G01*
X117813157Y-62040000D02*
G75*
G03*
X118009157Y-62236043I196043J0D01*
G01*
X118825000Y-62530000D02*
G75*
G02*
X118629000Y-62726000I-196000J0D01*
G01*
X117863148Y-65960000D02*
G75*
G03*
X118059148Y-66155952I195952J0D01*
G01*
X118629000Y-64196000D02*
G75*
G02*
X118825000Y-64392000I0J-196000D01*
G01*
%TO.N,FIFO.FLAG_B*%
X113000000Y-71375000D02*
X113000000Y-71499999D01*
X109625000Y-64396131D02*
X109625000Y-64498131D01*
X110618310Y-61846131D02*
X110618310Y-61948131D01*
X109625000Y-65926131D02*
X109625000Y-66028131D01*
X110568315Y-63886131D02*
X110568315Y-63988131D01*
X110364315Y-63172131D02*
X109829000Y-63172131D01*
X108835690Y-65722131D02*
X109421000Y-65722131D01*
X109625000Y-66028131D02*
X109625000Y-66450000D01*
X111039000Y-59390113D02*
X111039000Y-60686000D01*
X109625000Y-63376131D02*
X109625000Y-63478131D01*
X109421000Y-65212131D02*
X108835690Y-65212131D01*
X109829000Y-64702131D02*
X110364315Y-64702131D01*
X109625000Y-66450000D02*
X109625000Y-66850000D01*
X109625000Y-66850000D02*
X112614000Y-69839000D01*
X109829000Y-61642131D02*
X110414310Y-61642131D01*
X110568315Y-62866131D02*
X110568315Y-62968131D01*
X110364315Y-64192131D02*
X109829000Y-64192131D01*
X112614000Y-69839000D02*
X112614000Y-70989000D01*
X109829000Y-63682131D02*
X110364315Y-63682131D01*
X111039000Y-60686000D02*
X110825000Y-60900000D01*
X112065113Y-57564000D02*
X113411000Y-57564000D01*
X111811000Y-57818113D02*
X112065113Y-57564000D01*
X111293113Y-59136000D02*
X111039000Y-59390113D01*
X110568315Y-64906131D02*
X110568315Y-65008131D01*
X112614000Y-70989000D02*
X113000000Y-71375000D01*
X111293113Y-59136000D02*
X111525000Y-59136000D01*
X108631690Y-65416131D02*
X108631690Y-65518131D01*
X109829000Y-65212131D02*
X109421000Y-65212131D01*
X109875000Y-60900000D02*
X109625000Y-61150000D01*
X111293113Y-59136000D02*
X111584887Y-59136000D01*
X113411000Y-57564000D02*
X113825000Y-57150000D01*
X109625000Y-62356131D02*
X109625000Y-62458131D01*
X110414310Y-62152131D02*
X109829000Y-62152131D01*
X109829000Y-62662131D02*
X110364315Y-62662131D01*
X111811000Y-58909887D02*
X111811000Y-57818113D01*
X110825000Y-60900000D02*
X109875000Y-60900000D01*
X111584887Y-59136000D02*
X111811000Y-58909887D01*
X109625000Y-61150000D02*
X109625000Y-61438131D01*
X110364315Y-65212131D02*
X109829000Y-65212131D01*
X110414310Y-61642131D02*
G75*
G02*
X110618269Y-61846131I-10J-203969D01*
G01*
X109625000Y-61438131D02*
G75*
G03*
X109829000Y-61642100I204000J31D01*
G01*
X110568315Y-62968131D02*
G75*
G02*
X110364315Y-63172115I-204015J31D01*
G01*
X109625000Y-62458131D02*
G75*
G03*
X109829000Y-62662100I204000J31D01*
G01*
X110618310Y-61948131D02*
G75*
G02*
X110414310Y-62152110I-204010J31D01*
G01*
X110568315Y-63988131D02*
G75*
G02*
X110364315Y-64192115I-204015J31D01*
G01*
X109829000Y-63172131D02*
G75*
G03*
X109625031Y-63376131I0J-203969D01*
G01*
X109625000Y-64498131D02*
G75*
G03*
X109829000Y-64702100I204000J31D01*
G01*
X109829000Y-62152131D02*
G75*
G03*
X109625031Y-62356131I0J-203969D01*
G01*
X110364315Y-63682131D02*
G75*
G02*
X110568269Y-63886131I-15J-203969D01*
G01*
X110364315Y-62662131D02*
G75*
G02*
X110568269Y-62866131I-15J-203969D01*
G01*
X109829000Y-64192131D02*
G75*
G03*
X109625031Y-64396131I0J-203969D01*
G01*
X108835690Y-65212131D02*
G75*
G03*
X108631731Y-65416131I10J-203969D01*
G01*
X109421000Y-65722131D02*
G75*
G02*
X109624969Y-65926131I0J-203969D01*
G01*
X109625000Y-63478131D02*
G75*
G03*
X109829000Y-63682100I204000J31D01*
G01*
X110364315Y-64702131D02*
G75*
G02*
X110568269Y-64906131I-15J-203969D01*
G01*
X110568315Y-65008131D02*
G75*
G02*
X110364315Y-65212115I-204015J31D01*
G01*
X108631690Y-65518131D02*
G75*
G03*
X108835690Y-65722110I204010J31D01*
G01*
%TO.N,FIFO.A0*%
X111768446Y-62658573D02*
X111768446Y-62560573D01*
X111075000Y-61450000D02*
X111625000Y-60900000D01*
X111897549Y-64618573D02*
X111897549Y-64520573D01*
X113414000Y-71113999D02*
X113414000Y-70139000D01*
X110975000Y-64814573D02*
X111075000Y-64814573D01*
X111625000Y-60900000D02*
X112425000Y-60900000D01*
X111075000Y-66284573D02*
X110335551Y-66284573D01*
X112625000Y-58350000D02*
X113025000Y-57950000D01*
X110879000Y-67264573D02*
X110585551Y-67264573D01*
X111075000Y-67800000D02*
X111075000Y-67460573D01*
X113414000Y-70139000D02*
X111075000Y-67800000D01*
X110875000Y-63244573D02*
X110875000Y-62954573D01*
X110879000Y-66774573D02*
X111075000Y-66774573D01*
X111764451Y-65304573D02*
X111075000Y-65304573D01*
X111075000Y-64324573D02*
X110975000Y-64324573D01*
X111701549Y-64324573D02*
X111075000Y-64324573D01*
X111075000Y-61587583D02*
X111075000Y-61450000D01*
X110139551Y-66088573D02*
X110139551Y-65990573D01*
X110875000Y-64224573D02*
X110875000Y-63934573D01*
X113800000Y-71499999D02*
X113414000Y-71113999D01*
X110335551Y-65794573D02*
X111075000Y-65794573D01*
X110875000Y-65204573D02*
X110875000Y-64914573D01*
X111075000Y-65304573D02*
X110975000Y-65304573D01*
X111271000Y-62854573D02*
X111572446Y-62854573D01*
X111075000Y-65794573D02*
X111764451Y-65794573D01*
X111075000Y-62070573D02*
X111075000Y-61587583D01*
X111075000Y-64814573D02*
X111701549Y-64814573D01*
X111075000Y-66774573D02*
X111814450Y-66774573D01*
X111675733Y-63344573D02*
X111075000Y-63344573D01*
X111075000Y-62168573D02*
X111075000Y-62070573D01*
X111960451Y-65598573D02*
X111960451Y-65500573D01*
X110975000Y-63834573D02*
X111075000Y-63834573D01*
X111572446Y-62364573D02*
X111271000Y-62364573D01*
X111814450Y-66284573D02*
X111075000Y-66284573D01*
X110585551Y-66774573D02*
X110879000Y-66774573D01*
X112425000Y-60900000D02*
X112625000Y-60700000D01*
X111871733Y-63638573D02*
X111871733Y-63540573D01*
X111075000Y-62854573D02*
X111271000Y-62854573D01*
X112625000Y-60700000D02*
X112625000Y-58350000D01*
X111075000Y-63834573D02*
X111675733Y-63834573D01*
X112010450Y-66578573D02*
X112010450Y-66480573D01*
X110975000Y-62854573D02*
X111075000Y-62854573D01*
X110389551Y-67068573D02*
X110389551Y-66970573D01*
X111075000Y-63344573D02*
X110975000Y-63344573D01*
X112010450Y-66480573D02*
G75*
G03*
X111814450Y-66284650I-195950J-27D01*
G01*
X110975000Y-65304573D02*
G75*
G02*
X110875027Y-65204573I0J99973D01*
G01*
X110335551Y-66284573D02*
G75*
G02*
X110139627Y-66088573I49J195973D01*
G01*
X110875000Y-62954573D02*
G75*
G02*
X110975000Y-62854600I100000J-27D01*
G01*
X111271000Y-62364573D02*
G75*
G02*
X111075027Y-62168573I0J195973D01*
G01*
X110389551Y-66970573D02*
G75*
G02*
X110585551Y-66774551I196049J-27D01*
G01*
X110875000Y-63934573D02*
G75*
G02*
X110975000Y-63834600I100000J-27D01*
G01*
X111897549Y-64520573D02*
G75*
G03*
X111701549Y-64324551I-196049J-27D01*
G01*
X111871733Y-63540573D02*
G75*
G03*
X111675733Y-63344567I-196033J-27D01*
G01*
X110975000Y-63344573D02*
G75*
G02*
X110875027Y-63244573I0J99973D01*
G01*
X111814450Y-66774573D02*
G75*
G03*
X112010473Y-66578573I50J195973D01*
G01*
X110875000Y-64914573D02*
G75*
G02*
X110975000Y-64814600I100000J-27D01*
G01*
X111572446Y-62854573D02*
G75*
G03*
X111768373Y-62658573I-46J195973D01*
G01*
X111701549Y-64814573D02*
G75*
G03*
X111897473Y-64618573I-49J195973D01*
G01*
X110975000Y-64324573D02*
G75*
G02*
X110875027Y-64224573I0J99973D01*
G01*
X111960451Y-65500573D02*
G75*
G03*
X111764451Y-65304649I-195951J-27D01*
G01*
X110139551Y-65990573D02*
G75*
G02*
X110335551Y-65794551I196049J-27D01*
G01*
X111768446Y-62560573D02*
G75*
G03*
X111572446Y-62364554I-196046J-27D01*
G01*
X111764451Y-65794573D02*
G75*
G03*
X111960473Y-65598573I49J195973D01*
G01*
X110585551Y-67264573D02*
G75*
G02*
X110389627Y-67068573I49J195973D01*
G01*
X111075000Y-67460573D02*
G75*
G03*
X110879000Y-67264600I-196000J-27D01*
G01*
X111675733Y-63834573D02*
G75*
G03*
X111871673Y-63638573I-33J195973D01*
G01*
D19*
%TO.N,1v2*%
X124774000Y-57340000D02*
X125605000Y-58171000D01*
X125605000Y-58171000D02*
X125605000Y-58500000D01*
D18*
X111425000Y-53950000D02*
X111829000Y-53546000D01*
D19*
X105875000Y-50180000D02*
X111215000Y-50180000D01*
X125605000Y-59800000D02*
X125605000Y-60480000D01*
X111215000Y-50180000D02*
X111825000Y-50180000D01*
X104080000Y-50180000D02*
X104075000Y-50175000D01*
X125605000Y-58500000D02*
X125605000Y-59175000D01*
X122640000Y-54035000D02*
X124774000Y-56169000D01*
X104855000Y-50180000D02*
X104080000Y-50180000D01*
D18*
X111829000Y-53546000D02*
X111829000Y-50184000D01*
D19*
X105875000Y-50180000D02*
X104855000Y-50180000D01*
X116735000Y-50180000D02*
X120590000Y-54035000D01*
X111825000Y-50180000D02*
X116735000Y-50180000D01*
D18*
X111829000Y-50184000D02*
X111825000Y-50180000D01*
X111029000Y-53554000D02*
X111029000Y-50366000D01*
D19*
X120590000Y-54035000D02*
X122640000Y-54035000D01*
X124774000Y-56169000D02*
X124774000Y-57340000D01*
D18*
X111425000Y-53950000D02*
X111029000Y-53554000D01*
D19*
X125605000Y-59175000D02*
X125605000Y-59800000D01*
D18*
X111029000Y-50366000D02*
X111215000Y-50180000D01*
%TO.N,3v3*%
X116700000Y-78925000D02*
X116521002Y-79103998D01*
X114471002Y-79103998D02*
X113993349Y-79581651D01*
X113993349Y-79581651D02*
X113081653Y-79581651D01*
X116521002Y-79103998D02*
X114471002Y-79103998D01*
X113000000Y-74699999D02*
X112200000Y-74699999D01*
X113081653Y-79581651D02*
X112200000Y-78699998D01*
X116199999Y-74699999D02*
X116700000Y-75200000D01*
X116199999Y-74699999D02*
X115399999Y-74699999D01*
X116700000Y-75200000D02*
X116700000Y-78925000D01*
D17*
%TO.N,DONE*%
X106450000Y-51700000D02*
X106619000Y-51531000D01*
X114204000Y-81495998D02*
X114204000Y-82841885D01*
X107270885Y-89775000D02*
X88975000Y-89775000D01*
X83195000Y-64030000D02*
X84575000Y-62650000D01*
X107581000Y-51531000D02*
X107875000Y-51825000D01*
X88975000Y-89775000D02*
X83195000Y-83995000D01*
X106619000Y-51531000D02*
X107581000Y-51531000D01*
X96125000Y-62650000D02*
X106450000Y-52325000D01*
X106450000Y-52325000D02*
X106450000Y-51700000D01*
X114600000Y-81099998D02*
X114204000Y-81495998D01*
X114204000Y-82841885D02*
X107270885Y-89775000D01*
X83195000Y-83995000D02*
X83195000Y-64030000D01*
X84575000Y-62650000D02*
X96125000Y-62650000D01*
%TO.N,ACC.#CS*%
X92386000Y-70586000D02*
X92000000Y-70200000D01*
X92555950Y-79464000D02*
X92563887Y-79464000D01*
X92790000Y-80360000D02*
X92386000Y-80764000D01*
X92100000Y-79008050D02*
X92555950Y-79464000D01*
X92100000Y-76422000D02*
X92386000Y-76136000D01*
X92563887Y-79464000D02*
X92790000Y-79690113D01*
X92386000Y-76136000D02*
X92386000Y-70586000D01*
X92386000Y-83264000D02*
X92200000Y-83450000D01*
X92100000Y-77950000D02*
X92100000Y-76422000D01*
X91800000Y-83450000D02*
X91614000Y-83264000D01*
X92386000Y-80764000D02*
X92386000Y-83264000D01*
X91614000Y-83264000D02*
X91614000Y-82536000D01*
X92790000Y-79690113D02*
X92790000Y-80360000D01*
X92200000Y-83450000D02*
X91800000Y-83450000D01*
X91614000Y-82536000D02*
X92000000Y-82150000D01*
X92100000Y-77950000D02*
X92100000Y-79008050D01*
%TO.N,ACC.#RAS*%
X94350000Y-76700000D02*
X95550000Y-77900000D01*
X94350000Y-76700000D02*
X94000000Y-76350000D01*
X95129384Y-79920616D02*
X95550000Y-79500000D01*
X94000000Y-76350000D02*
X94000000Y-73650000D01*
X94990359Y-80059640D02*
X95129384Y-79920616D01*
X94240000Y-72380985D02*
X93760000Y-72380985D01*
X94560000Y-72380985D02*
X94240000Y-72380985D01*
X93600000Y-82950000D02*
X94000000Y-82550000D01*
X93500000Y-72620985D02*
X93500000Y-72740985D01*
X93760000Y-72380985D02*
X93740000Y-72380985D01*
X93600000Y-71000000D02*
X94000000Y-71400000D01*
X94240000Y-71780985D02*
X94560000Y-71780985D01*
X94000000Y-73220985D02*
X94000000Y-73340985D01*
X94000000Y-82550000D02*
X94000000Y-81050000D01*
X95550000Y-79500000D02*
X95550000Y-77900000D01*
X93740000Y-72980985D02*
X93760000Y-72980985D01*
X94000000Y-81050000D02*
X94141831Y-80908169D01*
X94856007Y-80193990D02*
X94990359Y-80059640D01*
X94800000Y-72020985D02*
X94800000Y-72140985D01*
X94000000Y-71400000D02*
X94000000Y-71540985D01*
X94000000Y-73340985D02*
X94000000Y-73650000D01*
X94721657Y-80908169D02*
X94856007Y-80773818D01*
X94800000Y-72140985D02*
G75*
G02*
X94560000Y-72381000I-240000J-15D01*
G01*
X94856007Y-80773818D02*
G75*
G03*
X94855968Y-80483943I-145007J144918D01*
G01*
X93760000Y-72980985D02*
G75*
G02*
X94000015Y-73220985I0J-240015D01*
G01*
X94560000Y-71780985D02*
G75*
G02*
X94800015Y-72020985I0J-240015D01*
G01*
X94431744Y-80908169D02*
G75*
G03*
X94721657Y-80908170I144957J144960D01*
G01*
X94141831Y-80908169D02*
G75*
G02*
X94431745Y-80908168I144957J-144956D01*
G01*
X93500000Y-72740985D02*
G75*
G03*
X93740000Y-72981000I240000J-15D01*
G01*
X94856007Y-80483904D02*
G75*
G02*
X94855960Y-80193943I144993J145004D01*
G01*
X93740000Y-72380985D02*
G75*
G03*
X93499985Y-72620985I0J-240015D01*
G01*
X94000000Y-71540985D02*
G75*
G03*
X94240000Y-71781000I240000J-15D01*
G01*
%TO.N,ACC.A0*%
X90000000Y-84050000D02*
X90000000Y-83350000D01*
X90786000Y-71386000D02*
X90400000Y-71000000D01*
X90500000Y-79190794D02*
X90786000Y-79476794D01*
X90200000Y-84250000D02*
X90000000Y-84050000D01*
X90500000Y-78350000D02*
X90137888Y-77987888D01*
X90500000Y-78350000D02*
X90500000Y-79190794D01*
X90786000Y-76464000D02*
X90786000Y-71386000D01*
X90786000Y-84064000D02*
X90600000Y-84250000D01*
X90137888Y-77112112D02*
X90786000Y-76464000D01*
X90786000Y-79476794D02*
X90786000Y-84064000D01*
X90137888Y-77987888D02*
X90137888Y-77112112D01*
X90000000Y-83350000D02*
X90400000Y-82950000D01*
X90600000Y-84250000D02*
X90200000Y-84250000D01*
%TO.N,ACC.A2*%
X89263862Y-82486138D02*
X89600000Y-82822275D01*
X89705000Y-72010911D02*
X89600000Y-72010911D01*
X87814000Y-77336000D02*
X88400000Y-76750000D01*
X89600000Y-71000000D02*
X89600000Y-71515911D01*
X87814000Y-79418037D02*
X87659000Y-79418037D01*
X88124000Y-79863037D02*
X88124000Y-79573037D01*
X89600000Y-72010911D02*
X89444000Y-72010911D01*
X89214000Y-82436276D02*
X89214000Y-81064000D01*
X87814000Y-78250000D02*
X87814000Y-77336000D01*
X89214000Y-75936000D02*
X88400000Y-76750000D01*
X88740000Y-72166911D02*
X88740000Y-72244911D01*
X89600000Y-72556911D02*
X89600000Y-72634911D01*
X87814000Y-78373037D02*
X87814000Y-78250000D01*
X89557000Y-73207000D02*
X89214000Y-73550000D01*
X88896000Y-72400911D02*
X89444000Y-72400911D01*
X89214000Y-81064000D02*
X89100000Y-80950000D01*
X87814000Y-78663037D02*
X87814000Y-78373037D01*
X87814000Y-80709887D02*
X87814000Y-80173037D01*
X89214000Y-73550000D02*
X89214000Y-75936000D01*
X89100000Y-80950000D02*
X88054113Y-80950000D01*
X89600000Y-82822275D02*
X89600000Y-82950000D01*
X89810000Y-71725911D02*
X89810000Y-71905911D01*
X89600000Y-72634911D02*
X89600000Y-73164000D01*
X89214000Y-82436275D02*
X89263862Y-82486138D01*
X88054113Y-80950000D02*
X87814000Y-80709887D01*
X89600000Y-73164000D02*
X89557000Y-73207000D01*
X87969000Y-79418037D02*
X87814000Y-79418037D01*
X87504000Y-79263037D02*
X87504000Y-78973037D01*
X89444000Y-72010911D02*
X88896000Y-72010911D01*
X89263862Y-82486138D02*
X89214000Y-82436276D01*
X89444000Y-72400911D02*
G75*
G02*
X89599989Y-72556911I0J-155989D01*
G01*
X87969000Y-80018037D02*
G75*
G03*
X88124037Y-79863037I0J155037D01*
G01*
X88124000Y-79573037D02*
G75*
G03*
X87969000Y-79418000I-155000J37D01*
G01*
X87659000Y-79418037D02*
G75*
G02*
X87503963Y-79263037I0J155037D01*
G01*
X89810000Y-71905911D02*
G75*
G02*
X89705000Y-72010900I-105000J11D01*
G01*
X88740000Y-72244911D02*
G75*
G03*
X88896000Y-72400900I156000J11D01*
G01*
X88896000Y-72010911D02*
G75*
G03*
X88740011Y-72166911I0J-155989D01*
G01*
X87504000Y-78973037D02*
G75*
G02*
X87659000Y-78818000I155000J37D01*
G01*
X89705000Y-71620911D02*
G75*
G02*
X89809989Y-71725911I0J-104989D01*
G01*
X87659000Y-78818037D02*
G75*
G03*
X87814037Y-78663037I0J155037D01*
G01*
X89600000Y-71515911D02*
G75*
G03*
X89705000Y-71620900I105000J11D01*
G01*
X87814000Y-80173037D02*
G75*
G02*
X87969000Y-80018000I155000J37D01*
G01*
%TO.N,ACC.A3*%
X89237715Y-80387715D02*
X89214000Y-80364000D01*
X89700000Y-77896344D02*
X89700000Y-77818344D01*
X89700000Y-77658823D02*
X89700000Y-77150000D01*
X89700000Y-76975000D02*
X89700000Y-77150000D01*
X89156000Y-78052344D02*
X89544000Y-78052344D01*
X90014000Y-73690000D02*
X90014000Y-74250000D01*
X90014000Y-81764000D02*
X90014000Y-81164000D01*
X89000000Y-78286344D02*
X89000000Y-78208344D01*
X90014000Y-70586000D02*
X90014000Y-71450000D01*
X89214000Y-79584000D02*
X89214000Y-79450000D01*
X90014000Y-81164000D02*
X89548842Y-80698842D01*
X90400000Y-82150000D02*
X90014000Y-81764000D01*
X90014000Y-74250000D02*
X90014000Y-76661000D01*
X89214000Y-79336000D02*
X89700000Y-78850000D01*
X89544000Y-78442344D02*
X89156000Y-78442344D01*
X88484000Y-80052000D02*
X88484000Y-79974000D01*
X89214000Y-79662000D02*
X89214000Y-79584000D01*
X90400000Y-70200000D02*
X90014000Y-70586000D01*
X90014000Y-72320000D02*
X90014000Y-72570000D01*
X89700000Y-77818344D02*
X89700000Y-77658823D01*
X89058000Y-80208000D02*
X88640000Y-80208000D01*
X89700000Y-78850000D02*
X89700000Y-78598344D01*
X90014000Y-76661000D02*
X89700000Y-76975000D01*
X88640000Y-79818000D02*
X89058000Y-79818000D01*
X90014000Y-73440000D02*
X90014000Y-73690000D01*
X89548842Y-80698842D02*
X89237715Y-80387715D01*
X90324000Y-72880000D02*
X90324000Y-73130000D01*
X90324000Y-71760000D02*
X90324000Y-72010000D01*
X89214000Y-79450000D02*
X89214000Y-79336000D01*
X88640000Y-80208000D02*
G75*
G02*
X88484000Y-80052000I0J156000D01*
G01*
X89000000Y-78208344D02*
G75*
G02*
X89156000Y-78052300I156000J44D01*
G01*
X89544000Y-78052344D02*
G75*
G03*
X89700044Y-77896344I0J156044D01*
G01*
X90324000Y-73130000D02*
G75*
G02*
X90169000Y-73285000I-155000J0D01*
G01*
X90014000Y-71450000D02*
G75*
G03*
X90169000Y-71605000I155000J0D01*
G01*
X90169000Y-72165000D02*
G75*
G03*
X90014000Y-72320000I0J-155000D01*
G01*
X90169000Y-72725000D02*
G75*
G02*
X90324000Y-72880000I0J-155000D01*
G01*
X89700000Y-78598344D02*
G75*
G03*
X89544000Y-78442300I-156000J44D01*
G01*
X90324000Y-72010000D02*
G75*
G02*
X90169000Y-72165000I-155000J0D01*
G01*
X90169000Y-73285000D02*
G75*
G03*
X90014000Y-73440000I0J-155000D01*
G01*
X89156000Y-78442344D02*
G75*
G02*
X88999956Y-78286344I0J156044D01*
G01*
X89214000Y-80364000D02*
G75*
G03*
X89058000Y-80208000I-156000J0D01*
G01*
X88484000Y-79974000D02*
G75*
G02*
X88640000Y-79818000I156000J0D01*
G01*
X90014000Y-72570000D02*
G75*
G03*
X90169000Y-72725000I155000J0D01*
G01*
X89058000Y-79818000D02*
G75*
G03*
X89214000Y-79662000I0J156000D01*
G01*
X90169000Y-71605000D02*
G75*
G02*
X90324000Y-71760000I0J-155000D01*
G01*
%TO.N,ACC.A7*%
X86390000Y-78916442D02*
X86390000Y-79096442D01*
X88404000Y-81754000D02*
X88800000Y-82150000D01*
X87855713Y-73102396D02*
X87721362Y-72968045D01*
X86700000Y-78761442D02*
X86545000Y-78761442D01*
X86700000Y-79586442D02*
X86700000Y-79711514D01*
X86700000Y-76150000D02*
X86700000Y-73650000D01*
X86700000Y-76150000D02*
X86700000Y-78116442D01*
X86855000Y-78761442D02*
X86700000Y-78761442D01*
X86700000Y-79711514D02*
X86700000Y-79950000D01*
X86700000Y-79406442D02*
X86700000Y-79586442D01*
X87806217Y-72543782D02*
X87958505Y-72391495D01*
X86700000Y-73650000D02*
X86957689Y-73392311D01*
X89186000Y-70586000D02*
X88800000Y-70200000D01*
X89186000Y-71164000D02*
X89186000Y-70586000D01*
X87858113Y-81754000D02*
X88404000Y-81754000D01*
X87958505Y-72391495D02*
X89186000Y-71164000D01*
X87100000Y-80350000D02*
X87100000Y-80995887D01*
X87010000Y-78426442D02*
X87010000Y-78606442D01*
X87100000Y-80995887D02*
X87858113Y-81754000D01*
X87297100Y-73392311D02*
X87431450Y-73526661D01*
X87770861Y-73526661D02*
X87855713Y-73441808D01*
X86700000Y-79950000D02*
X87100000Y-80350000D01*
X87721362Y-72628634D02*
X87806217Y-72543782D01*
X86545000Y-78761442D02*
G75*
G03*
X86390042Y-78916442I0J-154958D01*
G01*
X87721362Y-72968045D02*
G75*
G02*
X87721322Y-72628595I169738J169745D01*
G01*
X86700000Y-78116442D02*
G75*
G03*
X86855000Y-78271400I155000J42D01*
G01*
X87431450Y-73526661D02*
G75*
G03*
X87770861Y-73526661I169705J169707D01*
G01*
X87010000Y-78606442D02*
G75*
G02*
X86855000Y-78761400I-155000J42D01*
G01*
X86545000Y-79251442D02*
G75*
G02*
X86699958Y-79406442I0J-154958D01*
G01*
X87855713Y-73441808D02*
G75*
G03*
X87855715Y-73102394I-169713J169708D01*
G01*
X86957689Y-73392311D02*
G75*
G02*
X87297100Y-73392310I169706J-169707D01*
G01*
X86390000Y-79096442D02*
G75*
G03*
X86545000Y-79251400I155000J42D01*
G01*
X86855000Y-78271442D02*
G75*
G02*
X87009958Y-78426442I0J-154958D01*
G01*
%TO.N,ACC.A13*%
X86100000Y-81050000D02*
X86100000Y-80183591D01*
X88000000Y-71000000D02*
X86100000Y-72900000D01*
X86100000Y-76015096D02*
X86100000Y-76325096D01*
X86100000Y-75270096D02*
X85955000Y-75270096D01*
X86230000Y-79453591D02*
X86100000Y-79453591D01*
X86100000Y-79453591D02*
X85860000Y-79453591D01*
X86100000Y-78493591D02*
X86100000Y-77950000D01*
X88000000Y-82950000D02*
X86100000Y-81050000D01*
X86390000Y-74815096D02*
X86390000Y-75125096D01*
X85810000Y-75415096D02*
X85810000Y-75725096D01*
X86100000Y-76325096D02*
X86100000Y-76615957D01*
X86100000Y-76615957D02*
X86100000Y-77450000D01*
X86100000Y-72900000D02*
X86100000Y-74525096D01*
X86100000Y-77950000D02*
X86100000Y-77450000D01*
X85290000Y-79213591D02*
X85290000Y-79093591D01*
X86100000Y-78613591D02*
X86100000Y-78493591D01*
X86360000Y-79923591D02*
X86360000Y-79583591D01*
X86245000Y-75270096D02*
X86100000Y-75270096D01*
X85860000Y-79453591D02*
X85530000Y-79453591D01*
X85530000Y-78853591D02*
X85860000Y-78853591D01*
X86100000Y-80183591D02*
G75*
G02*
X86230000Y-80053600I130000J-9D01*
G01*
X85860000Y-78853591D02*
G75*
G03*
X86099991Y-78613591I0J239991D01*
G01*
X86100000Y-74525096D02*
G75*
G03*
X86245000Y-74670100I145000J-4D01*
G01*
X85290000Y-79093591D02*
G75*
G02*
X85530000Y-78853600I240000J-9D01*
G01*
X85810000Y-75725096D02*
G75*
G03*
X85955000Y-75870100I145000J-4D01*
G01*
X86390000Y-75125096D02*
G75*
G02*
X86245000Y-75270100I-145000J-4D01*
G01*
X86230000Y-80053591D02*
G75*
G03*
X86359991Y-79923591I0J129991D01*
G01*
X85955000Y-75870096D02*
G75*
G02*
X86100004Y-76015096I0J-145004D01*
G01*
X85955000Y-75270096D02*
G75*
G03*
X85809996Y-75415096I0J-145004D01*
G01*
X85530000Y-79453591D02*
G75*
G02*
X85290009Y-79213591I0J239991D01*
G01*
X86360000Y-79583591D02*
G75*
G03*
X86230000Y-79453600I-130000J-9D01*
G01*
X86245000Y-74670096D02*
G75*
G02*
X86390004Y-74815096I0J-145004D01*
G01*
%TO.N,ACC.BA0*%
X90523888Y-77326112D02*
X91586000Y-76264000D01*
X91586000Y-81764000D02*
X91200000Y-82150000D01*
X91586000Y-70586000D02*
X91200000Y-70200000D01*
X91586000Y-79518000D02*
X91586000Y-79590000D01*
X91442000Y-79014000D02*
X91130000Y-79014000D01*
X91084812Y-77648812D02*
X91493000Y-78057000D01*
X91586000Y-80877887D02*
X91586000Y-81764000D01*
X91686000Y-79014000D02*
X91586000Y-79014000D01*
X91586000Y-79014000D02*
X91442000Y-79014000D01*
X91130000Y-79374000D02*
X91442000Y-79374000D01*
X91786000Y-78754000D02*
X91786000Y-78914000D01*
X91442000Y-78294000D02*
X91130000Y-78294000D01*
X91442000Y-78654000D02*
X91586000Y-78654000D01*
X91586000Y-78654000D02*
X91686000Y-78654000D01*
X90523888Y-77648812D02*
X90523888Y-77326112D01*
X91586000Y-76264000D02*
X91586000Y-70586000D01*
X91586000Y-79750000D02*
X91501359Y-79834641D01*
X91218000Y-80118000D02*
X91218000Y-80509887D01*
X90986000Y-78438000D02*
X90986000Y-78510000D01*
X91218000Y-80509887D02*
X91586000Y-80877887D01*
X91493000Y-78057000D02*
X91586000Y-78150000D01*
X91501359Y-79834641D02*
X91218000Y-80118000D01*
X90986000Y-79158000D02*
X90986000Y-79230000D01*
X90523888Y-77648812D02*
X91084812Y-77648812D01*
X91586000Y-79590000D02*
X91586000Y-79750000D01*
X91130000Y-78654000D02*
X91442000Y-78654000D01*
X91130000Y-79014000D02*
G75*
G03*
X90986000Y-79158000I0J-144000D01*
G01*
X91586000Y-78150000D02*
G75*
G02*
X91442000Y-78294000I-144000J0D01*
G01*
X90986000Y-79230000D02*
G75*
G03*
X91130000Y-79374000I144000J0D01*
G01*
X91686000Y-78654000D02*
G75*
G02*
X91786000Y-78754000I0J-100000D01*
G01*
X91786000Y-78914000D02*
G75*
G02*
X91686000Y-79014000I-100000J0D01*
G01*
X90986000Y-78510000D02*
G75*
G03*
X91130000Y-78654000I144000J0D01*
G01*
X91130000Y-78294000D02*
G75*
G03*
X90986000Y-78438000I0J-144000D01*
G01*
X91442000Y-79374000D02*
G75*
G02*
X91586000Y-79518000I0J-144000D01*
G01*
%TO.N,ACC.ODT*%
X93186000Y-76236000D02*
X93186000Y-69786000D01*
X94500000Y-77550000D02*
X94500000Y-79350000D01*
X93806423Y-80044023D02*
X93939359Y-80176959D01*
X92800000Y-81350000D02*
X92800000Y-81050446D01*
X93186000Y-69786000D02*
X92800000Y-69400000D01*
X94500000Y-79350446D02*
X94500000Y-79350000D01*
X93474082Y-80376364D02*
X93182755Y-80085037D01*
X94338167Y-79512278D02*
X94500000Y-79350446D01*
X93900000Y-76950000D02*
X94500000Y-77550000D01*
X94430091Y-80003009D02*
X94271699Y-79844617D01*
X93939359Y-80176959D02*
X94097750Y-80335350D01*
X93592875Y-80893966D02*
X93659343Y-80827497D01*
X93474081Y-80376363D02*
X93474082Y-80376364D01*
X93182756Y-79819163D02*
X93249224Y-79752696D01*
X93607017Y-80509299D02*
X93474081Y-80376363D01*
X92800000Y-81050446D02*
X93008805Y-80841641D01*
X93806424Y-80044024D02*
X93806423Y-80044023D01*
X93900000Y-76950000D02*
X93186000Y-76236000D01*
X94363623Y-80335350D02*
X94430091Y-80268881D01*
X93659343Y-80561625D02*
X93607017Y-80509299D01*
X93515096Y-79752696D02*
X93806424Y-80044024D01*
X93274677Y-80841641D02*
X93327002Y-80893966D01*
X94271699Y-79578744D02*
X94338167Y-79512278D01*
X94097750Y-80335350D02*
G75*
G03*
X94363623Y-80335351I132937J132937D01*
G01*
X93182755Y-80085037D02*
G75*
G02*
X93182755Y-79819162I132945J132937D01*
G01*
X93008805Y-80841641D02*
G75*
G02*
X93274677Y-80841641I132936J-132936D01*
G01*
X94430091Y-80268881D02*
G75*
G03*
X94430136Y-80002964I-132891J132981D01*
G01*
X94271699Y-79844617D02*
G75*
G02*
X94271718Y-79578764I132901J132917D01*
G01*
X93249224Y-79752696D02*
G75*
G02*
X93515096Y-79752696I132936J-132936D01*
G01*
X93327002Y-80893966D02*
G75*
G03*
X93592875Y-80893967I132937J132937D01*
G01*
X93659343Y-80827497D02*
G75*
G03*
X93659304Y-80561664I-132943J132897D01*
G01*
%TD*%
%TA.AperFunction,Conductor*%
%TO.N,1v35*%
G36*
X116460648Y-75864352D02*
G01*
X116475000Y-75899000D01*
X116475000Y-78853225D01*
X116460648Y-78887873D01*
X116454375Y-78894146D01*
X116419727Y-78908498D01*
X115799000Y-78908498D01*
X115764352Y-78894146D01*
X115750000Y-78859498D01*
X115750000Y-77600000D01*
X115441434Y-77600000D01*
X115439561Y-77599498D01*
X115360437Y-77599498D01*
X115358564Y-77600000D01*
X114646585Y-77600000D01*
X114640186Y-77599580D01*
X114639563Y-77599498D01*
X114639562Y-77599498D01*
X114560438Y-77599498D01*
X114560437Y-77599498D01*
X114559814Y-77599580D01*
X114553415Y-77600000D01*
X113841435Y-77600000D01*
X113839562Y-77599498D01*
X113760438Y-77599498D01*
X113758565Y-77600000D01*
X113046585Y-77600000D01*
X113040186Y-77599580D01*
X113039563Y-77599498D01*
X113039562Y-77599498D01*
X112960438Y-77599498D01*
X112960437Y-77599498D01*
X112959814Y-77599580D01*
X112953415Y-77600000D01*
X112241435Y-77600000D01*
X112239562Y-77599498D01*
X112160438Y-77599498D01*
X112158565Y-77600000D01*
X111949000Y-77600000D01*
X111914352Y-77585648D01*
X111900000Y-77551000D01*
X111900000Y-77060435D01*
X113499500Y-77060435D01*
X113499500Y-77139562D01*
X113519979Y-77215988D01*
X113519979Y-77215990D01*
X113559540Y-77284510D01*
X113615489Y-77340459D01*
X113684011Y-77380020D01*
X113719478Y-77389523D01*
X113760436Y-77400499D01*
X113760438Y-77400499D01*
X113839564Y-77400499D01*
X113866230Y-77393353D01*
X113915989Y-77380020D01*
X113984511Y-77340459D01*
X114040460Y-77284510D01*
X114080021Y-77215988D01*
X114100500Y-77139561D01*
X114100500Y-77060437D01*
X114100500Y-77060435D01*
X114299500Y-77060435D01*
X114299500Y-77139562D01*
X114319979Y-77215988D01*
X114319979Y-77215990D01*
X114359540Y-77284510D01*
X114415489Y-77340459D01*
X114484011Y-77380020D01*
X114519478Y-77389523D01*
X114560436Y-77400499D01*
X114560438Y-77400499D01*
X114639564Y-77400499D01*
X114666230Y-77393353D01*
X114715989Y-77380020D01*
X114784511Y-77340459D01*
X114840460Y-77284510D01*
X114880021Y-77215988D01*
X114900500Y-77139561D01*
X114900500Y-77060437D01*
X114900500Y-77060435D01*
X115099499Y-77060435D01*
X115099499Y-77139562D01*
X115119978Y-77215988D01*
X115119978Y-77215990D01*
X115159539Y-77284510D01*
X115215488Y-77340459D01*
X115284010Y-77380020D01*
X115319477Y-77389523D01*
X115360435Y-77400499D01*
X115360437Y-77400499D01*
X115439563Y-77400499D01*
X115466229Y-77393353D01*
X115515988Y-77380020D01*
X115584510Y-77340459D01*
X115640459Y-77284510D01*
X115680020Y-77215988D01*
X115700499Y-77139561D01*
X115700499Y-77060437D01*
X115700499Y-77060435D01*
X115691842Y-77028133D01*
X115680020Y-76984010D01*
X115680019Y-76984008D01*
X115680019Y-76984007D01*
X115640458Y-76915487D01*
X115584510Y-76859539D01*
X115515989Y-76819978D01*
X115439563Y-76799499D01*
X115439561Y-76799499D01*
X115360437Y-76799499D01*
X115360435Y-76799499D01*
X115284009Y-76819978D01*
X115284007Y-76819978D01*
X115215487Y-76859539D01*
X115215487Y-76859540D01*
X115159540Y-76915487D01*
X115159539Y-76915487D01*
X115119978Y-76984007D01*
X115119978Y-76984009D01*
X115099499Y-77060435D01*
X114900500Y-77060435D01*
X114891843Y-77028133D01*
X114880021Y-76984010D01*
X114880020Y-76984008D01*
X114880020Y-76984007D01*
X114840459Y-76915487D01*
X114784511Y-76859539D01*
X114715990Y-76819978D01*
X114639564Y-76799499D01*
X114639562Y-76799499D01*
X114560438Y-76799499D01*
X114560436Y-76799499D01*
X114484010Y-76819978D01*
X114484008Y-76819978D01*
X114415488Y-76859539D01*
X114415488Y-76859540D01*
X114359541Y-76915487D01*
X114359540Y-76915487D01*
X114319979Y-76984007D01*
X114319979Y-76984009D01*
X114299500Y-77060435D01*
X114100500Y-77060435D01*
X114091843Y-77028133D01*
X114080021Y-76984010D01*
X114080020Y-76984008D01*
X114080020Y-76984007D01*
X114040459Y-76915487D01*
X113984511Y-76859539D01*
X113915990Y-76819978D01*
X113839564Y-76799499D01*
X113839562Y-76799499D01*
X113760438Y-76799499D01*
X113760436Y-76799499D01*
X113684010Y-76819978D01*
X113684008Y-76819978D01*
X113615488Y-76859539D01*
X113615488Y-76859540D01*
X113559541Y-76915487D01*
X113559540Y-76915487D01*
X113519979Y-76984007D01*
X113519979Y-76984009D01*
X113499500Y-77060435D01*
X111900000Y-77060435D01*
X111900000Y-76882632D01*
X111908882Y-76854498D01*
X111911332Y-76851002D01*
X111943259Y-76819077D01*
X111954956Y-76790836D01*
X111971500Y-76750897D01*
X111971500Y-76260435D01*
X113499500Y-76260435D01*
X113499500Y-76339562D01*
X113519979Y-76415988D01*
X113519979Y-76415990D01*
X113559540Y-76484510D01*
X113615489Y-76540459D01*
X113684011Y-76580020D01*
X113719478Y-76589523D01*
X113760436Y-76600499D01*
X113760438Y-76600499D01*
X113839564Y-76600499D01*
X113866230Y-76593353D01*
X113915989Y-76580020D01*
X113984511Y-76540459D01*
X114040460Y-76484510D01*
X114080021Y-76415988D01*
X114100500Y-76339561D01*
X114100500Y-76260437D01*
X114100500Y-76260435D01*
X114299500Y-76260435D01*
X114299500Y-76339562D01*
X114319979Y-76415988D01*
X114319979Y-76415990D01*
X114359540Y-76484510D01*
X114415489Y-76540459D01*
X114484011Y-76580020D01*
X114519478Y-76589523D01*
X114560436Y-76600499D01*
X114560438Y-76600499D01*
X114639564Y-76600499D01*
X114666230Y-76593353D01*
X114715989Y-76580020D01*
X114784511Y-76540459D01*
X114840460Y-76484510D01*
X114880021Y-76415988D01*
X114900500Y-76339561D01*
X114900500Y-76260437D01*
X114900500Y-76260435D01*
X115099499Y-76260435D01*
X115099499Y-76339562D01*
X115119978Y-76415988D01*
X115119978Y-76415990D01*
X115159539Y-76484510D01*
X115215488Y-76540459D01*
X115284010Y-76580020D01*
X115319477Y-76589523D01*
X115360435Y-76600499D01*
X115360437Y-76600499D01*
X115439563Y-76600499D01*
X115466229Y-76593353D01*
X115515988Y-76580020D01*
X115584510Y-76540459D01*
X115640459Y-76484510D01*
X115680020Y-76415988D01*
X115700499Y-76339561D01*
X115700499Y-76260437D01*
X115700499Y-76260435D01*
X115691842Y-76228133D01*
X115680020Y-76184010D01*
X115680019Y-76184008D01*
X115680019Y-76184007D01*
X115640458Y-76115487D01*
X115584510Y-76059539D01*
X115515989Y-76019978D01*
X115439563Y-75999499D01*
X115439561Y-75999499D01*
X115360437Y-75999499D01*
X115360435Y-75999499D01*
X115284009Y-76019978D01*
X115284007Y-76019978D01*
X115215487Y-76059539D01*
X115215487Y-76059540D01*
X115159540Y-76115487D01*
X115159539Y-76115487D01*
X115119978Y-76184007D01*
X115119978Y-76184009D01*
X115099499Y-76260435D01*
X114900500Y-76260435D01*
X114891843Y-76228133D01*
X114880021Y-76184010D01*
X114880020Y-76184008D01*
X114880020Y-76184007D01*
X114840459Y-76115487D01*
X114784511Y-76059539D01*
X114715990Y-76019978D01*
X114639564Y-75999499D01*
X114639562Y-75999499D01*
X114560438Y-75999499D01*
X114560436Y-75999499D01*
X114484010Y-76019978D01*
X114484008Y-76019978D01*
X114415488Y-76059539D01*
X114415488Y-76059540D01*
X114359541Y-76115487D01*
X114359540Y-76115487D01*
X114319979Y-76184007D01*
X114319979Y-76184009D01*
X114299500Y-76260435D01*
X114100500Y-76260435D01*
X114091843Y-76228133D01*
X114080021Y-76184010D01*
X114080020Y-76184008D01*
X114080020Y-76184007D01*
X114040459Y-76115487D01*
X113984511Y-76059539D01*
X113915990Y-76019978D01*
X113839564Y-75999499D01*
X113839562Y-75999499D01*
X113760438Y-75999499D01*
X113760436Y-75999499D01*
X113684010Y-76019978D01*
X113684008Y-76019978D01*
X113615488Y-76059539D01*
X113615488Y-76059540D01*
X113559541Y-76115487D01*
X113559540Y-76115487D01*
X113519979Y-76184007D01*
X113519979Y-76184009D01*
X113499500Y-76260435D01*
X111971500Y-76260435D01*
X111971500Y-75899000D01*
X111985852Y-75864352D01*
X112020500Y-75850000D01*
X116426000Y-75850000D01*
X116460648Y-75864352D01*
G37*
%TD.AperFunction*%
%TD*%
M02*
