%TF.GenerationSoftware,KiCad,Pcbnew,9.0.7*%
%TF.CreationDate,2026-03-03T12:26:19+04:00*%
%TF.ProjectId,fpga_board,66706761-5f62-46f6-9172-642e6b696361,rev?*%
%TF.SameCoordinates,Original*%
%TF.FileFunction,Legend,Top*%
%TF.FilePolarity,Positive*%
%FSLAX46Y46*%
G04 Gerber Fmt 4.6, Leading zero omitted, Abs format (unit mm)*
G04 Created by KiCad (PCBNEW 9.0.7) date 2026-03-03 12:26:19*
%MOMM*%
%LPD*%
G01*
G04 APERTURE LIST*
%ADD10C,0.100000*%
%ADD11C,0.150000*%
%ADD12C,0.250000*%
%ADD13C,0.120000*%
%ADD14C,0.152400*%
%ADD15C,0.200000*%
G04 APERTURE END LIST*
D10*
X74585000Y-51415000D02*
X77480000Y-51415000D01*
X77480000Y-54490000D01*
X78410000Y-54490000D01*
X78410000Y-56090000D01*
X77385000Y-56090000D01*
X77385000Y-58390000D01*
X71510000Y-58390000D01*
X71510000Y-54590000D01*
X72210000Y-54590000D01*
X72210000Y-50815000D01*
X74585000Y-50815000D01*
X74585000Y-51415000D01*
X92850000Y-47975000D02*
G75*
G02*
X90909580Y-47396672I300000J4551000D01*
G01*
X119483472Y-61540000D02*
X118783472Y-61540000D01*
X118783472Y-65315000D01*
X116408472Y-65315000D01*
X116408472Y-64715000D01*
X113513472Y-64715000D01*
X113513472Y-61640000D01*
X112583472Y-61640000D01*
X112583472Y-60040000D01*
X113608472Y-60040000D01*
X113608472Y-57740000D01*
X119483472Y-57740000D01*
X119483472Y-61540000D01*
X119475000Y-73250000D02*
X118775000Y-73250000D01*
X118775000Y-77025000D01*
X116400000Y-77025000D01*
X116400000Y-76425000D01*
X113505000Y-76425000D01*
X113505000Y-73350000D01*
X112575000Y-73350000D01*
X112575000Y-71750000D01*
X113600000Y-71750000D01*
X113600000Y-69450000D01*
X119475000Y-69450000D01*
X119475000Y-73250000D01*
X94575000Y-57200000D02*
X95525000Y-57200000D01*
X95525000Y-60800000D01*
X87425000Y-60800000D01*
X87425000Y-55075000D01*
X94575000Y-55075000D01*
X94575000Y-57200000D01*
X85900000Y-60800000D02*
X77800000Y-60800000D01*
X77800000Y-57200000D01*
X78750000Y-57200000D01*
X78750000Y-55075000D01*
X85900000Y-55075000D01*
X85900000Y-60800000D01*
X81400000Y-53430000D02*
X81400000Y-54850000D01*
X81975000Y-43457910D02*
X84870000Y-43457910D01*
X84870000Y-46532910D01*
X85800000Y-46532910D01*
X85800000Y-48132910D01*
X84775000Y-48132910D01*
X84775000Y-50432910D01*
X78900000Y-50432910D01*
X78900000Y-46632910D01*
X79600000Y-46632910D01*
X79600000Y-42857910D01*
X81975000Y-42857910D01*
X81975000Y-43457910D01*
X119475000Y-83430000D02*
X118775000Y-83430000D01*
X118775000Y-87205000D01*
X116400000Y-87205000D01*
X116400000Y-86605000D01*
X113505000Y-86605000D01*
X113505000Y-83530000D01*
X112575000Y-83530000D01*
X112575000Y-81930000D01*
X113600000Y-81930000D01*
X113600000Y-79630000D01*
X119475000Y-79630000D01*
X119475000Y-83430000D01*
G36*
X93210973Y-47729633D02*
G01*
X93734630Y-47729633D01*
X93734630Y-47992866D01*
X93648656Y-47992866D01*
X93648656Y-47905488D01*
X93561828Y-47905488D01*
X93561828Y-48517377D01*
X93648656Y-48517377D01*
X93648656Y-48605000D01*
X93296946Y-48605000D01*
X93296946Y-48517377D01*
X93386828Y-48517377D01*
X93386828Y-47905488D01*
X93296946Y-47905488D01*
X93296946Y-47992866D01*
X93210973Y-47992866D01*
X93210973Y-47729633D01*
G37*
G36*
X93910484Y-47729633D02*
G01*
X94348168Y-47729633D01*
X94348168Y-47815607D01*
X94437194Y-47815607D01*
X94437194Y-47991461D01*
X94262194Y-47991461D01*
X94262194Y-47817255D01*
X93999511Y-47817255D01*
X93999511Y-48517377D01*
X94262194Y-48517377D01*
X94262194Y-48343171D01*
X94437194Y-48343171D01*
X94437194Y-48517377D01*
X94348168Y-48517377D01*
X94348168Y-48605000D01*
X93910484Y-48605000D01*
X93910484Y-48517377D01*
X93824511Y-48517377D01*
X93824511Y-47815607D01*
X93910484Y-47815607D01*
X93910484Y-47729633D01*
G37*
G36*
X94525976Y-47729633D02*
G01*
X94788904Y-47729633D01*
X94788904Y-48077435D01*
X94876587Y-48077435D01*
X94876587Y-47991461D01*
X94965430Y-47991461D01*
X94965430Y-47729633D01*
X95137561Y-47729633D01*
X95137561Y-47991461D01*
X95051587Y-47991461D01*
X95051587Y-48077435D01*
X94965430Y-48077435D01*
X94965430Y-48253290D01*
X95051587Y-48253290D01*
X95051587Y-48343171D01*
X95137561Y-48343171D01*
X95137561Y-48605000D01*
X94965430Y-48605000D01*
X94965430Y-48343171D01*
X94876587Y-48343171D01*
X94876587Y-48253290D01*
X94788904Y-48253290D01*
X94788904Y-48605000D01*
X94525976Y-48605000D01*
X94525976Y-48517377D01*
X94613904Y-48517377D01*
X94613904Y-47817255D01*
X94525976Y-47817255D01*
X94525976Y-47729633D01*
G37*
G36*
X94854633Y-46714026D02*
G01*
X94854633Y-46276343D01*
X94940607Y-46276343D01*
X94940607Y-46187316D01*
X95202435Y-46187316D01*
X95202435Y-46276343D01*
X95290057Y-46276343D01*
X95290057Y-46187316D01*
X95641767Y-46187316D01*
X95641767Y-46276343D01*
X95730000Y-46276343D01*
X95730000Y-46714026D01*
X95641767Y-46714026D01*
X95641767Y-46800000D01*
X95554145Y-46800000D01*
X95554145Y-46625000D01*
X95642377Y-46625000D01*
X95642377Y-46362316D01*
X95290057Y-46362316D01*
X95290057Y-46625000D01*
X95204694Y-46625000D01*
X95204694Y-46362316D01*
X94942255Y-46362316D01*
X94942255Y-46625000D01*
X95028229Y-46625000D01*
X95028229Y-46800000D01*
X94940607Y-46800000D01*
X94940607Y-46714026D01*
X94854633Y-46714026D01*
G37*
G36*
X95116461Y-46100488D02*
G01*
X95116461Y-45925488D01*
X95468171Y-45925488D01*
X95468171Y-45838660D01*
X95554145Y-45838660D01*
X95554145Y-45751831D01*
X95468171Y-45751831D01*
X95468171Y-45663660D01*
X95116461Y-45663660D01*
X95116461Y-45489515D01*
X95468171Y-45489515D01*
X95468171Y-45576831D01*
X95554145Y-45576831D01*
X95554145Y-45663660D01*
X95644026Y-45663660D01*
X95644026Y-45752686D01*
X95730000Y-45752686D01*
X95730000Y-45838660D01*
X95644026Y-45838660D01*
X95644026Y-45924633D01*
X95554145Y-45924633D01*
X95554145Y-46013660D01*
X95468171Y-46013660D01*
X95468171Y-46100488D01*
X95116461Y-46100488D01*
G37*
G36*
X94854633Y-45315003D02*
G01*
X94854633Y-44877320D01*
X94940607Y-44877320D01*
X94940607Y-44788293D01*
X95202435Y-44788293D01*
X95202435Y-44877320D01*
X95290057Y-44877320D01*
X95290057Y-44788293D01*
X95641767Y-44788293D01*
X95641767Y-44877320D01*
X95730000Y-44877320D01*
X95730000Y-45315003D01*
X95641767Y-45315003D01*
X95641767Y-45400976D01*
X95554145Y-45400976D01*
X95554145Y-45225976D01*
X95642377Y-45225976D01*
X95642377Y-44963293D01*
X95290057Y-44963293D01*
X95290057Y-45225976D01*
X95204694Y-45225976D01*
X95204694Y-44963293D01*
X94942255Y-44963293D01*
X94942255Y-45225976D01*
X95028229Y-45225976D01*
X95028229Y-45400976D01*
X94940607Y-45400976D01*
X94940607Y-45315003D01*
X94854633Y-45315003D01*
G37*
G36*
X113870300Y-56694633D02*
G01*
X114045300Y-56694633D01*
X114045300Y-57482377D01*
X114218102Y-57482377D01*
X114218102Y-57570000D01*
X113694445Y-57570000D01*
X113694445Y-57482377D01*
X113870300Y-57482377D01*
X113870300Y-56956461D01*
X113694445Y-56956461D01*
X113694445Y-56868839D01*
X113782372Y-56868839D01*
X113782372Y-56781706D01*
X113870300Y-56781706D01*
X113870300Y-56694633D01*
G37*
G36*
X114307983Y-56956461D02*
G01*
X114482983Y-56956461D01*
X114482983Y-57308171D01*
X114569811Y-57308171D01*
X114569811Y-57394145D01*
X114656640Y-57394145D01*
X114656640Y-57308171D01*
X114744811Y-57308171D01*
X114744811Y-56956461D01*
X114918956Y-56956461D01*
X114918956Y-57308171D01*
X114831640Y-57308171D01*
X114831640Y-57394145D01*
X114744811Y-57394145D01*
X114744811Y-57484026D01*
X114655785Y-57484026D01*
X114655785Y-57570000D01*
X114569811Y-57570000D01*
X114569811Y-57484026D01*
X114483838Y-57484026D01*
X114483838Y-57394145D01*
X114394811Y-57394145D01*
X114394811Y-57308171D01*
X114307983Y-57308171D01*
X114307983Y-56956461D01*
G37*
G36*
X115094323Y-56694633D02*
G01*
X115531151Y-56694633D01*
X115531151Y-56780607D01*
X115621887Y-56780607D01*
X115621887Y-56956461D01*
X115531151Y-56956461D01*
X115531151Y-57042435D01*
X115446033Y-57042435D01*
X115446033Y-57132316D01*
X115358349Y-57132316D01*
X115358349Y-57218290D01*
X115269323Y-57218290D01*
X115269323Y-57307072D01*
X115182495Y-57307072D01*
X115182495Y-57482377D01*
X115446033Y-57482377D01*
X115446033Y-57394694D01*
X115621887Y-57394694D01*
X115621887Y-57570000D01*
X115007495Y-57570000D01*
X115007495Y-57307072D01*
X115094323Y-57307072D01*
X115094323Y-57218290D01*
X115183349Y-57218290D01*
X115183349Y-57132316D01*
X115270178Y-57132316D01*
X115270178Y-57042435D01*
X115358349Y-57042435D01*
X115358349Y-56956461D01*
X115446033Y-56956461D01*
X115446033Y-56782255D01*
X115182495Y-56782255D01*
X115182495Y-56868229D01*
X115007495Y-56868229D01*
X115007495Y-56780607D01*
X115094323Y-56780607D01*
X115094323Y-56694633D01*
G37*
G36*
X89910973Y-40854633D02*
G01*
X90434630Y-40854633D01*
X90434630Y-41117866D01*
X90348656Y-41117866D01*
X90348656Y-41030488D01*
X90261828Y-41030488D01*
X90261828Y-41642377D01*
X90348656Y-41642377D01*
X90348656Y-41730000D01*
X89996946Y-41730000D01*
X89996946Y-41642377D01*
X90086828Y-41642377D01*
X90086828Y-41030488D01*
X89996946Y-41030488D01*
X89996946Y-41117866D01*
X89910973Y-41117866D01*
X89910973Y-40854633D01*
G37*
G36*
X91048168Y-40940607D02*
G01*
X91137194Y-40940607D01*
X91137194Y-41640118D01*
X91048168Y-41640118D01*
X91048168Y-41730000D01*
X90524511Y-41730000D01*
X90524511Y-41642377D01*
X90611339Y-41642377D01*
X90786339Y-41642377D01*
X90962194Y-41642377D01*
X90962194Y-40942255D01*
X90786339Y-40942255D01*
X90786339Y-41642377D01*
X90611339Y-41642377D01*
X90611339Y-40942255D01*
X90524511Y-40942255D01*
X90524511Y-40854633D01*
X91048168Y-40854633D01*
X91048168Y-40940607D01*
G37*
G36*
X91399877Y-40854633D02*
G01*
X91751587Y-40854633D01*
X91751587Y-40942255D01*
X91661706Y-40942255D01*
X91661706Y-41642377D01*
X91751587Y-41642377D01*
X91751587Y-41730000D01*
X91399877Y-41730000D01*
X91399877Y-41642377D01*
X91486706Y-41642377D01*
X91486706Y-40942255D01*
X91399877Y-40942255D01*
X91399877Y-40854633D01*
G37*
G36*
X87360973Y-40879633D02*
G01*
X87884630Y-40879633D01*
X87884630Y-41142866D01*
X87798656Y-41142866D01*
X87798656Y-41055488D01*
X87711828Y-41055488D01*
X87711828Y-41667377D01*
X87798656Y-41667377D01*
X87798656Y-41755000D01*
X87446946Y-41755000D01*
X87446946Y-41667377D01*
X87536828Y-41667377D01*
X87536828Y-41055488D01*
X87446946Y-41055488D01*
X87446946Y-41142866D01*
X87360973Y-41142866D01*
X87360973Y-40879633D01*
G37*
G36*
X88498168Y-40965607D02*
G01*
X88587194Y-40965607D01*
X88587194Y-41665118D01*
X88498168Y-41665118D01*
X88498168Y-41755000D01*
X87974511Y-41755000D01*
X87974511Y-41667377D01*
X88061339Y-41667377D01*
X88236339Y-41667377D01*
X88412194Y-41667377D01*
X88412194Y-40967255D01*
X88236339Y-40967255D01*
X88236339Y-41667377D01*
X88061339Y-41667377D01*
X88061339Y-40967255D01*
X87974511Y-40967255D01*
X87974511Y-40879633D01*
X88498168Y-40879633D01*
X88498168Y-40965607D01*
G37*
G36*
X89197679Y-40965607D02*
G01*
X89286706Y-40965607D01*
X89286706Y-41665118D01*
X89197679Y-41665118D01*
X89197679Y-41755000D01*
X88759996Y-41755000D01*
X88759996Y-41667377D01*
X88849023Y-41667377D01*
X89111706Y-41667377D01*
X89111706Y-40967255D01*
X88849023Y-40967255D01*
X88849023Y-41667377D01*
X88759996Y-41667377D01*
X88759996Y-41665118D01*
X88674023Y-41665118D01*
X88674023Y-40965607D01*
X88759996Y-40965607D01*
X88759996Y-40879633D01*
X89197679Y-40879633D01*
X89197679Y-40965607D01*
G37*
G36*
X113686828Y-68404633D02*
G01*
X114123656Y-68404633D01*
X114123656Y-68490607D01*
X114214392Y-68490607D01*
X114214392Y-68666461D01*
X114123656Y-68666461D01*
X114123656Y-68752435D01*
X114038538Y-68752435D01*
X114038538Y-68842316D01*
X113950854Y-68842316D01*
X113950854Y-68928290D01*
X113861828Y-68928290D01*
X113861828Y-69017072D01*
X113775000Y-69017072D01*
X113775000Y-69192377D01*
X114038538Y-69192377D01*
X114038538Y-69104694D01*
X114214392Y-69104694D01*
X114214392Y-69280000D01*
X113600000Y-69280000D01*
X113600000Y-69017072D01*
X113686828Y-69017072D01*
X113686828Y-68928290D01*
X113775854Y-68928290D01*
X113775854Y-68842316D01*
X113862683Y-68842316D01*
X113862683Y-68752435D01*
X113950854Y-68752435D01*
X113950854Y-68666461D01*
X114038538Y-68666461D01*
X114038538Y-68492255D01*
X113775000Y-68492255D01*
X113775000Y-68578229D01*
X113600000Y-68578229D01*
X113600000Y-68490607D01*
X113686828Y-68490607D01*
X113686828Y-68404633D01*
G37*
G36*
X114299511Y-68666461D02*
G01*
X114474511Y-68666461D01*
X114474511Y-69018171D01*
X114561339Y-69018171D01*
X114561339Y-69104145D01*
X114648168Y-69104145D01*
X114648168Y-69018171D01*
X114736339Y-69018171D01*
X114736339Y-68666461D01*
X114910484Y-68666461D01*
X114910484Y-69018171D01*
X114823168Y-69018171D01*
X114823168Y-69104145D01*
X114736339Y-69104145D01*
X114736339Y-69194026D01*
X114647313Y-69194026D01*
X114647313Y-69280000D01*
X114561339Y-69280000D01*
X114561339Y-69194026D01*
X114475366Y-69194026D01*
X114475366Y-69104145D01*
X114386339Y-69104145D01*
X114386339Y-69018171D01*
X114299511Y-69018171D01*
X114299511Y-68666461D01*
G37*
G36*
X114999023Y-68404633D02*
G01*
X115611706Y-68404633D01*
X115611706Y-68492255D01*
X115174023Y-68492255D01*
X115174023Y-68754694D01*
X115522679Y-68754694D01*
X115522679Y-68840057D01*
X115611706Y-68840057D01*
X115611706Y-69191767D01*
X115522679Y-69191767D01*
X115522679Y-69280000D01*
X115084996Y-69280000D01*
X115084996Y-69191767D01*
X114999023Y-69191767D01*
X114999023Y-69104145D01*
X115174023Y-69104145D01*
X115174023Y-69192377D01*
X115436706Y-69192377D01*
X115436706Y-68840057D01*
X114999023Y-68840057D01*
X114999023Y-68404633D01*
G37*
G36*
X113861828Y-78584633D02*
G01*
X114036828Y-78584633D01*
X114036828Y-79372377D01*
X114209630Y-79372377D01*
X114209630Y-79460000D01*
X113685973Y-79460000D01*
X113685973Y-79372377D01*
X113861828Y-79372377D01*
X113861828Y-78846461D01*
X113685973Y-78846461D01*
X113685973Y-78758839D01*
X113773900Y-78758839D01*
X113773900Y-78671706D01*
X113861828Y-78671706D01*
X113861828Y-78584633D01*
G37*
G36*
X114299511Y-78846461D02*
G01*
X114474511Y-78846461D01*
X114474511Y-79198171D01*
X114561339Y-79198171D01*
X114561339Y-79284145D01*
X114648168Y-79284145D01*
X114648168Y-79198171D01*
X114736339Y-79198171D01*
X114736339Y-78846461D01*
X114910484Y-78846461D01*
X114910484Y-79198171D01*
X114823168Y-79198171D01*
X114823168Y-79284145D01*
X114736339Y-79284145D01*
X114736339Y-79374026D01*
X114647313Y-79374026D01*
X114647313Y-79460000D01*
X114561339Y-79460000D01*
X114561339Y-79374026D01*
X114475366Y-79374026D01*
X114475366Y-79284145D01*
X114386339Y-79284145D01*
X114386339Y-79198171D01*
X114299511Y-79198171D01*
X114299511Y-78846461D01*
G37*
G36*
X115260851Y-78584633D02*
G01*
X115435851Y-78584633D01*
X115435851Y-79372377D01*
X115608653Y-79372377D01*
X115608653Y-79460000D01*
X115084996Y-79460000D01*
X115084996Y-79372377D01*
X115260851Y-79372377D01*
X115260851Y-78846461D01*
X115084996Y-78846461D01*
X115084996Y-78758839D01*
X115172923Y-78758839D01*
X115172923Y-78671706D01*
X115260851Y-78671706D01*
X115260851Y-78584633D01*
G37*
G36*
X92410973Y-40854633D02*
G01*
X92848656Y-40854633D01*
X92848656Y-40940607D01*
X92937683Y-40940607D01*
X92937683Y-41116461D01*
X92762683Y-41116461D01*
X92762683Y-40942255D01*
X92500000Y-40942255D01*
X92500000Y-41642377D01*
X92762683Y-41642377D01*
X92762683Y-41379938D01*
X92675122Y-41379938D01*
X92675122Y-41292316D01*
X92937683Y-41292316D01*
X92937683Y-41730000D01*
X92410973Y-41730000D01*
X92410973Y-41640118D01*
X92325000Y-41640118D01*
X92325000Y-40940607D01*
X92410973Y-40940607D01*
X92410973Y-40854633D01*
G37*
G36*
X93024511Y-40854633D02*
G01*
X93110484Y-40854633D01*
X93110484Y-40940607D01*
X93198412Y-40940607D01*
X93198412Y-41030488D01*
X93286339Y-41030488D01*
X93286339Y-41116461D01*
X93374267Y-41116461D01*
X93374267Y-41206343D01*
X93462194Y-41206343D01*
X93462194Y-40854633D01*
X93637194Y-40854633D01*
X93637194Y-41730000D01*
X93462194Y-41730000D01*
X93462194Y-41468171D01*
X93374267Y-41468171D01*
X93374267Y-41378290D01*
X93286339Y-41378290D01*
X93286339Y-41292316D01*
X93198412Y-41292316D01*
X93198412Y-41730000D01*
X93024511Y-41730000D01*
X93024511Y-40854633D01*
G37*
G36*
X94247679Y-40940607D02*
G01*
X94336706Y-40940607D01*
X94336706Y-41640118D01*
X94247679Y-41640118D01*
X94247679Y-41730000D01*
X93724023Y-41730000D01*
X93724023Y-41642377D01*
X93810851Y-41642377D01*
X93985851Y-41642377D01*
X94161706Y-41642377D01*
X94161706Y-40942255D01*
X93985851Y-40942255D01*
X93985851Y-41642377D01*
X93810851Y-41642377D01*
X93810851Y-40942255D01*
X93724023Y-40942255D01*
X93724023Y-40854633D01*
X94247679Y-40854633D01*
X94247679Y-40940607D01*
G37*
G36*
X108975000Y-40929633D02*
G01*
X109587683Y-40929633D01*
X109587683Y-41017255D01*
X109150000Y-41017255D01*
X109150000Y-41279694D01*
X109498656Y-41279694D01*
X109498656Y-41365057D01*
X109587683Y-41365057D01*
X109587683Y-41716767D01*
X109498656Y-41716767D01*
X109498656Y-41805000D01*
X109060973Y-41805000D01*
X109060973Y-41716767D01*
X108975000Y-41716767D01*
X108975000Y-41629145D01*
X109150000Y-41629145D01*
X109150000Y-41717377D01*
X109412683Y-41717377D01*
X109412683Y-41365057D01*
X108975000Y-41365057D01*
X108975000Y-40929633D01*
G37*
G36*
X109674511Y-41191461D02*
G01*
X109849511Y-41191461D01*
X109849511Y-41543171D01*
X109936339Y-41543171D01*
X109936339Y-41629145D01*
X110023168Y-41629145D01*
X110023168Y-41543171D01*
X110111339Y-41543171D01*
X110111339Y-41191461D01*
X110285484Y-41191461D01*
X110285484Y-41543171D01*
X110198168Y-41543171D01*
X110198168Y-41629145D01*
X110111339Y-41629145D01*
X110111339Y-41719026D01*
X110022313Y-41719026D01*
X110022313Y-41805000D01*
X109936339Y-41805000D01*
X109936339Y-41719026D01*
X109850366Y-41719026D01*
X109850366Y-41629145D01*
X109761339Y-41629145D01*
X109761339Y-41543171D01*
X109674511Y-41543171D01*
X109674511Y-41191461D01*
G37*
G36*
X85919633Y-46976858D02*
G01*
X85919633Y-46453201D01*
X86182866Y-46453201D01*
X86182866Y-46539175D01*
X86095488Y-46539175D01*
X86095488Y-46626003D01*
X86707377Y-46626003D01*
X86707377Y-46539175D01*
X86795000Y-46539175D01*
X86795000Y-46890885D01*
X86707377Y-46890885D01*
X86707377Y-46801003D01*
X86095488Y-46801003D01*
X86095488Y-46890885D01*
X86182866Y-46890885D01*
X86182866Y-46976858D01*
X85919633Y-46976858D01*
G37*
G36*
X85919633Y-46363320D02*
G01*
X85919633Y-46277347D01*
X86005607Y-46277347D01*
X86005607Y-46189053D01*
X86095488Y-46189053D01*
X86095488Y-46100820D01*
X86181461Y-46100820D01*
X86181461Y-46015518D01*
X86095488Y-46015518D01*
X86095488Y-45925637D01*
X86005607Y-45925637D01*
X86005607Y-45835755D01*
X85919633Y-45835755D01*
X85919633Y-45749782D01*
X86795000Y-45749782D01*
X86795000Y-45925637D01*
X86357316Y-45925637D01*
X86357316Y-46015518D01*
X86443290Y-46015518D01*
X86443290Y-46100820D01*
X86357316Y-46100820D01*
X86357316Y-46189053D01*
X86795000Y-46189053D01*
X86795000Y-46363320D01*
X85919633Y-46363320D01*
G37*
G36*
X85919633Y-45576980D02*
G01*
X85919633Y-45140152D01*
X86005607Y-45140152D01*
X86005607Y-45051125D01*
X86181461Y-45051125D01*
X86181461Y-45226125D01*
X86007255Y-45226125D01*
X86007255Y-45488808D01*
X86181461Y-45488808D01*
X86181461Y-45401980D01*
X86269694Y-45401980D01*
X86269694Y-45226125D01*
X86356767Y-45226125D01*
X86356767Y-45140152D01*
X86445549Y-45140152D01*
X86445549Y-45051125D01*
X86707377Y-45051125D01*
X86707377Y-45140152D01*
X86795000Y-45140152D01*
X86795000Y-45576980D01*
X86707377Y-45576980D01*
X86707377Y-45663808D01*
X86533171Y-45663808D01*
X86533171Y-45488808D01*
X86707377Y-45488808D01*
X86707377Y-45226125D01*
X86445549Y-45226125D01*
X86445549Y-45315152D01*
X86356767Y-45315152D01*
X86356767Y-45487954D01*
X86269694Y-45487954D01*
X86269694Y-45576980D01*
X86181461Y-45576980D01*
X86181461Y-45663808D01*
X86005607Y-45663808D01*
X86005607Y-45576980D01*
X85919633Y-45576980D01*
G37*
G36*
X78500000Y-53664633D02*
G01*
X79113538Y-53664633D01*
X79113538Y-53926461D01*
X79027564Y-53926461D01*
X79027564Y-53839389D01*
X78937683Y-53839389D01*
X78937683Y-53752255D01*
X78761828Y-53752255D01*
X78761828Y-54012435D01*
X78851709Y-54012435D01*
X78851709Y-53926461D01*
X78937683Y-53926461D01*
X78937683Y-54278171D01*
X78851709Y-54278171D01*
X78851709Y-54188290D01*
X78761828Y-54188290D01*
X78761828Y-54452377D01*
X78851709Y-54452377D01*
X78851709Y-54540000D01*
X78500000Y-54540000D01*
X78500000Y-54452377D01*
X78586828Y-54452377D01*
X78586828Y-53752255D01*
X78500000Y-53752255D01*
X78500000Y-53664633D01*
G37*
G36*
X79723168Y-53750607D02*
G01*
X79812194Y-53750607D01*
X79812194Y-54102316D01*
X79723168Y-54102316D01*
X79723168Y-54189938D01*
X79461339Y-54189938D01*
X79461339Y-54452377D01*
X79551221Y-54452377D01*
X79551221Y-54540000D01*
X79199511Y-54540000D01*
X79199511Y-54452377D01*
X79286339Y-54452377D01*
X79286339Y-54102316D01*
X79461339Y-54102316D01*
X79637194Y-54102316D01*
X79637194Y-53752255D01*
X79461339Y-53752255D01*
X79461339Y-54102316D01*
X79286339Y-54102316D01*
X79286339Y-53752255D01*
X79199511Y-53752255D01*
X79199511Y-53664633D01*
X79723168Y-53664633D01*
X79723168Y-53750607D01*
G37*
G36*
X79984996Y-53664633D02*
G01*
X80422679Y-53664633D01*
X80422679Y-53750607D01*
X80511706Y-53750607D01*
X80511706Y-53926461D01*
X80336706Y-53926461D01*
X80336706Y-53752255D01*
X80074023Y-53752255D01*
X80074023Y-54452377D01*
X80336706Y-54452377D01*
X80336706Y-54189938D01*
X80249145Y-54189938D01*
X80249145Y-54102316D01*
X80511706Y-54102316D01*
X80511706Y-54540000D01*
X79984996Y-54540000D01*
X79984996Y-54450118D01*
X79899023Y-54450118D01*
X79899023Y-53750607D01*
X79984996Y-53750607D01*
X79984996Y-53664633D01*
G37*
G36*
X81036217Y-53752255D02*
G01*
X81122191Y-53752255D01*
X81122191Y-53840488D01*
X81211217Y-53840488D01*
X81211217Y-54540000D01*
X81036217Y-54540000D01*
X81036217Y-54189938D01*
X80773534Y-54189938D01*
X80773534Y-54540000D01*
X80598534Y-54540000D01*
X80598534Y-53840488D01*
X80685362Y-53840488D01*
X80773534Y-53840488D01*
X80773534Y-54102316D01*
X81036217Y-54102316D01*
X81036217Y-53840488D01*
X80947191Y-53840488D01*
X80947191Y-53752255D01*
X80860362Y-53752255D01*
X80860362Y-53840488D01*
X80773534Y-53840488D01*
X80685362Y-53840488D01*
X80685362Y-53752255D01*
X80774389Y-53752255D01*
X80774389Y-53664633D01*
X81036217Y-53664633D01*
X81036217Y-53752255D01*
G37*
G36*
X81550000Y-53694633D02*
G01*
X82163538Y-53694633D01*
X82163538Y-53956461D01*
X82077564Y-53956461D01*
X82077564Y-53869389D01*
X81987683Y-53869389D01*
X81987683Y-53782255D01*
X81811828Y-53782255D01*
X81811828Y-54042435D01*
X81901709Y-54042435D01*
X81901709Y-53956461D01*
X81987683Y-53956461D01*
X81987683Y-54308171D01*
X81901709Y-54308171D01*
X81901709Y-54218290D01*
X81811828Y-54218290D01*
X81811828Y-54482377D01*
X81901709Y-54482377D01*
X81901709Y-54570000D01*
X81550000Y-54570000D01*
X81550000Y-54482377D01*
X81636828Y-54482377D01*
X81636828Y-53782255D01*
X81550000Y-53782255D01*
X81550000Y-53694633D01*
G37*
G36*
X82249511Y-53694633D02*
G01*
X82424511Y-53694633D01*
X82424511Y-53866580D01*
X82511339Y-53866580D01*
X82511339Y-53956461D01*
X82598168Y-53956461D01*
X82598168Y-53866580D01*
X82687194Y-53866580D01*
X82687194Y-53694633D01*
X82862194Y-53694633D01*
X82862194Y-53870488D01*
X82773168Y-53870488D01*
X82773168Y-54044328D01*
X82687194Y-54044328D01*
X82687194Y-54220183D01*
X82773168Y-54220183D01*
X82773168Y-54394145D01*
X82862194Y-54394145D01*
X82862194Y-54570000D01*
X82687194Y-54570000D01*
X82687194Y-54394145D01*
X82598168Y-54394145D01*
X82598168Y-54308171D01*
X82511339Y-54308171D01*
X82511339Y-54394145D01*
X82424511Y-54394145D01*
X82424511Y-54570000D01*
X82249511Y-54570000D01*
X82249511Y-54394145D01*
X82336339Y-54394145D01*
X82336339Y-54220183D01*
X82425366Y-54220183D01*
X82425366Y-54044328D01*
X82336339Y-54044328D01*
X82336339Y-53870488D01*
X82249511Y-53870488D01*
X82249511Y-53694633D01*
G37*
G36*
X83034996Y-53694633D02*
G01*
X83472679Y-53694633D01*
X83472679Y-53780607D01*
X83561706Y-53780607D01*
X83561706Y-54042435D01*
X83472679Y-54042435D01*
X83472679Y-54130057D01*
X83561706Y-54130057D01*
X83561706Y-54481767D01*
X83472679Y-54481767D01*
X83472679Y-54570000D01*
X83034996Y-54570000D01*
X83034996Y-54481767D01*
X82949023Y-54481767D01*
X82949023Y-54394145D01*
X83124023Y-54394145D01*
X83124023Y-54482377D01*
X83386706Y-54482377D01*
X83386706Y-54130057D01*
X83124023Y-54130057D01*
X83124023Y-54044694D01*
X83386706Y-54044694D01*
X83386706Y-53782255D01*
X83124023Y-53782255D01*
X83124023Y-53868229D01*
X82949023Y-53868229D01*
X82949023Y-53780607D01*
X83034996Y-53780607D01*
X83034996Y-53694633D01*
G37*
G36*
X71771828Y-58634633D02*
G01*
X71946828Y-58634633D01*
X71946828Y-59422377D01*
X72119630Y-59422377D01*
X72119630Y-59510000D01*
X71595973Y-59510000D01*
X71595973Y-59422377D01*
X71771828Y-59422377D01*
X71771828Y-58896461D01*
X71595973Y-58896461D01*
X71595973Y-58808839D01*
X71683900Y-58808839D01*
X71683900Y-58721706D01*
X71771828Y-58721706D01*
X71771828Y-58634633D01*
G37*
G36*
X72209511Y-58896461D02*
G01*
X72384511Y-58896461D01*
X72384511Y-59248171D01*
X72471339Y-59248171D01*
X72471339Y-59334145D01*
X72558168Y-59334145D01*
X72558168Y-59248171D01*
X72646339Y-59248171D01*
X72646339Y-58896461D01*
X72820484Y-58896461D01*
X72820484Y-59248171D01*
X72733168Y-59248171D01*
X72733168Y-59334145D01*
X72646339Y-59334145D01*
X72646339Y-59424026D01*
X72557313Y-59424026D01*
X72557313Y-59510000D01*
X72471339Y-59510000D01*
X72471339Y-59424026D01*
X72385366Y-59424026D01*
X72385366Y-59334145D01*
X72296339Y-59334145D01*
X72296339Y-59248171D01*
X72209511Y-59248171D01*
X72209511Y-58896461D01*
G37*
G36*
X72994996Y-58634633D02*
G01*
X73432679Y-58634633D01*
X73432679Y-58720607D01*
X73521706Y-58720607D01*
X73521706Y-58982435D01*
X73432679Y-58982435D01*
X73432679Y-59070057D01*
X73521706Y-59070057D01*
X73521706Y-59421767D01*
X73432679Y-59421767D01*
X73432679Y-59510000D01*
X72994996Y-59510000D01*
X72994996Y-59421767D01*
X72909023Y-59421767D01*
X72909023Y-59334145D01*
X73084023Y-59334145D01*
X73084023Y-59422377D01*
X73346706Y-59422377D01*
X73346706Y-59070057D01*
X73084023Y-59070057D01*
X73084023Y-58984694D01*
X73346706Y-58984694D01*
X73346706Y-58722255D01*
X73084023Y-58722255D01*
X73084023Y-58808229D01*
X72909023Y-58808229D01*
X72909023Y-58720607D01*
X72994996Y-58720607D01*
X72994996Y-58634633D01*
G37*
G36*
X73608534Y-58634633D02*
G01*
X74221217Y-58634633D01*
X74221217Y-58722255D01*
X73783534Y-58722255D01*
X73783534Y-58984694D01*
X74132191Y-58984694D01*
X74132191Y-59070057D01*
X74221217Y-59070057D01*
X74221217Y-59421767D01*
X74132191Y-59421767D01*
X74132191Y-59510000D01*
X73694508Y-59510000D01*
X73694508Y-59421767D01*
X73608534Y-59421767D01*
X73608534Y-59334145D01*
X73783534Y-59334145D01*
X73783534Y-59422377D01*
X74046217Y-59422377D01*
X74046217Y-59070057D01*
X73608534Y-59070057D01*
X73608534Y-58634633D01*
G37*
G36*
X115302316Y-46116343D02*
G01*
X115478171Y-46116343D01*
X115478171Y-46027316D01*
X115740000Y-46027316D01*
X115740000Y-46202316D01*
X115478171Y-46202316D01*
X115478171Y-46291343D01*
X115389938Y-46291343D01*
X115389938Y-46378171D01*
X115740000Y-46378171D01*
X115740000Y-46640000D01*
X115652377Y-46640000D01*
X115652377Y-46553171D01*
X114952255Y-46553171D01*
X114952255Y-46640000D01*
X114864633Y-46640000D01*
X114864633Y-46378171D01*
X114952255Y-46378171D01*
X115302316Y-46378171D01*
X115302316Y-46202316D01*
X114952255Y-46202316D01*
X114952255Y-46378171D01*
X114864633Y-46378171D01*
X114864633Y-46116343D01*
X114950607Y-46116343D01*
X114950607Y-46027316D01*
X115302316Y-46027316D01*
X115302316Y-46116343D01*
G37*
G36*
X114864633Y-45938534D02*
G01*
X114864633Y-45326950D01*
X115126461Y-45326950D01*
X115126461Y-45412923D01*
X115039389Y-45412923D01*
X115039389Y-45502805D01*
X114952255Y-45502805D01*
X114952255Y-45675607D01*
X115212435Y-45675607D01*
X115212435Y-45588778D01*
X115126461Y-45588778D01*
X115126461Y-45502805D01*
X115478171Y-45502805D01*
X115478171Y-45588778D01*
X115388290Y-45588778D01*
X115388290Y-45675607D01*
X115652377Y-45675607D01*
X115652377Y-45502805D01*
X115565244Y-45502805D01*
X115565244Y-45412923D01*
X115478171Y-45412923D01*
X115478171Y-45326950D01*
X115740000Y-45326950D01*
X115740000Y-45938534D01*
X115652377Y-45938534D01*
X115652377Y-45850607D01*
X114952255Y-45850607D01*
X114952255Y-45938534D01*
X114864633Y-45938534D01*
G37*
G36*
X114864633Y-45154148D02*
G01*
X114864633Y-44717320D01*
X114950607Y-44717320D01*
X114950607Y-44628293D01*
X115126461Y-44628293D01*
X115126461Y-44803293D01*
X114952255Y-44803293D01*
X114952255Y-45065976D01*
X115126461Y-45065976D01*
X115126461Y-44979148D01*
X115214694Y-44979148D01*
X115214694Y-44803293D01*
X115301767Y-44803293D01*
X115301767Y-44717320D01*
X115390549Y-44717320D01*
X115390549Y-44628293D01*
X115652377Y-44628293D01*
X115652377Y-44717320D01*
X115740000Y-44717320D01*
X115740000Y-45154148D01*
X115652377Y-45154148D01*
X115652377Y-45240976D01*
X115478171Y-45240976D01*
X115478171Y-45065976D01*
X115652377Y-45065976D01*
X115652377Y-44803293D01*
X115390549Y-44803293D01*
X115390549Y-44892320D01*
X115301767Y-44892320D01*
X115301767Y-45065122D01*
X115214694Y-45065122D01*
X115214694Y-45154148D01*
X115126461Y-45154148D01*
X115126461Y-45240976D01*
X114950607Y-45240976D01*
X114950607Y-45154148D01*
X114864633Y-45154148D01*
G37*
G36*
X114864633Y-44539511D02*
G01*
X114864633Y-43927927D01*
X115126461Y-43927927D01*
X115126461Y-44013900D01*
X115039389Y-44013900D01*
X115039389Y-44103782D01*
X114952255Y-44103782D01*
X114952255Y-44276584D01*
X115212435Y-44276584D01*
X115212435Y-44189755D01*
X115126461Y-44189755D01*
X115126461Y-44103782D01*
X115478171Y-44103782D01*
X115478171Y-44189755D01*
X115388290Y-44189755D01*
X115388290Y-44276584D01*
X115652377Y-44276584D01*
X115652377Y-44103782D01*
X115565244Y-44103782D01*
X115565244Y-44013900D01*
X115478171Y-44013900D01*
X115478171Y-43927927D01*
X115740000Y-43927927D01*
X115740000Y-44539511D01*
X115652377Y-44539511D01*
X115652377Y-44451584D01*
X114952255Y-44451584D01*
X114952255Y-44539511D01*
X114864633Y-44539511D01*
G37*
G36*
X114864633Y-43755980D02*
G01*
X114864633Y-43232323D01*
X115127866Y-43232323D01*
X115127866Y-43318297D01*
X115040488Y-43318297D01*
X115040488Y-43405125D01*
X115652377Y-43405125D01*
X115652377Y-43318297D01*
X115740000Y-43318297D01*
X115740000Y-43670006D01*
X115652377Y-43670006D01*
X115652377Y-43580125D01*
X115040488Y-43580125D01*
X115040488Y-43670006D01*
X115127866Y-43670006D01*
X115127866Y-43755980D01*
X114864633Y-43755980D01*
G37*
G36*
X82775973Y-50674633D02*
G01*
X83213656Y-50674633D01*
X83213656Y-50760607D01*
X83302683Y-50760607D01*
X83302683Y-51022435D01*
X83213656Y-51022435D01*
X83213656Y-51110057D01*
X83302683Y-51110057D01*
X83302683Y-51461767D01*
X83213656Y-51461767D01*
X83213656Y-51550000D01*
X82775973Y-51550000D01*
X82775973Y-51461767D01*
X82690000Y-51461767D01*
X82690000Y-51374145D01*
X82865000Y-51374145D01*
X82865000Y-51462377D01*
X83127683Y-51462377D01*
X83127683Y-51110057D01*
X82865000Y-51110057D01*
X82865000Y-51024694D01*
X83127683Y-51024694D01*
X83127683Y-50762255D01*
X82865000Y-50762255D01*
X82865000Y-50848229D01*
X82690000Y-50848229D01*
X82690000Y-50760607D01*
X82775973Y-50760607D01*
X82775973Y-50674633D01*
G37*
G36*
X83389511Y-50936461D02*
G01*
X83564511Y-50936461D01*
X83564511Y-51288171D01*
X83651339Y-51288171D01*
X83651339Y-51374145D01*
X83738168Y-51374145D01*
X83738168Y-51288171D01*
X83826339Y-51288171D01*
X83826339Y-50936461D01*
X84000484Y-50936461D01*
X84000484Y-51288171D01*
X83913168Y-51288171D01*
X83913168Y-51374145D01*
X83826339Y-51374145D01*
X83826339Y-51464026D01*
X83737313Y-51464026D01*
X83737313Y-51550000D01*
X83651339Y-51550000D01*
X83651339Y-51464026D01*
X83565366Y-51464026D01*
X83565366Y-51374145D01*
X83476339Y-51374145D01*
X83476339Y-51288171D01*
X83389511Y-51288171D01*
X83389511Y-50936461D01*
G37*
G36*
X84174996Y-50674633D02*
G01*
X84612679Y-50674633D01*
X84612679Y-50760607D01*
X84701706Y-50760607D01*
X84701706Y-51022435D01*
X84612679Y-51022435D01*
X84612679Y-51110057D01*
X84701706Y-51110057D01*
X84701706Y-51461767D01*
X84612679Y-51461767D01*
X84612679Y-51550000D01*
X84174996Y-51550000D01*
X84174996Y-51461767D01*
X84089023Y-51461767D01*
X84089023Y-51374145D01*
X84264023Y-51374145D01*
X84264023Y-51462377D01*
X84526706Y-51462377D01*
X84526706Y-51110057D01*
X84264023Y-51110057D01*
X84264023Y-51024694D01*
X84526706Y-51024694D01*
X84526706Y-50762255D01*
X84264023Y-50762255D01*
X84264023Y-50848229D01*
X84089023Y-50848229D01*
X84089023Y-50760607D01*
X84174996Y-50760607D01*
X84174996Y-50674633D01*
G37*
D11*
G36*
X95664633Y-67955226D02*
G01*
X95664633Y-67780226D01*
X96452377Y-67780226D01*
X96452377Y-67607424D01*
X96540000Y-67607424D01*
X96540000Y-68131081D01*
X96452377Y-68131081D01*
X96452377Y-67955226D01*
X95926461Y-67955226D01*
X95926461Y-68131081D01*
X95838839Y-68131081D01*
X95838839Y-68043154D01*
X95751706Y-68043154D01*
X95751706Y-67955226D01*
X95664633Y-67955226D01*
G37*
G36*
X94580228Y-69127255D02*
G01*
X94666201Y-69127255D01*
X94666201Y-69215488D01*
X94755228Y-69215488D01*
X94755228Y-69915000D01*
X94580228Y-69915000D01*
X94580228Y-69564938D01*
X94317545Y-69564938D01*
X94317545Y-69915000D01*
X94142545Y-69915000D01*
X94142545Y-69215488D01*
X94229373Y-69215488D01*
X94317545Y-69215488D01*
X94317545Y-69477316D01*
X94580228Y-69477316D01*
X94580228Y-69215488D01*
X94491201Y-69215488D01*
X94491201Y-69127255D01*
X94404373Y-69127255D01*
X94404373Y-69215488D01*
X94317545Y-69215488D01*
X94229373Y-69215488D01*
X94229373Y-69127255D01*
X94318399Y-69127255D01*
X94318399Y-69039633D01*
X94580228Y-69039633D01*
X94580228Y-69127255D01*
G37*
G36*
X107664632Y-68017682D02*
G01*
X107664632Y-67842682D01*
X108452376Y-67842682D01*
X108452376Y-67669880D01*
X108539999Y-67669880D01*
X108539999Y-68193537D01*
X108452376Y-68193537D01*
X108452376Y-68017682D01*
X107926460Y-68017682D01*
X107926460Y-68193537D01*
X107838838Y-68193537D01*
X107838838Y-68105610D01*
X107751705Y-68105610D01*
X107751705Y-68017682D01*
X107664632Y-68017682D01*
G37*
G36*
X107838228Y-67142316D02*
G01*
X107752254Y-67142316D01*
X107752254Y-67404999D01*
X108014693Y-67404999D01*
X108102315Y-67404999D01*
X108452376Y-67404999D01*
X108452376Y-67142316D01*
X108102315Y-67142316D01*
X108102315Y-67404999D01*
X108014693Y-67404999D01*
X108014693Y-67056342D01*
X108102315Y-67056342D01*
X108102315Y-66967316D01*
X108452376Y-66967316D01*
X108452376Y-67056342D01*
X108539999Y-67056342D01*
X108539999Y-67494026D01*
X108452376Y-67494026D01*
X108452376Y-67579999D01*
X107750606Y-67579999D01*
X107750606Y-67494026D01*
X107664632Y-67494026D01*
X107664632Y-67056342D01*
X107750606Y-67056342D01*
X107750606Y-66967316D01*
X107838228Y-66967316D01*
X107838228Y-67142316D01*
G37*
G36*
X94228518Y-81039632D02*
G01*
X94752175Y-81039632D01*
X94752175Y-81302865D01*
X94666201Y-81302865D01*
X94666201Y-81215487D01*
X94579373Y-81215487D01*
X94579373Y-81827376D01*
X94666201Y-81827376D01*
X94666201Y-81914999D01*
X94314491Y-81914999D01*
X94314491Y-81827376D01*
X94404373Y-81827376D01*
X94404373Y-81215487D01*
X94314491Y-81215487D01*
X94314491Y-81302865D01*
X94228518Y-81302865D01*
X94228518Y-81039632D01*
G37*
D12*
%TO.C,USB1*%
X106020000Y-45042500D02*
X106020000Y-43072500D01*
X106020000Y-40342500D02*
X106020000Y-39012500D01*
X106020000Y-39012500D02*
X97080000Y-39012500D01*
X97080000Y-43072500D02*
X97080000Y-45042500D01*
X97080000Y-39012500D02*
X97080000Y-40342500D01*
%TO.C,SW1*%
X112420000Y-45700000D02*
X112420000Y-44100000D01*
X113380000Y-43500000D02*
X113460000Y-43500000D01*
X113380000Y-46300000D02*
X113460000Y-46300000D01*
X114420000Y-45700000D02*
X114420000Y-44100000D01*
X113880000Y-44900000D02*
G75*
G02*
X112960000Y-44900000I-460000J0D01*
G01*
X112960000Y-44900000D02*
G75*
G02*
X113880000Y-44900000I460000J0D01*
G01*
D13*
%TO.C,Q4*%
X78040000Y-59797500D02*
X78040000Y-58327500D01*
X78690000Y-59797500D02*
X78040000Y-59797500D01*
X79060000Y-58327500D02*
X79340000Y-58327500D01*
X80360000Y-58413248D02*
X80360000Y-59797500D01*
X80360000Y-59797500D02*
X79710000Y-59797500D01*
X80560000Y-58262500D02*
X80370000Y-58122500D01*
X80560000Y-57982500D01*
X80560000Y-58262500D01*
G36*
X80560000Y-58262500D02*
G01*
X80370000Y-58122500D01*
X80560000Y-57982500D01*
X80560000Y-58262500D01*
G37*
%TO.C,C36*%
X114270580Y-82220000D02*
X113989420Y-82220000D01*
X114270580Y-83240000D02*
X113989420Y-83240000D01*
%TO.C,Y1*%
X111235000Y-51340000D02*
X107815000Y-51340000D01*
X111235000Y-54260000D02*
X111235000Y-51340000D01*
%TO.C,R30*%
X112146359Y-41645000D02*
X112453641Y-41645000D01*
X112146359Y-42405000D02*
X112453641Y-42405000D01*
%TO.C,R52*%
X115372258Y-73539934D02*
X114897742Y-73539934D01*
X115372258Y-74584934D02*
X114897742Y-74584934D01*
%TO.C,TP3*%
X115410000Y-58790000D02*
G75*
G02*
X114010000Y-58790000I-700000J0D01*
G01*
X114010000Y-58790000D02*
G75*
G02*
X115410000Y-58790000I700000J0D01*
G01*
D14*
%TO.C,U1*%
X95000300Y-68375300D02*
X95000300Y-82624700D01*
X95000300Y-82624700D02*
X109249700Y-82624700D01*
X95127300Y-72699904D02*
X94873300Y-72699904D01*
X95127300Y-76699896D02*
X94873300Y-76699896D01*
X95127300Y-80699888D02*
X94873300Y-80699888D01*
X99324904Y-68502300D02*
X99324904Y-68248300D01*
X99324904Y-82497700D02*
X99324904Y-82751700D01*
X103324896Y-68502300D02*
X103324896Y-68248300D01*
X103324896Y-82497700D02*
X103324896Y-82751700D01*
X107324888Y-68502300D02*
X107324888Y-68248300D01*
X107324888Y-82497700D02*
X107324888Y-82751700D01*
X109122700Y-72699904D02*
X109376700Y-72699904D01*
X109122700Y-76699896D02*
X109376700Y-76699896D01*
X109122700Y-80699888D02*
X109376700Y-80699888D01*
X109249700Y-68375300D02*
X95000300Y-68375300D01*
X109249700Y-82624700D02*
X109249700Y-68375300D01*
D13*
%TO.C,C61*%
X107442164Y-44690000D02*
X107657836Y-44690000D01*
X107442164Y-45410000D02*
X107657836Y-45410000D01*
D14*
%TO.C,L5*%
X117317903Y-61366400D02*
X117745997Y-61366400D01*
X117745997Y-58013600D02*
X117317903Y-58013600D01*
D13*
%TO.C,TP7*%
X115385000Y-70587434D02*
G75*
G02*
X113985000Y-70587434I-700000J0D01*
G01*
X113985000Y-70587434D02*
G75*
G02*
X115385000Y-70587434I700000J0D01*
G01*
D10*
%TO.C,D1*%
X79300000Y-52975000D02*
X79300000Y-53575000D01*
X79300000Y-53575000D02*
X79900000Y-53575000D01*
D13*
%TO.C,C29*%
X117822836Y-64430000D02*
X117607164Y-64430000D01*
X117822836Y-65150000D02*
X117607164Y-65150000D01*
%TO.C,R13*%
X75687742Y-53339668D02*
X76162258Y-53339668D01*
X75687742Y-54384668D02*
X76162258Y-54384668D01*
%TO.C,R44*%
X80145000Y-56368641D02*
X80145000Y-56061359D01*
X80905000Y-56368641D02*
X80905000Y-56061359D01*
%TO.C,R36*%
X88820000Y-56353641D02*
X88820000Y-56046359D01*
X89580000Y-56353641D02*
X89580000Y-56046359D01*
%TO.C,R10*%
X115397258Y-63267500D02*
X114922742Y-63267500D01*
X115397258Y-64312500D02*
X114922742Y-64312500D01*
%TO.C,C30*%
X114350580Y-60280000D02*
X114069420Y-60280000D01*
X114350580Y-61300000D02*
X114069420Y-61300000D01*
%TO.C,R45*%
X84495000Y-56353641D02*
X84495000Y-56046359D01*
X85255000Y-56353641D02*
X85255000Y-56046359D01*
%TO.C,C28*%
X109412164Y-54440000D02*
X109627836Y-54440000D01*
X109412164Y-55160000D02*
X109627836Y-55160000D01*
D10*
%TO.C,D2*%
X81900000Y-52975000D02*
X81900000Y-53575000D01*
X81900000Y-53575000D02*
X82500000Y-53575000D01*
D13*
%TO.C,C33*%
X73237164Y-51002168D02*
X73452836Y-51002168D01*
X73237164Y-51722168D02*
X73452836Y-51722168D01*
%TO.C,R15*%
X115347258Y-83677500D02*
X114872742Y-83677500D01*
X115347258Y-84722500D02*
X114872742Y-84722500D01*
%TO.C,R41*%
X79095000Y-56368641D02*
X79095000Y-56061359D01*
X79855000Y-56368641D02*
X79855000Y-56061359D01*
%TO.C,R9*%
X115397258Y-61767500D02*
X114922742Y-61767500D01*
X115397258Y-62812500D02*
X114922742Y-62812500D01*
%TO.C,C32*%
X84159420Y-46840000D02*
X84440580Y-46840000D01*
X84159420Y-47860000D02*
X84440580Y-47860000D01*
D14*
%TO.C,L9*%
X117320953Y-73013834D02*
X117749047Y-73013834D01*
X117749047Y-69661034D02*
X117320953Y-69661034D01*
D13*
%TO.C,U10*%
X116742500Y-85205568D02*
X116742500Y-84070000D01*
X118612500Y-84070000D02*
X118612500Y-85490000D01*
X116737500Y-85500000D02*
X116547500Y-85640000D01*
X116547500Y-85360000D01*
X116737500Y-85500000D01*
G36*
X116737500Y-85500000D02*
G01*
X116547500Y-85640000D01*
X116547500Y-85360000D01*
X116737500Y-85500000D01*
G37*
%TO.C,Q2*%
X90265000Y-59797500D02*
X90265000Y-58327500D01*
X90915000Y-59797500D02*
X90265000Y-59797500D01*
X91285000Y-58327500D02*
X91565000Y-58327500D01*
X92585000Y-58413248D02*
X92585000Y-59797500D01*
X92585000Y-59797500D02*
X91935000Y-59797500D01*
X92785000Y-58262500D02*
X92595000Y-58122500D01*
X92785000Y-57982500D01*
X92785000Y-58262500D01*
G36*
X92785000Y-58262500D02*
G01*
X92595000Y-58122500D01*
X92785000Y-57982500D01*
X92785000Y-58262500D01*
G37*
%TO.C,Q1*%
X92840000Y-59797500D02*
X92840000Y-58327500D01*
X93490000Y-59797500D02*
X92840000Y-59797500D01*
X93860000Y-58327500D02*
X94140000Y-58327500D01*
X95160000Y-58413248D02*
X95160000Y-59797500D01*
X95160000Y-59797500D02*
X94510000Y-59797500D01*
X95360000Y-58262500D02*
X95170000Y-58122500D01*
X95360000Y-57982500D01*
X95360000Y-58262500D01*
G36*
X95360000Y-58262500D02*
G01*
X95170000Y-58122500D01*
X95360000Y-57982500D01*
X95360000Y-58262500D01*
G37*
%TO.C,Q3*%
X87690000Y-59797500D02*
X87690000Y-58327500D01*
X88340000Y-59797500D02*
X87690000Y-59797500D01*
X88710000Y-58327500D02*
X88990000Y-58327500D01*
X90010000Y-58413248D02*
X90010000Y-59797500D01*
X90010000Y-59797500D02*
X89360000Y-59797500D01*
X90210000Y-58262500D02*
X90020000Y-58122500D01*
X90210000Y-57982500D01*
X90210000Y-58262500D01*
G36*
X90210000Y-58262500D02*
G01*
X90020000Y-58122500D01*
X90210000Y-57982500D01*
X90210000Y-58262500D01*
G37*
%TO.C,C56*%
X106297836Y-48270000D02*
X106082164Y-48270000D01*
X106297836Y-48990000D02*
X106082164Y-48990000D01*
%TO.C,R53*%
X115372258Y-75014934D02*
X114897742Y-75014934D01*
X115372258Y-76059934D02*
X114897742Y-76059934D01*
%TO.C,C114*%
X112360000Y-47980000D02*
X114710000Y-47980000D01*
X112360000Y-53735563D02*
X112360000Y-47980000D01*
X113424437Y-54800000D02*
X112360000Y-53735563D01*
X113424437Y-54800000D02*
X114710000Y-54800000D01*
X113528750Y-55433750D02*
X114316250Y-55433750D01*
X113922500Y-55827500D02*
X113922500Y-55040000D01*
X118115563Y-54800000D02*
X116830000Y-54800000D01*
X118115563Y-54800000D02*
X119180000Y-53735563D01*
X119180000Y-47980000D02*
X116830000Y-47980000D01*
X119180000Y-53735563D02*
X119180000Y-47980000D01*
%TO.C,Q5*%
X83190000Y-59797500D02*
X83190000Y-58327500D01*
X83840000Y-59797500D02*
X83190000Y-59797500D01*
X84210000Y-58327500D02*
X84490000Y-58327500D01*
X85510000Y-58413248D02*
X85510000Y-59797500D01*
X85510000Y-59797500D02*
X84860000Y-59797500D01*
X85710000Y-58262500D02*
X85520000Y-58122500D01*
X85710000Y-57982500D01*
X85710000Y-58262500D01*
G36*
X85710000Y-58262500D02*
G01*
X85520000Y-58122500D01*
X85710000Y-57982500D01*
X85710000Y-58262500D01*
G37*
%TO.C,U2*%
X96640000Y-60260000D02*
X96640000Y-51040000D01*
X97640000Y-50040000D02*
X106860000Y-50040000D01*
X106860000Y-50040000D02*
X106860000Y-60260000D01*
X106860000Y-60260000D02*
X96640000Y-60260000D01*
X96640000Y-50040000D02*
X96140000Y-50040000D01*
X96640000Y-49540000D01*
X96640000Y-50040000D01*
G36*
X96640000Y-50040000D02*
G01*
X96140000Y-50040000D01*
X96640000Y-49540000D01*
X96640000Y-50040000D01*
G37*
%TO.C,C88*%
X71870000Y-42390000D02*
X74220000Y-42390000D01*
X71870000Y-48145563D02*
X71870000Y-42390000D01*
X72934437Y-49210000D02*
X71870000Y-48145563D01*
X72934437Y-49210000D02*
X74220000Y-49210000D01*
X73038750Y-49843750D02*
X73826250Y-49843750D01*
X73432500Y-50237500D02*
X73432500Y-49450000D01*
X77625563Y-49210000D02*
X76340000Y-49210000D01*
X77625563Y-49210000D02*
X78690000Y-48145563D01*
X78690000Y-42390000D02*
X76340000Y-42390000D01*
X78690000Y-48145563D02*
X78690000Y-42390000D01*
%TO.C,C64*%
X114225580Y-72002434D02*
X113944420Y-72002434D01*
X114225580Y-73022434D02*
X113944420Y-73022434D01*
%TO.C,C27*%
X109627836Y-50440000D02*
X109412164Y-50440000D01*
X109627836Y-51160000D02*
X109412164Y-51160000D01*
%TO.C,R42*%
X83395000Y-56353641D02*
X83395000Y-56046359D01*
X84155000Y-56353641D02*
X84155000Y-56046359D01*
%TO.C,TP6*%
X110300000Y-42725000D02*
G75*
G02*
X108900000Y-42725000I-700000J0D01*
G01*
X108900000Y-42725000D02*
G75*
G02*
X110300000Y-42725000I700000J0D01*
G01*
%TO.C,U9*%
X72390000Y-53922168D02*
X72390000Y-52502168D01*
X74260000Y-52786600D02*
X74260000Y-53922168D01*
X74455000Y-52632168D02*
X74265000Y-52492168D01*
X74455000Y-52352168D01*
X74455000Y-52632168D01*
G36*
X74455000Y-52632168D02*
G01*
X74265000Y-52492168D01*
X74455000Y-52352168D01*
X74455000Y-52632168D01*
G37*
D14*
%TO.C,L7*%
X73307903Y-58138568D02*
X73735997Y-58138568D01*
X73735997Y-54785768D02*
X73307903Y-54785768D01*
D13*
%TO.C,R14*%
X75687742Y-51839668D02*
X76162258Y-51839668D01*
X75687742Y-52884668D02*
X76162258Y-52884668D01*
%TO.C,C34*%
X76784420Y-54852168D02*
X77065580Y-54852168D01*
X76784420Y-55872168D02*
X77065580Y-55872168D01*
%TO.C,C2*%
X102570000Y-48347836D02*
X102570000Y-48132164D01*
X103290000Y-48347836D02*
X103290000Y-48132164D01*
%TO.C,R35*%
X87720000Y-56343641D02*
X87720000Y-56036359D01*
X88480000Y-56343641D02*
X88480000Y-56036359D01*
%TO.C,R43*%
X81220000Y-56353641D02*
X81220000Y-56046359D01*
X81980000Y-56353641D02*
X81980000Y-56046359D01*
%TO.C,U8*%
X79765000Y-45910000D02*
X79765000Y-44490000D01*
X81635000Y-44774432D02*
X81635000Y-45910000D01*
X81830000Y-44620000D02*
X81640000Y-44480000D01*
X81830000Y-44340000D01*
X81830000Y-44620000D01*
G36*
X81830000Y-44620000D02*
G01*
X81640000Y-44480000D01*
X81830000Y-44340000D01*
X81830000Y-44620000D01*
G37*
%TO.C,R46*%
X82295000Y-56353641D02*
X82295000Y-56046359D01*
X83055000Y-56353641D02*
X83055000Y-56046359D01*
%TO.C,C1*%
X103540000Y-48347836D02*
X103540000Y-48132164D01*
X104260000Y-48347836D02*
X104260000Y-48132164D01*
%TO.C,U7*%
X116800000Y-63365568D02*
X116800000Y-62230000D01*
X118670000Y-62230000D02*
X118670000Y-63650000D01*
X116795000Y-63660000D02*
X116605000Y-63800000D01*
X116605000Y-63520000D01*
X116795000Y-63660000D01*
G36*
X116795000Y-63660000D02*
G01*
X116605000Y-63800000D01*
X116605000Y-63520000D01*
X116795000Y-63660000D01*
G37*
%TO.C,Q6*%
X80615000Y-59797500D02*
X80615000Y-58327500D01*
X81265000Y-59797500D02*
X80615000Y-59797500D01*
X81635000Y-58327500D02*
X81915000Y-58327500D01*
X82935000Y-58413248D02*
X82935000Y-59797500D01*
X82935000Y-59797500D02*
X82285000Y-59797500D01*
X83135000Y-58262500D02*
X82945000Y-58122500D01*
X83135000Y-57982500D01*
X83135000Y-58262500D01*
G36*
X83135000Y-58262500D02*
G01*
X82945000Y-58122500D01*
X83135000Y-57982500D01*
X83135000Y-58262500D01*
G37*
%TO.C,C31*%
X80572164Y-42990000D02*
X80787836Y-42990000D01*
X80572164Y-43710000D02*
X80787836Y-43710000D01*
%TO.C,U5*%
X74815000Y-78740000D02*
X88035000Y-78740000D01*
X74815000Y-87960000D02*
X74815000Y-78740000D01*
X89035000Y-79740000D02*
X89035000Y-87960000D01*
X89035000Y-87960000D02*
X74815000Y-87960000D01*
X89535000Y-78740000D02*
X89035000Y-78740000D01*
X89035000Y-78240000D01*
X89535000Y-78740000D01*
G36*
X89535000Y-78740000D02*
G01*
X89035000Y-78740000D01*
X89035000Y-78240000D01*
X89535000Y-78740000D01*
G37*
D14*
%TO.C,L6*%
X80689003Y-50126400D02*
X81117097Y-50126400D01*
X81117097Y-46773600D02*
X80689003Y-46773600D01*
D13*
%TO.C,R34*%
X92145000Y-56353641D02*
X92145000Y-56046359D01*
X92905000Y-56353641D02*
X92905000Y-56046359D01*
%TO.C,TP2*%
X84400000Y-49150000D02*
G75*
G02*
X83000000Y-49150000I-700000J0D01*
G01*
X83000000Y-49150000D02*
G75*
G02*
X84400000Y-49150000I700000J0D01*
G01*
D14*
%TO.C,L8*%
X117313453Y-83209450D02*
X117741547Y-83209450D01*
X117741547Y-79856650D02*
X117313453Y-79856650D01*
D13*
%TO.C,U6*%
X74815000Y-66790000D02*
X88035000Y-66790000D01*
X74815000Y-76010000D02*
X74815000Y-66790000D01*
X89035000Y-67790000D02*
X89035000Y-76010000D01*
X89035000Y-76010000D02*
X74815000Y-76010000D01*
X89535000Y-66790000D02*
X89035000Y-66790000D01*
X89035000Y-66290000D01*
X89535000Y-66790000D01*
G36*
X89535000Y-66790000D02*
G01*
X89035000Y-66790000D01*
X89035000Y-66290000D01*
X89535000Y-66790000D01*
G37*
%TO.C,C63*%
X117737836Y-76127434D02*
X117522164Y-76127434D01*
X117737836Y-76847434D02*
X117522164Y-76847434D01*
%TO.C,R32*%
X93270000Y-56353641D02*
X93270000Y-56046359D01*
X94030000Y-56353641D02*
X94030000Y-56046359D01*
%TO.C,R33*%
X89920000Y-56353641D02*
X89920000Y-56046359D01*
X90680000Y-56353641D02*
X90680000Y-56046359D01*
%TO.C,R12*%
X83062742Y-43827500D02*
X83537258Y-43827500D01*
X83062742Y-44872500D02*
X83537258Y-44872500D01*
D15*
%TO.C,H1*%
X86965000Y-41982832D02*
X86965000Y-47062832D01*
X86965000Y-41982832D02*
X91825000Y-41982832D01*
X86965000Y-47062832D02*
X94585000Y-47062832D01*
X92045000Y-44522832D02*
X92045000Y-41982832D01*
X94585000Y-41982832D02*
X86965000Y-41982832D01*
X94585000Y-44522832D02*
X92045000Y-44522832D01*
X94585000Y-47062832D02*
X94585000Y-41982832D01*
D13*
%TO.C,R16*%
X115347258Y-85147500D02*
X114872742Y-85147500D01*
X115347258Y-86192500D02*
X114872742Y-86192500D01*
%TO.C,TP1*%
X77025000Y-57162168D02*
G75*
G02*
X75625000Y-57162168I-700000J0D01*
G01*
X75625000Y-57162168D02*
G75*
G02*
X77025000Y-57162168I700000J0D01*
G01*
%TO.C,U3*%
X116725000Y-75050502D02*
X116725000Y-73914934D01*
X118595000Y-73914934D02*
X118595000Y-75334934D01*
X116720000Y-75344934D02*
X116530000Y-75484934D01*
X116530000Y-75204934D01*
X116720000Y-75344934D01*
G36*
X116720000Y-75344934D02*
G01*
X116530000Y-75484934D01*
X116530000Y-75204934D01*
X116720000Y-75344934D01*
G37*
%TO.C,R38*%
X107887742Y-45827500D02*
X108362258Y-45827500D01*
X107887742Y-46872500D02*
X108362258Y-46872500D01*
%TO.C,R31*%
X91020000Y-56353641D02*
X91020000Y-56046359D01*
X91780000Y-56353641D02*
X91780000Y-56046359D01*
%TO.C,C87*%
X85990000Y-48015000D02*
X85990000Y-50365000D01*
X85990000Y-54835000D02*
X85990000Y-52485000D01*
X91745563Y-48015000D02*
X85990000Y-48015000D01*
X91745563Y-54835000D02*
X85990000Y-54835000D01*
X92810000Y-49079437D02*
X91745563Y-48015000D01*
X92810000Y-49079437D02*
X92810000Y-50365000D01*
X92810000Y-53770563D02*
X91745563Y-54835000D01*
X92810000Y-53770563D02*
X92810000Y-52485000D01*
X93443750Y-53666250D02*
X93443750Y-52878750D01*
X93837500Y-53272500D02*
X93050000Y-53272500D01*
%TO.C,C35*%
X117835336Y-86270000D02*
X117619664Y-86270000D01*
X117835336Y-86990000D02*
X117619664Y-86990000D01*
%TO.C,TP4*%
X115427500Y-80830000D02*
G75*
G02*
X114027500Y-80830000I-700000J0D01*
G01*
X114027500Y-80830000D02*
G75*
G02*
X115427500Y-80830000I700000J0D01*
G01*
%TO.C,R11*%
X83087742Y-45327500D02*
X83562258Y-45327500D01*
X83087742Y-46372500D02*
X83562258Y-46372500D01*
%TD*%
M02*
