M48
; DRILL file {KiCad 9.0.7} date 2026-03-03T12:26:25+0400
; FORMAT={-:-/ absolute / metric / decimal}
; #@! TF.CreationDate,2026-03-03T12:26:25+04:00
; #@! TF.GenerationSoftware,Kicad,Pcbnew,9.0.7
; #@! TF.FileFunction,Plated,1,8,PTH
FMAT,2
METRIC
; #@! TA.AperFunction,Plated,PTH,ViaDrill
T1C0.200
; #@! TA.AperFunction,Plated,PTH,ViaDrill
T2C0.300
; #@! TA.AperFunction,Plated,PTH,ComponentDrill
T3C0.550
; #@! TA.AperFunction,Plated,PTH,ComponentDrill
T4C0.600
; #@! TA.AperFunction,Plated,PTH,ComponentDrill
T5C1.050
; #@! TA.AperFunction,Plated,PTH,ComponentDrill
T6C1.200
%
G90
G05
T1
X72.05Y-60.4
X72.375Y-78.45
X72.396Y-74.346
X72.86Y-51.37
X72.9Y-79.4
X73.475Y-62.0
X74.025Y-76.25
X74.21Y-60.8
X74.325Y-51.362
X74.45Y-58.8
X74.45Y-59.55
X74.5Y-79.65
X74.625Y-74.95
X75.01Y-76.5
X75.025Y-58.8
X75.025Y-59.55
X75.111Y-52.06
X75.125Y-50.95
X75.125Y-51.45
X75.6Y-59.55
X75.6Y-75.6
X75.625Y-58.8
X75.925Y-68.2
X75.925Y-69.0
X75.925Y-69.8
X75.925Y-73.0
X75.925Y-73.8
X75.925Y-74.6
X75.925Y-80.15
X75.925Y-80.95
X75.925Y-81.75
X75.925Y-84.95
X75.925Y-85.75
X75.925Y-86.55
X76.125Y-79.35
X76.25Y-58.8
X76.25Y-59.55
X76.325Y-75.55
X76.725Y-68.2
X76.725Y-69.0
X76.725Y-69.8
X76.725Y-73.0
X76.725Y-73.8
X76.725Y-74.6
X76.725Y-80.15
X76.725Y-80.95
X76.725Y-81.75
X76.725Y-84.95
X76.725Y-85.75
X76.725Y-86.55
X76.875Y-58.8
X76.875Y-59.55
X77.525Y-52.662
X77.525Y-68.2
X77.525Y-69.0
X77.525Y-69.8
X77.525Y-73.0
X77.525Y-73.8
X77.525Y-74.6
X77.525Y-78.75
X77.525Y-80.15
X77.525Y-80.95
X77.525Y-81.75
X77.525Y-84.95
X77.525Y-85.75
X77.525Y-86.55
X77.625Y-75.95
X77.725Y-54.462
X77.95Y-79.2
X78.17Y-78.28
X78.325Y-68.2
X78.325Y-69.0
X78.325Y-69.8
X78.325Y-73.0
X78.325Y-73.8
X78.325Y-74.6
X78.325Y-80.15
X78.325Y-80.95
X78.325Y-81.75
X78.325Y-84.95
X78.325Y-85.75
X78.325Y-86.55
X78.425Y-77.15
X78.449Y-76.449
X78.55Y-58.125
X79.125Y-68.2
X79.125Y-69.0
X79.125Y-69.8
X79.125Y-73.0
X79.125Y-73.8
X79.125Y-74.6
X79.125Y-80.15
X79.125Y-80.95
X79.125Y-81.75
X79.125Y-84.95
X79.125Y-85.75
X79.125Y-86.55
X79.45Y-42.7
X79.529Y-79.15
X79.925Y-68.2
X79.925Y-69.0
X79.925Y-69.8
X79.925Y-73.0
X79.925Y-73.8
X79.925Y-74.6
X79.925Y-80.15
X79.925Y-80.95
X79.925Y-81.75
X79.925Y-84.95
X79.925Y-85.75
X79.925Y-86.55
X80.025Y-76.75
X80.175Y-42.7
X80.2Y-43.35
X80.329Y-78.65
X80.725Y-68.2
X80.725Y-69.0
X80.725Y-69.8
X80.725Y-73.0
X80.725Y-73.8
X80.725Y-74.6
X80.725Y-80.15
X80.725Y-80.95
X80.725Y-81.75
X80.725Y-84.95
X80.725Y-85.75
X80.725Y-86.55
X80.881Y-76.824
X80.925Y-42.7
X81.125Y-58.125
X81.525Y-68.2
X81.525Y-69.0
X81.525Y-69.8
X81.525Y-73.0
X81.525Y-73.8
X81.525Y-74.6
X81.525Y-80.15
X81.525Y-80.95
X81.525Y-81.75
X81.525Y-84.95
X81.525Y-85.75
X81.525Y-86.55
X81.575Y-76.675
X81.7Y-43.35
X81.825Y-75.75
X82.05Y-54.825
X82.275Y-75.5
X82.324Y-82.305
X82.325Y-68.2
X82.325Y-69.0
X82.325Y-69.8
X82.325Y-73.0
X82.325Y-73.8
X82.325Y-74.6
X82.325Y-80.15
X82.325Y-80.95
X82.325Y-81.75
X82.325Y-84.95
X82.325Y-85.75
X82.325Y-86.55
X82.7Y-49.86
X82.75Y-47.15
X82.75Y-48.225
X82.8Y-49.025
X82.81Y-76.6
X83.125Y-68.2
X83.125Y-69.0
X83.125Y-69.8
X83.125Y-73.0
X83.125Y-73.8
X83.125Y-74.6
X83.125Y-80.15
X83.125Y-80.95
X83.125Y-81.75
X83.125Y-84.95
X83.125Y-85.75
X83.125Y-86.55
X83.175Y-49.525
X83.35Y-47.85
X83.35Y-48.425
X83.375Y-47.15
X83.425Y-49.025
X83.54Y-49.89
X83.6Y-72.15
X83.7Y-58.18
X83.925Y-68.2
X83.925Y-69.0
X83.925Y-69.8
X83.925Y-73.0
X83.925Y-73.8
X83.925Y-74.6
X83.925Y-80.15
X83.925Y-80.95
X83.925Y-81.75
X83.925Y-84.95
X83.925Y-85.75
X83.925Y-86.55
X83.975Y-48.125
X84.0Y-47.15
X84.0Y-47.625
X84.0Y-48.725
X84.05Y-49.5
X84.725Y-68.2
X84.725Y-69.0
X84.725Y-69.8
X84.725Y-73.0
X84.725Y-73.8
X84.725Y-74.6
X84.725Y-80.15
X84.725Y-80.95
X84.725Y-81.75
X84.725Y-84.95
X84.725Y-85.75
X84.725Y-86.55
X84.9Y-44.65
X85.1Y-46.45
X85.525Y-68.2
X85.525Y-69.0
X85.525Y-69.8
X85.525Y-73.0
X85.525Y-73.8
X85.525Y-74.6
X85.525Y-80.15
X85.525Y-80.95
X85.525Y-81.75
X85.525Y-84.95
X85.525Y-85.75
X85.525Y-86.55
X85.6Y-51.425
X86.325Y-68.2
X86.325Y-69.0
X86.325Y-69.8
X86.325Y-73.0
X86.325Y-73.8
X86.325Y-74.6
X86.325Y-80.15
X86.325Y-80.95
X86.325Y-81.75
X86.325Y-84.95
X86.325Y-85.75
X86.325Y-86.55
X86.425Y-55.675
X86.6Y-51.425
X86.975Y-60.65
X87.125Y-68.2
X87.125Y-69.0
X87.125Y-69.8
X87.125Y-73.0
X87.125Y-73.8
X87.125Y-74.6
X87.125Y-80.15
X87.125Y-80.95
X87.125Y-81.75
X87.125Y-84.95
X87.125Y-85.75
X87.125Y-86.55
X87.815Y-49.875
X87.925Y-68.2
X87.925Y-69.0
X87.925Y-69.8
X87.925Y-73.0
X87.925Y-73.8
X87.925Y-74.6
X87.925Y-80.15
X87.925Y-80.95
X87.925Y-81.75
X87.925Y-84.95
X87.925Y-85.75
X87.925Y-86.55
X88.835Y-49.875
X88.835Y-50.925
X88.835Y-51.975
X89.975Y-51.4
X90.0Y-52.05
X90.025Y-63.075
X90.65Y-51.4
X92.0Y-48.975
X92.78Y-48.98
X93.51Y-54.8
X93.8Y-48.98
X94.753Y-51.45
X94.76Y-52.7
X94.8Y-50.716
X95.8Y-50.625
X95.881Y-52.685
X96.125Y-69.5
X96.125Y-70.3
X96.125Y-71.1
X96.125Y-71.9
X96.125Y-72.7
X96.125Y-73.5
X96.125Y-74.3
X96.125Y-75.1
X96.125Y-75.9
X96.125Y-76.7
X96.125Y-77.5
X96.125Y-78.3
X96.125Y-79.1
X96.125Y-79.9
X96.125Y-80.7
X96.125Y-81.5
X96.925Y-69.5
X96.925Y-70.3
X96.925Y-71.1
X96.925Y-71.9
X96.925Y-72.7
X96.925Y-75.1
X96.925Y-75.9
X96.925Y-76.7
X96.925Y-77.5
X96.925Y-78.3
X96.925Y-79.1
X96.925Y-79.9
X96.925Y-80.7
X96.925Y-81.5
X97.725Y-69.5
X97.725Y-70.3
X97.725Y-71.1
X97.725Y-71.9
X97.725Y-72.7
X97.725Y-73.5
X97.725Y-75.9
X97.725Y-76.7
X97.725Y-78.3
X97.725Y-79.1
X97.725Y-79.9
X97.725Y-80.7
X97.725Y-81.5
X97.75Y-51.15
X97.75Y-51.95
X97.75Y-52.75
X97.75Y-53.55
X97.75Y-54.35
X97.75Y-55.15
X97.75Y-55.95
X97.75Y-56.75
X97.75Y-57.55
X97.75Y-58.35
X97.75Y-59.15
X98.525Y-69.5
X98.525Y-70.3
X98.525Y-71.1
X98.525Y-71.9
X98.525Y-74.3
X98.525Y-75.1
X98.525Y-75.9
X98.525Y-76.7
X98.525Y-79.1
X98.525Y-79.9
X98.525Y-80.7
X98.525Y-81.5
X98.55Y-51.15
X98.55Y-51.95
X98.55Y-52.75
X98.55Y-53.55
X98.55Y-54.35
X98.55Y-55.15
X98.55Y-55.95
X98.55Y-56.75
X98.55Y-57.55
X98.55Y-58.35
X98.55Y-59.15
X98.67Y-46.45
X98.67Y-46.95
X98.92Y-45.492
X98.92Y-46.025
X99.325Y-69.5
X99.325Y-70.3
X99.325Y-71.1
X99.325Y-71.9
X99.325Y-75.9
X99.325Y-79.1
X99.325Y-79.9
X99.325Y-80.7
X99.325Y-81.5
X99.35Y-51.15
X99.35Y-51.95
X99.35Y-52.75
X99.35Y-53.55
X99.35Y-54.35
X99.35Y-55.15
X99.35Y-55.95
X99.35Y-56.75
X99.35Y-57.55
X99.35Y-58.35
X99.35Y-59.15
X99.715Y-72.31
X100.125Y-69.5
X100.125Y-70.3
X100.125Y-71.1
X100.125Y-71.9
X100.125Y-73.5
X100.125Y-74.3
X100.125Y-75.1
X100.125Y-75.9
X100.125Y-76.7
X100.125Y-77.5
X100.125Y-78.3
X100.125Y-79.1
X100.125Y-79.9
X100.125Y-80.7
X100.125Y-81.5
X100.15Y-51.15
X100.15Y-51.95
X100.15Y-53.55
X100.15Y-54.35
X100.15Y-55.15
X100.15Y-55.95
X100.15Y-56.75
X100.15Y-57.55
X100.15Y-58.35
X100.15Y-59.15
X100.175Y-47.35
X100.18Y-46.37
X100.18Y-46.892
X100.43Y-44.9
X100.43Y-45.492
X100.55Y-50.725
X100.925Y-69.5
X100.925Y-70.3
X100.925Y-71.1
X100.925Y-71.9
X100.925Y-73.5
X100.925Y-74.3
X100.925Y-75.1
X100.925Y-75.9
X100.925Y-76.7
X100.925Y-77.5
X100.925Y-80.7
X100.925Y-81.5
X100.95Y-51.15
X100.95Y-51.95
X100.95Y-52.75
X100.95Y-53.55
X100.95Y-54.35
X100.95Y-55.15
X100.95Y-55.95
X100.95Y-56.75
X100.95Y-57.55
X100.95Y-58.35
X100.95Y-59.15
X100.98Y-47.71
X101.339Y-77.977
X101.725Y-69.5
X101.725Y-70.3
X101.725Y-71.1
X101.725Y-71.9
X101.725Y-73.5
X101.725Y-74.3
X101.725Y-75.1
X101.725Y-75.9
X101.725Y-76.7
X101.725Y-77.5
X101.725Y-80.7
X101.725Y-81.5
X101.75Y-51.15
X101.75Y-51.95
X101.75Y-54.35
X101.75Y-55.95
X101.75Y-56.75
X101.75Y-57.55
X101.75Y-58.35
X101.75Y-59.15
X101.84Y-47.7
X102.15Y-46.892
X102.15Y-55.525
X102.525Y-69.5
X102.525Y-70.3
X102.525Y-71.1
X102.525Y-71.9
X102.525Y-73.5
X102.525Y-74.3
X102.525Y-75.1
X102.525Y-75.9
X102.525Y-76.7
X102.525Y-77.5
X102.525Y-79.1
X102.525Y-79.9
X102.525Y-80.7
X102.525Y-81.5
X102.55Y-51.15
X102.55Y-51.95
X102.55Y-55.15
X102.55Y-55.95
X102.55Y-56.75
X102.55Y-57.55
X102.55Y-58.35
X102.55Y-59.15
X102.67Y-46.375
X102.67Y-46.892
X102.92Y-44.875
X102.92Y-45.492
X103.325Y-69.5
X103.325Y-70.3
X103.325Y-71.1
X103.325Y-71.9
X103.325Y-72.7
X103.325Y-73.5
X103.325Y-74.3
X103.325Y-75.1
X103.325Y-75.9
X103.325Y-76.7
X103.325Y-77.5
X103.325Y-78.3
X103.325Y-79.1
X103.325Y-79.9
X103.325Y-80.7
X103.325Y-81.5
X103.35Y-51.15
X103.35Y-51.95
X103.35Y-52.75
X103.35Y-53.55
X103.35Y-55.15
X103.35Y-55.95
X103.35Y-56.75
X103.35Y-57.55
X103.35Y-58.35
X104.125Y-69.5
X104.125Y-70.3
X104.125Y-71.1
X104.125Y-71.9
X104.125Y-73.5
X104.125Y-74.3
X104.125Y-75.1
X104.125Y-75.9
X104.125Y-76.7
X104.125Y-77.5
X104.125Y-79.1
X104.125Y-79.9
X104.125Y-80.7
X104.125Y-81.5
X104.15Y-51.15
X104.15Y-51.95
X104.15Y-54.35
X104.15Y-55.15
X104.15Y-55.95
X104.15Y-56.75
X104.15Y-57.55
X104.15Y-58.35
X104.15Y-59.15
X104.17Y-46.45
X104.17Y-46.95
X104.43Y-45.492
X104.43Y-46.025
X104.925Y-69.5
X104.925Y-70.3
X104.925Y-71.1
X104.925Y-71.9
X104.925Y-79.9
X104.925Y-80.7
X104.925Y-81.5
X104.95Y-51.15
X104.95Y-51.95
X104.95Y-54.35
X104.95Y-55.15
X104.95Y-55.95
X104.95Y-56.75
X104.95Y-57.55
X104.95Y-58.35
X104.95Y-59.15
X105.725Y-69.5
X105.725Y-70.3
X105.725Y-71.1
X105.725Y-71.9
X105.725Y-72.7
X105.725Y-73.5
X105.725Y-78.3
X105.725Y-81.5
X105.75Y-52.75
X105.75Y-54.35
X105.75Y-55.15
X105.75Y-55.95
X105.75Y-56.75
X105.75Y-57.55
X105.75Y-58.35
X105.75Y-59.15
X106.12Y-76.28
X106.525Y-69.5
X106.525Y-70.3
X106.525Y-71.1
X106.525Y-73.5
X106.525Y-78.3
X106.525Y-81.5
X106.62Y-53.54
X106.925Y-79.475
X106.95Y-73.075
X107.1Y-47.67
X107.275Y-52.751
X107.325Y-69.5
X107.325Y-70.3
X107.325Y-71.1
X107.325Y-71.9
X107.325Y-72.7
X107.325Y-73.5
X107.325Y-78.3
X107.325Y-79.1
X107.325Y-80.7
X107.325Y-81.5
X107.504Y-82.404
X107.72Y-81.9
X108.125Y-69.5
X108.125Y-70.3
X108.125Y-71.1
X108.125Y-71.9
X108.125Y-72.7
X108.125Y-73.5
X108.125Y-75.1
X108.125Y-76.7
X108.125Y-77.5
X108.125Y-78.3
X108.125Y-79.1
X108.125Y-79.9
X108.125Y-80.7
X108.125Y-81.5
X108.2Y-50.825
X108.3Y-55.151
X108.55Y-88.65
X108.65Y-52.1
X108.85Y-45.25
X108.9Y-82.1
X108.91Y-58.085
X109.04Y-50.8
X109.57Y-88.65
X110.175Y-77.175
X110.4Y-53.5
X110.467Y-86.117
X110.75Y-87.25
X110.76Y-54.81
X111.75Y-71.275
X111.75Y-72.25
X111.79Y-42.025
X112.3Y-82.0
X112.6Y-68.1
X112.6Y-68.9
X112.6Y-69.7
X112.6Y-70.5
X112.6Y-71.3
X112.615Y-74.42
X112.615Y-75.245
X112.615Y-76.055
X112.76Y-84.13
X112.76Y-85.12
X112.76Y-88.08
X112.765Y-87.095
X112.77Y-86.125
X112.905Y-57.69
X112.915Y-58.36
X112.915Y-58.98
X113.25Y-55.65
X113.352Y-82.63
X113.435Y-60.79
X113.53Y-57.3
X113.53Y-57.975
X113.53Y-58.6
X113.53Y-59.28
X114.0Y-43.4
X114.0Y-46.4
X114.0Y-55.65
X114.302Y-85.63
X116.889Y-64.79
X116.889Y-76.487
X117.247Y-86.63
X118.017Y-87.71
X118.02Y-86.69
X118.02Y-87.19
X118.18Y-64.79
X118.19Y-65.46
X118.19Y-65.98
T2
X75.28Y-43.0
X75.28Y-48.6
X86.21Y-45.76
X107.72Y-47.52
X109.6Y-42.725
X113.266Y-73.796
X113.75Y-75.3
X114.12Y-70.04
X114.13Y-63.79
X114.13Y-70.91
X114.13Y-71.73
X115.77Y-47.08
X115.77Y-47.82
X115.77Y-48.59
X115.77Y-49.35
X115.77Y-52.73
X115.77Y-53.47
X115.77Y-54.19
X115.77Y-54.92
X115.77Y-55.63
X118.09Y-77.95
X118.1Y-77.2
X118.11Y-76.487
T3
X98.15Y-44.913
X104.95Y-44.913
T5
X88.235Y-43.253
X88.235Y-45.793
X90.775Y-43.253
X90.775Y-45.793
X93.315Y-43.253
X93.315Y-45.793
T4
G00X97.23Y-42.362
M15
G01X97.23Y-41.063
M16
G05
G00X105.87Y-42.362
M15
G01X105.87Y-41.063
M16
G05
T6
G00X97.49Y-46.562
M15
G01X97.49Y-45.963
M16
G05
G00X105.61Y-46.562
M15
G01X105.61Y-45.963
M16
G05
M30
