%TF.GenerationSoftware,KiCad,Pcbnew,9.0.7*%
%TF.CreationDate,2026-03-07T14:05:11+04:00*%
%TF.ProjectId,fpga_board,66706761-5f62-46f6-9172-642e6b696361,rev?*%
%TF.SameCoordinates,Original*%
%TF.FileFunction,Legend,Bot*%
%TF.FilePolarity,Positive*%
%FSLAX46Y46*%
G04 Gerber Fmt 4.6, Leading zero omitted, Abs format (unit mm)*
G04 Created by KiCad (PCBNEW 9.0.7) date 2026-03-07 14:05:11*
%MOMM*%
%LPD*%
G01*
G04 APERTURE LIST*
%ADD10C,0.100000*%
%ADD11C,0.150000*%
%ADD12C,0.120000*%
G04 APERTURE END LIST*
D10*
G36*
X119639026Y-86379633D02*
G01*
X119201343Y-86379633D01*
X119201343Y-86465607D01*
X119112316Y-86465607D01*
X119112316Y-86641461D01*
X119287316Y-86641461D01*
X119287316Y-86467255D01*
X119550000Y-86467255D01*
X119550000Y-87167377D01*
X119287316Y-87167377D01*
X119287316Y-86993171D01*
X119112316Y-86993171D01*
X119112316Y-87167377D01*
X119201343Y-87167377D01*
X119201343Y-87255000D01*
X119639026Y-87255000D01*
X119639026Y-87167377D01*
X119725000Y-87167377D01*
X119725000Y-86465607D01*
X119639026Y-86465607D01*
X119639026Y-86379633D01*
G37*
G36*
X119025488Y-86379633D02*
G01*
X118411950Y-86379633D01*
X118411950Y-86641461D01*
X118497923Y-86641461D01*
X118497923Y-86554389D01*
X118587805Y-86554389D01*
X118587805Y-86467255D01*
X118763660Y-86467255D01*
X118763660Y-86727435D01*
X118673778Y-86727435D01*
X118673778Y-86641461D01*
X118587805Y-86641461D01*
X118587805Y-86993171D01*
X118673778Y-86993171D01*
X118673778Y-86903290D01*
X118763660Y-86903290D01*
X118763660Y-87167377D01*
X118673778Y-87167377D01*
X118673778Y-87255000D01*
X119025488Y-87255000D01*
X119025488Y-87167377D01*
X118938660Y-87167377D01*
X118938660Y-86467255D01*
X119025488Y-86467255D01*
X119025488Y-86379633D01*
G37*
G36*
X118240003Y-86379633D02*
G01*
X117802320Y-86379633D01*
X117802320Y-86465607D01*
X117713293Y-86465607D01*
X117713293Y-86641461D01*
X117888293Y-86641461D01*
X117888293Y-86467255D01*
X118150976Y-86467255D01*
X118150976Y-87167377D01*
X117888293Y-87167377D01*
X117888293Y-86904938D01*
X117975854Y-86904938D01*
X117975854Y-86817316D01*
X117713293Y-86817316D01*
X117713293Y-87255000D01*
X118240003Y-87255000D01*
X118240003Y-87165118D01*
X118325976Y-87165118D01*
X118325976Y-86465607D01*
X118240003Y-86465607D01*
X118240003Y-86379633D01*
G37*
G36*
X117626465Y-87343232D02*
G01*
X116926953Y-87343232D01*
X116926953Y-87430854D01*
X117626465Y-87430854D01*
X117626465Y-87343232D01*
G37*
G36*
X116665125Y-86379633D02*
G01*
X116490125Y-86379633D01*
X116490125Y-87167377D01*
X116317323Y-87167377D01*
X116317323Y-87255000D01*
X116840980Y-87255000D01*
X116840980Y-87167377D01*
X116665125Y-87167377D01*
X116665125Y-86641461D01*
X116840980Y-86641461D01*
X116840980Y-86553839D01*
X116753053Y-86553839D01*
X116753053Y-86466706D01*
X116665125Y-86466706D01*
X116665125Y-86379633D01*
G37*
G36*
X99375000Y-52729633D02*
G01*
X98761461Y-52729633D01*
X98761461Y-52991461D01*
X98847435Y-52991461D01*
X98847435Y-52904389D01*
X98937316Y-52904389D01*
X98937316Y-52817255D01*
X99113171Y-52817255D01*
X99113171Y-53077435D01*
X99023290Y-53077435D01*
X99023290Y-52991461D01*
X98937316Y-52991461D01*
X98937316Y-53343171D01*
X99023290Y-53343171D01*
X99023290Y-53253290D01*
X99113171Y-53253290D01*
X99113171Y-53517377D01*
X99023290Y-53517377D01*
X99023290Y-53605000D01*
X99375000Y-53605000D01*
X99375000Y-53517377D01*
X99288171Y-53517377D01*
X99288171Y-52817255D01*
X99375000Y-52817255D01*
X99375000Y-52729633D01*
G37*
G36*
X98588660Y-52729633D02*
G01*
X98151831Y-52729633D01*
X98151831Y-52815607D01*
X98062805Y-52815607D01*
X98062805Y-52991461D01*
X98237805Y-52991461D01*
X98237805Y-52817255D01*
X98500488Y-52817255D01*
X98500488Y-52991461D01*
X98413660Y-52991461D01*
X98413660Y-53079694D01*
X98237805Y-53079694D01*
X98237805Y-53166767D01*
X98151831Y-53166767D01*
X98151831Y-53255549D01*
X98062805Y-53255549D01*
X98062805Y-53517377D01*
X98151831Y-53517377D01*
X98151831Y-53605000D01*
X98588660Y-53605000D01*
X98588660Y-53517377D01*
X98675488Y-53517377D01*
X98675488Y-53343171D01*
X98500488Y-53343171D01*
X98500488Y-53517377D01*
X98237805Y-53517377D01*
X98237805Y-53255549D01*
X98326831Y-53255549D01*
X98326831Y-53166767D01*
X98499633Y-53166767D01*
X98499633Y-53079694D01*
X98588660Y-53079694D01*
X98588660Y-52991461D01*
X98675488Y-52991461D01*
X98675488Y-52815607D01*
X98588660Y-52815607D01*
X98588660Y-52729633D01*
G37*
G36*
X97975976Y-52729633D02*
G01*
X97624267Y-52729633D01*
X97624267Y-52817255D01*
X97714148Y-52817255D01*
X97714148Y-53517377D01*
X97536339Y-53517377D01*
X97536339Y-53429816D01*
X97448412Y-53429816D01*
X97448412Y-53342316D01*
X97362438Y-53342316D01*
X97362438Y-53605000D01*
X97975976Y-53605000D01*
X97975976Y-53517377D01*
X97889148Y-53517377D01*
X97889148Y-52817255D01*
X97975976Y-52817255D01*
X97975976Y-52729633D01*
G37*
G36*
X97190491Y-52729633D02*
G01*
X96752808Y-52729633D01*
X96752808Y-52815607D01*
X96663782Y-52815607D01*
X96663782Y-52991461D01*
X96838782Y-52991461D01*
X96838782Y-52817255D01*
X97101465Y-52817255D01*
X97101465Y-53517377D01*
X96838782Y-53517377D01*
X96838782Y-53343171D01*
X96663782Y-53343171D01*
X96663782Y-53517377D01*
X96752808Y-53517377D01*
X96752808Y-53605000D01*
X97190491Y-53605000D01*
X97190491Y-53517377D01*
X97276465Y-53517377D01*
X97276465Y-52815607D01*
X97190491Y-52815607D01*
X97190491Y-52729633D01*
G37*
G36*
X96576953Y-53693232D02*
G01*
X95877442Y-53693232D01*
X95877442Y-53780854D01*
X96576953Y-53780854D01*
X96576953Y-53693232D01*
G37*
G36*
X95790614Y-52729633D02*
G01*
X95353785Y-52729633D01*
X95353785Y-52815607D01*
X95263049Y-52815607D01*
X95263049Y-52991461D01*
X95353785Y-52991461D01*
X95353785Y-53077435D01*
X95438904Y-53077435D01*
X95438904Y-53167316D01*
X95526587Y-53167316D01*
X95526587Y-53253290D01*
X95615614Y-53253290D01*
X95615614Y-53342072D01*
X95702442Y-53342072D01*
X95702442Y-53517377D01*
X95438904Y-53517377D01*
X95438904Y-53429694D01*
X95263049Y-53429694D01*
X95263049Y-53605000D01*
X95877442Y-53605000D01*
X95877442Y-53342072D01*
X95790614Y-53342072D01*
X95790614Y-53253290D01*
X95701587Y-53253290D01*
X95701587Y-53167316D01*
X95614759Y-53167316D01*
X95614759Y-53077435D01*
X95526587Y-53077435D01*
X95526587Y-52991461D01*
X95438904Y-52991461D01*
X95438904Y-52817255D01*
X95702442Y-52817255D01*
X95702442Y-52903229D01*
X95877442Y-52903229D01*
X95877442Y-52815607D01*
X95790614Y-52815607D01*
X95790614Y-52729633D01*
G37*
G36*
X119639026Y-87579633D02*
G01*
X119201343Y-87579633D01*
X119201343Y-87665607D01*
X119112316Y-87665607D01*
X119112316Y-87841461D01*
X119287316Y-87841461D01*
X119287316Y-87667255D01*
X119550000Y-87667255D01*
X119550000Y-88367377D01*
X119287316Y-88367377D01*
X119287316Y-88193171D01*
X119112316Y-88193171D01*
X119112316Y-88367377D01*
X119201343Y-88367377D01*
X119201343Y-88455000D01*
X119639026Y-88455000D01*
X119639026Y-88367377D01*
X119725000Y-88367377D01*
X119725000Y-87665607D01*
X119639026Y-87665607D01*
X119639026Y-87579633D01*
G37*
G36*
X119025488Y-87579633D02*
G01*
X118411950Y-87579633D01*
X118411950Y-87841461D01*
X118497923Y-87841461D01*
X118497923Y-87754389D01*
X118587805Y-87754389D01*
X118587805Y-87667255D01*
X118763660Y-87667255D01*
X118763660Y-87927435D01*
X118673778Y-87927435D01*
X118673778Y-87841461D01*
X118587805Y-87841461D01*
X118587805Y-88193171D01*
X118673778Y-88193171D01*
X118673778Y-88103290D01*
X118763660Y-88103290D01*
X118763660Y-88367377D01*
X118673778Y-88367377D01*
X118673778Y-88455000D01*
X119025488Y-88455000D01*
X119025488Y-88367377D01*
X118938660Y-88367377D01*
X118938660Y-87667255D01*
X119025488Y-87667255D01*
X119025488Y-87579633D01*
G37*
G36*
X118240003Y-87579633D02*
G01*
X117802320Y-87579633D01*
X117802320Y-87665607D01*
X117713293Y-87665607D01*
X117713293Y-87841461D01*
X117888293Y-87841461D01*
X117888293Y-87667255D01*
X118150976Y-87667255D01*
X118150976Y-88367377D01*
X117888293Y-88367377D01*
X117888293Y-88104938D01*
X117975854Y-88104938D01*
X117975854Y-88017316D01*
X117713293Y-88017316D01*
X117713293Y-88455000D01*
X118240003Y-88455000D01*
X118240003Y-88365118D01*
X118325976Y-88365118D01*
X118325976Y-87665607D01*
X118240003Y-87665607D01*
X118240003Y-87579633D01*
G37*
G36*
X117626465Y-88543232D02*
G01*
X116926953Y-88543232D01*
X116926953Y-88630854D01*
X117626465Y-88630854D01*
X117626465Y-88543232D01*
G37*
G36*
X116840125Y-87579633D02*
G01*
X116403297Y-87579633D01*
X116403297Y-87665607D01*
X116312561Y-87665607D01*
X116312561Y-87841461D01*
X116403297Y-87841461D01*
X116403297Y-87927435D01*
X116488415Y-87927435D01*
X116488415Y-88017316D01*
X116576099Y-88017316D01*
X116576099Y-88103290D01*
X116665125Y-88103290D01*
X116665125Y-88192072D01*
X116751953Y-88192072D01*
X116751953Y-88367377D01*
X116488415Y-88367377D01*
X116488415Y-88279694D01*
X116312561Y-88279694D01*
X116312561Y-88455000D01*
X116926953Y-88455000D01*
X116926953Y-88192072D01*
X116840125Y-88192072D01*
X116840125Y-88103290D01*
X116751099Y-88103290D01*
X116751099Y-88017316D01*
X116664270Y-88017316D01*
X116664270Y-87927435D01*
X116576099Y-87927435D01*
X116576099Y-87841461D01*
X116488415Y-87841461D01*
X116488415Y-87667255D01*
X116751953Y-87667255D01*
X116751953Y-87753229D01*
X116926953Y-87753229D01*
X116926953Y-87665607D01*
X116840125Y-87665607D01*
X116840125Y-87579633D01*
G37*
G36*
X105455675Y-60128187D02*
G01*
X105368846Y-60128187D01*
X105368846Y-60828309D01*
X105455675Y-60828309D01*
X105455675Y-60915932D01*
X105103965Y-60915932D01*
X105103965Y-60828309D01*
X105193846Y-60828309D01*
X105193846Y-60565870D01*
X104932018Y-60565870D01*
X104932018Y-60478248D01*
X105017991Y-60478248D01*
X105193846Y-60478248D01*
X105193846Y-60128187D01*
X105017991Y-60128187D01*
X105017991Y-60478248D01*
X104932018Y-60478248D01*
X104842991Y-60478248D01*
X104842991Y-60126539D01*
X104932018Y-60126539D01*
X104932018Y-60040565D01*
X105455675Y-60040565D01*
X105455675Y-60128187D01*
G37*
G36*
X104756163Y-60040565D02*
G01*
X104670190Y-60040565D01*
X104670190Y-60126539D01*
X104581896Y-60126539D01*
X104581896Y-60216420D01*
X104493663Y-60216420D01*
X104493663Y-60302393D01*
X104408361Y-60302393D01*
X104408361Y-60216420D01*
X104318480Y-60216420D01*
X104318480Y-60126539D01*
X104228598Y-60126539D01*
X104228598Y-60040565D01*
X104142625Y-60040565D01*
X104142625Y-60915932D01*
X104318480Y-60915932D01*
X104318480Y-60478248D01*
X104408361Y-60478248D01*
X104408361Y-60564222D01*
X104493663Y-60564222D01*
X104493663Y-60478248D01*
X104581896Y-60478248D01*
X104581896Y-60915932D01*
X104756163Y-60915932D01*
X104756163Y-60040565D01*
G37*
G36*
X103970678Y-60126539D02*
G01*
X104056651Y-60126539D01*
X104056651Y-60826050D01*
X103970678Y-60826050D01*
X103970678Y-60915932D01*
X103532995Y-60915932D01*
X103532995Y-60828309D01*
X103618968Y-60828309D01*
X103881651Y-60828309D01*
X103881651Y-60128187D01*
X103618968Y-60128187D01*
X103618968Y-60828309D01*
X103532995Y-60828309D01*
X103532995Y-60826050D01*
X103443968Y-60826050D01*
X103443968Y-60126539D01*
X103532995Y-60126539D01*
X103532995Y-60040565D01*
X103970678Y-60040565D01*
X103970678Y-60126539D01*
G37*
G36*
X103357140Y-60128187D02*
G01*
X103270312Y-60128187D01*
X103270312Y-60828309D01*
X103357140Y-60828309D01*
X103357140Y-60915932D01*
X102833483Y-60915932D01*
X102833483Y-60828309D01*
X102919457Y-60828309D01*
X103095312Y-60828309D01*
X103095312Y-60128187D01*
X102919457Y-60128187D01*
X102919457Y-60828309D01*
X102833483Y-60828309D01*
X102833483Y-60826050D01*
X102744457Y-60826050D01*
X102744457Y-60126539D01*
X102833483Y-60126539D01*
X102833483Y-60040565D01*
X103357140Y-60040565D01*
X103357140Y-60128187D01*
G37*
G36*
X102655675Y-60040565D02*
G01*
X102044090Y-60040565D01*
X102044090Y-60302393D01*
X102130064Y-60302393D01*
X102130064Y-60215321D01*
X102219945Y-60215321D01*
X102219945Y-60128187D01*
X102392747Y-60128187D01*
X102392747Y-60388367D01*
X102305919Y-60388367D01*
X102305919Y-60302393D01*
X102219945Y-60302393D01*
X102219945Y-60654103D01*
X102305919Y-60654103D01*
X102305919Y-60564222D01*
X102392747Y-60564222D01*
X102392747Y-60828309D01*
X102219945Y-60828309D01*
X102219945Y-60741176D01*
X102130064Y-60741176D01*
X102130064Y-60654103D01*
X102044090Y-60654103D01*
X102044090Y-60915932D01*
X102655675Y-60915932D01*
X102655675Y-60828309D01*
X102567747Y-60828309D01*
X102567747Y-60128187D01*
X102655675Y-60128187D01*
X102655675Y-60040565D01*
G37*
G36*
X101958117Y-61004164D02*
G01*
X101258605Y-61004164D01*
X101258605Y-61091786D01*
X101958117Y-61091786D01*
X101958117Y-61004164D01*
G37*
G36*
X100996777Y-60040565D02*
G01*
X100821777Y-60040565D01*
X100821777Y-60828309D01*
X100648975Y-60828309D01*
X100648975Y-60915932D01*
X101172632Y-60915932D01*
X101172632Y-60828309D01*
X100996777Y-60828309D01*
X100996777Y-60302393D01*
X101172632Y-60302393D01*
X101172632Y-60214771D01*
X101084705Y-60214771D01*
X101084705Y-60127638D01*
X100996777Y-60127638D01*
X100996777Y-60040565D01*
G37*
G36*
X105329633Y-51561828D02*
G01*
X105329633Y-51998656D01*
X105415607Y-51998656D01*
X105415607Y-52087683D01*
X105591461Y-52087683D01*
X105591461Y-51912683D01*
X105417255Y-51912683D01*
X105417255Y-51650000D01*
X105591461Y-51650000D01*
X105591461Y-51736828D01*
X105679694Y-51736828D01*
X105679694Y-51912683D01*
X105766767Y-51912683D01*
X105766767Y-51998656D01*
X105855549Y-51998656D01*
X105855549Y-52087683D01*
X106117377Y-52087683D01*
X106117377Y-51998656D01*
X106205000Y-51998656D01*
X106205000Y-51561828D01*
X106117377Y-51561828D01*
X106117377Y-51475000D01*
X105943171Y-51475000D01*
X105943171Y-51650000D01*
X106117377Y-51650000D01*
X106117377Y-51912683D01*
X105855549Y-51912683D01*
X105855549Y-51823656D01*
X105766767Y-51823656D01*
X105766767Y-51650854D01*
X105679694Y-51650854D01*
X105679694Y-51561828D01*
X105591461Y-51561828D01*
X105591461Y-51475000D01*
X105415607Y-51475000D01*
X105415607Y-51561828D01*
X105329633Y-51561828D01*
G37*
G36*
X105329633Y-52261339D02*
G01*
X105329633Y-52698168D01*
X105415607Y-52698168D01*
X105415607Y-52787194D01*
X105591461Y-52787194D01*
X105591461Y-52612194D01*
X105417255Y-52612194D01*
X105417255Y-52349511D01*
X105591461Y-52349511D01*
X105591461Y-52436339D01*
X105679694Y-52436339D01*
X105679694Y-52612194D01*
X105766767Y-52612194D01*
X105766767Y-52698168D01*
X105855549Y-52698168D01*
X105855549Y-52787194D01*
X106117377Y-52787194D01*
X106117377Y-52698168D01*
X106205000Y-52698168D01*
X106205000Y-52261339D01*
X106117377Y-52261339D01*
X106117377Y-52174511D01*
X105943171Y-52174511D01*
X105943171Y-52349511D01*
X106117377Y-52349511D01*
X106117377Y-52612194D01*
X105855549Y-52612194D01*
X105855549Y-52523168D01*
X105766767Y-52523168D01*
X105766767Y-52350366D01*
X105679694Y-52350366D01*
X105679694Y-52261339D01*
X105591461Y-52261339D01*
X105591461Y-52174511D01*
X105415607Y-52174511D01*
X105415607Y-52261339D01*
X105329633Y-52261339D01*
G37*
G36*
X105329633Y-52874023D02*
G01*
X105329633Y-52959996D01*
X105415607Y-52959996D01*
X105415607Y-53047923D01*
X105505488Y-53047923D01*
X105505488Y-53135851D01*
X105591461Y-53135851D01*
X105591461Y-53223778D01*
X105681343Y-53223778D01*
X105681343Y-53311706D01*
X105329633Y-53311706D01*
X105329633Y-53486706D01*
X106205000Y-53486706D01*
X106205000Y-53311706D01*
X105943171Y-53311706D01*
X105943171Y-53223778D01*
X105853290Y-53223778D01*
X105853290Y-53135851D01*
X105767316Y-53135851D01*
X105767316Y-53047923D01*
X106205000Y-53047923D01*
X106205000Y-52874023D01*
X105329633Y-52874023D01*
G37*
G36*
X106293232Y-53573534D02*
G01*
X106293232Y-54273046D01*
X106380854Y-54273046D01*
X106380854Y-53573534D01*
X106293232Y-53573534D01*
G37*
G36*
X106115118Y-54359019D02*
G01*
X106205000Y-54359019D01*
X106205000Y-54796702D01*
X106115118Y-54796702D01*
X106115118Y-54885729D01*
X105415607Y-54885729D01*
X105415607Y-54796702D01*
X105329633Y-54796702D01*
X105329633Y-54710729D01*
X105417255Y-54710729D01*
X105591461Y-54710729D01*
X105591461Y-54623168D01*
X105677435Y-54623168D01*
X105767316Y-54623168D01*
X105767316Y-54710729D01*
X106117377Y-54710729D01*
X106117377Y-54448046D01*
X105943171Y-54448046D01*
X105943171Y-54535607D01*
X105853290Y-54535607D01*
X105853290Y-54623168D01*
X105767316Y-54623168D01*
X105677435Y-54623168D01*
X105677435Y-54535607D01*
X105767316Y-54535607D01*
X105767316Y-54448046D01*
X105417255Y-54448046D01*
X105417255Y-54710729D01*
X105329633Y-54710729D01*
X105329633Y-54359019D01*
X105415607Y-54359019D01*
X105415607Y-54273046D01*
X106115118Y-54273046D01*
X106115118Y-54359019D01*
G37*
G36*
X105445000Y-59022255D02*
G01*
X105358171Y-59022255D01*
X105358171Y-59722377D01*
X105445000Y-59722377D01*
X105445000Y-59810000D01*
X105093290Y-59810000D01*
X105093290Y-59722377D01*
X105183171Y-59722377D01*
X105183171Y-59459938D01*
X104921343Y-59459938D01*
X104921343Y-59372316D01*
X105007316Y-59372316D01*
X105183171Y-59372316D01*
X105183171Y-59022255D01*
X105007316Y-59022255D01*
X105007316Y-59372316D01*
X104921343Y-59372316D01*
X104832316Y-59372316D01*
X104832316Y-59020607D01*
X104921343Y-59020607D01*
X104921343Y-58934633D01*
X105445000Y-58934633D01*
X105445000Y-59022255D01*
G37*
G36*
X104745488Y-58934633D02*
G01*
X104659515Y-58934633D01*
X104659515Y-59020607D01*
X104571221Y-59020607D01*
X104571221Y-59110488D01*
X104482988Y-59110488D01*
X104482988Y-59196461D01*
X104397686Y-59196461D01*
X104397686Y-59110488D01*
X104307805Y-59110488D01*
X104307805Y-59020607D01*
X104217923Y-59020607D01*
X104217923Y-58934633D01*
X104131950Y-58934633D01*
X104131950Y-59810000D01*
X104307805Y-59810000D01*
X104307805Y-59372316D01*
X104397686Y-59372316D01*
X104397686Y-59458290D01*
X104482988Y-59458290D01*
X104482988Y-59372316D01*
X104571221Y-59372316D01*
X104571221Y-59810000D01*
X104745488Y-59810000D01*
X104745488Y-58934633D01*
G37*
G36*
X103960003Y-59020607D02*
G01*
X104045976Y-59020607D01*
X104045976Y-59720118D01*
X103960003Y-59720118D01*
X103960003Y-59810000D01*
X103522320Y-59810000D01*
X103522320Y-59722377D01*
X103608293Y-59722377D01*
X103870976Y-59722377D01*
X103870976Y-59022255D01*
X103608293Y-59022255D01*
X103608293Y-59722377D01*
X103522320Y-59722377D01*
X103522320Y-59720118D01*
X103433293Y-59720118D01*
X103433293Y-59020607D01*
X103522320Y-59020607D01*
X103522320Y-58934633D01*
X103960003Y-58934633D01*
X103960003Y-59020607D01*
G37*
G36*
X103346465Y-59022255D02*
G01*
X103259637Y-59022255D01*
X103259637Y-59722377D01*
X103346465Y-59722377D01*
X103346465Y-59810000D01*
X102822808Y-59810000D01*
X102822808Y-59722377D01*
X102908782Y-59722377D01*
X103084637Y-59722377D01*
X103084637Y-59022255D01*
X102908782Y-59022255D01*
X102908782Y-59722377D01*
X102822808Y-59722377D01*
X102822808Y-59720118D01*
X102733782Y-59720118D01*
X102733782Y-59020607D01*
X102822808Y-59020607D01*
X102822808Y-58934633D01*
X103346465Y-58934633D01*
X103346465Y-59022255D01*
G37*
G36*
X102645000Y-58934633D02*
G01*
X102033415Y-58934633D01*
X102033415Y-59196461D01*
X102119389Y-59196461D01*
X102119389Y-59109389D01*
X102209270Y-59109389D01*
X102209270Y-59022255D01*
X102382072Y-59022255D01*
X102382072Y-59282435D01*
X102295244Y-59282435D01*
X102295244Y-59196461D01*
X102209270Y-59196461D01*
X102209270Y-59548171D01*
X102295244Y-59548171D01*
X102295244Y-59458290D01*
X102382072Y-59458290D01*
X102382072Y-59722377D01*
X102209270Y-59722377D01*
X102209270Y-59635244D01*
X102119389Y-59635244D01*
X102119389Y-59548171D01*
X102033415Y-59548171D01*
X102033415Y-59810000D01*
X102645000Y-59810000D01*
X102645000Y-59722377D01*
X102557072Y-59722377D01*
X102557072Y-59022255D01*
X102645000Y-59022255D01*
X102645000Y-58934633D01*
G37*
G36*
X101947442Y-59898232D02*
G01*
X101247930Y-59898232D01*
X101247930Y-59985854D01*
X101947442Y-59985854D01*
X101947442Y-59898232D01*
G37*
G36*
X101161957Y-59020607D02*
G01*
X101247930Y-59020607D01*
X101247930Y-59720118D01*
X101161957Y-59720118D01*
X101161957Y-59810000D01*
X100724274Y-59810000D01*
X100724274Y-59722377D01*
X100810247Y-59722377D01*
X101072930Y-59722377D01*
X101072930Y-59548171D01*
X100985369Y-59548171D01*
X100985369Y-59458290D01*
X100897808Y-59458290D01*
X100897808Y-59372316D01*
X100810247Y-59372316D01*
X100810247Y-59722377D01*
X100724274Y-59722377D01*
X100724274Y-59720118D01*
X100635247Y-59720118D01*
X100635247Y-59196461D01*
X100810247Y-59196461D01*
X100897808Y-59196461D01*
X100897808Y-59282435D01*
X100985369Y-59282435D01*
X100985369Y-59372316D01*
X101072930Y-59372316D01*
X101072930Y-59022255D01*
X100810247Y-59022255D01*
X100810247Y-59196461D01*
X100635247Y-59196461D01*
X100635247Y-59020607D01*
X100724274Y-59020607D01*
X100724274Y-58934633D01*
X101161957Y-58934633D01*
X101161957Y-59020607D01*
G37*
G36*
X119638171Y-89429633D02*
G01*
X119201343Y-89429633D01*
X119201343Y-89515607D01*
X119112316Y-89515607D01*
X119112316Y-89691461D01*
X119287316Y-89691461D01*
X119287316Y-89517255D01*
X119550000Y-89517255D01*
X119550000Y-89691461D01*
X119463171Y-89691461D01*
X119463171Y-89779694D01*
X119287316Y-89779694D01*
X119287316Y-89866767D01*
X119201343Y-89866767D01*
X119201343Y-89955549D01*
X119112316Y-89955549D01*
X119112316Y-90217377D01*
X119201343Y-90217377D01*
X119201343Y-90305000D01*
X119638171Y-90305000D01*
X119638171Y-90217377D01*
X119725000Y-90217377D01*
X119725000Y-90043171D01*
X119550000Y-90043171D01*
X119550000Y-90217377D01*
X119287316Y-90217377D01*
X119287316Y-89955549D01*
X119376343Y-89955549D01*
X119376343Y-89866767D01*
X119549145Y-89866767D01*
X119549145Y-89779694D01*
X119638171Y-89779694D01*
X119638171Y-89691461D01*
X119725000Y-89691461D01*
X119725000Y-89515607D01*
X119638171Y-89515607D01*
X119638171Y-89429633D01*
G37*
G36*
X118938660Y-89429633D02*
G01*
X118501831Y-89429633D01*
X118501831Y-89515607D01*
X118412805Y-89515607D01*
X118412805Y-89691461D01*
X118587805Y-89691461D01*
X118587805Y-89517255D01*
X118850488Y-89517255D01*
X118850488Y-89691461D01*
X118763660Y-89691461D01*
X118763660Y-89779694D01*
X118587805Y-89779694D01*
X118587805Y-89866767D01*
X118501831Y-89866767D01*
X118501831Y-89955549D01*
X118412805Y-89955549D01*
X118412805Y-90217377D01*
X118501831Y-90217377D01*
X118501831Y-90305000D01*
X118938660Y-90305000D01*
X118938660Y-90217377D01*
X119025488Y-90217377D01*
X119025488Y-90043171D01*
X118850488Y-90043171D01*
X118850488Y-90217377D01*
X118587805Y-90217377D01*
X118587805Y-89955549D01*
X118676831Y-89955549D01*
X118676831Y-89866767D01*
X118849633Y-89866767D01*
X118849633Y-89779694D01*
X118938660Y-89779694D01*
X118938660Y-89691461D01*
X119025488Y-89691461D01*
X119025488Y-89515607D01*
X118938660Y-89515607D01*
X118938660Y-89429633D01*
G37*
G36*
X118325976Y-89429633D02*
G01*
X118240003Y-89429633D01*
X118240003Y-89515607D01*
X118152076Y-89515607D01*
X118152076Y-89605488D01*
X118064148Y-89605488D01*
X118064148Y-89691461D01*
X117976221Y-89691461D01*
X117976221Y-89781343D01*
X117888293Y-89781343D01*
X117888293Y-89429633D01*
X117713293Y-89429633D01*
X117713293Y-90305000D01*
X117888293Y-90305000D01*
X117888293Y-90043171D01*
X117976221Y-90043171D01*
X117976221Y-89953290D01*
X118064148Y-89953290D01*
X118064148Y-89867316D01*
X118152076Y-89867316D01*
X118152076Y-90305000D01*
X118325976Y-90305000D01*
X118325976Y-89429633D01*
G37*
G36*
X117626465Y-90393232D02*
G01*
X116926953Y-90393232D01*
X116926953Y-90480854D01*
X117626465Y-90480854D01*
X117626465Y-90393232D01*
G37*
G36*
X116926953Y-89517255D02*
G01*
X116840125Y-89517255D01*
X116840125Y-90217377D01*
X116926953Y-90217377D01*
X116926953Y-90305000D01*
X116575244Y-90305000D01*
X116575244Y-90217377D01*
X116665125Y-90217377D01*
X116665125Y-89954938D01*
X116403297Y-89954938D01*
X116403297Y-89867316D01*
X116489270Y-89867316D01*
X116665125Y-89867316D01*
X116665125Y-89517255D01*
X116489270Y-89517255D01*
X116489270Y-89867316D01*
X116403297Y-89867316D01*
X116314270Y-89867316D01*
X116314270Y-89515607D01*
X116403297Y-89515607D01*
X116403297Y-89429633D01*
X116926953Y-89429633D01*
X116926953Y-89517255D01*
G37*
G36*
X116227442Y-89429633D02*
G01*
X116052442Y-89429633D01*
X116052442Y-90217377D01*
X115789759Y-90217377D01*
X115789759Y-89429633D01*
X115614759Y-89429633D01*
X115614759Y-90219026D01*
X115703785Y-90219026D01*
X115703785Y-90305000D01*
X116141468Y-90305000D01*
X116141468Y-90219026D01*
X116227442Y-90219026D01*
X116227442Y-89429633D01*
G37*
G36*
X119664026Y-85179633D02*
G01*
X119226343Y-85179633D01*
X119226343Y-85265607D01*
X119137316Y-85265607D01*
X119137316Y-85441461D01*
X119312316Y-85441461D01*
X119312316Y-85267255D01*
X119575000Y-85267255D01*
X119575000Y-85967377D01*
X119312316Y-85967377D01*
X119312316Y-85793171D01*
X119137316Y-85793171D01*
X119137316Y-85967377D01*
X119226343Y-85967377D01*
X119226343Y-86055000D01*
X119664026Y-86055000D01*
X119664026Y-85967377D01*
X119750000Y-85967377D01*
X119750000Y-85265607D01*
X119664026Y-85265607D01*
X119664026Y-85179633D01*
G37*
G36*
X119050488Y-85179633D02*
G01*
X118436950Y-85179633D01*
X118436950Y-85441461D01*
X118522923Y-85441461D01*
X118522923Y-85354389D01*
X118612805Y-85354389D01*
X118612805Y-85267255D01*
X118788660Y-85267255D01*
X118788660Y-85527435D01*
X118698778Y-85527435D01*
X118698778Y-85441461D01*
X118612805Y-85441461D01*
X118612805Y-85793171D01*
X118698778Y-85793171D01*
X118698778Y-85703290D01*
X118788660Y-85703290D01*
X118788660Y-85967377D01*
X118698778Y-85967377D01*
X118698778Y-86055000D01*
X119050488Y-86055000D01*
X119050488Y-85967377D01*
X118963660Y-85967377D01*
X118963660Y-85267255D01*
X119050488Y-85267255D01*
X119050488Y-85179633D01*
G37*
G36*
X118265003Y-85179633D02*
G01*
X117827320Y-85179633D01*
X117827320Y-85265607D01*
X117738293Y-85265607D01*
X117738293Y-85441461D01*
X117913293Y-85441461D01*
X117913293Y-85267255D01*
X118175976Y-85267255D01*
X118175976Y-85967377D01*
X117913293Y-85967377D01*
X117913293Y-85704938D01*
X118000854Y-85704938D01*
X118000854Y-85617316D01*
X117738293Y-85617316D01*
X117738293Y-86055000D01*
X118265003Y-86055000D01*
X118265003Y-85965118D01*
X118350976Y-85965118D01*
X118350976Y-85265607D01*
X118265003Y-85265607D01*
X118265003Y-85179633D01*
G37*
G36*
X117651465Y-86143232D02*
G01*
X116951953Y-86143232D01*
X116951953Y-86230854D01*
X117651465Y-86230854D01*
X117651465Y-86143232D01*
G37*
G36*
X116865980Y-85265607D02*
G01*
X116951953Y-85265607D01*
X116951953Y-85965118D01*
X116865980Y-85965118D01*
X116865980Y-86055000D01*
X116428297Y-86055000D01*
X116428297Y-85967377D01*
X116514270Y-85967377D01*
X116776953Y-85967377D01*
X116776953Y-85793171D01*
X116689392Y-85793171D01*
X116689392Y-85703290D01*
X116601831Y-85703290D01*
X116601831Y-85617316D01*
X116514270Y-85617316D01*
X116514270Y-85967377D01*
X116428297Y-85967377D01*
X116428297Y-85965118D01*
X116339270Y-85965118D01*
X116339270Y-85441461D01*
X116514270Y-85441461D01*
X116601831Y-85441461D01*
X116601831Y-85527435D01*
X116689392Y-85527435D01*
X116689392Y-85617316D01*
X116776953Y-85617316D01*
X116776953Y-85267255D01*
X116514270Y-85267255D01*
X116514270Y-85441461D01*
X116339270Y-85441461D01*
X116339270Y-85265607D01*
X116428297Y-85265607D01*
X116428297Y-85179633D01*
X116865980Y-85179633D01*
X116865980Y-85265607D01*
G37*
G36*
X105125000Y-50817255D02*
G01*
X105038171Y-50817255D01*
X105038171Y-51517377D01*
X105125000Y-51517377D01*
X105125000Y-51605000D01*
X104773290Y-51605000D01*
X104773290Y-51517377D01*
X104863171Y-51517377D01*
X104863171Y-51254938D01*
X104601343Y-51254938D01*
X104601343Y-51167316D01*
X104687316Y-51167316D01*
X104863171Y-51167316D01*
X104863171Y-50817255D01*
X104687316Y-50817255D01*
X104687316Y-51167316D01*
X104601343Y-51167316D01*
X104512316Y-51167316D01*
X104512316Y-50815607D01*
X104601343Y-50815607D01*
X104601343Y-50729633D01*
X105125000Y-50729633D01*
X105125000Y-50817255D01*
G37*
G36*
X104339515Y-50729633D02*
G01*
X103901831Y-50729633D01*
X103901831Y-50815607D01*
X103812805Y-50815607D01*
X103812805Y-50991461D01*
X103987805Y-50991461D01*
X103987805Y-50817255D01*
X104250488Y-50817255D01*
X104250488Y-51517377D01*
X103987805Y-51517377D01*
X103987805Y-51254938D01*
X104075366Y-51254938D01*
X104075366Y-51167316D01*
X103812805Y-51167316D01*
X103812805Y-51605000D01*
X104339515Y-51605000D01*
X104339515Y-51515118D01*
X104425488Y-51515118D01*
X104425488Y-50815607D01*
X104339515Y-50815607D01*
X104339515Y-50729633D01*
G37*
G36*
X103725976Y-51693232D02*
G01*
X103026465Y-51693232D01*
X103026465Y-51780854D01*
X103725976Y-51780854D01*
X103725976Y-51693232D01*
G37*
G36*
X103026465Y-50817255D02*
G01*
X102939637Y-50817255D01*
X102939637Y-51517377D01*
X103026465Y-51517377D01*
X103026465Y-51605000D01*
X102674755Y-51605000D01*
X102674755Y-51517377D01*
X102764637Y-51517377D01*
X102764637Y-51254938D01*
X102502808Y-51254938D01*
X102502808Y-51167316D01*
X102588782Y-51167316D01*
X102764637Y-51167316D01*
X102764637Y-50817255D01*
X102588782Y-50817255D01*
X102588782Y-51167316D01*
X102502808Y-51167316D01*
X102413782Y-51167316D01*
X102413782Y-50815607D01*
X102502808Y-50815607D01*
X102502808Y-50729633D01*
X103026465Y-50729633D01*
X103026465Y-50817255D01*
G37*
G36*
X102326953Y-50729633D02*
G01*
X102151953Y-50729633D01*
X102151953Y-51517377D01*
X101889270Y-51517377D01*
X101889270Y-50729633D01*
X101714270Y-50729633D01*
X101714270Y-51519026D01*
X101803297Y-51519026D01*
X101803297Y-51605000D01*
X102240980Y-51605000D01*
X102240980Y-51519026D01*
X102326953Y-51519026D01*
X102326953Y-50729633D01*
G37*
G36*
X99375000Y-50654633D02*
G01*
X98761461Y-50654633D01*
X98761461Y-50916461D01*
X98847435Y-50916461D01*
X98847435Y-50829389D01*
X98937316Y-50829389D01*
X98937316Y-50742255D01*
X99113171Y-50742255D01*
X99113171Y-51002435D01*
X99023290Y-51002435D01*
X99023290Y-50916461D01*
X98937316Y-50916461D01*
X98937316Y-51268171D01*
X99023290Y-51268171D01*
X99023290Y-51178290D01*
X99113171Y-51178290D01*
X99113171Y-51442377D01*
X99023290Y-51442377D01*
X99023290Y-51530000D01*
X99375000Y-51530000D01*
X99375000Y-51442377D01*
X99288171Y-51442377D01*
X99288171Y-50742255D01*
X99375000Y-50742255D01*
X99375000Y-50654633D01*
G37*
G36*
X98588660Y-50654633D02*
G01*
X98151831Y-50654633D01*
X98151831Y-50740607D01*
X98062805Y-50740607D01*
X98062805Y-50916461D01*
X98237805Y-50916461D01*
X98237805Y-50742255D01*
X98500488Y-50742255D01*
X98500488Y-50916461D01*
X98413660Y-50916461D01*
X98413660Y-51004694D01*
X98237805Y-51004694D01*
X98237805Y-51091767D01*
X98151831Y-51091767D01*
X98151831Y-51180549D01*
X98062805Y-51180549D01*
X98062805Y-51442377D01*
X98151831Y-51442377D01*
X98151831Y-51530000D01*
X98588660Y-51530000D01*
X98588660Y-51442377D01*
X98675488Y-51442377D01*
X98675488Y-51268171D01*
X98500488Y-51268171D01*
X98500488Y-51442377D01*
X98237805Y-51442377D01*
X98237805Y-51180549D01*
X98326831Y-51180549D01*
X98326831Y-51091767D01*
X98499633Y-51091767D01*
X98499633Y-51004694D01*
X98588660Y-51004694D01*
X98588660Y-50916461D01*
X98675488Y-50916461D01*
X98675488Y-50740607D01*
X98588660Y-50740607D01*
X98588660Y-50654633D01*
G37*
G36*
X97975976Y-50654633D02*
G01*
X97624267Y-50654633D01*
X97624267Y-50742255D01*
X97714148Y-50742255D01*
X97714148Y-51442377D01*
X97536339Y-51442377D01*
X97536339Y-51354816D01*
X97448412Y-51354816D01*
X97448412Y-51267316D01*
X97362438Y-51267316D01*
X97362438Y-51530000D01*
X97975976Y-51530000D01*
X97975976Y-51442377D01*
X97889148Y-51442377D01*
X97889148Y-50742255D01*
X97975976Y-50742255D01*
X97975976Y-50654633D01*
G37*
G36*
X97190491Y-50654633D02*
G01*
X96752808Y-50654633D01*
X96752808Y-50740607D01*
X96663782Y-50740607D01*
X96663782Y-50916461D01*
X96838782Y-50916461D01*
X96838782Y-50742255D01*
X97101465Y-50742255D01*
X97101465Y-51442377D01*
X96838782Y-51442377D01*
X96838782Y-51268171D01*
X96663782Y-51268171D01*
X96663782Y-51442377D01*
X96752808Y-51442377D01*
X96752808Y-51530000D01*
X97190491Y-51530000D01*
X97190491Y-51442377D01*
X97276465Y-51442377D01*
X97276465Y-50740607D01*
X97190491Y-50740607D01*
X97190491Y-50654633D01*
G37*
G36*
X96576953Y-51618232D02*
G01*
X95877442Y-51618232D01*
X95877442Y-51705854D01*
X96576953Y-51705854D01*
X96576953Y-51618232D01*
G37*
G36*
X95615614Y-50654633D02*
G01*
X95440614Y-50654633D01*
X95440614Y-51442377D01*
X95267812Y-51442377D01*
X95267812Y-51530000D01*
X95791468Y-51530000D01*
X95791468Y-51442377D01*
X95615614Y-51442377D01*
X95615614Y-50916461D01*
X95791468Y-50916461D01*
X95791468Y-50828839D01*
X95703541Y-50828839D01*
X95703541Y-50741706D01*
X95615614Y-50741706D01*
X95615614Y-50654633D01*
G37*
G36*
X105455000Y-61172255D02*
G01*
X105368171Y-61172255D01*
X105368171Y-61872377D01*
X105455000Y-61872377D01*
X105455000Y-61960000D01*
X105103290Y-61960000D01*
X105103290Y-61872377D01*
X105193171Y-61872377D01*
X105193171Y-61609938D01*
X104931343Y-61609938D01*
X104931343Y-61522316D01*
X105017316Y-61522316D01*
X105193171Y-61522316D01*
X105193171Y-61172255D01*
X105017316Y-61172255D01*
X105017316Y-61522316D01*
X104931343Y-61522316D01*
X104842316Y-61522316D01*
X104842316Y-61170607D01*
X104931343Y-61170607D01*
X104931343Y-61084633D01*
X105455000Y-61084633D01*
X105455000Y-61172255D01*
G37*
G36*
X104755488Y-61084633D02*
G01*
X104669515Y-61084633D01*
X104669515Y-61170607D01*
X104581221Y-61170607D01*
X104581221Y-61260488D01*
X104492988Y-61260488D01*
X104492988Y-61346461D01*
X104407686Y-61346461D01*
X104407686Y-61260488D01*
X104317805Y-61260488D01*
X104317805Y-61170607D01*
X104227923Y-61170607D01*
X104227923Y-61084633D01*
X104141950Y-61084633D01*
X104141950Y-61960000D01*
X104317805Y-61960000D01*
X104317805Y-61522316D01*
X104407686Y-61522316D01*
X104407686Y-61608290D01*
X104492988Y-61608290D01*
X104492988Y-61522316D01*
X104581221Y-61522316D01*
X104581221Y-61960000D01*
X104755488Y-61960000D01*
X104755488Y-61084633D01*
G37*
G36*
X103970003Y-61170607D02*
G01*
X104055976Y-61170607D01*
X104055976Y-61870118D01*
X103970003Y-61870118D01*
X103970003Y-61960000D01*
X103532320Y-61960000D01*
X103532320Y-61872377D01*
X103618293Y-61872377D01*
X103880976Y-61872377D01*
X103880976Y-61172255D01*
X103618293Y-61172255D01*
X103618293Y-61872377D01*
X103532320Y-61872377D01*
X103532320Y-61870118D01*
X103443293Y-61870118D01*
X103443293Y-61170607D01*
X103532320Y-61170607D01*
X103532320Y-61084633D01*
X103970003Y-61084633D01*
X103970003Y-61170607D01*
G37*
G36*
X103356465Y-61172255D02*
G01*
X103269637Y-61172255D01*
X103269637Y-61872377D01*
X103356465Y-61872377D01*
X103356465Y-61960000D01*
X102832808Y-61960000D01*
X102832808Y-61872377D01*
X102918782Y-61872377D01*
X103094637Y-61872377D01*
X103094637Y-61172255D01*
X102918782Y-61172255D01*
X102918782Y-61872377D01*
X102832808Y-61872377D01*
X102832808Y-61870118D01*
X102743782Y-61870118D01*
X102743782Y-61170607D01*
X102832808Y-61170607D01*
X102832808Y-61084633D01*
X103356465Y-61084633D01*
X103356465Y-61172255D01*
G37*
G36*
X102655000Y-61084633D02*
G01*
X102043415Y-61084633D01*
X102043415Y-61346461D01*
X102129389Y-61346461D01*
X102129389Y-61259389D01*
X102219270Y-61259389D01*
X102219270Y-61172255D01*
X102392072Y-61172255D01*
X102392072Y-61432435D01*
X102305244Y-61432435D01*
X102305244Y-61346461D01*
X102219270Y-61346461D01*
X102219270Y-61698171D01*
X102305244Y-61698171D01*
X102305244Y-61608290D01*
X102392072Y-61608290D01*
X102392072Y-61872377D01*
X102219270Y-61872377D01*
X102219270Y-61785244D01*
X102129389Y-61785244D01*
X102129389Y-61698171D01*
X102043415Y-61698171D01*
X102043415Y-61960000D01*
X102655000Y-61960000D01*
X102655000Y-61872377D01*
X102567072Y-61872377D01*
X102567072Y-61172255D01*
X102655000Y-61172255D01*
X102655000Y-61084633D01*
G37*
G36*
X101957442Y-62048232D02*
G01*
X101257930Y-62048232D01*
X101257930Y-62135854D01*
X101957442Y-62135854D01*
X101957442Y-62048232D01*
G37*
G36*
X101171102Y-61084633D02*
G01*
X100734274Y-61084633D01*
X100734274Y-61170607D01*
X100643538Y-61170607D01*
X100643538Y-61346461D01*
X100734274Y-61346461D01*
X100734274Y-61432435D01*
X100819392Y-61432435D01*
X100819392Y-61522316D01*
X100907076Y-61522316D01*
X100907076Y-61608290D01*
X100996102Y-61608290D01*
X100996102Y-61697072D01*
X101082930Y-61697072D01*
X101082930Y-61872377D01*
X100819392Y-61872377D01*
X100819392Y-61784694D01*
X100643538Y-61784694D01*
X100643538Y-61960000D01*
X101257930Y-61960000D01*
X101257930Y-61697072D01*
X101171102Y-61697072D01*
X101171102Y-61608290D01*
X101082076Y-61608290D01*
X101082076Y-61522316D01*
X100995247Y-61522316D01*
X100995247Y-61432435D01*
X100907076Y-61432435D01*
X100907076Y-61346461D01*
X100819392Y-61346461D01*
X100819392Y-61172255D01*
X101082930Y-61172255D01*
X101082930Y-61258229D01*
X101257930Y-61258229D01*
X101257930Y-61170607D01*
X101171102Y-61170607D01*
X101171102Y-61084633D01*
G37*
G36*
X102651709Y-53982622D02*
G01*
X102561828Y-53982622D01*
X102561828Y-54245061D01*
X102823656Y-54245061D01*
X102823656Y-54332683D01*
X102912683Y-54332683D01*
X102912683Y-54684392D01*
X102823656Y-54684392D01*
X102823656Y-54770366D01*
X102300000Y-54770366D01*
X102300000Y-54682744D01*
X102386828Y-54682744D01*
X102561828Y-54682744D01*
X102737683Y-54682744D01*
X102737683Y-54332683D01*
X102561828Y-54332683D01*
X102561828Y-54682744D01*
X102386828Y-54682744D01*
X102386828Y-53982622D01*
X102300000Y-53982622D01*
X102300000Y-53895000D01*
X102651709Y-53895000D01*
X102651709Y-53982622D01*
G37*
G36*
X103085484Y-54770366D02*
G01*
X103523168Y-54770366D01*
X103523168Y-54684392D01*
X103612194Y-54684392D01*
X103612194Y-54508538D01*
X103437194Y-54508538D01*
X103437194Y-54682744D01*
X103174511Y-54682744D01*
X103174511Y-53982622D01*
X103437194Y-53982622D01*
X103437194Y-54245061D01*
X103349633Y-54245061D01*
X103349633Y-54332683D01*
X103612194Y-54332683D01*
X103612194Y-53895000D01*
X103085484Y-53895000D01*
X103085484Y-53984881D01*
X102999511Y-53984881D01*
X102999511Y-54684392D01*
X103085484Y-54684392D01*
X103085484Y-54770366D01*
G37*
G36*
X103699023Y-53806767D02*
G01*
X104398534Y-53806767D01*
X104398534Y-53719145D01*
X103699023Y-53719145D01*
X103699023Y-53806767D01*
G37*
G36*
X104922191Y-53984881D02*
G01*
X105011217Y-53984881D01*
X105011217Y-54684392D01*
X104922191Y-54684392D01*
X104922191Y-54770366D01*
X104484508Y-54770366D01*
X104484508Y-54684392D01*
X104398534Y-54684392D01*
X104398534Y-54682744D01*
X104573534Y-54682744D01*
X104836217Y-54682744D01*
X104836217Y-54508538D01*
X104748656Y-54508538D01*
X104748656Y-54422564D01*
X104661095Y-54422564D01*
X104661095Y-54332683D01*
X104573534Y-54332683D01*
X104573534Y-54682744D01*
X104398534Y-54682744D01*
X104398534Y-54156828D01*
X104573534Y-54156828D01*
X104661095Y-54156828D01*
X104661095Y-54246709D01*
X104748656Y-54246709D01*
X104748656Y-54332683D01*
X104836217Y-54332683D01*
X104836217Y-53982622D01*
X104573534Y-53982622D01*
X104573534Y-54156828D01*
X104398534Y-54156828D01*
X104398534Y-53984881D01*
X104484508Y-53984881D01*
X104484508Y-53895000D01*
X104922191Y-53895000D01*
X104922191Y-53984881D01*
G37*
G36*
X99375000Y-51704633D02*
G01*
X98761461Y-51704633D01*
X98761461Y-51966461D01*
X98847435Y-51966461D01*
X98847435Y-51879389D01*
X98937316Y-51879389D01*
X98937316Y-51792255D01*
X99113171Y-51792255D01*
X99113171Y-52052435D01*
X99023290Y-52052435D01*
X99023290Y-51966461D01*
X98937316Y-51966461D01*
X98937316Y-52318171D01*
X99023290Y-52318171D01*
X99023290Y-52228290D01*
X99113171Y-52228290D01*
X99113171Y-52492377D01*
X99023290Y-52492377D01*
X99023290Y-52580000D01*
X99375000Y-52580000D01*
X99375000Y-52492377D01*
X99288171Y-52492377D01*
X99288171Y-51792255D01*
X99375000Y-51792255D01*
X99375000Y-51704633D01*
G37*
G36*
X98588660Y-51704633D02*
G01*
X98151831Y-51704633D01*
X98151831Y-51790607D01*
X98062805Y-51790607D01*
X98062805Y-51966461D01*
X98237805Y-51966461D01*
X98237805Y-51792255D01*
X98500488Y-51792255D01*
X98500488Y-51966461D01*
X98413660Y-51966461D01*
X98413660Y-52054694D01*
X98237805Y-52054694D01*
X98237805Y-52141767D01*
X98151831Y-52141767D01*
X98151831Y-52230549D01*
X98062805Y-52230549D01*
X98062805Y-52492377D01*
X98151831Y-52492377D01*
X98151831Y-52580000D01*
X98588660Y-52580000D01*
X98588660Y-52492377D01*
X98675488Y-52492377D01*
X98675488Y-52318171D01*
X98500488Y-52318171D01*
X98500488Y-52492377D01*
X98237805Y-52492377D01*
X98237805Y-52230549D01*
X98326831Y-52230549D01*
X98326831Y-52141767D01*
X98499633Y-52141767D01*
X98499633Y-52054694D01*
X98588660Y-52054694D01*
X98588660Y-51966461D01*
X98675488Y-51966461D01*
X98675488Y-51790607D01*
X98588660Y-51790607D01*
X98588660Y-51704633D01*
G37*
G36*
X97975976Y-51704633D02*
G01*
X97624267Y-51704633D01*
X97624267Y-51792255D01*
X97714148Y-51792255D01*
X97714148Y-52492377D01*
X97536339Y-52492377D01*
X97536339Y-52404816D01*
X97448412Y-52404816D01*
X97448412Y-52317316D01*
X97362438Y-52317316D01*
X97362438Y-52580000D01*
X97975976Y-52580000D01*
X97975976Y-52492377D01*
X97889148Y-52492377D01*
X97889148Y-51792255D01*
X97975976Y-51792255D01*
X97975976Y-51704633D01*
G37*
G36*
X97190491Y-51704633D02*
G01*
X96752808Y-51704633D01*
X96752808Y-51790607D01*
X96663782Y-51790607D01*
X96663782Y-51966461D01*
X96838782Y-51966461D01*
X96838782Y-51792255D01*
X97101465Y-51792255D01*
X97101465Y-52492377D01*
X96838782Y-52492377D01*
X96838782Y-52318171D01*
X96663782Y-52318171D01*
X96663782Y-52492377D01*
X96752808Y-52492377D01*
X96752808Y-52580000D01*
X97190491Y-52580000D01*
X97190491Y-52492377D01*
X97276465Y-52492377D01*
X97276465Y-51790607D01*
X97190491Y-51790607D01*
X97190491Y-51704633D01*
G37*
G36*
X96576953Y-52668232D02*
G01*
X95877442Y-52668232D01*
X95877442Y-52755854D01*
X96576953Y-52755854D01*
X96576953Y-52668232D01*
G37*
G36*
X95791468Y-51790607D02*
G01*
X95877442Y-51790607D01*
X95877442Y-52490118D01*
X95791468Y-52490118D01*
X95791468Y-52580000D01*
X95353785Y-52580000D01*
X95353785Y-52492377D01*
X95439759Y-52492377D01*
X95702442Y-52492377D01*
X95702442Y-52318171D01*
X95614881Y-52318171D01*
X95614881Y-52228290D01*
X95527320Y-52228290D01*
X95527320Y-52142316D01*
X95439759Y-52142316D01*
X95439759Y-52492377D01*
X95353785Y-52492377D01*
X95353785Y-52490118D01*
X95264759Y-52490118D01*
X95264759Y-51966461D01*
X95439759Y-51966461D01*
X95527320Y-51966461D01*
X95527320Y-52052435D01*
X95614881Y-52052435D01*
X95614881Y-52142316D01*
X95702442Y-52142316D01*
X95702442Y-51792255D01*
X95439759Y-51792255D01*
X95439759Y-51966461D01*
X95264759Y-51966461D01*
X95264759Y-51790607D01*
X95353785Y-51790607D01*
X95353785Y-51704633D01*
X95791468Y-51704633D01*
X95791468Y-51790607D01*
G37*
G36*
X124359392Y-90176343D02*
G01*
X124445366Y-90176343D01*
X124445366Y-90700000D01*
X124357744Y-90700000D01*
X124357744Y-90613171D01*
X123657622Y-90613171D01*
X123657622Y-90700000D01*
X123570000Y-90700000D01*
X123570000Y-90438171D01*
X123657622Y-90438171D01*
X124357744Y-90438171D01*
X124357744Y-90262316D01*
X123657622Y-90262316D01*
X123657622Y-90438171D01*
X123570000Y-90438171D01*
X123570000Y-90176343D01*
X123659881Y-90176343D01*
X123659881Y-90087316D01*
X124359392Y-90087316D01*
X124359392Y-90176343D01*
G37*
G36*
X124359392Y-89476831D02*
G01*
X124445366Y-89476831D01*
X124445366Y-89914515D01*
X124359392Y-89914515D01*
X124359392Y-90000488D01*
X123659881Y-90000488D01*
X123659881Y-89914515D01*
X123570000Y-89914515D01*
X123570000Y-89825488D01*
X123657622Y-89825488D01*
X124357744Y-89825488D01*
X124357744Y-89562805D01*
X123657622Y-89562805D01*
X123657622Y-89825488D01*
X123570000Y-89825488D01*
X123570000Y-89476831D01*
X123659881Y-89476831D01*
X123659881Y-89387805D01*
X124359392Y-89387805D01*
X124359392Y-89476831D01*
G37*
G36*
X124445366Y-89300976D02*
G01*
X124445366Y-89215003D01*
X124359392Y-89215003D01*
X124359392Y-89127076D01*
X124269511Y-89127076D01*
X124269511Y-89039148D01*
X124183538Y-89039148D01*
X124183538Y-88951221D01*
X124093656Y-88951221D01*
X124093656Y-88863293D01*
X124445366Y-88863293D01*
X124445366Y-88688293D01*
X123570000Y-88688293D01*
X123570000Y-88863293D01*
X123831828Y-88863293D01*
X123831828Y-88951221D01*
X123921709Y-88951221D01*
X123921709Y-89039148D01*
X124007683Y-89039148D01*
X124007683Y-89127076D01*
X123570000Y-89127076D01*
X123570000Y-89300976D01*
X124445366Y-89300976D01*
G37*
G36*
X124445366Y-88599511D02*
G01*
X124445366Y-87987927D01*
X124183538Y-87987927D01*
X124183538Y-88073900D01*
X124270610Y-88073900D01*
X124270610Y-88163782D01*
X124357744Y-88163782D01*
X124357744Y-88336584D01*
X124097564Y-88336584D01*
X124097564Y-88249755D01*
X124183538Y-88249755D01*
X124183538Y-88163782D01*
X123831828Y-88163782D01*
X123831828Y-88249755D01*
X123921709Y-88249755D01*
X123921709Y-88336584D01*
X123657622Y-88336584D01*
X123657622Y-88163782D01*
X123744755Y-88163782D01*
X123744755Y-88073900D01*
X123831828Y-88073900D01*
X123831828Y-87987927D01*
X123570000Y-87987927D01*
X123570000Y-88599511D01*
X123657622Y-88599511D01*
X123657622Y-88511584D01*
X124357744Y-88511584D01*
X124357744Y-88599511D01*
X124445366Y-88599511D01*
G37*
G36*
X123481767Y-87901953D02*
G01*
X123481767Y-87202442D01*
X123394145Y-87202442D01*
X123394145Y-87901953D01*
X123481767Y-87901953D01*
G37*
G36*
X124359392Y-86678785D02*
G01*
X124445366Y-86678785D01*
X124445366Y-87202442D01*
X124357744Y-87202442D01*
X124357744Y-87115614D01*
X123657622Y-87115614D01*
X123657622Y-87202442D01*
X123570000Y-87202442D01*
X123570000Y-86850732D01*
X123657622Y-86850732D01*
X123657622Y-86940614D01*
X123920061Y-86940614D01*
X124007683Y-86940614D01*
X124357744Y-86940614D01*
X124357744Y-86764759D01*
X124007683Y-86764759D01*
X124007683Y-86940614D01*
X123920061Y-86940614D01*
X123920061Y-86678785D01*
X124007683Y-86678785D01*
X124007683Y-86589759D01*
X124359392Y-86589759D01*
X124359392Y-86678785D01*
G37*
G36*
X124445366Y-86502930D02*
G01*
X124445366Y-86327930D01*
X123657622Y-86327930D01*
X123657622Y-86065247D01*
X124445366Y-86065247D01*
X124445366Y-85890247D01*
X123655973Y-85890247D01*
X123655973Y-85979274D01*
X123570000Y-85979274D01*
X123570000Y-86416957D01*
X123655973Y-86416957D01*
X123655973Y-86502930D01*
X124445366Y-86502930D01*
G37*
D11*
X106281586Y-82154818D02*
X106853014Y-82154818D01*
X106567300Y-83154818D02*
X106567300Y-82154818D01*
X108654819Y-68781585D02*
X108654819Y-69353013D01*
X108654819Y-69067299D02*
X107654819Y-69067299D01*
X107654819Y-69067299D02*
X107797676Y-69162537D01*
X107797676Y-69162537D02*
X107892914Y-69257775D01*
X107892914Y-69257775D02*
X107940533Y-69353013D01*
X106329205Y-70869104D02*
X106805395Y-70869104D01*
X106233967Y-71154819D02*
X106567300Y-70154819D01*
X106567300Y-70154819D02*
X106900633Y-71154819D01*
X120654818Y-69257776D02*
X120654818Y-69829204D01*
X120654818Y-69543490D02*
X119654818Y-69543490D01*
X119654818Y-69543490D02*
X119797675Y-69638728D01*
X119797675Y-69638728D02*
X119892913Y-69733966D01*
X119892913Y-69733966D02*
X119940532Y-69829204D01*
X119654818Y-68400633D02*
X119654818Y-68591109D01*
X119654818Y-68591109D02*
X119702437Y-68686347D01*
X119702437Y-68686347D02*
X119750056Y-68733966D01*
X119750056Y-68733966D02*
X119892913Y-68829204D01*
X119892913Y-68829204D02*
X120083389Y-68876823D01*
X120083389Y-68876823D02*
X120464341Y-68876823D01*
X120464341Y-68876823D02*
X120559579Y-68829204D01*
X120559579Y-68829204D02*
X120607199Y-68781585D01*
X120607199Y-68781585D02*
X120654818Y-68686347D01*
X120654818Y-68686347D02*
X120654818Y-68495871D01*
X120654818Y-68495871D02*
X120607199Y-68400633D01*
X120607199Y-68400633D02*
X120559579Y-68353014D01*
X120559579Y-68353014D02*
X120464341Y-68305395D01*
X120464341Y-68305395D02*
X120226246Y-68305395D01*
X120226246Y-68305395D02*
X120131008Y-68353014D01*
X120131008Y-68353014D02*
X120083389Y-68400633D01*
X120083389Y-68400633D02*
X120035770Y-68495871D01*
X120035770Y-68495871D02*
X120035770Y-68686347D01*
X120035770Y-68686347D02*
X120083389Y-68781585D01*
X120083389Y-68781585D02*
X120131008Y-68829204D01*
X120131008Y-68829204D02*
X120226246Y-68876823D01*
X115637857Y-53119580D02*
X115685476Y-53167200D01*
X115685476Y-53167200D02*
X115828333Y-53214819D01*
X115828333Y-53214819D02*
X115923571Y-53214819D01*
X115923571Y-53214819D02*
X116066428Y-53167200D01*
X116066428Y-53167200D02*
X116161666Y-53071961D01*
X116161666Y-53071961D02*
X116209285Y-52976723D01*
X116209285Y-52976723D02*
X116256904Y-52786247D01*
X116256904Y-52786247D02*
X116256904Y-52643390D01*
X116256904Y-52643390D02*
X116209285Y-52452914D01*
X116209285Y-52452914D02*
X116161666Y-52357676D01*
X116161666Y-52357676D02*
X116066428Y-52262438D01*
X116066428Y-52262438D02*
X115923571Y-52214819D01*
X115923571Y-52214819D02*
X115828333Y-52214819D01*
X115828333Y-52214819D02*
X115685476Y-52262438D01*
X115685476Y-52262438D02*
X115637857Y-52310057D01*
X114685476Y-53214819D02*
X115256904Y-53214819D01*
X114971190Y-53214819D02*
X114971190Y-52214819D01*
X114971190Y-52214819D02*
X115066428Y-52357676D01*
X115066428Y-52357676D02*
X115161666Y-52452914D01*
X115161666Y-52452914D02*
X115256904Y-52500533D01*
X113780714Y-52214819D02*
X114256904Y-52214819D01*
X114256904Y-52214819D02*
X114304523Y-52691009D01*
X114304523Y-52691009D02*
X114256904Y-52643390D01*
X114256904Y-52643390D02*
X114161666Y-52595771D01*
X114161666Y-52595771D02*
X113923571Y-52595771D01*
X113923571Y-52595771D02*
X113828333Y-52643390D01*
X113828333Y-52643390D02*
X113780714Y-52691009D01*
X113780714Y-52691009D02*
X113733095Y-52786247D01*
X113733095Y-52786247D02*
X113733095Y-53024342D01*
X113733095Y-53024342D02*
X113780714Y-53119580D01*
X113780714Y-53119580D02*
X113828333Y-53167200D01*
X113828333Y-53167200D02*
X113923571Y-53214819D01*
X113923571Y-53214819D02*
X114161666Y-53214819D01*
X114161666Y-53214819D02*
X114256904Y-53167200D01*
X114256904Y-53167200D02*
X114304523Y-53119580D01*
D12*
%TO.C,C68*%
X114245000Y-74872164D02*
X114245000Y-75087836D01*
X114965000Y-74872164D02*
X114965000Y-75087836D01*
%TO.C,C51*%
X113512836Y-76915000D02*
X113297164Y-76915000D01*
X113512836Y-77635000D02*
X113297164Y-77635000D01*
%TO.C,C76*%
X119167164Y-76470000D02*
X119382836Y-76470000D01*
X119167164Y-77190000D02*
X119382836Y-77190000D01*
%TO.C,C22*%
X109187164Y-55820000D02*
X109402836Y-55820000D01*
X109187164Y-56540000D02*
X109402836Y-56540000D01*
%TO.C,C106*%
X98842836Y-75350000D02*
X98627164Y-75350000D01*
X98842836Y-76070000D02*
X98627164Y-76070000D01*
%TO.C,C84*%
X111467164Y-78480000D02*
X111682836Y-78480000D01*
X111467164Y-79200000D02*
X111682836Y-79200000D01*
%TO.C,R2*%
X111295000Y-51043641D02*
X111295000Y-50736359D01*
X112055000Y-51043641D02*
X112055000Y-50736359D01*
%TO.C,C26*%
X118232836Y-58510000D02*
X118017164Y-58510000D01*
X118232836Y-59230000D02*
X118017164Y-59230000D01*
%TO.C,L2*%
X119305279Y-54290000D02*
X118979721Y-54290000D01*
X119305279Y-55310000D02*
X118979721Y-55310000D01*
%TO.C,C18*%
X114312836Y-53080000D02*
X114097164Y-53080000D01*
X114312836Y-53800000D02*
X114097164Y-53800000D01*
%TO.C,C24*%
X112234190Y-60058307D02*
X112386693Y-60210810D01*
X112743307Y-59549190D02*
X112895810Y-59701693D01*
%TO.C,R51*%
X92620000Y-85143641D02*
X92620000Y-84836359D01*
X93380000Y-85143641D02*
X93380000Y-84836359D01*
%TO.C,C53*%
X106575000Y-75564420D02*
X106575000Y-75845580D01*
X107595000Y-75564420D02*
X107595000Y-75845580D01*
%TO.C,C19*%
X118155000Y-60347836D02*
X118155000Y-60132164D01*
X118875000Y-60347836D02*
X118875000Y-60132164D01*
%TO.C,L3*%
X106499721Y-49790000D02*
X106825279Y-49790000D01*
X106499721Y-50810000D02*
X106825279Y-50810000D01*
%TO.C,C58*%
X95287836Y-72675000D02*
X95072164Y-72675000D01*
X95287836Y-73395000D02*
X95072164Y-73395000D01*
%TO.C,C94*%
X107640000Y-53462836D02*
X107640000Y-53247164D01*
X108360000Y-53462836D02*
X108360000Y-53247164D01*
%TO.C,R37*%
X89512742Y-88627500D02*
X89987258Y-88627500D01*
X89512742Y-89672500D02*
X89987258Y-89672500D01*
%TO.C,R6*%
X100553641Y-51745000D02*
X100246359Y-51745000D01*
X100553641Y-52505000D02*
X100246359Y-52505000D01*
%TO.C,R18*%
X121308641Y-86420000D02*
X121001359Y-86420000D01*
X121308641Y-87180000D02*
X121001359Y-87180000D01*
%TO.C,R47*%
X108620000Y-69926359D02*
X108620000Y-70233641D01*
X109380000Y-69926359D02*
X109380000Y-70233641D01*
%TO.C,C55*%
X120059420Y-77990000D02*
X120340580Y-77990000D01*
X120059420Y-79010000D02*
X120340580Y-79010000D01*
%TO.C,C45*%
X94902836Y-69040000D02*
X94687164Y-69040000D01*
X94902836Y-69760000D02*
X94687164Y-69760000D01*
%TO.C,C79*%
X116702836Y-74070000D02*
X116487164Y-74070000D01*
X116702836Y-74790000D02*
X116487164Y-74790000D01*
%TO.C,C107*%
X96427164Y-75400000D02*
X96642836Y-75400000D01*
X96427164Y-76120000D02*
X96642836Y-76120000D01*
%TO.C,C9*%
X115445000Y-55042164D02*
X115445000Y-55257836D01*
X116165000Y-55042164D02*
X116165000Y-55257836D01*
%TO.C,C105*%
X97067164Y-69960000D02*
X97282836Y-69960000D01*
X97067164Y-70680000D02*
X97282836Y-70680000D01*
%TO.C,C49*%
X117562836Y-77390000D02*
X117347164Y-77390000D01*
X117562836Y-78110000D02*
X117347164Y-78110000D01*
%TO.C,C89*%
X111017164Y-55190000D02*
X111232836Y-55190000D01*
X111017164Y-55910000D02*
X111232836Y-55910000D01*
%TO.C,R17*%
X121318641Y-85220000D02*
X121011359Y-85220000D01*
X121318641Y-85980000D02*
X121011359Y-85980000D01*
%TO.C,C83*%
X113342836Y-74120000D02*
X113127164Y-74120000D01*
X113342836Y-74840000D02*
X113127164Y-74840000D01*
%TO.C,C80*%
X121859420Y-73670000D02*
X122140580Y-73670000D01*
X121859420Y-74690000D02*
X122140580Y-74690000D01*
%TO.C,R28*%
X104193641Y-51870000D02*
X103886359Y-51870000D01*
X104193641Y-52630000D02*
X103886359Y-52630000D01*
%TO.C,C4*%
X109574420Y-50400000D02*
X109855580Y-50400000D01*
X109574420Y-51420000D02*
X109855580Y-51420000D01*
%TO.C,C86*%
X113277164Y-80120000D02*
X113492836Y-80120000D01*
X113277164Y-80840000D02*
X113492836Y-80840000D01*
%TO.C,C82*%
X121859420Y-72210000D02*
X122140580Y-72210000D01*
X121859420Y-73230000D02*
X122140580Y-73230000D01*
%TO.C,C20*%
X117132836Y-60565000D02*
X116917164Y-60565000D01*
X117132836Y-61285000D02*
X116917164Y-61285000D01*
%TO.C,C52*%
X113512836Y-75990000D02*
X113297164Y-75990000D01*
X113512836Y-76710000D02*
X113297164Y-76710000D01*
%TO.C,C37*%
X85697164Y-61640000D02*
X85912836Y-61640000D01*
X85697164Y-62360000D02*
X85912836Y-62360000D01*
%TO.C,C13*%
X114327164Y-60010000D02*
X114542836Y-60010000D01*
X114327164Y-60730000D02*
X114542836Y-60730000D01*
%TO.C,C85*%
X118307164Y-75000000D02*
X118522836Y-75000000D01*
X118307164Y-75720000D02*
X118522836Y-75720000D01*
%TO.C,R8*%
X100246359Y-52795000D02*
X100553641Y-52795000D01*
X100246359Y-53555000D02*
X100553641Y-53555000D01*
%TO.C,C71*%
X114425000Y-79207836D02*
X114425000Y-78992164D01*
X115145000Y-79207836D02*
X115145000Y-78992164D01*
%TO.C,C21*%
X117315000Y-57392164D02*
X117315000Y-57607836D01*
X118035000Y-57392164D02*
X118035000Y-57607836D01*
%TO.C,C96*%
X88402836Y-72880000D02*
X88187164Y-72880000D01*
X88402836Y-73600000D02*
X88187164Y-73600000D01*
%TO.C,R23*%
X123195000Y-82653641D02*
X123195000Y-82346359D01*
X123955000Y-82653641D02*
X123955000Y-82346359D01*
%TO.C,C48*%
X111665000Y-77577836D02*
X111665000Y-77362164D01*
X112385000Y-77577836D02*
X112385000Y-77362164D01*
%TO.C,C78*%
X116702836Y-74990000D02*
X116487164Y-74990000D01*
X116702836Y-75710000D02*
X116487164Y-75710000D01*
%TO.C,C47*%
X117562836Y-76465000D02*
X117347164Y-76465000D01*
X117562836Y-77185000D02*
X117347164Y-77185000D01*
%TO.C,C98*%
X90017164Y-69030000D02*
X90232836Y-69030000D01*
X90017164Y-69750000D02*
X90232836Y-69750000D01*
%TO.C,R26*%
X106445000Y-53106359D02*
X106445000Y-53413641D01*
X107205000Y-53106359D02*
X107205000Y-53413641D01*
%TO.C,C46*%
X115512164Y-77365000D02*
X115727836Y-77365000D01*
X115512164Y-78085000D02*
X115727836Y-78085000D01*
%TO.C,C109*%
X98892836Y-80850000D02*
X98677164Y-80850000D01*
X98892836Y-81570000D02*
X98677164Y-81570000D01*
%TO.C,C74*%
X118312164Y-80940000D02*
X118527836Y-80940000D01*
X118312164Y-81660000D02*
X118527836Y-81660000D01*
%TO.C,C73*%
X117467164Y-79760000D02*
X117682836Y-79760000D01*
X117467164Y-80480000D02*
X117682836Y-80480000D01*
%TO.C,R49*%
X92295000Y-73053641D02*
X92295000Y-72746359D01*
X93055000Y-73053641D02*
X93055000Y-72746359D01*
%TO.C,R1*%
X112295000Y-51043641D02*
X112295000Y-50736359D01*
X113055000Y-51043641D02*
X113055000Y-50736359D01*
%TO.C,C102*%
X88317164Y-80850000D02*
X88532836Y-80850000D01*
X88317164Y-81570000D02*
X88532836Y-81570000D01*
%TO.C,R39*%
X115346359Y-48795000D02*
X115653641Y-48795000D01*
X115346359Y-49555000D02*
X115653641Y-49555000D01*
%TO.C,R27*%
X104193641Y-52870000D02*
X103886359Y-52870000D01*
X104193641Y-53630000D02*
X103886359Y-53630000D01*
%TO.C,C8*%
X111922836Y-53460000D02*
X111707164Y-53460000D01*
X111922836Y-54180000D02*
X111707164Y-54180000D01*
%TO.C,R29*%
X97895000Y-46286359D02*
X97895000Y-46593641D01*
X98655000Y-46286359D02*
X98655000Y-46593641D01*
%TO.C,C41*%
X99825000Y-87367836D02*
X99825000Y-87152164D01*
X100545000Y-87367836D02*
X100545000Y-87152164D01*
%TO.C,C59*%
X94902836Y-80990000D02*
X94687164Y-80990000D01*
X94902836Y-81710000D02*
X94687164Y-81710000D01*
%TO.C,C11*%
X116342164Y-53090000D02*
X116557836Y-53090000D01*
X116342164Y-53810000D02*
X116557836Y-53810000D01*
%TO.C,L4*%
X118685279Y-49280000D02*
X118359721Y-49280000D01*
X118685279Y-50300000D02*
X118359721Y-50300000D01*
%TO.C,C70*%
X117652836Y-78515000D02*
X117437164Y-78515000D01*
X117652836Y-79235000D02*
X117437164Y-79235000D01*
%TO.C,C110*%
X99765000Y-75427836D02*
X99765000Y-75212164D01*
X100485000Y-75427836D02*
X100485000Y-75212164D01*
%TO.C,C7*%
X113530580Y-61110000D02*
X113249420Y-61110000D01*
X113530580Y-62130000D02*
X113249420Y-62130000D01*
%TO.C,C67*%
X113505000Y-79207836D02*
X113505000Y-78992164D01*
X114225000Y-79207836D02*
X114225000Y-78992164D01*
%TO.C,C3*%
X110192164Y-51965000D02*
X110407836Y-51965000D01*
X110192164Y-52685000D02*
X110407836Y-52685000D01*
%TO.C,R40*%
X122445000Y-88806359D02*
X122445000Y-89113641D01*
X123205000Y-88806359D02*
X123205000Y-89113641D01*
%TO.C,C77*%
X112585000Y-79207836D02*
X112585000Y-78992164D01*
X113305000Y-79207836D02*
X113305000Y-78992164D01*
%TO.C,C43*%
X88217164Y-87240000D02*
X88432836Y-87240000D01*
X88217164Y-87960000D02*
X88432836Y-87960000D01*
%TO.C,C100*%
X96722836Y-69030000D02*
X96507164Y-69030000D01*
X96722836Y-69750000D02*
X96507164Y-69750000D01*
%TO.C,R25*%
X120981359Y-89470000D02*
X121288641Y-89470000D01*
X120981359Y-90230000D02*
X121288641Y-90230000D01*
%TO.C,C66*%
X121644420Y-79465000D02*
X121925580Y-79465000D01*
X121644420Y-80485000D02*
X121925580Y-80485000D01*
%TO.C,C81*%
X118255000Y-73477836D02*
X118255000Y-73262164D01*
X118975000Y-73477836D02*
X118975000Y-73262164D01*
%TO.C,C91*%
X108257164Y-56770000D02*
X108472836Y-56770000D01*
X108257164Y-57490000D02*
X108472836Y-57490000D01*
%TO.C,C104*%
X96732836Y-80990000D02*
X96517164Y-80990000D01*
X96732836Y-81710000D02*
X96517164Y-81710000D01*
%TO.C,R7*%
X100553641Y-50695000D02*
X100246359Y-50695000D01*
X100553641Y-51455000D02*
X100246359Y-51455000D01*
%TO.C,C93*%
X116815000Y-54972164D02*
X116815000Y-55187836D01*
X117535000Y-54972164D02*
X117535000Y-55187836D01*
%TO.C,R19*%
X121318641Y-87620000D02*
X121011359Y-87620000D01*
X121318641Y-88380000D02*
X121011359Y-88380000D01*
%TO.C,FB1*%
X122180279Y-75990000D02*
X121854721Y-75990000D01*
X122180279Y-77010000D02*
X121854721Y-77010000D01*
%TO.C,C101*%
X94805000Y-74507836D02*
X94805000Y-74292164D01*
X95525000Y-74507836D02*
X95525000Y-74292164D01*
%TO.C,C92*%
X113864190Y-55751693D02*
X114016693Y-55599190D01*
X114373307Y-56260810D02*
X114525810Y-56108307D01*
%TO.C,C69*%
X111140000Y-74962164D02*
X111140000Y-75177836D01*
X111860000Y-74962164D02*
X111860000Y-75177836D01*
%TO.C,C54*%
X105085000Y-74969420D02*
X105085000Y-75250580D01*
X106105000Y-74969420D02*
X106105000Y-75250580D01*
%TO.C,C57*%
X106997164Y-64040000D02*
X107212836Y-64040000D01*
X106997164Y-64760000D02*
X107212836Y-64760000D01*
%TO.C,C6*%
X113245000Y-51162164D02*
X113245000Y-51377836D01*
X113965000Y-51162164D02*
X113965000Y-51377836D01*
%TO.C,C108*%
X97137164Y-81910000D02*
X97352836Y-81910000D01*
X97137164Y-82630000D02*
X97352836Y-82630000D01*
%TO.C,X1*%
X104515000Y-65140000D02*
X104515000Y-68860000D01*
X104515000Y-68860000D02*
X104565000Y-68860000D01*
X104565000Y-64790000D02*
X104565000Y-65140000D01*
X104565000Y-65140000D02*
X104515000Y-65140000D01*
X106685000Y-65140000D02*
X106685000Y-64790000D01*
X106685000Y-68860000D02*
X107865000Y-68860000D01*
X107865000Y-65140000D02*
X106685000Y-65140000D01*
X109985000Y-68860000D02*
X110035000Y-68860000D01*
X110035000Y-65140000D02*
X109985000Y-65140000D01*
X110035000Y-68860000D02*
X110035000Y-65140000D01*
%TO.C,R21*%
X83602500Y-62662258D02*
X83602500Y-62187742D01*
X84647500Y-62662258D02*
X84647500Y-62187742D01*
%TO.C,R3*%
X106331359Y-58990000D02*
X106638641Y-58990000D01*
X106331359Y-59750000D02*
X106638641Y-59750000D01*
%TO.C,C42*%
X94825000Y-86447836D02*
X94825000Y-86232164D01*
X95545000Y-86447836D02*
X95545000Y-86232164D01*
%TO.C,C111*%
X94812836Y-75410000D02*
X94597164Y-75410000D01*
X94812836Y-76130000D02*
X94597164Y-76130000D01*
%TO.C,C97*%
X88197164Y-69040000D02*
X88412836Y-69040000D01*
X88197164Y-69760000D02*
X88412836Y-69760000D01*
%TO.C,R50*%
X93620000Y-85143641D02*
X93620000Y-84836359D01*
X94380000Y-85143641D02*
X94380000Y-84836359D01*
%TO.C,C38*%
X94862836Y-87710000D02*
X94647164Y-87710000D01*
X94862836Y-88430000D02*
X94647164Y-88430000D01*
%TO.C,C112*%
X98835000Y-82697836D02*
X98835000Y-82482164D01*
X99555000Y-82697836D02*
X99555000Y-82482164D01*
%TO.C,C16*%
X115102836Y-52165000D02*
X114887164Y-52165000D01*
X115102836Y-52885000D02*
X114887164Y-52885000D01*
%TO.C,C95*%
X120227836Y-52365000D02*
X120012164Y-52365000D01*
X120227836Y-53085000D02*
X120012164Y-53085000D01*
%TO.C,C15*%
X114887164Y-51240000D02*
X115102836Y-51240000D01*
X114887164Y-51960000D02*
X115102836Y-51960000D01*
%TO.C,C103*%
X93927164Y-81960000D02*
X94142836Y-81960000D01*
X93927164Y-82680000D02*
X94142836Y-82680000D01*
%TO.C,C10*%
X118252836Y-52160000D02*
X118037164Y-52160000D01*
X118252836Y-52880000D02*
X118037164Y-52880000D01*
%TO.C,R5*%
X106331359Y-61150000D02*
X106638641Y-61150000D01*
X106331359Y-61910000D02*
X106638641Y-61910000D01*
%TO.C,L1*%
X118685279Y-50755000D02*
X118359721Y-50755000D01*
X118685279Y-51775000D02*
X118359721Y-51775000D01*
%TO.C,C65*%
X109197164Y-75280000D02*
X109412836Y-75280000D01*
X109197164Y-76000000D02*
X109412836Y-76000000D01*
%TO.C,C5*%
X115690580Y-49900000D02*
X115409420Y-49900000D01*
X115690580Y-50920000D02*
X115409420Y-50920000D01*
%TO.C,C90*%
X108565000Y-53462836D02*
X108565000Y-53247164D01*
X109285000Y-53462836D02*
X109285000Y-53247164D01*
%TO.C,C17*%
X114332836Y-54010000D02*
X114117164Y-54010000D01*
X114332836Y-54730000D02*
X114117164Y-54730000D01*
%TO.C,R22*%
X90462742Y-72777500D02*
X90937258Y-72777500D01*
X90462742Y-73822500D02*
X90937258Y-73822500D01*
%TO.C,C72*%
X113337836Y-75065000D02*
X113122164Y-75065000D01*
X113337836Y-75785000D02*
X113122164Y-75785000D01*
%TO.C,C12*%
X109385000Y-57442164D02*
X109385000Y-57657836D01*
X110105000Y-57442164D02*
X110105000Y-57657836D01*
%TO.C,C23*%
X118407836Y-53240000D02*
X118192164Y-53240000D01*
X118407836Y-53960000D02*
X118192164Y-53960000D01*
%TO.C,C113*%
X98892836Y-69030000D02*
X98677164Y-69030000D01*
X98892836Y-69750000D02*
X98677164Y-69750000D01*
%TO.C,R24*%
X102952500Y-67512258D02*
X102952500Y-67037742D01*
X103997500Y-67512258D02*
X103997500Y-67037742D01*
%TO.C,C60*%
X90840000Y-87602836D02*
X90840000Y-87387164D01*
X91560000Y-87602836D02*
X91560000Y-87387164D01*
%TO.C,C50*%
X115512164Y-76440000D02*
X115727836Y-76440000D01*
X115512164Y-77160000D02*
X115727836Y-77160000D01*
%TO.C,C62*%
X94012836Y-83215000D02*
X93797164Y-83215000D01*
X94012836Y-83935000D02*
X93797164Y-83935000D01*
%TO.C,C39*%
X96497164Y-87700000D02*
X96712836Y-87700000D01*
X96497164Y-88420000D02*
X96712836Y-88420000D01*
%TO.C,C14*%
X119172836Y-56040000D02*
X118957164Y-56040000D01*
X119172836Y-56760000D02*
X118957164Y-56760000D01*
%TO.C,C25*%
X119162836Y-57580000D02*
X118947164Y-57580000D01*
X119162836Y-58300000D02*
X118947164Y-58300000D01*
%TO.C,C44*%
X90690000Y-75502836D02*
X90690000Y-75287164D01*
X91410000Y-75502836D02*
X91410000Y-75287164D01*
%TO.C,C75*%
X110205000Y-74377836D02*
X110205000Y-74162164D01*
X110925000Y-74377836D02*
X110925000Y-74162164D01*
%TO.C,R4*%
X106331359Y-60080000D02*
X106638641Y-60080000D01*
X106331359Y-60840000D02*
X106638641Y-60840000D01*
%TO.C,C99*%
X93192836Y-69970000D02*
X92977164Y-69970000D01*
X93192836Y-70690000D02*
X92977164Y-70690000D01*
%TO.C,C40*%
X98882836Y-87700000D02*
X98667164Y-87700000D01*
X98882836Y-88420000D02*
X98667164Y-88420000D01*
%TO.C,R48*%
X93320000Y-73053641D02*
X93320000Y-72746359D01*
X94080000Y-73053641D02*
X94080000Y-72746359D01*
%TO.C,R20*%
X86612258Y-62677500D02*
X86137742Y-62677500D01*
X86612258Y-63722500D02*
X86137742Y-63722500D01*
%TD*%
M02*
