%TF.GenerationSoftware,KiCad,Pcbnew,9.0.7*%
%TF.CreationDate,2026-03-07T14:05:10+04:00*%
%TF.ProjectId,fpga_board,66706761-5f62-46f6-9172-642e6b696361,rev?*%
%TF.SameCoordinates,Original*%
%TF.FileFunction,Paste,Top*%
%TF.FilePolarity,Positive*%
%FSLAX46Y46*%
G04 Gerber Fmt 4.6, Leading zero omitted, Abs format (unit mm)*
G04 Created by KiCad (PCBNEW 9.0.7) date 2026-03-07 14:05:10*
%MOMM*%
%LPD*%
G01*
G04 APERTURE LIST*
G04 Aperture macros list*
%AMRoundRect*
0 Rectangle with rounded corners*
0 $1 Rounding radius*
0 $2 $3 $4 $5 $6 $7 $8 $9 X,Y pos of 4 corners*
0 Add a 4 corners polygon primitive as box body*
4,1,4,$2,$3,$4,$5,$6,$7,$8,$9,$2,$3,0*
0 Add four circle primitives for the rounded corners*
1,1,$1+$1,$2,$3*
1,1,$1+$1,$4,$5*
1,1,$1+$1,$6,$7*
1,1,$1+$1,$8,$9*
0 Add four rect primitives between the rounded corners*
20,1,$1+$1,$2,$3,$4,$5,0*
20,1,$1+$1,$4,$5,$6,$7,0*
20,1,$1+$1,$6,$7,$8,$9,0*
20,1,$1+$1,$8,$9,$2,$3,0*%
G04 Aperture macros list end*
%ADD10RoundRect,0.200000X0.200000X0.275000X-0.200000X0.275000X-0.200000X-0.275000X0.200000X-0.275000X0*%
%ADD11RoundRect,0.250000X0.250000X0.475000X-0.250000X0.475000X-0.250000X-0.475000X0.250000X-0.475000X0*%
%ADD12RoundRect,0.250000X-0.250000X-0.475000X0.250000X-0.475000X0.250000X0.475000X-0.250000X0.475000X0*%
%ADD13R,0.600000X0.900000*%
%ADD14RoundRect,0.125000X-0.125000X0.487500X-0.125000X-0.487500X0.125000X-0.487500X0.125000X0.487500X0*%
%ADD15RoundRect,0.250000X0.325000X0.250000X-0.325000X0.250000X-0.325000X-0.250000X0.325000X-0.250000X0*%
%ADD16RoundRect,0.135000X-0.135000X-0.185000X0.135000X-0.185000X0.135000X0.185000X-0.135000X0.185000X0*%
%ADD17C,0.406400*%
%ADD18R,1.003300X2.997200*%
%ADD19RoundRect,0.100000X0.100000X-0.100000X0.100000X0.100000X-0.100000X0.100000X-0.100000X-0.100000X0*%
%ADD20RoundRect,0.140000X0.140000X0.170000X-0.140000X0.170000X-0.140000X-0.170000X0.140000X-0.170000X0*%
%ADD21RoundRect,0.135000X0.185000X-0.135000X0.185000X0.135000X-0.185000X0.135000X-0.185000X-0.135000X0*%
%ADD22RoundRect,0.140000X-0.140000X-0.170000X0.140000X-0.170000X0.140000X0.170000X-0.140000X0.170000X0*%
%ADD23RoundRect,0.087500X0.087500X-0.250000X0.087500X0.250000X-0.087500X0.250000X-0.087500X-0.250000X0*%
%ADD24RoundRect,0.250000X0.550000X-1.500000X0.550000X1.500000X-0.550000X1.500000X-0.550000X-1.500000X0*%
%ADD25C,0.400002*%
%ADD26RoundRect,0.140000X0.170000X-0.140000X0.170000X0.140000X-0.170000X0.140000X-0.170000X-0.140000X0*%
%ADD27RoundRect,0.087500X-0.087500X0.250000X-0.087500X-0.250000X0.087500X-0.250000X0.087500X0.250000X0*%
%ADD28R,0.300000X0.950000*%
%ADD29C,0.350000*%
%ADD30RoundRect,0.200000X-0.200000X-0.275000X0.200000X-0.275000X0.200000X0.275000X-0.200000X0.275000X0*%
%ADD31RoundRect,0.250000X1.500000X0.550000X-1.500000X0.550000X-1.500000X-0.550000X1.500000X-0.550000X0*%
G04 APERTURE END LIST*
D10*
%TO.C,R10*%
X126410000Y-65225000D03*
X128060000Y-65225000D03*
%TD*%
%TO.C,R9*%
X126410000Y-63725000D03*
X128060000Y-63725000D03*
%TD*%
D11*
%TO.C,C30*%
X125150000Y-62000000D03*
X127050000Y-62000000D03*
%TD*%
%TO.C,C64*%
X127050000Y-73775000D03*
X125150000Y-73775000D03*
%TD*%
%TO.C,C36*%
X127050000Y-84025000D03*
X125150000Y-84025000D03*
%TD*%
D12*
%TO.C,C32*%
X95525000Y-48425000D03*
X97425000Y-48425000D03*
%TD*%
D13*
%TO.C,SW1*%
X124915000Y-47600000D03*
X126075000Y-47600000D03*
X124915000Y-44600000D03*
X126075000Y-44600000D03*
%TD*%
D14*
%TO.C,Q4*%
X91925000Y-59325000D03*
X90625000Y-59325000D03*
X91275000Y-61200000D03*
%TD*%
D15*
%TO.C,Y1*%
X122475000Y-53300000D03*
X120725000Y-53300000D03*
X120725000Y-54700000D03*
X122475000Y-54700000D03*
%TD*%
D16*
%TO.C,R30*%
X123865000Y-43225000D03*
X124885000Y-43225000D03*
%TD*%
D10*
%TO.C,R52*%
X128025000Y-75525000D03*
X126375000Y-75525000D03*
%TD*%
D17*
%TO.C,U1*%
X108200000Y-70700000D03*
X109000000Y-70700000D03*
X109800000Y-70700000D03*
X110600000Y-70700000D03*
X111400000Y-70700000D03*
X112200000Y-70700000D03*
X113000000Y-70700000D03*
X113800000Y-70700000D03*
X114600000Y-70700000D03*
X115399999Y-70700000D03*
X116199999Y-70700000D03*
X116999999Y-70700000D03*
X117799999Y-70700000D03*
X118599999Y-70700000D03*
X119399999Y-70700000D03*
X120199999Y-70700000D03*
X108200000Y-71500000D03*
X109000000Y-71500000D03*
X109800000Y-71500000D03*
X110600000Y-71500000D03*
X111400000Y-71500000D03*
X112200000Y-71500000D03*
X113000000Y-71500000D03*
X113800000Y-71500000D03*
X114600000Y-71500000D03*
X115399999Y-71500000D03*
X116199999Y-71500000D03*
X116999999Y-71500000D03*
X117799999Y-71500000D03*
X118599999Y-71500000D03*
X119399999Y-71500000D03*
X120199999Y-71500000D03*
X108200000Y-72300000D03*
X109000000Y-72300000D03*
X109800000Y-72300000D03*
X110600000Y-72300000D03*
X111400000Y-72300000D03*
X112200000Y-72300000D03*
X113000000Y-72300000D03*
X113800000Y-72300000D03*
X114600000Y-72300000D03*
X115399999Y-72300000D03*
X116199999Y-72300000D03*
X116999999Y-72300000D03*
X117799999Y-72300000D03*
X118599999Y-72300000D03*
X119399999Y-72300000D03*
X120199999Y-72300000D03*
X108200000Y-73100000D03*
X109000000Y-73100000D03*
X109800000Y-73100000D03*
X110600000Y-73100000D03*
X111400000Y-73100000D03*
X112200000Y-73100000D03*
X113000000Y-73100000D03*
X113800000Y-73100000D03*
X114600000Y-73100000D03*
X115399999Y-73100000D03*
X116199999Y-73100000D03*
X116999999Y-73100000D03*
X117799999Y-73100000D03*
X118599999Y-73100000D03*
X119399999Y-73100000D03*
X120199999Y-73100000D03*
X108200000Y-73900000D03*
X109000000Y-73900000D03*
X109800000Y-73900000D03*
X110600000Y-73900000D03*
X111400000Y-73900000D03*
X112200000Y-73900000D03*
X113000000Y-73900000D03*
X113800000Y-73900000D03*
X114600000Y-73900000D03*
X115399999Y-73900000D03*
X116199999Y-73900000D03*
X116999999Y-73900000D03*
X117799999Y-73900000D03*
X118599999Y-73900000D03*
X119399999Y-73900000D03*
X120199999Y-73900000D03*
X108200000Y-74700000D03*
X109000000Y-74700000D03*
X109800000Y-74700000D03*
X110600000Y-74700000D03*
X111400000Y-74700000D03*
X112200000Y-74700000D03*
X113000000Y-74700000D03*
X113800000Y-74700000D03*
X114600000Y-74700000D03*
X115399999Y-74700000D03*
X116199999Y-74700000D03*
X116999999Y-74700000D03*
X117799999Y-74700000D03*
X118599999Y-74700000D03*
X119399999Y-74700000D03*
X120199999Y-74700000D03*
X108200000Y-75500000D03*
X109000000Y-75500000D03*
X109800000Y-75500000D03*
X110600000Y-75500000D03*
X111400000Y-75500000D03*
X112200000Y-75500000D03*
X113000000Y-75500000D03*
X113800000Y-75500000D03*
X114600000Y-75500000D03*
X115399999Y-75500000D03*
X116199999Y-75500000D03*
X116999999Y-75500000D03*
X117799999Y-75500000D03*
X118599999Y-75500000D03*
X119399999Y-75500000D03*
X120199999Y-75500000D03*
X108200000Y-76300000D03*
X109000000Y-76300000D03*
X109800000Y-76300000D03*
X110600000Y-76300000D03*
X111400000Y-76300000D03*
X112200000Y-76300000D03*
X113000000Y-76300000D03*
X113800000Y-76300000D03*
X114600000Y-76300000D03*
X115399999Y-76300000D03*
X116199999Y-76300000D03*
X116999999Y-76300000D03*
X117799999Y-76300000D03*
X118599999Y-76300000D03*
X119399999Y-76300000D03*
X120199999Y-76300000D03*
X108200000Y-77100000D03*
X109000000Y-77100000D03*
X109800000Y-77100000D03*
X110600000Y-77100000D03*
X111400000Y-77100000D03*
X112200000Y-77100000D03*
X113000000Y-77100000D03*
X113800000Y-77100000D03*
X114600000Y-77100000D03*
X115399999Y-77100000D03*
X116199999Y-77100000D03*
X116999999Y-77100000D03*
X117799999Y-77100000D03*
X118599999Y-77100000D03*
X119399999Y-77100000D03*
X120199999Y-77100000D03*
X108200000Y-77899999D03*
X109000000Y-77899999D03*
X109800000Y-77899999D03*
X110600000Y-77899999D03*
X111400000Y-77899999D03*
X112200000Y-77899999D03*
X113000000Y-77899999D03*
X113800000Y-77899999D03*
X114600000Y-77899999D03*
X115399999Y-77899999D03*
X116199999Y-77899999D03*
X116999999Y-77899999D03*
X117799999Y-77899999D03*
X118599999Y-77899999D03*
X119399999Y-77899999D03*
X120199999Y-77899999D03*
X108200000Y-78699999D03*
X109000000Y-78699999D03*
X109800000Y-78699999D03*
X110600000Y-78699999D03*
X111400000Y-78699999D03*
X112200000Y-78699999D03*
X113000000Y-78699999D03*
X113800000Y-78699999D03*
X114600000Y-78699999D03*
X115399999Y-78699999D03*
X116199999Y-78699999D03*
X116999999Y-78699999D03*
X117799999Y-78699999D03*
X118599999Y-78699999D03*
X119399999Y-78699999D03*
X120199999Y-78699999D03*
X108200000Y-79499999D03*
X109000000Y-79499999D03*
X109800000Y-79499999D03*
X110600000Y-79499999D03*
X111400000Y-79499999D03*
X112200000Y-79499999D03*
X113000000Y-79499999D03*
X113800000Y-79499999D03*
X114600000Y-79499999D03*
X115399999Y-79499999D03*
X116199999Y-79499999D03*
X116999999Y-79499999D03*
X117799999Y-79499999D03*
X118599999Y-79499999D03*
X119399999Y-79499999D03*
X120199999Y-79499999D03*
X108200000Y-80299999D03*
X109000000Y-80299999D03*
X109800000Y-80299999D03*
X110600000Y-80299999D03*
X111400000Y-80299999D03*
X112200000Y-80299999D03*
X113000000Y-80299999D03*
X113800000Y-80299999D03*
X114600000Y-80299999D03*
X115399999Y-80299999D03*
X116199999Y-80299999D03*
X116999999Y-80299999D03*
X117799999Y-80299999D03*
X118599999Y-80299999D03*
X119399999Y-80299999D03*
X120199999Y-80299999D03*
X108200000Y-81099999D03*
X109000000Y-81099999D03*
X109800000Y-81099999D03*
X110600000Y-81099999D03*
X111400000Y-81099999D03*
X112200000Y-81099999D03*
X113000000Y-81099999D03*
X113800000Y-81099999D03*
X114600000Y-81099999D03*
X115399999Y-81099999D03*
X116199999Y-81099999D03*
X116999999Y-81099999D03*
X117799999Y-81099999D03*
X118599999Y-81099999D03*
X119399999Y-81099999D03*
X120199999Y-81099999D03*
X108200000Y-81899999D03*
X109000000Y-81899999D03*
X109800000Y-81899999D03*
X110600000Y-81899999D03*
X111400000Y-81899999D03*
X112200000Y-81899999D03*
X113000000Y-81899999D03*
X113800000Y-81899999D03*
X114600000Y-81899999D03*
X115399999Y-81899999D03*
X116199999Y-81899999D03*
X116999999Y-81899999D03*
X117799999Y-81899999D03*
X118599999Y-81899999D03*
X119399999Y-81899999D03*
X120199999Y-81899999D03*
X108200000Y-82699999D03*
X109000000Y-82699999D03*
X109800000Y-82699999D03*
X110600000Y-82699999D03*
X111400000Y-82699999D03*
X112200000Y-82699999D03*
X113000000Y-82699999D03*
X113800000Y-82699999D03*
X114600000Y-82699999D03*
X115399999Y-82699999D03*
X116199999Y-82699999D03*
X116999999Y-82699999D03*
X117799999Y-82699999D03*
X118599999Y-82699999D03*
X119399999Y-82699999D03*
X120199999Y-82699999D03*
%TD*%
D18*
%TO.C,L5*%
X130603900Y-60890000D03*
X128610000Y-60890000D03*
%TD*%
D19*
%TO.C,D1*%
X91825000Y-54325000D03*
X91825000Y-53525000D03*
X92625000Y-53525000D03*
X92625000Y-54325000D03*
%TD*%
D20*
%TO.C,C29*%
X130270000Y-65990000D03*
X129310000Y-65990000D03*
%TD*%
D21*
%TO.C,R44*%
X92600000Y-57925000D03*
X92600000Y-56905000D03*
%TD*%
%TO.C,R36*%
X101275000Y-57910000D03*
X101275000Y-56890000D03*
%TD*%
%TO.C,R45*%
X96950000Y-57910000D03*
X96950000Y-56890000D03*
%TD*%
D22*
%TO.C,C28*%
X121115000Y-56000000D03*
X122075000Y-56000000D03*
%TD*%
D19*
%TO.C,D2*%
X94425000Y-54325000D03*
X94425000Y-53525000D03*
X95225000Y-53525000D03*
X95225000Y-54325000D03*
%TD*%
D10*
%TO.C,R15*%
X128010000Y-85750000D03*
X126360000Y-85750000D03*
%TD*%
D21*
%TO.C,R41*%
X91550000Y-57925000D03*
X91550000Y-56905000D03*
%TD*%
D18*
%TO.C,L9*%
X130606950Y-72537434D03*
X128613050Y-72537434D03*
%TD*%
D23*
%TO.C,U10*%
X129252500Y-86692500D03*
X129752500Y-86692500D03*
X130252500Y-86692500D03*
X130252500Y-85267500D03*
X129752500Y-85267500D03*
X129252500Y-85267500D03*
%TD*%
D14*
%TO.C,Q2*%
X104150000Y-59325000D03*
X102850000Y-59325000D03*
X103500000Y-61200000D03*
%TD*%
%TO.C,Q1*%
X106725000Y-59325000D03*
X105425000Y-59325000D03*
X106075000Y-61200000D03*
%TD*%
%TO.C,Q3*%
X101575000Y-59325000D03*
X100275000Y-59325000D03*
X100925000Y-61200000D03*
%TD*%
D20*
%TO.C,C56*%
X118745000Y-49830000D03*
X117785000Y-49830000D03*
%TD*%
D10*
%TO.C,R53*%
X126375000Y-77000000D03*
X128025000Y-77000000D03*
%TD*%
D24*
%TO.C,C114*%
X127845000Y-55390000D03*
X127845000Y-49790000D03*
%TD*%
D14*
%TO.C,Q5*%
X97075000Y-59325000D03*
X95775000Y-59325000D03*
X96425000Y-61200000D03*
%TD*%
D25*
%TO.C,U2*%
X109825000Y-52350000D03*
X110625000Y-52350000D03*
X111425000Y-52350000D03*
X112225000Y-52350000D03*
X113025000Y-52350000D03*
X113825000Y-52350000D03*
X114625000Y-52350000D03*
X115425000Y-52350000D03*
X116225000Y-52350000D03*
X117025000Y-52350000D03*
X117825000Y-52350000D03*
X109825000Y-53150000D03*
X110625000Y-53150000D03*
X111425000Y-53150000D03*
X112225000Y-53150000D03*
X113025000Y-53150000D03*
X113825000Y-53150000D03*
X114625000Y-53150000D03*
X115425000Y-53150000D03*
X116225000Y-53150000D03*
X117025000Y-53150000D03*
X117825000Y-53150000D03*
X109825000Y-53950000D03*
X110625000Y-53950000D03*
X111425000Y-53950000D03*
X112225000Y-53950000D03*
X113025000Y-53950000D03*
X113825000Y-53950000D03*
X114625000Y-53950000D03*
X115425000Y-53950000D03*
X116225000Y-53950000D03*
X117025000Y-53950000D03*
X117825000Y-53950000D03*
X109825000Y-54750000D03*
X110625000Y-54750000D03*
X111425000Y-54750000D03*
X112225000Y-54750000D03*
X113025000Y-54750000D03*
X113825000Y-54750000D03*
X114625000Y-54750000D03*
X115425000Y-54750000D03*
X116225000Y-54750000D03*
X117025000Y-54750000D03*
X117825000Y-54750000D03*
X109825000Y-55550000D03*
X110625000Y-55550000D03*
X111425000Y-55550000D03*
X112225000Y-55550000D03*
X113025000Y-55550000D03*
X113825000Y-55550000D03*
X114625000Y-55550000D03*
X115425000Y-55550000D03*
X116225000Y-55550000D03*
X117025000Y-55550000D03*
X117825000Y-55550000D03*
X109825000Y-56350000D03*
X110625000Y-56350000D03*
X111425000Y-56350000D03*
X112225000Y-56350000D03*
X113025000Y-56350000D03*
X113825000Y-56350000D03*
X114625000Y-56350000D03*
X115425000Y-56350000D03*
X116225000Y-56350000D03*
X117025000Y-56350000D03*
X117825000Y-56350000D03*
X109825000Y-57150000D03*
X110625000Y-57150000D03*
X111425000Y-57150000D03*
X112225000Y-57150000D03*
X113025000Y-57150000D03*
X113825000Y-57150000D03*
X114625000Y-57150000D03*
X115425000Y-57150000D03*
X116225000Y-57150000D03*
X117025000Y-57150000D03*
X117825000Y-57150000D03*
X109825000Y-57950000D03*
X110625000Y-57950000D03*
X111425000Y-57950000D03*
X112225000Y-57950000D03*
X113025000Y-57950000D03*
X113825000Y-57950000D03*
X114625000Y-57950000D03*
X115425000Y-57950000D03*
X116225000Y-57950000D03*
X117025000Y-57950000D03*
X117825000Y-57950000D03*
X109825000Y-58750000D03*
X110625000Y-58750000D03*
X111425000Y-58750000D03*
X112225000Y-58750000D03*
X113025000Y-58750000D03*
X113825000Y-58750000D03*
X114625000Y-58750000D03*
X115425000Y-58750000D03*
X116225000Y-58750000D03*
X117025000Y-58750000D03*
X117825000Y-58750000D03*
X109825000Y-59550000D03*
X110625000Y-59550000D03*
X111425000Y-59550000D03*
X112225000Y-59550000D03*
X113025000Y-59550000D03*
X113825000Y-59550000D03*
X114625000Y-59550000D03*
X115425000Y-59550000D03*
X116225000Y-59550000D03*
X117025000Y-59550000D03*
X117825000Y-59550000D03*
X109825000Y-60350000D03*
X110625000Y-60350000D03*
X111425000Y-60350000D03*
X112225000Y-60350000D03*
X113025000Y-60350000D03*
X113825000Y-60350000D03*
X114625000Y-60350000D03*
X115425000Y-60350000D03*
X116225000Y-60350000D03*
X117025000Y-60350000D03*
X117825000Y-60350000D03*
%TD*%
D24*
%TO.C,C88*%
X87355000Y-49800000D03*
X87355000Y-44200000D03*
%TD*%
D20*
%TO.C,C27*%
X122075000Y-52000000D03*
X121115000Y-52000000D03*
%TD*%
D21*
%TO.C,R42*%
X95850000Y-57910000D03*
X95850000Y-56890000D03*
%TD*%
D26*
%TO.C,C2*%
X115005000Y-49920000D03*
X115005000Y-48960000D03*
%TD*%
D21*
%TO.C,R35*%
X100175000Y-57900000D03*
X100175000Y-56880000D03*
%TD*%
%TO.C,R43*%
X93675000Y-57910000D03*
X93675000Y-56890000D03*
%TD*%
D27*
%TO.C,U8*%
X93275000Y-45687500D03*
X92775000Y-45687500D03*
X92275000Y-45687500D03*
X92275000Y-47112500D03*
X92775000Y-47112500D03*
X93275000Y-47112500D03*
%TD*%
D21*
%TO.C,R46*%
X94750000Y-57910000D03*
X94750000Y-56890000D03*
%TD*%
D26*
%TO.C,C1*%
X115975000Y-49920000D03*
X115975000Y-48960000D03*
%TD*%
D23*
%TO.C,U7*%
X129310000Y-64852500D03*
X129810000Y-64852500D03*
X130310000Y-64852500D03*
X130310000Y-63427500D03*
X129810000Y-63427500D03*
X129310000Y-63427500D03*
%TD*%
D28*
%TO.C,USB1*%
X116245000Y-48092500D03*
X115745000Y-48092500D03*
X115245000Y-48092500D03*
X114745000Y-48092500D03*
X114255000Y-48092500D03*
X113745000Y-48092500D03*
X113255000Y-48092500D03*
X112745000Y-48092500D03*
X112255000Y-48092500D03*
X111745000Y-48092500D03*
X111255000Y-48092500D03*
X110745000Y-48092500D03*
X110995000Y-46692500D03*
X111505000Y-46692500D03*
X111995000Y-46692500D03*
X112505000Y-46692500D03*
X112995000Y-46692500D03*
X113505000Y-46692500D03*
X114005000Y-46692500D03*
X114505000Y-46692500D03*
X114995000Y-46692500D03*
X115505000Y-46692500D03*
X115995000Y-46692500D03*
X116505000Y-46692500D03*
%TD*%
D14*
%TO.C,Q6*%
X94500000Y-59325000D03*
X93200000Y-59325000D03*
X93850000Y-61200000D03*
%TD*%
D22*
%TO.C,C31*%
X92275000Y-44550000D03*
X93235000Y-44550000D03*
%TD*%
D29*
%TO.C,U5*%
X100000000Y-81350000D03*
X100000000Y-82150000D03*
X100000000Y-82950000D03*
X100000000Y-86150000D03*
X100000000Y-86950000D03*
X100000000Y-87750000D03*
X99200000Y-81350000D03*
X99200000Y-82150000D03*
X99200000Y-82950000D03*
X99200000Y-86150000D03*
X99200000Y-86950000D03*
X99200000Y-87750000D03*
X98400000Y-81350000D03*
X98400000Y-82150000D03*
X98400000Y-82950000D03*
X98400000Y-86150000D03*
X98400000Y-86950000D03*
X98400000Y-87750000D03*
X97600000Y-81350000D03*
X97600000Y-82150000D03*
X97600000Y-82950000D03*
X97600000Y-86150000D03*
X97600000Y-86950000D03*
X97600000Y-87750000D03*
X96800000Y-81350000D03*
X96800000Y-82150000D03*
X96800000Y-82950000D03*
X96800000Y-86150000D03*
X96800000Y-86950000D03*
X96800000Y-87750000D03*
X96000000Y-81350000D03*
X96000000Y-82150000D03*
X96000000Y-82950000D03*
X96000000Y-86150000D03*
X96000000Y-86950000D03*
X96000000Y-87750000D03*
X95200000Y-81350000D03*
X95200000Y-82150000D03*
X95200000Y-82950000D03*
X95200000Y-86150000D03*
X95200000Y-86950000D03*
X95200000Y-87750000D03*
X94400000Y-81350000D03*
X94400000Y-82150000D03*
X94400000Y-82950000D03*
X94400000Y-86150000D03*
X94400000Y-86950000D03*
X94400000Y-87750000D03*
X93600000Y-81350000D03*
X93600000Y-82150000D03*
X93600000Y-82950000D03*
X93600000Y-86150000D03*
X93600000Y-86950000D03*
X93600000Y-87750000D03*
X92800000Y-81350000D03*
X92800000Y-82150000D03*
X92800000Y-82950000D03*
X92800000Y-86150000D03*
X92800000Y-86950000D03*
X92800000Y-87750000D03*
X92000000Y-81350000D03*
X92000000Y-82150000D03*
X92000000Y-82950000D03*
X92000000Y-86150000D03*
X92000000Y-86950000D03*
X92000000Y-87750000D03*
X91200000Y-81350000D03*
X91200000Y-82150000D03*
X91200000Y-82950000D03*
X91200000Y-86150000D03*
X91200000Y-86950000D03*
X91200000Y-87750000D03*
X90400000Y-81350000D03*
X90400000Y-82150000D03*
X90400000Y-82950000D03*
X90400000Y-86150000D03*
X90400000Y-86950000D03*
X90400000Y-87750000D03*
X89600000Y-81350000D03*
X89600000Y-82150000D03*
X89600000Y-82950000D03*
X89600000Y-86150000D03*
X89600000Y-86950000D03*
X89600000Y-87750000D03*
X88800000Y-81350000D03*
X88800000Y-82150000D03*
X88800000Y-82950000D03*
X88800000Y-86150000D03*
X88800000Y-86950000D03*
X88800000Y-87750000D03*
X88000000Y-81350000D03*
X88000000Y-82150000D03*
X88000000Y-82950000D03*
X88000000Y-86150000D03*
X88000000Y-86950000D03*
X88000000Y-87750000D03*
%TD*%
D18*
%TO.C,L6*%
X91981100Y-49650000D03*
X93975000Y-49650000D03*
%TD*%
D21*
%TO.C,R34*%
X104600000Y-57910000D03*
X104600000Y-56890000D03*
%TD*%
D18*
%TO.C,L8*%
X130599450Y-82733050D03*
X128605550Y-82733050D03*
%TD*%
D29*
%TO.C,U6*%
X100000000Y-69400000D03*
X100000000Y-70200000D03*
X100000000Y-71000000D03*
X100000000Y-74200000D03*
X100000000Y-75000000D03*
X100000000Y-75800000D03*
X99200000Y-69400000D03*
X99200000Y-70200000D03*
X99200000Y-71000000D03*
X99200000Y-74200000D03*
X99200000Y-75000000D03*
X99200000Y-75800000D03*
X98400000Y-69400000D03*
X98400000Y-70200000D03*
X98400000Y-71000000D03*
X98400000Y-74200000D03*
X98400000Y-75000000D03*
X98400000Y-75800000D03*
X97600000Y-69400000D03*
X97600000Y-70200000D03*
X97600000Y-71000000D03*
X97600000Y-74200000D03*
X97600000Y-75000000D03*
X97600000Y-75800000D03*
X96800000Y-69400000D03*
X96800000Y-70200000D03*
X96800000Y-71000000D03*
X96800000Y-74200000D03*
X96800000Y-75000000D03*
X96800000Y-75800000D03*
X96000000Y-69400000D03*
X96000000Y-70200000D03*
X96000000Y-71000000D03*
X96000000Y-74200000D03*
X96000000Y-75000000D03*
X96000000Y-75800000D03*
X95200000Y-69400000D03*
X95200000Y-70200000D03*
X95200000Y-71000000D03*
X95200000Y-74200000D03*
X95200000Y-75000000D03*
X95200000Y-75800000D03*
X94400000Y-69400000D03*
X94400000Y-70200000D03*
X94400000Y-71000000D03*
X94400000Y-74200000D03*
X94400000Y-75000000D03*
X94400000Y-75800000D03*
X93600000Y-69400000D03*
X93600000Y-70200000D03*
X93600000Y-71000000D03*
X93600000Y-74200000D03*
X93600000Y-75000000D03*
X93600000Y-75800000D03*
X92800000Y-69400000D03*
X92800000Y-70200000D03*
X92800000Y-71000000D03*
X92800000Y-74200000D03*
X92800000Y-75000000D03*
X92800000Y-75800000D03*
X92000000Y-69400000D03*
X92000000Y-70200000D03*
X92000000Y-71000000D03*
X92000000Y-74200000D03*
X92000000Y-75000000D03*
X92000000Y-75800000D03*
X91200000Y-69400000D03*
X91200000Y-70200000D03*
X91200000Y-71000000D03*
X91200000Y-74200000D03*
X91200000Y-75000000D03*
X91200000Y-75800000D03*
X90400000Y-69400000D03*
X90400000Y-70200000D03*
X90400000Y-71000000D03*
X90400000Y-74200000D03*
X90400000Y-75000000D03*
X90400000Y-75800000D03*
X89600000Y-69400000D03*
X89600000Y-70200000D03*
X89600000Y-71000000D03*
X89600000Y-74200000D03*
X89600000Y-75000000D03*
X89600000Y-75800000D03*
X88800000Y-69400000D03*
X88800000Y-70200000D03*
X88800000Y-71000000D03*
X88800000Y-74200000D03*
X88800000Y-75000000D03*
X88800000Y-75800000D03*
X88000000Y-69400000D03*
X88000000Y-70200000D03*
X88000000Y-71000000D03*
X88000000Y-74200000D03*
X88000000Y-75000000D03*
X88000000Y-75800000D03*
%TD*%
D20*
%TO.C,C63*%
X130185000Y-77687434D03*
X129225000Y-77687434D03*
%TD*%
D21*
%TO.C,R32*%
X105725000Y-57910000D03*
X105725000Y-56890000D03*
%TD*%
%TO.C,R33*%
X102375000Y-57910000D03*
X102375000Y-56890000D03*
%TD*%
D30*
%TO.C,R12*%
X94550000Y-45200000D03*
X96200000Y-45200000D03*
%TD*%
D10*
%TO.C,R16*%
X128010000Y-87220000D03*
X126360000Y-87220000D03*
%TD*%
D23*
%TO.C,U3*%
X129235000Y-76537434D03*
X129735000Y-76537434D03*
X130235000Y-76537434D03*
X130235000Y-75112434D03*
X129735000Y-75112434D03*
X129235000Y-75112434D03*
%TD*%
D30*
%TO.C,R38*%
X119375000Y-47550000D03*
X121025000Y-47550000D03*
%TD*%
D21*
%TO.C,R31*%
X103475000Y-57910000D03*
X103475000Y-56890000D03*
%TD*%
D31*
%TO.C,C87*%
X104525000Y-52625000D03*
X98925000Y-52625000D03*
%TD*%
D20*
%TO.C,C35*%
X130282500Y-87830000D03*
X129322500Y-87830000D03*
%TD*%
D30*
%TO.C,R11*%
X94550000Y-46700000D03*
X96200000Y-46700000D03*
%TD*%
D20*
%TO.C,C61*%
X120135000Y-46275000D03*
X119175000Y-46275000D03*
%TD*%
D27*
%TO.C,U9*%
X85900000Y-53699668D03*
X85400000Y-53699668D03*
X84900000Y-53699668D03*
X84900000Y-55124668D03*
X85400000Y-55124668D03*
X85900000Y-55124668D03*
%TD*%
D18*
%TO.C,L7*%
X84600000Y-57662168D03*
X86593900Y-57662168D03*
%TD*%
D30*
%TO.C,R14*%
X87175000Y-53125000D03*
X88825000Y-53125000D03*
%TD*%
%TO.C,R13*%
X87175000Y-54625000D03*
X88825000Y-54625000D03*
%TD*%
D22*
%TO.C,C33*%
X84940000Y-52562168D03*
X85900000Y-52562168D03*
%TD*%
D12*
%TO.C,C34*%
X88150000Y-56350000D03*
X90050000Y-56350000D03*
%TD*%
M02*
